<svg width="24" height="24" viewBox="0 0 24 24" fill="none" xmlns="http://www.w3.org/2000/svg">
<path d="M17.6566 8.76388C17.3081 8.4136 16.933 8.09966 16.536 7.8239L16.9914 5.81643C17.2028 4.88477 16.9839 3.922 16.391 3.17503C15.7982 2.42828 14.9132 2 13.9627 2H10.0373C9.0869 2 8.20183 2.42828 7.60903 3.17503C7.01609 3.922 6.79725 4.88477 7.0086 5.81643L7.46408 7.8239C7.06703 8.09969 6.69196 8.4136 6.34336 8.76391C4.8322 10.2824 4 12.3015 4 14.4491C4 15.7308 4.30761 17.006 4.88953 18.137C5.45247 19.231 6.27295 20.1961 7.26231 20.9279C7.32557 20.9748 7.40207 21 7.48059 21H16.5194C16.5979 21 16.6744 20.9748 16.7377 20.9279C17.7271 20.1961 18.5476 19.231 19.1105 18.137C19.6924 17.006 20 15.7307 20 14.4491C20 12.3014 19.1678 10.2824 17.6566 8.76388ZM7.72744 5.65115C7.56638 4.94125 7.73319 4.2076 8.18506 3.6383C8.63714 3.06882 9.31226 2.74219 10.0373 2.74219H13.9627C14.6878 2.74219 15.3629 3.06882 15.815 3.6383C16.2669 4.20756 16.4337 4.94121 16.2726 5.65115L15.8735 7.41035C15.5094 7.20729 15.1306 7.03377 14.7401 6.89104L15.0831 5.37921C15.1902 4.90703 14.9899 4.56399 14.8609 4.40153C14.7321 4.23918 14.444 3.96687 13.9628 3.96687H10.0373C9.55609 3.96687 9.26806 4.23921 9.13917 4.40153C9.01022 4.56399 8.80985 4.90707 8.91699 5.37921L9.25998 6.89104C8.86947 7.03377 8.49067 7.20729 8.12659 7.41035L7.72744 5.65115ZM9.96614 6.66998L9.63579 5.21393C9.59948 5.05384 9.65891 4.93568 9.7152 4.8648C9.7716 4.79374 9.87328 4.70902 10.0373 4.70902H13.9627C14.1268 4.70902 14.2284 4.79374 14.2848 4.8648C14.3411 4.93568 14.4006 5.0538 14.3642 5.21393L14.0339 6.66998C13.378 6.49798 12.6957 6.40929 12 6.40929C11.3043 6.40929 10.622 6.49798 9.96614 6.66998ZM16.3969 20.2578H7.60317C5.80641 18.8818 4.73731 16.7196 4.73731 14.449C4.73731 10.4251 7.99535 7.15148 12 7.15148C16.0047 7.15148 19.2627 10.4251 19.2627 14.449C19.2627 16.7196 18.1936 18.8818 16.3969 20.2578Z" fill="currentColor"/>
<path d="M11.9696 12.6463C11.8282 12.6463 11.7032 12.6513 11.5895 12.661L11.7503 11.8593H13.1644C13.4516 11.8593 13.6846 11.667 13.6846 11.4297C13.6846 11.1924 13.4516 11 13.1644 11H11.3092C11.0547 11 10.8376 11.1521 10.796 11.3594L10.4285 13.1914C10.3964 13.3511 10.4768 13.5118 10.6349 13.6076C10.7929 13.7033 11.0037 13.7173 11.1787 13.6441C11.1829 13.6424 11.197 13.6367 11.2193 13.6283C11.4188 13.5542 11.5788 13.5056 11.9696 13.5056C12.2435 13.5056 12.4984 13.5961 12.6874 13.7605C12.8762 13.9247 12.9723 14.1402 12.9581 14.3672C12.9313 14.7922 12.5062 15.1319 11.9902 15.1405C11.5456 15.1483 11.1449 14.9068 11.0196 14.5541C10.9386 14.3264 10.6496 14.1961 10.3738 14.2629C10.0982 14.3297 9.94026 14.5685 10.0212 14.7962C10.2747 15.5092 11.0724 16 11.9702 16C11.9838 16 11.9975 15.9999 12.0112 15.9997C13.07 15.982 13.9423 15.2845 13.9972 14.4117C14.0264 13.9471 13.8292 13.5057 13.442 13.1688C13.0602 12.8367 12.5235 12.6463 11.9696 12.6463Z" fill="currentColor"/>
</svg>
