<svg width="22" height="22" viewBox="0 0 22 22" fill="none" xmlns="http://www.w3.org/2000/svg">
<path d="M7.3348 10.2023L7.33472 10.2023L7.097 10.2616L7.01651 10.2817L7.02136 10.3645L7.45638 17.7885C7.44708 17.7966 7.43319 17.807 7.4141 17.8192C7.36968 17.8474 7.30653 17.8791 7.23225 17.9088C7.08226 17.9688 6.90288 18.0148 6.76258 18.0148C6.62211 18.0148 6.44263 17.9688 6.29199 17.9102C6.21749 17.8812 6.15373 17.8506 6.10864 17.8237C6.09164 17.8136 6.07857 17.8048 6.06911 17.7976L6.50423 10.3645L6.50908 10.2816L6.42851 10.2616L6.19059 10.2025C5.3455 9.99244 4.77448 9.33783 4.77448 8.62906V4.56641V4.46641H4.67448H4.03027H3.93027V4.56641V8.62888C3.93027 9.57829 4.62558 10.4252 5.63384 10.7918L5.22337 17.8129L5.2232 17.8129V17.8188C5.2232 17.9778 5.29733 18.1149 5.40448 18.227C5.5111 18.3385 5.65509 18.4305 5.80992 18.5036C6.11882 18.6494 6.49318 18.7301 6.76258 18.7301C7.032 18.7301 7.40661 18.6494 7.71577 18.5019C7.87076 18.428 8.01485 18.3347 8.12146 18.2213C8.22868 18.1072 8.3021 17.968 8.30196 17.8067L8.30213 17.8067L8.30179 17.8009L7.89133 10.792C8.89981 10.4255 9.59489 9.57844 9.59489 8.62906V4.56641V4.46641H9.49489H8.85068H8.75068V4.56641V8.62906C8.75068 9.33784 8.17966 9.99244 7.3348 10.2023Z" fill="currentColor" stroke="currentColor" stroke-width="0.2"/>
<path d="M7.12732 4.56641V4.41641H6.97732H6.54785H6.39785V4.56641V9.08172V9.23172H6.54785H6.97732H7.12732V9.08172V4.56641Z" fill="currentColor" stroke="currentColor" stroke-width="0.3"/>
<path d="M13.0047 13.1414L13.0027 13.1933H13.0547H15.0831V17.8172C15.0831 18.3032 15.5726 18.6806 16.1497 18.6806C16.7268 18.6806 17.2165 18.3032 17.2165 17.8172V4.19531V4.14531H17.1665H16.8444C15.9856 4.14531 15.3201 4.64664 14.8065 5.39877C14.2933 6.1504 13.9269 7.15894 13.6651 8.19095C13.1413 10.2557 13.0324 12.4305 13.015 12.8756L13.065 12.8776L13.015 12.8756L13.0047 13.1414ZM15.8273 12.6279V12.5779H15.7773H13.774C13.8552 11.0926 14.1102 9.27297 14.5621 7.76123C14.7908 6.99628 15.0692 6.3125 15.3994 5.79118C15.7139 5.29483 16.0715 4.95179 16.4725 4.82037L16.4723 17.8172C16.4723 17.9441 16.3384 18.0652 16.1497 18.0652C15.961 18.0652 15.8273 17.9442 15.8273 17.8172V12.6279Z" fill="currentColor" stroke="currentColor" stroke-width="0.1"/>
</svg>
