<svg width="16" height="16" viewBox="0 0 16 16" fill="none" xmlns="http://www.w3.org/2000/svg">
<path fill-rule="evenodd" clip-rule="evenodd" d="M9.66634 0.582031C9.25213 0.582031 8.91634 0.917818 8.91634 1.33203C8.91634 1.74624 9.25213 2.08203 9.66634 2.08203H12.9971L8.79006 6.28908C8.53621 6.54292 8.53621 6.95448 8.79006 7.20832C9.0439 7.46216 9.45545 7.46216 9.70929 7.20832L13.9163 3.00127V6.33203C13.9163 6.74624 14.2521 7.08203 14.6663 7.08203C15.0806 7.08203 15.4163 6.74624 15.4163 6.33203V1.33203C15.4163 0.917818 15.0806 0.582031 14.6663 0.582031H9.66634ZM1.33301 8.91536C1.74722 8.91536 2.08301 9.25115 2.08301 9.66536V12.9961L6.29005 8.78908C6.5439 8.53524 6.95545 8.53524 7.20929 8.78908C7.46313 9.04292 7.46313 9.45448 7.20929 9.70832L3.00225 13.9154H6.33301C6.74722 13.9154 7.08301 14.2512 7.08301 14.6654C7.08301 15.0796 6.74722 15.4154 6.33301 15.4154H1.33301C0.918794 15.4154 0.583008 15.0796 0.583008 14.6654V9.66536C0.583008 9.25115 0.918794 8.91536 1.33301 8.91536Z" fill="currentColor" />
</svg>
