<svg width="56" height="54" viewBox="0 0 56 54" fill="none" xmlns="http://www.w3.org/2000/svg">
<path d="M51.2564 31.8958L42.6026 15.2248L40.8651 10.4916C39.3348 6.32307 36.8209 1.44966 30.9129 0.754629C30.8394 0.746078 30.7648 0.749392 30.6926 0.764425C30.3602 0.834737 22.5341 2.5107 20.5504 5.2932C20.5296 5.32266 20.5116 5.3537 20.4964 5.38599C20.1855 6.05798 17.5193 12.031 19.6438 14.7507L20.1703 15.425C21.0252 16.4945 22.1405 17.361 23.425 17.9536C24.7095 18.5462 26.1267 18.848 27.5609 18.8345C27.9326 18.8345 28.304 18.8147 28.6732 18.7752C29.0833 18.7269 29.4781 18.6001 29.8327 18.4029C30.1873 18.2057 30.494 17.9423 30.7335 17.6295L31.4542 16.7037C32.1806 19.8945 34.0144 27.6862 35.9526 33.8664C34.5295 33.7799 31.8243 33.7965 29.78 34.9054C27.4706 33.4657 14.6368 26.2853 1.26679 35.133C1.19882 35.178 1.14105 35.235 1.09679 35.3006C1.05252 35.3663 1.02262 35.4395 1.00879 35.5159C0.994958 35.5923 0.997472 35.6705 1.01618 35.746C1.0349 35.8216 1.06944 35.8929 1.11785 35.956C1.16626 36.0192 1.22758 36.0728 1.29831 36.1139C1.36904 36.155 1.4478 36.1828 1.53009 36.1957C1.61237 36.2085 1.69658 36.2062 1.7779 36.1888C1.85921 36.1714 1.93605 36.1393 2.00401 36.0944C15.9266 26.8812 28.8373 35.7048 29.3803 36.0846C29.4867 36.1596 29.6159 36.2015 29.7494 36.2042C29.883 36.2069 30.014 36.1703 30.1238 36.0996C32.1065 34.8312 35.2554 34.9835 36.3412 35.0811C37.3492 38.1539 38.3666 40.6807 39.2534 41.7948C39.3538 41.9203 39.5037 42.0037 39.6702 42.0267C39.8367 42.0496 40.0062 42.0103 40.1416 41.9174C40.2769 41.8244 40.367 41.6854 40.3921 41.5308C40.4173 41.3762 40.3753 41.2187 40.2755 41.0928C39.4316 40.0328 38.4351 37.4947 37.4392 34.3987L37.4353 34.3865C34.9205 26.5651 32.4113 15.1878 32.3764 15.0285C32.3745 15.0199 32.3681 15.0136 32.3658 15.0052C32.2427 14.3578 31.5064 13.6944 30.0487 12.9278C29.9761 12.8896 29.8961 12.8651 29.8133 12.8556C29.7304 12.8461 29.6464 12.8519 29.566 12.8726C29.4856 12.8933 29.4104 12.9284 29.3446 12.9761C29.2788 13.0238 29.2238 13.0831 29.1827 13.1505C29.1416 13.2179 29.1152 13.2922 29.105 13.3692C29.0948 13.4461 29.101 13.5241 29.1233 13.5988C29.1455 13.6735 29.1834 13.7433 29.2348 13.8044C29.2861 13.8655 29.3499 13.9166 29.4225 13.9548C30.0743 14.2246 30.647 14.6354 31.0928 15.153L29.7033 16.9378C29.5674 17.1181 29.3926 17.2703 29.1902 17.3848C28.9877 17.4993 28.762 17.5735 28.5271 17.6029C27.1414 17.7689 25.7331 17.5907 24.4458 17.0864C23.1585 16.5821 22.0382 15.7698 21.1992 14.7323L20.6726 14.058C19.2438 12.2287 20.8659 7.60196 21.641 5.90238C23.0814 3.97229 28.6702 2.41445 30.8635 1.93899C35.9648 2.596 38.1743 6.81931 39.6624 10.872L41.4134 15.6417C41.4176 15.6532 41.4274 15.6609 41.4324 15.672C41.4375 15.6838 41.4362 15.6963 41.4422 15.708L50.1114 32.4088C52.1312 36.1996 53.3452 40.3165 53.6868 44.5341C53.8677 47.078 53.4569 48.9349 52.4997 49.9049C52.2336 50.1702 51.9099 50.3801 51.55 50.5205C51.19 50.6609 50.8021 50.7286 50.4118 50.7192C44.3647 50.85 32.1316 48.66 32.0088 48.6381C31.8679 48.6121 31.7216 48.6318 31.5945 48.694C31.4382 48.7701 15.805 56.1724 1.95069 48.8219C1.8044 48.7447 1.63108 48.7245 1.46877 48.7658C1.30646 48.807 1.1684 48.9064 1.08491 49.0421C1.00141 49.1778 0.979296 49.3388 1.02341 49.4896C1.06752 49.6404 1.17426 49.7688 1.32021 49.8467C5.69528 52.1303 10.6408 53.3035 15.6592 53.2481C21.2969 53.188 26.8577 52.0246 31.9787 49.834C33.6886 50.1348 44.6285 52.0171 50.4385 51.8995C51.0005 51.906 51.5578 51.8028 52.0742 51.5966C52.5907 51.3904 53.0547 51.0858 53.4364 50.7025C54.6511 49.472 55.1622 47.3708 54.9552 44.4569C54.603 40.088 53.3472 35.8231 51.2564 31.8958V31.8958Z" fill="currentColor" />
</svg>
