<svg width="18" height="18" viewBox="0 0 18 18" fill="none" xmlns="http://www.w3.org/2000/svg">
<path d="M11.8748 2.1496C11.8415 2.35793 11.8248 2.56627 11.8248 2.7746C11.8248 4.6496 13.3415 6.16543 15.2082 6.16543C15.4165 6.16543 15.6165 6.14127 15.8248 6.10793V12.8321C15.8248 15.6579 14.1582 17.3329 11.3248 17.3329H5.16734C2.33317 17.3329 0.666504 15.6579 0.666504 12.8321V6.66627C0.666504 3.83293 2.33317 2.1496 5.16734 2.1496H11.8748ZM12.0423 7.21627C11.8165 7.19127 11.5923 7.29127 11.4582 7.4746L9.44234 10.0829L7.13317 8.26627C6.9915 8.15793 6.82484 8.11543 6.65817 8.13293C6.49234 8.15793 6.34234 8.24877 6.2415 8.3821L3.77567 11.5913L3.72484 11.6663C3.58317 11.9321 3.64984 12.2738 3.89984 12.4579C4.0165 12.5329 4.1415 12.5829 4.28317 12.5829C4.47567 12.5913 4.65817 12.4904 4.77484 12.3329L6.8665 9.64043L9.2415 11.4246L9.3165 11.4738C9.58317 11.6154 9.9165 11.5496 10.1082 11.2988L12.5165 8.19127L12.4832 8.20793C12.6165 8.0246 12.6415 7.79127 12.5498 7.58293C12.459 7.3746 12.2582 7.23293 12.0423 7.21627ZM15.3249 0.666016C16.4333 0.666016 17.3333 1.56602 17.3333 2.67435C17.3333 3.78268 16.4333 4.68268 15.3249 4.68268C14.2166 4.68268 13.3166 3.78268 13.3166 2.67435C13.3166 1.56602 14.2166 0.666016 15.3249 0.666016Z"/>
</svg>
