<svg width="14" height="18" viewBox="0 0 14 18" fill="none" xmlns="http://www.w3.org/2000/svg">
<path d="M9.55849 0.666016C11.8168 0.666016 13.6418 1.55768 13.6668 3.82435V16.4744C13.6668 16.616 13.6335 16.7577 13.5668 16.8827C13.4585 17.0827 13.2752 17.2327 13.0502 17.2994C12.8335 17.366 12.5918 17.3327 12.3918 17.216L6.99183 14.516L1.5835 17.216C1.45933 17.2819 1.31683 17.3244 1.17516 17.3244C0.708496 17.3244 0.333496 16.941 0.333496 16.4744V3.82435C0.333496 1.55768 2.16683 0.666016 4.41683 0.666016H9.55849ZM10.1252 5.69935H3.85016C3.49183 5.69935 3.20016 5.99102 3.20016 6.35768C3.20016 6.72352 3.49183 7.01602 3.85016 7.01602H10.1252C10.4835 7.01602 10.7752 6.72352 10.7752 6.35768C10.7752 5.99102 10.4835 5.69935 10.1252 5.69935Z"/>
</svg>
