<svg width="16" height="18" viewBox="0 0 16 18" fill="none" xmlns="http://www.w3.org/2000/svg">
<path d="M11.0414 0.666018C11.3952 0.665186 11.6749 0.940049 11.6757 1.30653L11.6766 1.93122C13.9721 2.11113 15.4885 3.67535 15.4909 6.07414L15.5 13.0956C15.5033 15.711 13.8602 17.3202 11.2265 17.3243L4.79324 17.3327C2.176 17.336 0.512353 15.6885 0.509062 13.0656L0.500006 6.12662C0.49672 3.71199 1.95961 2.15194 4.25515 1.94121L4.25433 1.31653C4.2535 0.950044 4.52502 0.674349 4.88704 0.674349C5.24906 0.673516 5.52057 0.948378 5.5214 1.31486L5.52222 1.8979L10.4095 1.89124L10.4087 1.3082C10.4078 0.941715 10.6794 0.666852 11.0414 0.666018ZM11.3771 12.4926H11.3688C10.9904 12.5018 10.6868 12.8191 10.695 13.2022C10.6958 13.5854 11.0011 13.9011 11.3795 13.9094C11.7654 13.9086 12.0781 13.5912 12.0773 13.1997C12.0773 12.8083 11.7638 12.4926 11.3771 12.4926ZM4.59742 12.4934C4.21895 12.5101 3.92275 12.8274 3.92357 13.2106C3.94085 13.5937 4.2535 13.8936 4.63198 13.8761C5.00305 13.8594 5.29842 13.5421 5.28115 13.1589C5.27292 12.7841 4.96767 12.4926 4.59742 12.4934ZM7.98725 12.4893C7.60877 12.5068 7.3134 12.8233 7.3134 13.2064C7.33067 13.5895 7.64333 13.8886 8.0218 13.8719C8.39205 13.8544 8.68825 13.5379 8.67097 13.1539C8.66274 12.78 8.3575 12.4884 7.98725 12.4893ZM4.59331 9.49493C4.21483 9.51159 3.91946 9.82893 3.92028 10.2121C3.93673 10.5952 4.25021 10.8951 4.62869 10.8776C4.99894 10.8609 5.29431 10.5436 5.27703 10.1604C5.2688 9.78562 4.96438 9.4941 4.59331 9.49493ZM7.98396 9.46578C7.60548 9.48244 7.30928 9.79978 7.3101 10.1829C7.32656 10.5661 7.64004 10.8651 8.01851 10.8484C8.38876 10.8309 8.68414 10.5144 8.66768 10.1313C8.65863 9.75647 8.3542 9.46495 7.98396 9.46578ZM11.3738 9.46994C10.9953 9.47827 10.6991 9.78645 10.6999 10.1696V10.1788C10.7082 10.5619 11.0208 10.8526 11.4001 10.8443C11.7704 10.8351 12.0657 10.5178 12.0575 10.1346C12.0402 9.76813 11.7432 9.46911 11.3738 9.46994ZM10.4111 3.17393L5.52386 3.18059L5.52469 3.85442C5.52469 4.21341 5.25399 4.4966 4.89197 4.4966C4.52995 4.49743 4.25762 4.21508 4.25762 3.85609L4.25679 3.21474C2.65239 3.3755 1.76461 4.31836 1.76708 6.12495L1.7679 6.38399L14.2247 6.36733V6.07581C14.1893 4.28504 13.2908 3.34551 11.6782 3.20558L11.679 3.84693C11.679 4.20508 11.4001 4.4891 11.0463 4.4891C10.6843 4.48994 10.412 4.20675 10.412 3.84859L10.4111 3.17393Z"/>
</svg>
