<svg width="18" height="18" viewBox="0 0 18 18" fill="none" xmlns="http://www.w3.org/2000/svg">
<path d="M9.0165 0.666016C13.7498 0.666016 17.3332 4.54684 17.3332 8.98683C17.3332 14.1362 13.1332 17.3327 8.99984 17.3327C7.63317 17.3327 6.1165 16.9655 4.89984 16.2477C4.47484 15.989 4.1165 15.797 3.65817 15.9473L1.97484 16.448C1.54984 16.5816 1.1665 16.2477 1.2915 15.797L1.84984 13.9276C1.9415 13.6689 1.92484 13.3934 1.7915 13.1764C1.07484 11.8578 0.666504 10.414 0.666504 9.01187C0.666504 4.62195 4.17484 0.666016 9.0165 0.666016ZM12.8248 7.95194C12.2332 7.95194 11.7582 8.42766 11.7582 9.02021C11.7582 9.60442 12.2332 10.0885 12.8248 10.0885C13.4165 10.0885 13.8915 9.60442 13.8915 9.02021C13.8915 8.42766 13.4165 7.95194 12.8248 7.95194ZM8.98317 7.95194C8.39984 7.9436 7.9165 8.42766 7.9165 9.01187C7.9165 9.60442 8.3915 10.0801 8.98317 10.0885C9.57484 10.0885 10.0498 9.60442 10.0498 9.02021C10.0498 8.42766 9.57484 7.95194 8.98317 7.95194ZM5.1415 7.95194C4.54984 7.95194 4.07484 8.42766 4.07484 9.02021C4.07484 9.60442 4.55817 10.0885 5.1415 10.0885C5.73317 10.0801 6.20817 9.60442 6.20817 9.02021C6.20817 8.42766 5.73317 7.95194 5.1415 7.95194Z"/>
</svg>
