<svg width="16" height="18" viewBox="0 0 16 18" fill="none" xmlns="http://www.w3.org/2000/svg">
<path d="M11.4925 0.666016C14.0667 0.666016 15.5 2.14935 15.5 4.69102V13.2993C15.5 15.8827 14.0667 17.3327 11.4925 17.3327H4.50833C1.975 17.3327 0.5 15.8827 0.5 13.2993V4.69102C0.5 2.14935 1.975 0.666016 4.50833 0.666016H11.4925ZM4.73333 12.116C4.48333 12.091 4.24167 12.2077 4.10833 12.4243C3.975 12.6327 3.975 12.9077 4.10833 13.1243C4.24167 13.3327 4.48333 13.4577 4.73333 13.4243H11.2667C11.5992 13.391 11.85 13.1068 11.85 12.7743C11.85 12.4327 11.5992 12.1493 11.2667 12.116H4.73333ZM11.2667 8.31518H4.73333C4.37417 8.31518 4.08333 8.60768 4.08333 8.96602C4.08333 9.32435 4.37417 9.61602 4.73333 9.61602H11.2667C11.625 9.61602 11.9167 9.32435 11.9167 8.96602C11.9167 8.60768 11.625 8.31518 11.2667 8.31518ZM7.22417 4.54102H4.73333V4.54935C4.37417 4.54935 4.08333 4.84102 4.08333 5.19935C4.08333 5.55768 4.37417 5.84935 4.73333 5.84935H7.22417C7.58333 5.84935 7.875 5.55768 7.875 5.19018C7.875 4.83268 7.58333 4.54102 7.22417 4.54102Z"/>
</svg>
