<svg width="18" height="18" viewBox="0 0 18 18" fill="none" xmlns="http://www.w3.org/2000/svg">
<path fill-rule="evenodd" clip-rule="evenodd" d="M17.3337 5.59935C17.3337 2.64935 15.442 0.666016 12.617 0.666016H5.39199C2.56699 0.666016 0.666992 2.64935 0.666992 5.59935V12.4085C0.666992 15.3493 2.56699 17.3327 5.39199 17.3327H12.617C15.442 17.3327 17.3337 15.3493 17.3337 12.4085V5.59935ZM9.20866 4.29102C9.62287 4.29102 9.95866 4.6268 9.95866 5.04102V5.22852H11.1618C11.576 5.22852 11.9118 5.5643 11.9118 5.97852C11.9118 6.39273 11.576 6.72852 11.1618 6.72852H9.95866V8.04102H10.1852C10.7537 8.04102 11.2944 8.27348 11.6897 8.68009C12.0843 9.08598 12.3024 9.6321 12.3024 10.1973C12.3024 10.7624 12.0843 11.3085 11.6897 11.7144C11.2944 12.1211 10.7537 12.3535 10.1852 12.3535H9.95866V12.541C9.95866 12.9552 9.62287 13.291 9.20866 13.291C8.79445 13.291 8.45866 12.9552 8.45866 12.541V12.3535H6.86491C6.45069 12.3535 6.11491 12.0177 6.11491 11.6035C6.11491 11.1893 6.45069 10.8535 6.86491 10.8535H8.45866V9.54102H8.2321C7.66366 9.54102 7.12292 9.30855 6.7276 8.90194C6.33298 8.49605 6.11491 7.94993 6.11491 7.38477C6.11491 6.8196 6.33298 6.27348 6.7276 5.86759C7.12292 5.46098 7.66366 5.22852 8.2321 5.22852H8.45866V5.04102C8.45866 4.6268 8.79445 4.29102 9.20866 4.29102ZM8.2321 6.72852H8.45866V8.04102H8.2321C8.07533 8.04102 7.92057 7.97716 7.80309 7.85633C7.68492 7.73477 7.61491 7.56552 7.61491 7.38477C7.61491 7.20401 7.68492 7.03476 7.80309 6.91321C7.92057 6.79237 8.07533 6.72852 8.2321 6.72852ZM9.95866 10.8535V9.54102H10.1852C10.342 9.54102 10.4967 9.60487 10.6142 9.72571C10.7324 9.84726 10.8024 10.0165 10.8024 10.1973C10.8024 10.378 10.7324 10.5473 10.6142 10.6688C10.4967 10.7897 10.342 10.8535 10.1852 10.8535H9.95866Z"/>
</svg>
