<svg width="16" height="18" viewBox="0 0 16 18" fill="none" xmlns="http://www.w3.org/2000/svg">
<path d="M5.61248 16.3105V13.7624C5.61248 13.1119 6.14364 12.5846 6.79886 12.5846H9.194C9.50865 12.5846 9.81041 12.7087 10.0329 12.9296C10.2554 13.1504 10.3804 13.45 10.3804 13.7624V16.3105C10.3784 16.5809 10.4852 16.8409 10.6771 17.0328C10.8691 17.2247 11.1302 17.3327 11.4026 17.3327H13.0367C13.7999 17.3346 14.5325 17.0351 15.0728 16.5C15.6132 15.965 15.9168 15.2385 15.9168 14.4809V7.22173C15.9168 6.60973 15.6436 6.02922 15.1707 5.63657L9.61185 1.22924C8.64488 0.456484 7.25942 0.481434 6.32132 1.2885L0.88934 5.63657C0.394113 6.01764 0.098123 6.59988 0.0834961 7.22173V14.4735C0.0834961 16.0526 1.37298 17.3327 2.96364 17.3327H4.5604C5.12618 17.3327 5.58599 16.8795 5.59009 16.3179L5.61248 16.3105Z"/>
</svg>
