<svg width="16" height="18" viewBox="0 0 16 18" fill="none" xmlns="http://www.w3.org/2000/svg">
<path d="M6.30249 15.0226C6.71908 14.9345 9.25757 14.9345 9.67416 15.0226C10.0303 15.1049 10.4154 15.2971 10.4154 15.7167C10.3947 16.1162 10.1603 16.4704 9.83649 16.6953C9.41659 17.0227 8.9238 17.23 8.40865 17.3047C8.12374 17.3416 7.8438 17.3424 7.56883 17.3047C7.05285 17.23 6.56006 17.0227 6.14099 16.6945C5.81632 16.4704 5.58194 16.1162 5.56123 15.7167C5.56123 15.2971 5.94635 15.1049 6.30249 15.0226ZM8.03752 0.666016C9.77098 0.666016 11.5417 1.48853 12.5935 2.85324C13.276 3.73199 13.5891 4.60989 13.5891 5.9746V6.32962C13.5891 7.37623 13.8657 7.99312 14.4744 8.70401C14.9358 9.22773 15.0832 9.90001 15.0832 10.6294C15.0832 11.3579 14.8438 12.0495 14.3643 12.611C13.7365 13.2841 12.8511 13.7138 11.9475 13.7885C10.6381 13.9001 9.32789 13.9941 8.00025 13.9941C6.67179 13.9941 5.36238 13.9379 4.05297 13.7885C3.14855 13.7138 2.26319 13.2841 1.63623 12.611C1.15669 12.0495 0.916504 11.3579 0.916504 10.6294C0.916504 9.90001 1.06475 9.22773 1.52524 8.70401C2.15303 7.99312 2.41144 7.37623 2.41144 6.32962V5.9746C2.41144 4.57297 2.76095 3.65645 3.48067 2.75923C4.55072 1.45076 6.26596 0.666016 7.96298 0.666016H8.03752Z"/>
</svg>
