<svg width="20" height="14" viewBox="0 0 20 14" fill="none" xmlns="http://www.w3.org/2000/svg">
<path d="M9.95769 9.117C12.817 9.117 15.2585 9.57031 15.2585 11.3843C15.2585 13.1975 12.8327 13.6673 9.95769 13.6673C7.09837 13.6673 4.6569 13.214 4.6569 11.4008C4.6569 9.58682 7.0827 9.117 9.95769 9.117ZM14.5294 8.02472C15.6225 8.00445 16.7977 8.15455 17.232 8.26112C18.152 8.442 18.7572 8.81124 19.0079 9.34786C19.2198 9.7884 19.2198 10.2995 19.0079 10.7393C18.6244 11.5716 17.388 11.8388 16.9074 11.9078C16.8082 11.9228 16.7283 11.8365 16.7388 11.7367C16.9843 9.43041 15.0316 8.33693 14.5264 8.08551C14.5048 8.07425 14.5003 8.05699 14.5025 8.04648C14.504 8.03897 14.513 8.02697 14.5294 8.02472ZM5.26565 8.02316L5.4715 8.02502C5.48791 8.02727 5.49612 8.03928 5.49761 8.04603C5.49985 8.05729 5.49537 8.0738 5.47448 8.08581C4.96858 8.33723 3.01585 9.43071 3.26134 11.7363C3.27179 11.8368 3.1927 11.9224 3.09346 11.9081C2.61292 11.8391 1.37652 11.5719 0.99299 10.7396C0.780332 10.299 0.780332 9.7887 0.99299 9.34816C1.2437 8.81155 1.8481 8.4423 2.76813 8.26067C3.20314 8.15485 4.37761 8.00475 5.4715 8.02502L5.26565 8.02316ZM9.95769 0.333984C11.9044 0.333984 13.4654 1.90254 13.4654 3.86136C13.4654 5.81943 11.9044 7.38949 9.95769 7.38949C8.01093 7.38949 6.44995 5.81943 6.44995 3.86136C6.44995 1.90254 8.01093 0.333984 9.95769 0.333984ZM14.7197 0.922231C16.6 0.922231 18.0767 2.70168 17.5738 4.68376C17.2343 6.01816 16.0053 6.90451 14.6361 6.86849C14.4988 6.86473 14.3637 6.85197 14.2332 6.82946C14.1384 6.81295 14.0906 6.70563 14.1444 6.62607C14.6667 5.85305 14.9644 4.92318 14.9644 3.925C14.9644 2.8833 14.6391 1.91215 14.0742 1.11586C14.0563 1.09109 14.0429 1.05282 14.0608 1.0243C14.0757 1.00103 14.1033 0.989026 14.1294 0.983022C14.3197 0.943995 14.5152 0.922231 14.7197 0.922231ZM5.2801 0.922156C5.48455 0.922156 5.68005 0.94392 5.87107 0.982947C5.89644 0.988951 5.92479 1.00171 5.93972 1.02422C5.95688 1.05274 5.94419 1.09102 5.92628 1.11579C5.36143 1.91207 5.03611 2.88323 5.03611 3.92493C5.03611 4.9231 5.33383 5.85298 5.85615 6.626C5.90987 6.70555 5.86211 6.81287 5.76735 6.82939C5.63603 6.85265 5.50171 6.86466 5.36442 6.86841C3.9952 6.90444 2.76626 6.01809 2.42675 4.68369C1.92309 2.7016 3.39976 0.922156 5.2801 0.922156Z"/>
</svg>
