<svg width="38" height="38" viewBox="0 0 38 38" fill="none" xmlns="http://www.w3.org/2000/svg">
<path d="M25.334 30.0807V27.4418C25.334 26.0421 24.8335 24.6997 23.9427 23.7099C23.0519 22.7201 21.8438 22.1641 20.584 22.1641H13.459" stroke="#72A69B" stroke-width="2.01875" stroke-linecap="round" stroke-linejoin="round"/>
<path d="M11.6071 26.3845H3.16632" stroke="#72A69B" stroke-width="1.78125" stroke-linecap="round" stroke-linejoin="round"/>
<path d="M7.38672 22.1641V30.6049" stroke="#72A69B" stroke-width="1.78125" stroke-linecap="round" stroke-linejoin="round"/>
<path d="M15.834 17.4141C18.4573 17.4141 20.584 15.2874 20.584 12.6641C20.584 10.0407 18.4573 7.91406 15.834 7.91406C13.2106 7.91406 11.084 10.0407 11.084 12.6641C11.084 15.2874 13.2106 17.4141 15.834 17.4141Z" stroke="#72A69B" stroke-width="2.01875" stroke-linecap="round" stroke-linejoin="round"/>
<path d="M33.2507 30.0807V27.3834C33.25 26.1881 32.9386 25.027 32.3654 24.0823C31.7923 23.1376 30.9898 22.4629 30.084 22.1641" stroke="#72A69B" stroke-width="2.01875" stroke-linecap="round" stroke-linejoin="round"/>
<path d="M25.334 7.91406C26.2398 8.18411 27.0427 8.7975 27.6161 9.65754C28.1894 10.5176 28.5007 11.5753 28.5007 12.6641C28.5007 13.7528 28.1894 14.8105 27.6161 15.6706C27.0427 16.5306 26.2398 17.144 25.334 17.4141" stroke="#72A69B" stroke-width="2.01875" stroke-linecap="round" stroke-linejoin="round"/>
</svg>
