<svg width="38" height="38" viewBox="0 0 38 38" fill="none" xmlns="http://www.w3.org/2000/svg">
<path fill-rule="evenodd" clip-rule="evenodd" d="M22.1259 3.16797C22.1939 3.16797 22.2606 3.17369 22.3255 3.18469L22.5414 3.18586C22.8644 3.18586 23.1731 3.31728 23.398 3.55003L31.4191 11.9084C31.6297 12.1285 31.7485 12.4246 31.7485 12.7302V27.4552C31.7548 31.3644 28.5786 34.5802 24.6694 34.6214L11.7161 34.6229C7.80054 34.5549 4.68454 31.3296 4.75104 27.4346V10.2776C4.84129 6.34936 8.08554 3.18586 11.9853 3.18586L21.9263 3.18469C21.9912 3.17369 22.0579 3.16797 22.1259 3.16797ZM20.938 5.56039L11.99 5.56086C9.36488 5.56086 7.18779 7.68569 7.12604 10.3061V27.4552C7.08013 30.0629 9.14954 32.2036 11.7383 32.2479L11.971 32.2464H24.6567C27.2565 32.2179 29.3766 30.0693 29.3735 27.4568L29.3724 14.2244L26.1935 14.226C23.2944 14.2181 20.9384 11.8557 20.9384 8.96138L20.938 5.56039ZM17.9616 15.3816C18.6171 15.3816 19.1491 15.9136 19.1491 16.5691L19.1488 19.2594L21.8395 19.2605C22.495 19.2605 23.027 19.7925 23.027 20.448C23.027 21.1035 22.495 21.6355 21.8395 21.6355L19.1488 21.6344L19.1491 24.3275C19.1491 24.983 18.6171 25.515 17.9616 25.515C17.3061 25.515 16.7741 24.983 16.7741 24.3275L16.7738 21.6344L14.0827 21.6355C13.4272 21.6355 12.8952 21.1035 12.8952 20.448C12.8952 19.7925 13.4272 19.2605 14.0827 19.2605L16.7738 19.2594L16.7741 16.5691C16.7741 15.9136 17.3061 15.3816 17.9616 15.3816ZM23.313 6.89197L23.3134 8.96138C23.3134 10.5511 24.607 11.8462 26.1967 11.851L28.0693 11.8494L23.313 6.89197Z" fill="#72A69B" stroke="#ECFAF7" stroke-width="0.5"/>
</svg>
