<svg width="24" height="24" viewBox="0 0 24 24" fill="none" xmlns="http://www.w3.org/2000/svg">
<path d="M19.0797 11.2877L12.1872 18.1802C11.3428 19.0246 10.1976 19.4989 9.00348 19.4989C7.80934 19.4989 6.66411 19.0246 5.81973 18.1802C4.97535 17.3358 4.50098 16.1906 4.50098 14.9964C4.50098 13.8023 4.97535 12.6571 5.81973 11.8127L12.7122 4.92018C13.2752 4.35726 14.0386 4.04102 14.8347 4.04102C15.6308 4.04102 16.3943 4.35726 16.9572 4.92018C17.5202 5.48311 17.8364 6.24659 17.8364 7.04268C17.8364 7.83878 17.5202 8.60226 16.9572 9.16518L10.0572 16.0577C9.77577 16.3391 9.39403 16.4973 8.99598 16.4973C8.59793 16.4973 8.21619 16.3391 7.93473 16.0577C7.65327 15.7762 7.49515 15.3945 7.49515 14.9964C7.49515 14.5984 7.65327 14.2166 7.93473 13.9352L14.3022 7.57518" stroke="currentColor" stroke-width="1.22727" stroke-linecap="round" stroke-linejoin="round"/>
</svg>
