<svg width="25" height="24" viewBox="0 0 25 24" fill="none" xmlns="http://www.w3.org/2000/svg">
<path d="M20.653 10.849L17.6393 9.12402L15.9143 12.1377C15.7161 12.4748 15.835 12.8912 16.1721 13.0894C16.2712 13.1489 16.3902 13.1886 16.5092 13.1886C16.7471 13.1886 16.985 13.0696 17.104 12.8317L17.6988 11.7809C18.0953 13.7636 17.4014 15.8652 15.7954 17.1937C13.8722 18.7997 11.0765 18.9583 9.01451 17.5307C8.69728 17.3126 8.26108 17.3919 8.04298 17.7092C7.82488 18.0264 7.90419 18.4626 8.22143 18.6807C9.41105 19.4936 10.7791 19.8901 12.167 19.8901C13.773 19.8901 15.3988 19.335 16.6876 18.2445C18.6703 16.579 19.5427 13.9817 19.0669 11.5231L19.9393 12.0188C20.2763 12.2171 20.6927 12.0981 20.891 11.761C21.0892 11.4636 20.9901 11.0473 20.653 10.849Z" fill="currentColor"/>
<path d="M8.04222 12.6734C7.70516 12.5148 7.28879 12.6536 7.11035 12.9906L6.65432 13.8829C6.31726 11.9398 7.01121 9.89761 8.57755 8.58902C10.5008 6.98303 13.2964 6.82441 15.3584 8.25196C15.6757 8.47006 16.1119 8.39075 16.33 8.07352C16.5481 7.75628 16.4687 7.32009 16.1515 7.10199C13.574 5.33738 10.0844 5.51582 7.68533 7.53819C5.66297 9.22349 4.79057 11.92 5.34573 14.438L4.31472 13.9225C3.97766 13.7441 3.56129 13.8829 3.38285 14.2199C3.20441 14.557 3.3432 14.9734 3.68026 15.1518L6.77329 16.7181L8.33963 13.6251C8.51807 13.2682 8.37928 12.8519 8.04222 12.6734Z" fill="currentColor"/>
</svg>
