<svg width="32" height="31" viewBox="0 0 32 31" fill="none" xmlns="http://www.w3.org/2000/svg">
<path d="M30.8314 24.434V24.584C30.8314 26.1276 29.8876 27.4985 28.4744 27.9895L28.0127 28.1508L28.0125 28.1508C24.9147 29.2275 21.687 29.7739 18.4199 29.7739H17.4658C12.1955 29.7739 6.99116 28.3324 2.41591 25.6052C1.70063 25.1789 1.35078 24.3264 1.56713 23.5299L1.56716 23.5297C1.76658 22.798 1.86921 21.8396 1.86921 20.6782C1.86921 19.8549 2.08357 18.728 2.49278 17.3425C2.90273 15.9545 3.51113 14.2975 4.30589 12.4103C5.64286 9.23201 7.54982 6.33911 9.9731 3.81147C11.1236 2.61142 12.6552 1.94889 14.2851 1.94889C14.9856 1.94889 15.6635 2.16348 16.2449 2.56775C16.2449 2.56775 16.2449 2.56776 16.2449 2.56776L17.8464 3.68115L17.8465 3.68122L17.7609 3.80438C17.9265 3.91928 18.0321 4.1034 18.0515 4.30906L30.8314 24.434ZM30.8314 24.434H30.8313V16.5556C30.8313 14.6332 29.3849 13.0112 27.5821 12.9617L27.58 12.9616L27.3848 12.9589H27.3827C24.5879 12.9589 22.079 14.5965 20.8154 17.1497L20.7591 17.2633L20.8618 17.3377C21.2034 17.5853 21.5306 17.8518 21.8278 18.1591L21.8278 18.1592C22.0307 18.3686 22.032 18.7125 21.8307 18.9246L21.8305 18.9248C21.6339 19.1325 21.3144 19.1341 21.1145 18.9277L21.0066 19.0319M30.8314 24.434L20.9498 17.2163M20.9498 17.2163C21.2958 17.467 21.6304 17.7392 21.9356 18.0548C22.1946 18.3222 22.1959 18.7577 21.9395 19.0279C21.6837 19.298 21.2656 19.2994 21.0066 19.0319M20.9498 17.2163C22.1898 14.7109 24.6485 13.1089 27.3827 13.1089L20.9498 17.2163ZM21.0066 19.0319C19.8875 17.8747 18.4032 17.2377 16.8274 17.2377C14.8031 17.2377 12.938 18.2974 11.8376 20.0728M21.0066 19.0319L21.1144 18.9276C21.1144 18.9276 21.1144 18.9276 21.1144 18.9276M11.8376 20.0728L21.1144 18.9276M11.8376 20.0728C11.8332 20.0799 11.8271 20.0845 11.821 20.0891C11.8155 20.0933 11.81 20.0975 11.8057 20.1034C11.155 21.7253 9.86045 22.516 9.07053 22.7219L11.8376 20.0728ZM21.1144 18.9276C19.9678 17.7419 18.4448 17.0877 16.8274 17.0877C14.7554 17.0877 12.8483 18.1695 11.7203 19.9775C11.7184 19.979 11.7165 19.9806 11.7146 19.9822C11.7061 19.9897 11.6947 20.0008 11.6838 20.016L11.6732 20.0308L11.6665 20.0476C11.0351 21.6212 9.78098 22.3817 9.0327 22.5767L9.03223 22.5769C8.9915 22.5876 8.95027 22.5927 8.91009 22.5927C8.68607 22.5927 8.47604 22.4343 8.41692 22.1865L8.41685 22.1862C8.34648 21.8936 8.51738 21.6051 8.78498 21.5328L8.78574 21.5326C8.84311 21.5167 9.40538 21.3506 9.95506 20.8186C10.509 20.2824 11.0399 19.3842 11.0399 17.9258C11.0399 16.7316 10.8765 15.5432 10.7201 14.4051L10.7183 14.3922L10.7183 14.3922C10.5661 13.287 10.4271 12.2746 10.4579 11.3986C10.4887 10.5246 10.6881 9.81064 11.1915 9.28564L11.1915 9.28562C11.3901 9.07842 11.7091 9.0784 11.9078 9.28564L11.9078 9.28565C12.1099 9.49637 12.1099 9.84025 11.9078 10.0511C11.846 10.1155 11.7995 10.1966 11.7641 10.2586C11.7596 10.2663 11.7554 10.2737 11.7513 10.2807L11.6209 10.5059L11.8811 10.5059L14.9616 10.5065H14.9616C15.1767 10.5065 15.3856 10.4159 15.5363 10.2587L18.1752 7.50614C18.4572 7.21203 18.4689 6.76712 18.2555 6.4464L18.1518 6.29061L18.0223 6.42568L16.5793 7.93087L16.5792 7.93093C15.9972 8.53867 15.1128 8.68558 14.3803 8.30424L21.1144 18.9276ZM19.7378 16.6801L19.8702 16.7424L19.9357 16.6116C21.3833 13.7229 24.2264 11.883 27.3819 11.8826C27.3822 11.8826 27.3825 11.8826 27.3828 11.8826L27.6093 11.8853C27.6097 11.8853 27.6101 11.8853 27.6105 11.8853C29.9389 11.95 31.8508 14.0366 31.8509 16.5556V24.584C31.8509 26.5999 30.6191 28.3773 28.7942 29.0112L28.794 29.0113L28.3322 29.1725C25.1299 30.2858 21.7952 30.8502 18.42 30.8502H17.4659C12.0209 30.8502 6.64345 29.3604 1.91503 26.5423C0.787223 25.8701 0.240363 24.5092 0.587496 23.233L0.442782 23.1936L0.587498 23.233C0.763138 22.5871 0.849797 21.7262 0.849797 20.6783C0.849797 18.8939 1.69097 15.9702 3.37382 11.9729C4.76333 8.67244 6.74188 5.66921 9.25686 3.04606L9.14858 2.94225L9.25686 3.04606C10.6015 1.64351 12.3866 0.872656 14.2852 0.872656C15.1851 0.872656 16.0566 1.14791 16.8055 1.66896L16.8056 1.66899L18.4072 2.78246L18.4072 2.7825C18.8652 3.10055 19.1606 3.61235 19.2152 4.1875L19.2152 4.18764C19.258 4.63431 19.1467 5.07179 18.9129 5.43731L18.8517 5.53303L18.9273 5.61789C19.5966 6.36958 19.5902 7.54274 18.8916 8.2715L16.2527 11.024C15.9066 11.385 15.4481 11.5826 14.9617 11.5826C14.9617 11.5826 14.9616 11.5826 14.9616 11.5826L11.6262 11.582L11.4745 11.582L11.4762 11.7336C11.484 12.4675 11.604 13.3453 11.7271 14.2368C11.871 15.2821 12.0176 16.452 12.0422 17.6247L12.0489 17.945L12.2906 17.7348C13.55 16.6391 15.139 16.0114 16.8274 16.0114C17.8483 16.0114 18.8303 16.2532 19.7378 16.6801Z" fill="white" stroke="white" stroke-width="0.3"/>
</svg>
