<svg width="31" height="28" viewBox="0 0 31 28" fill="none" xmlns="http://www.w3.org/2000/svg">
<path d="M20.0208 6.10417C21.4417 6.10417 22.6042 4.94167 22.6042 3.52083C22.6042 2.1 21.4417 0.9375 20.0208 0.9375C18.6 0.9375 17.4375 2.1 17.4375 3.52083C17.4375 4.94167 18.6 6.10417 20.0208 6.10417ZM6.45833 14.5C2.84167 14.5 0 17.3417 0 20.9583C0 24.575 2.84167 27.4167 6.45833 27.4167C10.075 27.4167 12.9167 24.575 12.9167 20.9583C12.9167 17.3417 10.075 14.5 6.45833 14.5ZM6.45833 25.4792C4.00417 25.4792 1.9375 23.4125 1.9375 20.9583C1.9375 18.5042 4.00417 16.4375 6.45833 16.4375C8.9125 16.4375 10.9792 18.5042 10.9792 20.9583C10.9792 23.4125 8.9125 25.4792 6.45833 25.4792ZM13.95 12.5625L17.05 9.4625L18.0833 10.4958C19.7625 12.175 21.9583 13.2083 24.6708 13.2083V10.625C22.7333 10.625 21.1833 9.85 20.0208 8.6875L17.5667 6.23333C16.9208 5.71667 16.275 5.45833 15.5 5.45833C14.725 5.45833 14.0792 5.71667 13.6917 6.23333L10.075 9.85C9.55833 10.3667 9.3 11.0125 9.3 11.6583C9.3 12.4333 9.55833 13.0792 10.075 13.4667L14.2083 17.0833V23.5417H16.7917V15.5333L13.95 12.5625ZM24.5417 14.5C20.925 14.5 18.0833 17.3417 18.0833 20.9583C18.0833 24.575 20.925 27.4167 24.5417 27.4167C28.1583 27.4167 31 24.575 31 20.9583C31 17.3417 28.1583 14.5 24.5417 14.5ZM24.5417 25.4792C22.0875 25.4792 20.0208 23.4125 20.0208 20.9583C20.0208 18.5042 22.0875 16.4375 24.5417 16.4375C26.9958 16.4375 29.0625 18.5042 29.0625 20.9583C29.0625 23.4125 26.9958 25.4792 24.5417 25.4792Z" fill="currentColor"/>
</svg>
