<svg width="30" height="30" viewBox="0 0 30 30" fill="none" xmlns="http://www.w3.org/2000/svg">
<path d="M15.5187 2.87002L15.5185 2.8702L15.5249 2.87627C15.6829 3.0257 17.706 5.18441 19.6888 8.23463C21.6738 11.2881 23.6 15.2074 23.6 18.8844C23.6 22.8569 19.7574 26.1 15 26.1C10.2421 26.1 6.4 22.8564 6.4 18.924C6.4 15.2271 8.32623 11.3078 10.3112 8.25443C12.2928 5.20605 14.3166 3.04534 14.4813 2.87002C14.757 2.57666 15.243 2.57666 15.5187 2.87002ZM15.1136 4.41179L15 4.27987L14.8864 4.41179C13.9623 5.48452 12.1871 7.67012 10.6422 10.2994C9.09961 12.9248 7.77464 16.0123 7.77464 18.8844C7.77464 22.2021 11.0538 24.816 15 24.816C18.9469 24.816 22.2254 22.162 22.2254 18.8844C22.2254 16.0123 20.9004 12.9248 19.3578 10.2994C17.8129 7.67012 16.0377 5.48452 15.1136 4.41179ZM9.74865 19.1479L9.74859 19.1473C9.71512 18.799 9.98401 18.4727 10.3657 18.4399C10.755 18.4064 11.0907 18.6739 11.1245 19.0162C11.1708 19.6221 11.5239 20.1807 12.0522 20.6186C12.5805 21.0565 13.2937 21.3826 14.0886 21.5258C14.4841 21.6302 14.7084 21.9589 14.6436 22.3C14.5763 22.6155 14.3117 22.8132 13.9533 22.8132H13.9531H13.9529H13.9526H13.9524H13.9521H13.9519H13.9516H13.9514H13.9511H13.9508H13.9506H13.9503H13.9501H13.9498H13.9496H13.9493H13.949H13.9488H13.9485H13.9483H13.948H13.9477H13.9475H13.9472H13.9469H13.9467H13.9464H13.9461H13.9458H13.9456H13.9453H13.945H13.9448H13.9445H13.9442H13.9439H13.9436H13.9434H13.9431H13.9428H13.9425H13.9422H13.942H13.9417H13.9414H13.9411H13.9408H13.9405H13.9403H13.94H13.9397H13.9394H13.9391H13.9388H13.9385H13.9382H13.9379H13.9376H13.9373H13.937H13.9367H13.9364H13.9361H13.9358H13.9356H13.9353H13.9349H13.9346H13.9343H13.934H13.9337H13.9334H13.9331H13.9328H13.9325H13.9322H13.9319H13.9316H13.9313H13.931H13.9307H13.9304H13.93H13.9297H13.9294H13.9291H13.9288H13.9285H13.9282H13.9278H13.9275H13.9272H13.9269H13.9266H13.9263H13.9259H13.9256H13.9253H13.925H13.9247H13.9243H13.924H13.9237H13.9234H13.923H13.9227H13.9224H13.9221H13.9217H13.9214H13.9211H13.9207H13.9204H13.9201H13.9198H13.9194H13.9191H13.9188H13.9184H13.9181H13.9178H13.9174H13.9171H13.9168H13.9164H13.9161H13.9157H13.9154H13.9151H13.9147H13.9144H13.9141H13.9137H13.9134H13.913H13.9127H13.9124H13.912H13.9117H13.9113H13.911H13.9106H13.9103H13.91H13.9096H13.9093H13.9089H13.9086H13.9082H13.9079H13.9075H13.9072H13.9068H13.9065H13.9061H13.9058H13.9054H13.9051H13.9047H13.9044H13.904H13.9037H13.9033H13.903H13.9026H13.9023H13.9019H13.9016H13.9012H13.9009H13.9005H13.9002H13.8998H13.8994H13.8991H13.8987H13.8984H13.898H13.8977H13.8973H13.897H13.8966H13.8962H13.8959H13.8955H13.8952H13.8948H13.8944H13.8941H13.8937H13.8934H13.893H13.8926H13.8923H13.8919H13.8916H13.8912H13.8908H13.8905H13.8901H13.8898H13.8894H13.889H13.8887H13.8883H13.8879H13.8876H13.8872H13.8868H13.8865H13.8861H13.8858H13.8854H13.885H13.8847H13.8843H13.8839H13.8836H13.8832H13.8828H13.8825H13.8821H13.8817H13.8814H13.881H13.8806H13.8803H13.8799H13.8795H13.8792H13.8788H13.8784H13.8781H13.8777H13.8773H13.877H13.8766H13.8762H13.8759H13.8755H13.8751H13.8748H13.8744H13.874H13.8737H13.8733H13.8729H13.8726H13.8722H13.8718H13.8715H13.8711H13.8707H13.8704H13.87H13.8696H13.8692H13.8689H13.8685H13.8681H13.8678H13.8674H13.867H13.8667H13.8663H13.8659H13.8656H13.8652H13.8648H13.8645H13.8641H13.8637H13.8634H13.863H13.8626H13.8623H13.8619H13.8615H13.8612H13.8608H13.8604H13.8601H13.8597H13.8593H13.859H13.8586H13.8582H13.8579H13.8575H13.8571H13.8568H13.8564H13.856H13.8557H13.8553H13.8549H13.8546H13.8542H13.8538H13.8535H13.8531H13.8528H13.8524H13.852H13.8517H13.8513H13.8509H13.8506H13.8502H13.8498H13.8495H13.8491H13.8488H13.8484H13.848H13.8477H13.8473H13.847H13.8466H13.8462H13.8459H13.8455H13.8451H13.8448H13.8444H13.8441H13.8437H13.8434H13.843H13.8426H13.8423H13.8419H13.8416H13.8412H13.8409H13.8405H13.8401H13.8398H13.8394H13.8391H13.8387H13.8384H13.838H13.8377H13.8373H13.837H13.8366H13.8362H13.8359H13.8355H13.8352H13.8348H13.8345H13.8341H13.8338H13.8334H13.8331H13.8327H13.8324H13.832H13.8317H13.8314H13.831H13.8307H13.8303H13.83H13.8296H13.8293H13.8289H13.8286H13.8282H13.8279H13.8276H13.8272H13.8269H13.8265H13.8262H13.8259H13.8255H13.8252H13.8248H13.8245H13.8242H13.8238H13.8235H13.8232H13.8228H13.8225H13.8221H13.8218H13.8215H13.8211H13.8208H13.8205H13.8201H13.8198H13.8195H13.8192H13.8188H13.8185H13.8182H13.8178H13.8175H13.8172H13.8169H13.8165H13.8162H13.8159H13.8156H13.8152H13.8149H13.8146H13.8143H13.8139H13.8136H13.8133H13.813H13.8127H13.8123H13.812H13.8117H13.8114H13.8111H13.8108H13.8104H13.8101H13.8098H13.8095H13.8092H13.8089H13.8086H13.8083H13.8079H13.8076H13.8073H13.807H13.8067H13.8064H13.8061H13.8058H13.8055H13.8052H13.8049H13.8046H13.8043H13.804H13.8037H13.8034H13.8031H13.8028H13.8025H13.8022H13.8019H13.8016H13.8013H13.801H13.8007H13.8004H13.8001H13.7998H13.7996H13.7993H13.799H13.7988C11.5472 22.4213 9.90775 20.8785 9.74865 19.1479Z"
      fill="currentColor" stroke="currentColor" stroke-width="0.3"/>
</svg>
