<svg width="40" height="40" viewBox="0 0 40 40" fill="none" xmlns="http://www.w3.org/2000/svg">
<g clip-path="url(#clip0)">
<path d="M8.15689 37.5765L8.00985 37.5469C7.97433 37.7229 7.81957 37.8496 7.63995 37.8496H4.11568C3.91825 37.8496 3.75418 37.6974 3.73939 37.5005L3.58981 37.5118L3.73939 37.5005C3.7343 37.433 3.24361 30.8234 3.41787 26.3855L8.15689 37.5765ZM8.15689 37.5765L8.00985 37.5468C8.0598 37.2994 9.22362 31.4962 9.42825 27.6226L9.42826 27.6225C9.45202 27.1754 9.3865 26.5481 9.31454 25.8641L9.31454 25.8641C9.20598 24.8311 9.16794 24.4013 9.19663 23.9554C9.21348 23.6935 9.25394 23.4227 9.31486 23.0151C9.35563 22.7422 9.40555 22.4081 9.46369 21.9744L9.46423 21.9704C9.64729 20.6042 9.86101 19.0091 10.2341 17.6031L10.5261 17.6117C10.8386 19.15 11.4005 20.5976 11.8867 21.85C12.0004 22.143 12.11 22.4254 12.2113 22.6957M8.15689 37.5765L12.2113 22.6957M12.6457 31.7381L12.646 31.7382C12.8509 31.7722 13.0455 31.6328 13.0793 31.427L13.0793 31.427C13.3679 29.6724 13.6373 28.0325 13.66 26.9255L13.66 26.9255C13.6702 26.4332 13.5688 25.5322 13.4206 24.6347C13.2722 23.7366 13.0809 22.8654 12.918 22.4309L12.918 22.4308C12.8183 22.1647 12.7099 21.8857 12.5973 21.5957C11.9012 19.8029 11.0412 17.5881 11.0412 15.3783C11.0412 14.9878 10.5155 14.8559 10.3311 15.2002C9.37226 16.9908 9.00984 19.6796 8.71576 21.874C8.65498 22.3276 8.60321 22.6705 8.56116 22.949C8.50015 23.3531 8.45959 23.6218 8.44159 23.8966C8.41175 24.3522 8.44559 24.8164 8.56404 25.943L8.56526 25.9545C8.62825 26.5534 8.69539 27.1915 8.67462 27.5826C8.50412 30.8111 7.62782 35.547 7.35314 36.9732L7.32971 37.0948H7.20584H4.6073H4.46712L4.45765 36.955C4.34892 35.3495 4.02668 30.1155 4.17195 26.4151L4.17195 26.4151C4.24772 24.4959 4.50789 22.9961 4.75282 21.8727C4.84127 21.467 4.92801 21.1093 5.00286 20.8006C5.0314 20.6829 5.05821 20.5723 5.08272 20.4689C5.17293 20.0885 5.22981 19.814 5.23675 19.6244L5.23675 19.6243C5.29438 18.0788 5.43549 16.5738 5.55969 15.2501C5.68473 13.917 5.78152 12.8813 5.75477 12.2362L5.75476 12.2361C5.72256 11.4468 5.71092 10.5973 5.84494 9.81669C5.97905 9.03559 6.26153 8.30804 6.8301 7.77718C7.1087 7.51688 7.61457 7.29867 8.21275 7.11193C8.81831 6.92288 9.54408 6.75872 10.2849 6.61811C11.6026 6.368 12.9797 6.19026 13.8328 6.08016C13.9391 6.06644 14.0372 6.05378 14.126 6.04216L14.1261 6.04216C14.3328 6.01514 14.4783 5.82571 14.4513 5.61912L14.4513 5.61908C14.4243 5.41263 14.2349 5.26709 14.028 5.29389L14.0087 5.14513M12.6457 31.7381L5.00074 12.2671C4.92656 10.4471 4.97435 8.47746 6.31491 7.22568L6.31495 7.22565C6.59373 6.96514 7.08799 6.724 7.72375 6.50671C8.35456 6.2911 9.1061 6.10497 9.88296 5.94562C11.3667 5.6413 12.9294 5.43731 13.8957 5.31117C13.9412 5.30523 13.9854 5.29946 14.0282 5.29387L14.0087 5.14513M12.6457 31.7381C12.4401 31.7043 12.3008 31.5102 12.3347 31.3046L12.3369 31.2907C12.6045 29.6641 12.8838 27.9657 12.9054 26.9099M12.6457 31.7381L13.8099 26.9286M14.0087 5.14513C13.9657 5.15076 13.9213 5.15656 13.8755 5.16254C11.8978 5.42068 7.39832 6.00799 6.21254 7.11605L6.93247 7.88681C7.88211 6.99948 12.0386 6.46298 13.8518 6.22895C13.9581 6.21523 14.0564 6.20254 14.1455 6.19089C14.4343 6.15313 14.6378 5.88841 14.6 5.59963C14.5622 5.31086 14.2975 5.10773 14.0087 5.14513ZM13.8099 26.9286C13.787 28.049 13.5151 29.7017 13.2273 31.4513C13.1802 31.7388 12.9083 31.9338 12.6214 31.8861C12.334 31.8389 12.1394 31.5676 12.1866 31.2803L12.1869 31.2789C12.4559 29.6431 12.734 27.9519 12.7555 26.9068M13.8099 26.9286C13.8311 25.9142 13.3956 23.2774 13.0584 22.3782L13.8099 26.9286ZM12.7555 26.9068L12.9054 26.9099M12.7555 26.9068L12.9054 26.9099C12.9054 26.9099 12.9054 26.9099 12.9054 26.9099M12.7555 26.9068C12.7735 26.0394 12.3576 23.5133 12.0708 22.7483M12.9054 26.9099L12.0708 22.7483M12.2113 22.6957C12.2113 22.6957 12.2113 22.6957 12.2113 22.6957L12.0708 22.7483M12.2113 22.6957L12.0708 22.7483M4.80995 15.1624L4.80833 15.1797L4.80825 15.1806C4.68279 16.5188 4.54101 18.031 4.48263 19.5964L4.80995 15.1624ZM4.80995 15.1624C4.92471 13.9388 5.02547 12.8645 5.00074 12.2672L4.80995 15.1624ZM3.99577 21.8C3.75256 22.937 3.49326 24.4771 3.41788 26.3855L3.99577 21.8ZM3.99577 21.8C4.10103 21.3079 4.20321 20.8915 4.28662 20.5516M3.99577 21.8L4.28662 20.5516M4.28662 20.5516C4.29964 20.4985 4.31221 20.4473 4.32427 20.398M4.28662 20.5516L4.32427 20.398M4.32427 20.398C4.41142 20.0411 4.47649 19.7641 4.48263 19.5965L4.32427 20.398Z" fill="white" stroke="white" stroke-width="0.3"/>
<path d="M36.7326 26.3799C36.5787 22.4815 35.6906 20.2135 35.6678 19.5911C35.6235 18.4019 35.3682 14.4723 35.3005 13.7C35.2752 13.4098 35.0191 13.1955 34.7292 13.2207C34.439 13.2462 34.2245 13.502 34.2499 13.7921C34.3166 14.5531 34.5705 18.465 34.6138 19.6301C34.6442 20.4575 35.5281 22.6066 35.6787 26.4214C35.8236 30.1118 35.502 35.339 35.3933 36.9453H32.7947C32.5197 35.5178 31.6457 30.7927 31.4757 27.5751C31.4555 27.1964 31.5217 26.5674 31.5856 25.9591C31.8222 23.7096 31.7284 24.0555 31.4334 21.8546C31.1405 19.6693 30.776 16.9496 29.8016 15.1298C29.5439 14.6484 28.8093 14.8317 28.8093 15.3787C28.8093 17.8883 27.6891 20.3842 26.9421 22.3785C26.6049 23.2779 26.1694 25.9147 26.1905 26.929C26.2136 28.0507 26.4845 29.6971 26.7981 31.6033C27.0716 33.266 27.3782 35.129 27.5667 36.9453H20.5279L17.3005 37.1C13.1732 37.4726 20.2918 37.1 20.0005 37.1C19.7093 37.1 22.7005 37.1 19.4732 36.9453H12.4344C12.5327 35.9978 13.0457 32.6652 13.2411 31.4019C13.2856 31.114 13.0884 30.8446 12.8005 30.8001C12.5131 30.7559 12.2433 30.9528 12.1988 31.2407C11.9596 32.7878 11.4287 36.3074 11.3283 37.4256C11.3007 37.7335 11.5433 38.0001 11.8536 38.0001H28.1478C28.4582 38.0001 28.7006 37.7334 28.673 37.4256C28.4905 35.3926 28.1444 33.2885 27.839 31.4323C27.5319 29.5658 27.2667 27.9538 27.2452 26.9072C27.2271 26.0399 27.6429 23.5139 27.9299 22.7487C28.4635 21.3241 29.2329 19.5549 29.6214 17.6421C29.992 19.0386 30.2047 20.6258 30.3881 21.9948C30.6815 24.1841 30.7547 23.7761 30.5368 25.8489C30.4653 26.5278 30.398 27.1691 30.4224 27.6309C30.6278 31.5174 31.794 37.3314 31.8436 37.577C31.8933 37.8231 32.1095 38.0001 32.3605 38.0001H35.8848C36.1607 38.0001 36.39 37.7875 36.4107 37.5123C36.4157 37.4459 36.9072 30.8279 36.7326 26.3799Z" fill="white"/>
<path d="M14.0477 6.08438C14.8247 5.98735 15.2321 5.90403 15.5004 5.78724C16.6173 5.30187 17.5976 4.2687 17.7355 3.05469H22.2637C22.4049 4.32144 23.4565 5.33394 24.4995 5.7871C24.9248 5.97223 25.7232 6.06195 26.8281 6.1862C28.8285 6.41105 31.8514 6.75088 33.0677 7.88734C34.1386 8.88732 34.1597 10.6535 34.0954 12.2301C34.0738 12.7511 34.1343 13.5367 34.2028 14.3081C34.2272 14.5822 34.4573 14.7888 34.7275 14.7887C34.7431 14.7887 34.7589 14.788 34.7747 14.7867C35.0648 14.7609 35.2791 14.5048 35.2533 14.2147C35.188 13.4789 35.1301 12.7345 35.1492 12.2735C35.223 10.4625 35.1849 8.42129 33.7877 7.11664C32.3163 5.74182 29.2123 5.39286 26.9459 5.13812C26.0482 5.03715 25.2002 4.94187 24.9201 4.81995C24.038 4.43668 23.2027 3.5468 23.3127 2.58746C23.3299 2.43812 23.2824 2.28856 23.1824 2.17634C23.0822 2.06412 22.939 2 22.7888 2H17.2114C17.061 2 16.9179 2.06412 16.8178 2.17634C16.7178 2.28856 16.6703 2.43812 16.6875 2.58746C16.7975 3.5468 15.9621 4.43668 15.0798 4.82009C14.8461 4.92184 14.1469 5.00909 13.9172 5.03785C13.6282 5.07399 13.4231 5.33752 13.4592 5.62651C13.4953 5.91549 13.7582 6.12031 14.0477 6.08438Z" fill="white"/>
</g>
<path d="M17.9129 29.8054H16.8546C16.2534 29.8054 15.6955 29.5047 15.3627 29.0016L15 28.4541L15.6483 28.0193L16.0111 28.5667C16.1993 28.8514 16.5149 29.0212 16.8546 29.0212H17.9129C17.9795 29.0212 18.0461 29.0145 18.1112 29.0012L19.4219 28.7377C19.5306 28.7153 19.6101 28.6181 19.6101 28.5063V26.668H20.3894V28.5063C20.3894 28.9902 20.0469 29.4113 19.5751 29.5066L18.2643 29.7701C18.1498 29.7937 18.0313 29.8054 17.9129 29.8054Z" fill="white"/>
<path d="M18.11 33.3343H16.8546C16.2534 33.3343 15.6955 33.0336 15.3627 32.5305L15 31.983L15.6483 31.5482L16.0111 32.0956C16.1993 32.3803 16.5149 32.5501 16.8546 32.5501H18.11C18.2667 32.5501 18.4241 32.5128 18.5636 32.4426L19.4808 31.9807C19.5603 31.9403 19.6101 31.8595 19.6101 31.7701V30.1973H20.3894V31.7701C20.3894 32.1583 20.1747 32.5081 19.8295 32.6822L18.9119 33.1442C18.6649 33.2685 18.3875 33.3343 18.11 33.3343Z" fill="white"/>
<path d="M23.1461 29.8054H22.0878C21.9694 29.8054 21.8513 29.7937 21.736 29.7701L20.426 29.5066C19.9538 29.4113 19.6113 28.9906 19.6113 28.5063V26.668H20.3906V28.5063C20.3906 28.6181 20.4701 28.7153 20.5792 28.7377L21.8891 29.0012C21.9546 29.0145 22.0212 29.0212 22.0878 29.0212H23.1461C23.4858 29.0212 23.8014 28.851 23.9896 28.5667L24.3524 28.0193L25.0007 28.4541L24.638 29.0016C24.3048 29.5047 23.7473 29.8054 23.1461 29.8054Z" fill="white"/>
<path d="M17.9129 26.4714H16.8546C16.2534 26.4714 15.6955 26.1707 15.3627 25.6676L15 25.1202L15.6483 24.6853L16.0111 25.2327C16.1993 25.5174 16.5149 25.6872 16.8546 25.6872H17.9129C17.9795 25.6872 18.0461 25.6805 18.1112 25.6672L19.4219 25.4037C19.5306 25.3813 19.6101 25.2841 19.6101 25.1723V23.334H20.3894V25.1723C20.3894 25.6562 20.0469 26.0774 19.5751 26.1726L18.2643 26.4362C18.1498 26.4597 18.0313 26.4714 17.9129 26.4714Z" fill="white"/>
<path d="M23.1461 26.4714H22.0878C21.9694 26.4714 21.8513 26.4597 21.736 26.4362L20.426 26.1726C19.9538 26.0774 19.6113 25.6566 19.6113 25.1723V23.334H20.3906V25.1723C20.3906 25.2841 20.4701 25.3813 20.5792 25.4037L21.8891 25.6672C21.9546 25.6805 22.0212 25.6872 22.0878 25.6872H23.1461C23.4858 25.6872 23.8014 25.517 23.9896 25.2327L24.3524 24.6853L25.0007 25.1202L24.638 25.6676C24.3048 26.1707 23.7473 26.4714 23.1461 26.4714Z" fill="white"/>
<path d="M23.1445 33.3343H21.8891C21.6117 33.3343 21.3343 33.2685 21.0869 33.1442L20.1693 32.6822C19.8237 32.5081 19.6094 32.1583 19.6094 31.7701V30.1973H20.3886V31.7701C20.3886 31.8599 20.4385 31.9407 20.5184 31.9807L21.4356 32.4426C21.5751 32.5132 21.7325 32.5501 21.8891 32.5501H23.1445C23.4843 32.5501 23.7999 32.3799 23.9881 32.0956L24.3508 31.5482L24.9991 31.983L24.6364 32.5305C24.3033 33.0336 23.7457 33.3343 23.1445 33.3343Z" fill="white"/>
<defs>
<clipPath id="clip0">
<rect width="36" height="36" fill="white" transform="translate(2 2)"/>
</clipPath>
</defs>
</svg>
