<svg width="66" height="37" viewBox="0 0 66 37" fill="none" xmlns="http://www.w3.org/2000/svg">
<path d="M11.8301 0.00241257L9.05886 13.5305L14.6633 13.5337L13.9138 17.192L3.75684 17.1872L7.27758 0L11.8301 0.00241257Z" fill="#2E2F31"/>
<path d="M22.9908 0.00802781L19.47 17.1952L14.9175 17.1928L18.4382 0.00561523L22.9908 0.00802781Z" fill="#2E2F31"/>
<path d="M28.6529 0.0104692L27.8351 12.9628H27.8841L32.3731 0.0128818L37.2192 0.0152944L29.9292 17.2L24.0554 17.1976L23.8809 0.00805664L28.6529 0.0104692Z" fill="#2E2F31"/>
<path d="M48.5038 0.0208881L47.7543 3.67995L41.9536 3.67754L41.3521 6.61364L46.7852 6.61686L46.0655 10.1312L40.6316 10.128L39.9319 13.5466L45.9521 13.5498L45.2026 17.208L34.6299 17.2024L38.1514 0.0152588L48.5038 0.0208881Z" fill="#2E2F31"/>
<path d="M10.9125 19.5354C11.7773 19.5354 12.4925 19.648 13.0581 19.8732C13.6237 20.0984 14.0564 20.4157 14.3561 20.8253C14.6628 21.2537 14.8473 21.7574 14.89 22.2825C14.9435 22.8948 14.9039 23.5117 14.7726 24.1121C14.5357 25.268 14.1084 26.1989 13.4907 26.905C12.8731 27.6111 12.0258 28.044 10.9487 28.2038L10.939 28.2512C12.0113 28.3483 12.6847 28.7257 12.9592 29.3835C13.2337 30.0414 13.2519 30.9485 13.0139 32.1049L12.7131 33.5734L12.5699 34.2722C12.5209 34.5135 12.4815 34.7411 12.4541 34.9582C12.4276 35.1539 12.4117 35.351 12.4067 35.5485C12.3992 35.6861 12.4122 35.824 12.4453 35.9578C12.4903 36.0543 12.5367 36.1468 12.5844 36.2352C12.6496 36.3414 12.7413 36.4288 12.8506 36.4886L12.8016 36.7298H7.9555C7.8829 36.4715 7.85116 36.2034 7.86141 35.9353C7.86652 35.6293 7.88826 35.3238 7.92655 35.0201C7.96461 34.7156 8.00831 34.4229 8.05763 34.1419C8.10669 33.8621 8.15011 33.6329 8.1863 33.456L8.42273 32.3003C8.50934 31.9029 8.56713 31.4998 8.59563 31.0941C8.61225 30.7724 8.57848 30.5196 8.49431 30.3357C8.42028 30.1622 8.28193 30.0242 8.10829 29.9505C7.89229 29.8709 7.66286 29.834 7.43277 29.8419H6.23212L4.82157 36.721H0.269043L3.78979 19.5338L10.9125 19.5354ZM7.75928 26.8037C8.41174 26.8037 8.93179 26.616 9.31941 26.2408C9.70703 25.8655 9.96303 25.372 10.0874 24.7602C10.2354 24.0381 10.1898 23.5245 9.9507 23.2194C9.71158 22.9144 9.24917 22.7616 8.56347 22.761H7.67886L6.85054 26.8053L7.75928 26.8037Z" fill="#2E2F31"/>
<path d="M22.2194 19.5418L18.6987 36.729L14.147 36.7266L17.6677 19.5394L22.2194 19.5418Z" fill="#2E2F31"/>
<path d="M34.3409 27.3956L32.4278 36.7355H29.3437L29.5568 35.2196H29.5102C29.3009 35.5739 29.0254 35.8846 28.6987 36.1347C28.3914 36.3689 28.0481 36.5517 27.6822 36.676C27.3163 36.7973 26.9391 36.8819 26.5564 36.9285C26.1657 36.9761 25.7726 37 25.379 37C24.2205 37 23.3455 36.8111 22.7542 36.4331C22.1628 36.0551 21.7712 35.4879 21.5792 34.7314C21.3911 33.9776 21.3656 33.0469 21.5028 31.9393C21.6401 30.8316 21.8545 29.564 22.1462 28.1363C22.4024 26.8373 22.7504 25.5581 23.1876 24.3083C23.586 23.2017 24.1028 22.2713 24.7381 21.517C25.372 20.7643 26.1769 20.1745 27.0855 19.7968C28.0141 19.4038 29.1475 19.2079 30.4857 19.2089C31.2146 19.1986 31.9405 19.3045 32.6361 19.5226C33.2351 19.7086 33.7698 20.0591 34.1793 20.5342C34.5734 21.0007 34.8342 21.599 34.9618 22.3292C35.0894 23.0594 35.0465 23.9462 34.8331 24.9895H30.4277C30.6154 24.0743 30.669 23.4082 30.5886 22.991C30.5269 22.4935 30.2272 22.2442 29.6895 22.2431C29.3538 22.2316 29.0226 22.324 28.7414 22.5077C28.4851 22.6841 28.2578 22.9969 28.0594 23.4462C27.8161 24.0349 27.6222 24.6428 27.4796 25.2637C27.2903 26.0266 27.0775 26.9855 26.8411 28.1403C26.6046 29.2951 26.4245 30.2542 26.3006 31.0177C26.1768 31.7795 26.1232 32.3851 26.1398 32.8343C26.1535 33.2839 26.2443 33.5967 26.4124 33.7736C26.5805 33.9506 26.8354 34.0382 27.178 34.0382C27.4118 34.0408 27.6433 33.9916 27.8559 33.8943C28.096 33.7682 28.2987 33.5813 28.4438 33.3522C28.6678 33.0076 28.8467 32.6358 28.9762 32.2457C29.179 31.6518 29.3402 31.0445 29.4587 30.4282H27.8463L28.4647 27.3924L34.3409 27.3956Z" fill="#2E2F31"/>
<path d="M42.3614 19.5523L41.0698 25.8596L43.8596 25.8604L45.1519 19.5531L49.7036 19.5556L46.1829 36.7427L41.6311 36.7403L43.0803 29.6634L40.2906 29.6618L38.8406 36.7395L34.2881 36.7371L37.8096 19.5499L42.3614 19.5523Z" fill="#2E2F31"/>
<path d="M50.001 23.3601L50.7802 19.5563L62.1354 19.5619L61.357 23.3657L57.9303 23.3641L55.1888 36.7475L50.6363 36.745L53.3778 23.3617L50.001 23.3601Z" fill="#2E2F31"/>
<path d="M58.4542 4.03948C58.4542 4.51139 58.3143 4.9727 58.0521 5.36508C57.7899 5.75747 57.4173 6.06329 56.9813 6.24388C56.5453 6.42448 56.0655 6.47173 55.6027 6.37966C55.1398 6.2876 54.7147 6.06035 54.381 5.72666C54.0473 5.39296 53.82 4.96781 53.728 4.50497C53.6359 4.04212 53.6832 3.56237 53.8638 3.12638C54.0444 2.69039 54.3502 2.31774 54.7426 2.05556C55.1349 1.79338 55.5963 1.65344 56.0682 1.65344C56.701 1.65344 57.3079 1.90483 57.7553 2.3523C58.2028 2.79976 58.4542 3.40666 58.4542 4.03948Z" fill="#E73346"/>
<path d="M52.2586 17.2081C52.2586 17.2081 51.8565 11.6543 49.2437 7.65508L49.8404 4.46084C49.8404 4.46084 52.4725 6.84767 54.0407 10.756C54.0407 10.756 58.6125 5.38887 65.1956 3.5127L64.6793 6.20271C64.6793 6.20271 59.8783 7.82959 52.2578 17.2073" fill="#E73346"/>
</svg>
