<svg width="30" height="28" viewBox="0 0 30 28" fill="none" xmlns="http://www.w3.org/2000/svg">
<path d="M24.9994 18.8575V21.5987C25.0005 21.8532 24.9432 22.1051 24.831 22.3382C24.7188 22.5714 24.5542 22.7807 24.3478 22.9527C24.1415 23.1247 23.8978 23.2557 23.6325 23.3372C23.3672 23.4188 23.0861 23.4491 22.8072 23.4261C19.7128 23.1206 16.7404 22.1599 14.1289 20.621C11.6992 19.2181 9.63926 17.3464 8.09534 15.1386C6.39586 12.7549 5.33824 10.0409 5.00816 7.21662C4.98303 6.96395 5.01608 6.70929 5.1052 6.46885C5.19432 6.22842 5.33757 6.00748 5.52581 5.8201C5.71405 5.63273 5.94317 5.48302 6.19858 5.38051C6.45398 5.278 6.73008 5.22494 7.0093 5.2247H10.0261C10.5141 5.22033 10.9872 5.37736 11.3572 5.66651C11.7273 5.95567 11.969 6.35721 12.0373 6.79631C12.1646 7.67355 12.4007 8.53488 12.7412 9.36388C12.8765 9.69093 12.9058 10.0464 12.8256 10.3881C12.7454 10.7298 12.559 11.0434 12.2887 11.2918L11.0116 12.4523C12.4431 14.7398 14.5276 16.6339 17.0451 17.9346L18.3222 16.7742C18.5956 16.5285 18.9408 16.3592 19.3169 16.2864C19.6929 16.2135 20.0841 16.2401 20.444 16.363C21.3564 16.6724 22.3043 16.8869 23.2698 17.0026C23.7582 17.0653 24.2044 17.2888 24.5233 17.6308C24.8422 17.9728 25.0116 18.4094 24.9994 18.8575Z" stroke="#2E2F31" stroke-width="1.6" stroke-linecap="round" stroke-linejoin="round"/>
</svg>
