<svg width="30" height="30" viewBox="0 0 30 30" fill="none" xmlns="http://www.w3.org/2000/svg">
    <path d="M21.96 13.69H26.85V15.31H22.71H22.6276L22.5834 15.3796L18.8334 21.2836L18.8328 21.2845C18.6569 21.5659 18.2924 21.742 17.88 21.742H17.8238C17.3828 21.7188 17.0289 21.4995 16.9085 21.2103L16.9085 21.2103L16.9069 21.2067L12.0769 10.4307L11.9629 10.1762L11.8134 10.4116L8.99338 14.8516L8.99338 14.8516L8.9928 14.8525C8.81693 15.1339 8.45238 15.31 8.04 15.31H3.15V13.69H7.29H7.37189L7.41618 13.6211L11.1962 7.74112L11.2005 7.73432L11.2042 7.72708C11.2999 7.53555 11.4974 7.39009 11.765 7.32586L11.7651 7.32613L11.7737 7.32349C12.3511 7.14754 12.949 7.39952 13.1215 7.81369L13.1215 7.81371L13.123 7.81715L17.923 18.5692L18.0369 18.8242L18.1866 18.5884L21.0066 14.1484L21.0072 14.1475C21.1831 13.8661 21.5476 13.69 21.96 13.69Z" fill="currentColor" stroke="currentColor" stroke-width="0.3"/>
</svg>
