<svg width="9" height="9" viewBox="0 0 9 9" fill="none" xmlns="http://www.w3.org/2000/svg">
<path d="M3.4668 5.08728C3.62426 5.3055 3.82516 5.48606 4.05587 5.61671C4.28657 5.74737 4.54168 5.82506 4.8039 5.84453C5.06612 5.864 5.32931 5.82478 5.57562 5.72954C5.82194 5.63429 6.04561 5.48525 6.23146 5.29253L7.33147 4.15228C7.66542 3.79386 7.85021 3.31381 7.84603 2.81553C7.84186 2.31725 7.64905 1.84061 7.30913 1.48826C6.96922 1.13591 6.50939 0.936042 6.0287 0.931712C5.54801 0.927383 5.0849 1.11893 4.73913 1.46511L4.10846 2.11505" stroke="white" stroke-linecap="round" stroke-linejoin="round"/>
<path d="M4.9335 4.32851C4.77604 4.11029 4.57514 3.92974 4.34444 3.79908C4.11373 3.66842 3.85862 3.59073 3.5964 3.57126C3.33418 3.55179 3.07099 3.59101 2.82468 3.68626C2.57837 3.7815 2.3547 3.93054 2.16884 4.12327L1.06884 5.26351C0.734881 5.62193 0.550091 6.10198 0.554269 6.60026C0.558446 7.09854 0.751255 7.57519 1.09117 7.92754C1.43108 8.27989 1.89091 8.47975 2.3716 8.48408C2.8523 8.48841 3.3154 8.29686 3.66117 7.95069L4.28817 7.30075" stroke="white" stroke-linecap="round" stroke-linejoin="round"/>
</svg>
