<svg width="24" height="24" viewBox="0 0 24 24" fill="none" xmlns="http://www.w3.org/2000/svg">
<path d="M3.55321 3.5427L3.55362 3.54238C3.57967 3.52143 3.61466 3.50599 3.65487 3.50139C3.69509 3.4968 3.73493 3.50373 3.76867 3.51968C3.7687 3.51969 3.76873 3.51971 3.76876 3.51972L21.411 11.8768C21.4428 11.8918 21.4656 11.9131 21.4799 11.9351C21.494 11.9567 21.5 11.9791 21.5 11.9998C21.5 12.0206 21.494 12.0429 21.4799 12.0645C21.4656 12.0865 21.4428 12.1078 21.411 12.1229L3.76867 20.4799L3.76818 20.4802C3.73446 20.4962 3.6946 20.5032 3.65433 20.4986C3.61412 20.4941 3.57909 20.4787 3.55299 20.4578C3.52715 20.4371 3.51204 20.4127 3.50505 20.3902C3.49817 20.3679 3.49831 20.3449 3.50555 20.3225C3.50555 20.3225 3.50555 20.3225 3.50555 20.3225L6.15875 12.1543L6.20892 11.9998L6.15875 11.8453L3.50577 3.67775C3.50575 3.67769 3.50572 3.67762 3.5057 3.67755C3.49856 3.65533 3.49846 3.63239 3.50534 3.61021C3.51232 3.58766 3.52742 3.56339 3.55321 3.5427ZM6.89377 12.1427H6.5304L6.4182 12.4883L4.31871 18.9555L3.96082 20.058L5.00833 19.5618L20.0182 12.4517L20.9722 11.9998L20.0182 11.5479L5.00833 4.43783L3.96082 3.94163L4.31871 5.04408L6.4182 11.5113L6.5304 11.8569H6.89377H14.5358C14.5916 11.8569 14.6401 11.8782 14.6717 11.9082C14.7025 11.9373 14.7144 11.9709 14.7144 11.9998C14.7144 12.0287 14.7025 12.0623 14.6717 12.0914C14.6401 12.1214 14.5916 12.1427 14.5358 12.1427H6.89513H6.89377Z" stroke="currentColor"/>
</svg>
