<svg width="30" height="28" viewBox="0 0 30 28" fill="none" xmlns="http://www.w3.org/2000/svg">
<path d="M20 22.2958V20.399C20 19.3929 19.5786 18.428 18.8284 17.7166C18.0783 17.0051 17.0609 16.6055 16 16.6055H9C7.93913 16.6055 6.92172 17.0051 6.17157 17.7166C5.42143 18.428 5 19.3929 5 20.399V22.2958" stroke="#2E2F31" stroke-width="2" stroke-linecap="round" stroke-linejoin="round"/>
<path d="M12.5 13.1897C14.5711 13.1897 16.25 11.6611 16.25 9.77551C16.25 7.88991 14.5711 6.36133 12.5 6.36133C10.4289 6.36133 8.75 7.88991 8.75 9.77551C8.75 11.6611 10.4289 13.1897 12.5 13.1897Z" stroke="#2E2F31" stroke-width="1.7" stroke-linecap="round" stroke-linejoin="round"/>
<path d="M20 12.0515L22.0833 14.3276L26.25 9.77539" stroke="#2E2F31" stroke-width="1.7" stroke-linecap="round" stroke-linejoin="round"/>
</svg>
