<svg width="20" height="15" viewBox="0 0 20 15" fill="none" xmlns="http://www.w3.org/2000/svg">
<path d="M17.1154 0H2.88461C1.29402 0 0 1.17365 0 2.61628V12.3837C0 13.8264 1.29402 15 2.88461 15H17.1154C18.706 15 20 13.8264 20 12.3837V2.61628C20 1.17365 18.706 0 17.1154 0ZM18.8462 9.06978H14.6154C13.6611 9.06978 12.8846 8.3656 12.8846 7.5C12.8846 6.6344 13.661 5.93022 14.6154 5.93022H18.8462V9.06978ZM18.8462 4.88372H14.6154C13.0248 4.88372 11.7308 6.05737 11.7308 7.5C11.7308 8.94263 13.0248 10.1163 14.6154 10.1163H18.8462V12.3837C18.8462 13.2493 18.0698 13.9535 17.1154 13.9535H2.88461C1.93027 13.9535 1.15383 13.2493 1.15383 12.3837V2.61628C1.15383 1.75072 1.93023 1.0465 2.88461 1.0465H17.1154C18.0697 1.0465 18.8462 1.75068 18.8462 2.61628V4.88372Z" fill="currentColor"/>
</svg>
