<svg width="24" height="24" viewBox="0 0 24 24" fill="none" xmlns="http://www.w3.org/2000/svg">
<path d="M4.26855 6.80322H5.97796H19.6532" stroke="currentColor" stroke-width="1.5" stroke-linecap="round" stroke-linejoin="round"/>
<path d="M8.54262 6.80357V5.09417C8.54262 4.64081 8.72272 4.20601 9.04329 3.88544C9.36387 3.56486 9.79866 3.38477 10.252 3.38477H13.6708C14.1242 3.38477 14.559 3.56486 14.8796 3.88544C15.2001 4.20601 15.3802 4.64081 15.3802 5.09417V6.80357M17.9443 6.80357V18.7694C17.9443 19.2227 17.7642 19.6575 17.4437 19.9781C17.1231 20.2987 16.6883 20.4788 16.2349 20.4788H7.68792C7.23456 20.4788 6.79976 20.2987 6.47919 19.9781C6.15861 19.6575 5.97852 19.2227 5.97852 18.7694V6.80357H17.9443Z" stroke="currentColor" stroke-width="1.5" stroke-linecap="round" stroke-linejoin="round"/>
<path d="M10.252 11.0771V16.2054" stroke="currentColor" stroke-width="1.5" stroke-linecap="round" stroke-linejoin="round"/>
<path d="M13.6709 11.0771V16.2054" stroke="currentColor" stroke-width="1.5" stroke-linecap="round" stroke-linejoin="round"/>
</svg>
