<svg width="24" height="24" viewBox="0 0 24 24" fill="none" xmlns="http://www.w3.org/2000/svg">
<path fill-rule="evenodd" clip-rule="evenodd" d="M14.7446 2.42334C14.7859 2.42334 14.8263 2.42682 14.8657 2.43349L14.9969 2.43421C15.193 2.43421 15.3805 2.51401 15.5171 2.65536L20.3882 7.73132C20.5161 7.86497 20.5882 8.04478 20.5882 8.23036V17.1727C20.5921 19.5467 18.6632 21.4996 16.2892 21.5246L8.42282 21.5255C6.04494 21.4842 4.15263 19.5255 4.19302 17.1602V6.74093C4.24783 4.35536 6.21802 2.43421 8.58629 2.43421L14.6234 2.43349C14.6628 2.42682 14.7033 2.42334 14.7446 2.42334ZM14.0232 3.87622L8.58917 3.87651C6.99494 3.87651 5.67282 5.1669 5.63532 6.75824V17.1727C5.60744 18.7563 6.86417 20.0563 8.43629 20.0832L8.57763 20.0823H16.2815C17.8603 20.065 19.1478 18.7602 19.1459 17.1736L19.1453 9.13776L17.2147 9.13872C15.4542 9.13392 14.0234 7.6993 14.0234 5.94161L14.0232 3.87622ZM15.4655 4.68488L15.4657 5.94161C15.4657 6.90699 16.2513 7.69353 17.2167 7.69642L18.3539 7.69545L15.4655 4.68488Z" fill="currentColor"/>
<path d="M8.73299 13.0785V17.1152H7.88896V13.0785H8.73299ZM13.238 16.0021C13.1157 16.3976 12.9016 16.6932 12.5958 16.8889C12.29 17.0806 11.9332 17.1764 11.5255 17.1764C11.1259 17.1764 10.7793 17.0928 10.4857 16.9256C10.1962 16.7585 9.97196 16.5199 9.81294 16.21C9.65799 15.9001 9.58052 15.5291 9.58052 15.0969C9.58052 14.6647 9.66003 14.2936 9.81905 13.9837C9.97807 13.6738 10.2023 13.4353 10.4918 13.2681C10.7813 13.101 11.1218 13.0174 11.5132 13.0174C11.9251 13.0174 12.2778 13.105 12.5713 13.2804C12.869 13.4516 13.0729 13.7126 13.183 14.0632L12.4184 14.3874C12.3491 14.1428 12.2431 13.9695 12.1004 13.8675C11.9577 13.7615 11.7742 13.7085 11.5499 13.7085C11.2156 13.7085 10.9485 13.8288 10.7487 14.0694C10.553 14.3059 10.4551 14.6484 10.4551 15.0969C10.4551 15.5413 10.5489 15.8838 10.7365 16.1244C10.924 16.365 11.1952 16.4853 11.5499 16.4853C11.7701 16.4853 11.9597 16.4261 12.1187 16.3079C12.2818 16.1896 12.396 16.0102 12.4613 15.7697L13.238 16.0021ZM15.4314 13.0174C15.7984 13.0174 16.1205 13.0806 16.3977 13.207C16.675 13.3334 16.9115 13.5209 17.1072 13.7697L16.6363 14.314C16.4691 14.102 16.2856 13.947 16.0858 13.8492C15.8901 13.7472 15.6618 13.6963 15.4008 13.6963C15.1398 13.6963 14.9502 13.7452 14.832 13.8431C14.7138 13.9368 14.6546 14.051 14.6546 14.1856C14.6546 14.2957 14.6954 14.3894 14.777 14.4669C14.8626 14.5403 15.0114 14.6015 15.2234 14.6504L15.9757 14.8217C16.3712 14.9114 16.6567 15.0459 16.832 15.2253C17.0073 15.4007 17.095 15.629 17.095 15.9103C17.095 16.1754 17.0257 16.4037 16.887 16.5954C16.7484 16.7829 16.5547 16.9277 16.306 17.0296C16.0573 17.1275 15.7719 17.1764 15.4497 17.1764C15.0298 17.1764 14.6607 17.103 14.3427 16.9562C14.0247 16.8094 13.7739 16.6198 13.5904 16.3874L14.0675 15.8186C14.2061 16.0143 14.3957 16.1774 14.6363 16.3079C14.8809 16.4343 15.1521 16.4975 15.4497 16.4975C15.6985 16.4975 15.8901 16.4567 16.0247 16.3752C16.1592 16.2895 16.2265 16.1693 16.2265 16.0143C16.2265 15.9124 16.1898 15.8227 16.1164 15.7452C16.0471 15.6677 15.9166 15.6086 15.725 15.5678L14.9054 15.3843C14.5466 15.3069 14.2693 15.1805 14.0736 15.0051C13.8779 14.8298 13.78 14.5913 13.78 14.2895C13.78 14.049 13.8453 13.8329 13.9757 13.6412C14.1062 13.4496 14.2938 13.2987 14.5384 13.1886C14.7871 13.0745 15.0848 13.0174 15.4314 13.0174Z" fill="currentColor"/>
</svg>
