<svg width="16" height="16" viewBox="0 0 16 16" fill="none" xmlns="http://www.w3.org/2000/svg">
<path d="M10.7352 3.11264C10.8765 2.97135 11.0443 2.85928 11.2289 2.78281C11.4135 2.70635 11.6113 2.66699 11.8111 2.66699C12.0109 2.66699 12.2088 2.70635 12.3934 2.78281C12.578 2.85928 12.7457 2.97135 12.887 3.11264C13.0283 3.25393 13.1404 3.42167 13.2169 3.60627C13.2933 3.79087 13.3327 3.98873 13.3327 4.18854C13.3327 4.38835 13.2933 4.58621 13.2169 4.77081C13.1404 4.95541 13.0283 5.12315 12.887 5.26444L5.62473 12.5267L2.66602 13.3337L3.47294 10.3749L10.7352 3.11264Z" stroke="currentColor" stroke-width="1.5" stroke-linecap="round" stroke-linejoin="round"/>
</svg>
