<svg width="36" height="36" viewBox="0 0 36 36" fill="none" xmlns="http://www.w3.org/2000/svg">
<path d="M25.9656 13.1458C25.453 12.6204 24.9014 12.1495 24.3176 11.7358L24.9873 8.72465C25.2981 7.32715 24.9763 5.883 24.1044 4.76254C23.2326 3.64242 21.9311 3 20.5334 3H14.7608C13.3631 3 12.0615 3.64242 11.1897 4.76254C10.3177 5.883 9.99593 7.32715 10.3067 8.72465L10.9766 11.7358C10.3927 12.1495 9.84109 12.6204 9.32844 13.1459C7.10615 15.4236 5.88232 18.4522 5.88232 21.6736C5.88232 23.5962 6.33469 25.5091 7.19046 27.2055C8.01831 28.8465 9.2249 30.2942 10.6798 31.3919C10.7729 31.4622 10.8854 31.5 11.0008 31.5H24.2932C24.4086 31.5 24.5211 31.4622 24.6142 31.3919C26.0692 30.2942 27.2758 28.8464 28.1036 27.2055C28.9594 25.509 29.4117 23.5961 29.4117 21.6736C29.4118 18.4521 28.188 15.4236 25.9656 13.1458ZM11.3639 8.47672C11.127 7.41187 11.3723 6.31139 12.0368 5.45745C12.7016 4.60323 13.6945 4.11328 14.7608 4.11328H20.5334C21.5996 4.11328 22.5925 4.60323 23.2573 5.45745C23.9219 6.31134 24.1671 7.41181 23.9303 8.47672L23.3433 11.1155C22.8079 10.8109 22.2508 10.5506 21.6765 10.3366L22.1809 8.06882C22.3385 7.36055 22.0439 6.84599 21.8542 6.60229C21.6648 6.35876 21.2411 5.9503 20.5335 5.9503H14.7608C14.053 5.9503 13.6295 6.35882 13.4399 6.60229C13.2503 6.84599 12.9556 7.3606 13.1132 8.06882L13.6176 10.3366C13.0433 10.5506 12.4863 10.8109 11.9508 11.1155L11.3639 8.47672ZM14.6561 10.005L14.1703 7.82089C14.1169 7.58075 14.2042 7.40352 14.287 7.2972C14.37 7.19061 14.5195 7.06352 14.7608 7.06352H20.5334C20.7746 7.06352 20.9241 7.19061 21.0071 7.2972C21.0898 7.40352 21.1773 7.5807 21.1238 7.82089L20.638 10.005C19.6735 9.74697 18.6702 9.61394 17.647 9.61394C16.6239 9.61394 15.6206 9.74697 14.6561 10.005ZM24.113 30.3867H11.1811C8.53882 28.3227 6.96661 25.0793 6.96661 21.6735C6.96661 15.6377 11.7578 10.7272 17.6471 10.7272C23.5363 10.7272 28.3275 15.6377 28.3275 21.6735C28.3275 25.0794 26.7553 28.3228 24.113 30.3867Z" fill="currentColor"/>
<path d="M17.6022 18.9694C17.3943 18.9694 17.2104 18.9769 17.0434 18.9914L17.2798 17.789H19.3593C19.7817 17.789 20.1243 17.5004 20.1243 17.1445C20.1243 16.7885 19.7817 16.5 19.3593 16.5H16.6311C16.2569 16.5 15.9375 16.7281 15.8763 17.0392L15.3359 19.787C15.2888 20.0267 15.407 20.2676 15.6395 20.4113C15.8718 20.555 16.1819 20.5759 16.4392 20.4661C16.4453 20.4635 16.4661 20.455 16.4989 20.4425C16.7923 20.3312 17.0275 20.2583 17.6022 20.2583C18.0051 20.2583 18.3799 20.3941 18.6579 20.6407C18.9355 20.887 19.0769 21.2102 19.0559 21.5508C19.0166 22.1883 18.3915 22.6978 17.6326 22.7107C16.9787 22.7225 16.3895 22.3602 16.2052 21.8311C16.0861 21.4896 15.6611 21.2942 15.2556 21.3943C14.8502 21.4946 14.618 21.8527 14.737 22.1942C15.1097 23.2637 16.2829 24 17.6031 24C17.6232 24 17.6433 23.9999 17.6635 23.9995C19.2206 23.9731 20.5033 22.9268 20.584 21.6176C20.627 20.9206 20.3369 20.2585 19.7675 19.7533C19.206 19.2551 18.4169 18.9694 17.6022 18.9694Z" fill="currentColor"/>
</svg>
