<svg width="36" height="36" viewBox="0 0 36 36" fill="none" xmlns="http://www.w3.org/2000/svg">
<path d="M23.7762 0H5.11921C4.59978 0 4.17871 0.421071 4.17871 1.23814V35.3571C4.17871 35.5789 4.59978 36 5.11921 36H30.8811C31.4005 36 31.8216 35.5789 31.8216 35.3571V8.343C31.8216 7.89557 31.7618 7.75157 31.6564 7.6455L24.1761 0.165214C24.07 0.0597857 23.926 0 23.7762 0Z" fill="white"/>
<path d="M24.1074 0.097168V7.71438H31.7246L24.1074 0.097168Z" fill="#F1F4F7"/>
<path d="M11.8931 8.357H8.03592C7.68107 8.357 7.39307 8.069 7.39307 7.71415C7.39307 7.35929 7.68107 7.07129 8.03592 7.07129H11.8931C12.2479 7.07129 12.5359 7.35929 12.5359 7.71415C12.5359 8.069 12.2479 8.357 11.8931 8.357Z" fill="#0096E6"/>
<path d="M13.8216 11.5714H8.03592C7.68107 11.5714 7.39307 11.2834 7.39307 10.9285C7.39307 10.5736 7.68107 10.2856 8.03592 10.2856H13.8216C14.1765 10.2856 14.4645 10.5736 14.4645 10.9285C14.4645 11.2834 14.1765 11.5714 13.8216 11.5714Z" fill="#0096E6"/>
<path d="M16.3929 11.5716C16.2257 11.5716 16.0586 11.5009 15.9364 11.3852C15.8207 11.2631 15.75 11.0959 15.75 10.9288C15.75 10.7616 15.8207 10.5945 15.9364 10.4723C16.1743 10.2345 16.6114 10.2345 16.8493 10.4723C16.965 10.5945 17.0357 10.7616 17.0357 10.9288C17.0357 11.0959 16.965 11.2631 16.8493 11.3852C16.7271 11.5009 16.56 11.5716 16.3929 11.5716Z" fill="#0096E6"/>
<path d="M24.1075 11.5714H18.9646C18.6098 11.5714 18.3218 11.2834 18.3218 10.9285C18.3218 10.5736 18.6098 10.2856 18.9646 10.2856H24.1075C24.4623 10.2856 24.7503 10.5736 24.7503 10.9285C24.7503 11.2834 24.4623 11.5714 24.1075 11.5714Z" fill="#0096E6"/>
<path d="M8.03592 21.2142C7.86878 21.2142 7.70164 21.1435 7.57949 21.0278C7.46378 20.9056 7.39307 20.7385 7.39307 20.5713C7.39307 20.4042 7.46378 20.2371 7.57949 20.1149C7.81735 19.8771 8.25449 19.8771 8.49235 20.1149C8.60807 20.2371 8.67878 20.3978 8.67878 20.5713C8.67878 20.7385 8.60807 20.9056 8.49235 21.0278C8.37021 21.1435 8.20307 21.2142 8.03592 21.2142Z" fill="#0096E6"/>
<path d="M15.7501 21.2144H10.6072C10.2524 21.2144 9.96436 20.9264 9.96436 20.5716C9.96436 20.2167 10.2524 19.9287 10.6072 19.9287H15.7501C16.1049 19.9287 16.3929 20.2167 16.3929 20.5716C16.3929 20.9264 16.1049 21.2144 15.7501 21.2144Z" fill="#0096E6"/>
<path d="M27.9642 11.5714H26.6785C26.3236 11.5714 26.0356 11.2834 26.0356 10.9285C26.0356 10.5736 26.3236 10.2856 26.6785 10.2856H27.9642C28.3191 10.2856 28.6071 10.5736 28.6071 10.9285C28.6071 11.2834 28.3191 11.5714 27.9642 11.5714Z" fill="#0096E6"/>
<path d="M22.1788 14.7857H8.03592C7.68107 14.7857 7.39307 14.4977 7.39307 14.1429C7.39307 13.788 7.68107 13.5 8.03592 13.5H22.1788C22.5336 13.5 22.8216 13.788 22.8216 14.1429C22.8216 14.4977 22.5336 14.7857 22.1788 14.7857Z" fill="#0096E6"/>
<path d="M27.9644 14.7857H24.1072C23.7524 14.7857 23.4644 14.4977 23.4644 14.1429C23.4644 13.788 23.7524 13.5 24.1072 13.5H27.9644C28.3192 13.5 28.6072 13.788 28.6072 14.1429C28.6072 14.4977 28.3192 14.7857 27.9644 14.7857Z" fill="#0096E6"/>
<path d="M10.6074 18.0001H8.03592C7.68107 18.0001 7.39307 17.7121 7.39307 17.3572C7.39307 17.0024 7.68107 16.7144 8.03592 16.7144H10.6074C10.9622 16.7144 11.2502 17.0024 11.2502 17.3572C11.2502 17.7121 10.9622 18.0001 10.6074 18.0001Z" fill="#0096E6"/>
<path d="M19.6071 18.0001H13.1785C12.8236 18.0001 12.5356 17.7121 12.5356 17.3572C12.5356 17.0024 12.8236 16.7144 13.1785 16.7144H19.6071C19.9619 16.7144 20.2499 17.0024 20.2499 17.3572C20.2499 17.7121 19.9619 18.0001 19.6071 18.0001Z" fill="#0096E6"/>
<path d="M27.9642 18.0001H22.1785C21.8236 18.0001 21.5356 17.7121 21.5356 17.3572C21.5356 17.0024 21.8236 16.7144 22.1785 16.7144H27.9642C28.3191 16.7144 28.6071 17.0024 28.6071 17.3572C28.6071 17.7121 28.3191 18.0001 27.9642 18.0001Z" fill="#0096E6"/>
<path d="M30.8811 35.9999H5.11921C4.59978 35.9999 4.17871 35.5788 4.17871 35.0594V25.0713H31.8216V35.0594C31.8216 35.5788 31.4005 35.9999 30.8811 35.9999Z" fill="#0096E6"/>
<path d="M15.1074 30.653C15.1074 31.1859 15.0502 31.6417 14.9358 32.0197C14.8213 32.3977 14.6767 32.714 14.5006 32.9692C14.3244 33.2244 14.1271 33.425 13.9072 33.5715C13.6873 33.7181 13.4752 33.8274 13.2701 33.9013C13.0651 33.9746 12.8773 34.0215 12.7076 34.0421C12.5379 34.0614 12.4119 34.0717 12.3303 34.0717H9.87842V27.5942H11.8288C12.374 27.5942 12.8529 27.681 13.2656 27.8533C13.6783 28.0256 14.0216 28.2564 14.2942 28.5431C14.5668 28.8298 14.7699 29.157 14.9049 29.5228C15.0399 29.8892 15.1074 30.266 15.1074 30.653ZM11.9786 33.2983C12.6935 33.2983 13.2091 33.0701 13.5253 32.613C13.8416 32.156 13.9998 31.4938 13.9998 30.6266C13.9998 30.3572 13.9676 30.0905 13.9033 29.8269C13.8384 29.5633 13.7143 29.3248 13.5298 29.1107C13.3453 28.8967 13.0946 28.7237 12.7783 28.592C12.4621 28.4602 12.0519 28.394 11.5479 28.394H10.9327V33.2983H11.9786Z" fill="white"/>
<path d="M21.5202 30.8021C21.5202 31.3472 21.4514 31.8274 21.3138 32.2433C21.1762 32.6593 20.9853 33.0051 20.7423 33.2803C20.4993 33.5561 20.2152 33.7637 19.8899 33.9045C19.5646 34.0453 19.2085 34.1153 18.8221 34.1153C18.4357 34.1153 18.0796 34.0453 17.7543 33.9045C17.429 33.7637 17.1449 33.5561 16.9019 33.2803C16.6589 33.0045 16.468 32.6593 16.3304 32.2433C16.1928 31.8274 16.124 31.3466 16.124 30.8021C16.124 30.2576 16.1928 29.778 16.3304 29.3653C16.468 28.9519 16.6582 28.608 16.9019 28.3328C17.1449 28.0571 17.429 27.8481 17.7543 27.7041C18.0796 27.5601 18.4357 27.4888 18.8221 27.4888C19.2085 27.4888 19.5646 27.5601 19.8899 27.7041C20.2152 27.8481 20.4993 28.0571 20.7423 28.3328C20.9853 28.6086 21.1756 28.9526 21.3138 29.3653C21.4507 29.778 21.5202 30.2569 21.5202 30.8021ZM18.7951 33.2546C19.0117 33.2546 19.2181 33.2121 19.4148 33.1273C19.6109 33.0424 19.787 32.9029 19.942 32.7101C20.0969 32.5166 20.219 32.2633 20.3065 31.9496C20.3939 31.6358 20.4408 31.254 20.4472 30.8027C20.4415 30.363 20.3958 29.9895 20.311 29.6822C20.2261 29.3743 20.1091 29.121 19.9593 28.9217C19.8095 28.7224 19.6398 28.5791 19.4495 28.491C19.2592 28.4029 19.0587 28.3592 18.8472 28.3592C18.6305 28.3592 18.4235 28.3997 18.2275 28.482C18.0307 28.5643 17.8552 28.7031 17.7003 28.8992C17.5447 29.0959 17.4232 29.3486 17.3358 29.6597C17.2484 29.9708 17.2008 30.3508 17.195 30.8021C17.2008 31.2418 17.2465 31.6166 17.3313 31.9271C17.4162 32.2376 17.5332 32.4908 17.683 32.6876C17.8327 32.8843 18.0025 33.027 18.1927 33.1183C18.3837 33.2089 18.5842 33.2546 18.7951 33.2546Z" fill="white"/>
<path d="M27.3905 33.4127C27.15 33.6467 26.8775 33.8228 26.5734 33.9398C26.2687 34.0575 25.9408 34.1153 25.5892 34.1153C25.2022 34.1153 24.8467 34.0453 24.5214 33.9045C24.1961 33.7637 23.912 33.5561 23.669 33.2803C23.426 33.0045 23.235 32.6593 23.0975 32.2433C22.9599 31.8274 22.8911 31.3466 22.8911 30.8021C22.8911 30.2576 22.9599 29.778 23.0975 29.3653C23.235 28.9519 23.4253 28.608 23.669 28.3328C23.912 28.0571 24.1974 27.8481 24.5259 27.7041C24.8538 27.5601 25.2086 27.4888 25.5892 27.4888C25.9408 27.4888 26.2687 27.5473 26.5734 27.6643C26.8781 27.7819 27.15 27.9574 27.3905 28.1914L26.6608 28.842C26.5143 28.6716 26.3516 28.5488 26.1729 28.473C25.9942 28.3971 25.8084 28.3586 25.6149 28.3586C25.3983 28.3586 25.1913 28.3991 24.9952 28.4813C24.7985 28.5636 24.623 28.7025 24.468 28.8986C24.3125 29.0953 24.191 29.3479 24.1035 29.6591C24.0161 29.9702 23.9685 30.3501 23.9628 30.8014C23.9685 31.2411 24.0142 31.6159 24.099 31.9264C24.1839 32.2369 24.3009 32.4902 24.4507 32.6869C24.6005 32.8836 24.7702 33.0263 24.9605 33.1176C25.1508 33.2089 25.3513 33.2539 25.5628 33.2539C25.7743 33.2539 25.9717 33.2153 26.1562 33.1395C26.3407 33.0636 26.5091 32.9402 26.6615 32.7705L27.3905 33.4127Z" fill="white"/>
</svg>
