<svg width="28" height="36" viewBox="0 0 28 36" fill="none" xmlns="http://www.w3.org/2000/svg">
<path d="M19.7762 0H1.11921C0.599782 0 0.178711 0.421071 0.178711 1.23814V35.3571C0.178711 35.5789 0.599782 36 1.11921 36H26.8811C27.4005 36 27.8216 35.5789 27.8216 35.3571V8.343C27.8216 7.89557 27.7618 7.75157 27.6564 7.6455L20.1761 0.165214C20.07 0.0597857 19.926 0 19.7762 0Z" fill="white"/>
<path d="M20.1074 0.097168V7.71438H27.7246L20.1074 0.097168Z" fill="#F1F4F7"/>
<path d="M8.54504 21.4226C8.32132 21.4226 8.10661 21.35 7.92339 21.2131C7.25418 20.711 7.16418 20.1523 7.20661 19.7718C7.32361 18.7252 8.61768 17.6298 11.0541 16.5138C12.021 14.3949 12.9409 11.7843 13.4892 9.60306C12.8477 8.20677 12.2241 6.3952 12.6786 5.33256C12.838 4.96035 13.0367 4.67492 13.4076 4.55149C13.5542 4.50263 13.9245 4.44092 14.0608 4.44092C14.3847 4.44092 14.6695 4.85813 14.8714 5.11527C15.061 5.35699 15.4911 5.86935 14.6316 9.48799C15.4982 11.2777 16.726 13.1008 17.9025 14.3493C18.7452 14.1969 19.4704 14.1191 20.0612 14.1191C21.0679 14.1191 21.678 14.3538 21.9268 14.8372C22.1325 15.2371 22.0482 15.7044 21.676 16.2258C21.318 16.7266 20.8243 16.9914 20.2489 16.9914C19.4672 16.9914 18.5569 16.4977 17.5418 15.5225C15.718 15.9037 13.5882 16.5838 11.8667 17.3366C11.3292 18.4771 10.8143 19.3957 10.3347 20.0694C9.67582 20.9919 9.10754 21.4226 8.54504 21.4226ZM10.2563 18.1273C8.88254 18.8994 8.32261 19.5339 8.28211 19.8913C8.27568 19.9505 8.25832 20.1061 8.55918 20.3362C8.65496 20.306 9.21425 20.0508 10.2563 18.1273ZM19.023 15.2718C19.5469 15.6748 19.6748 15.8786 20.0175 15.8786C20.1679 15.8786 20.5967 15.8722 20.7953 15.5951C20.8911 15.4608 20.9284 15.3746 20.9432 15.3283C20.8641 15.2866 20.7593 15.2017 20.1878 15.2017C19.8632 15.2023 19.455 15.2165 19.023 15.2718ZM14.2208 11.0405C13.7612 12.6309 13.1543 14.348 12.5018 15.9031C13.8454 15.3817 15.306 14.9266 16.6778 14.6045C15.81 13.5965 14.9428 12.3378 14.2208 11.0405ZM13.8306 5.60063C13.7676 5.62185 12.9756 6.73013 13.8923 7.66806C14.5024 6.30842 13.8583 5.59163 13.8306 5.60063Z" fill="#CC4B4C"/>
<path d="M26.8811 35.9999H1.11921C0.599782 35.9999 0.178711 35.5788 0.178711 35.0594V25.0713H27.8216V35.0594C27.8216 35.5788 27.4005 35.9999 26.8811 35.9999Z" fill="#CC4B4C"/>
<path d="M7.17602 34.0712H6.12109V27.5938H7.98409C8.25924 27.5938 8.53181 27.6375 8.80117 27.7255C9.07052 27.8136 9.31224 27.9454 9.52631 28.1209C9.74038 28.2964 9.91331 28.5092 10.0451 28.758C10.1769 29.0068 10.2431 29.2864 10.2431 29.5975C10.2431 29.926 10.1872 30.223 10.076 30.4898C9.96474 30.7566 9.80917 30.981 9.60988 31.1623C9.41059 31.3435 9.17016 31.4843 8.88924 31.584C8.60831 31.6836 8.29717 31.7331 7.95774 31.7331H7.17538V34.0712H7.17602ZM7.17602 28.3935V30.9598H8.14288C8.27145 30.9598 8.39874 30.9379 8.52538 30.8935C8.65138 30.8498 8.76709 30.7778 8.87252 30.6782C8.97795 30.5785 9.06281 30.4397 9.12709 30.261C9.19138 30.0823 9.22352 29.8611 9.22352 29.5975C9.22352 29.4921 9.20874 29.37 9.17981 29.233C9.15024 29.0955 9.09045 28.9637 8.99981 28.8377C8.90852 28.7117 8.78124 28.6063 8.61731 28.5214C8.45338 28.4365 8.23609 28.3941 7.96674 28.3941H7.17602V28.3935Z" fill="white"/>
<path d="M16.7121 30.6525C16.7121 31.1854 16.6549 31.6412 16.5404 32.0192C16.426 32.3972 16.2814 32.7135 16.1052 32.9687C15.9291 33.2239 15.7317 33.4245 15.5118 33.571C15.292 33.7176 15.0799 33.8269 14.8748 33.9008C14.6697 33.9741 14.482 34.021 14.3123 34.0416C14.1426 34.0609 14.0166 34.0712 13.9343 34.0712H11.4824V27.5938H13.4335C13.9786 27.5938 14.4576 27.6805 14.8703 27.8528C15.283 28.0251 15.6263 28.2559 15.8989 28.5426C16.1714 28.8293 16.3746 29.1565 16.5096 29.5223C16.6446 29.8888 16.7121 30.2655 16.7121 30.6525ZM13.5833 33.2978C14.2981 33.2978 14.8137 33.0696 15.13 32.6125C15.4463 32.1555 15.6044 31.4933 15.6044 30.6261C15.6044 30.3568 15.5723 30.09 15.508 29.8264C15.4431 29.5628 15.319 29.3243 15.1345 29.1103C14.95 28.8962 14.6993 28.7233 14.383 28.5915C14.0667 28.4597 13.6566 28.3935 13.1526 28.3935H12.5374V33.2978H13.5833Z" fill="white"/>
<path d="M19.314 28.3935V30.4326H22.0211V31.1533H19.314V34.0712H18.2417V27.5938H22.293V28.3935H19.314Z" fill="white"/>
</svg>
