<svg width="28" height="36" viewBox="0 0 28 36" fill="none" xmlns="http://www.w3.org/2000/svg">
<path d="M19.7762 0H1.11921C0.599782 0 0.178711 0.421071 0.178711 1.23814V35.3571C0.178711 35.5789 0.599782 36 1.11921 36H26.8811C27.4005 36 27.8216 35.5789 27.8216 35.3571V8.343C27.8216 7.89557 27.7618 7.75157 27.6564 7.6455L20.1761 0.165214C20.07 0.0597857 19.926 0 19.7762 0Z" fill="white"/>
<path d="M26.8811 36H1.11921C0.599782 36 0.178711 35.5789 0.178711 35.0595V25.0714H27.8216V35.0595C27.8216 35.5789 27.4005 36 26.8811 36Z" fill="#5E5E5E"/>
<path d="M12.0853 17.1111C12.0158 17.1111 11.9467 17.0952 11.8839 17.0633C11.7498 16.9948 11.6665 16.8642 11.6665 16.7222V11.2777C11.6665 11.1357 11.7498 11.0051 11.8839 10.9366C12.0183 10.8686 12.1812 10.8736 12.3106 10.9495L16.9175 13.6717C17.0377 13.7433 17.1109 13.867 17.1109 14C17.1109 14.133 17.0377 14.2566 16.917 14.3282L12.3102 17.0504C12.2419 17.0905 12.1636 17.1111 12.0853 17.1111ZM12.5041 11.9859V16.0136L15.9119 14L12.5041 11.9859Z" fill="#9E9E9E"/>
<path d="M14 21C10.1402 21 7 17.8598 7 14C7 10.1402 10.1402 7 14 7C17.8598 7 21 10.1402 21 14C21 17.8598 17.8598 21 14 21ZM14 7.93333C10.6549 7.93333 7.93333 10.6549 7.93333 14C7.93333 17.3451 10.6549 20.0667 14 20.0667C17.3451 20.0667 20.0667 17.3451 20.0667 14C20.0667 10.6549 17.3451 7.93333 14 7.93333Z" fill="#9E9E9E"/>
<path d="M20.1074 0.0970764V7.71429H27.7246L20.1074 0.0970764Z" fill="#F1F4F7"/>
</svg>
