<svg width="36" height="36" viewBox="0 0 36 36" fill="none" xmlns="http://www.w3.org/2000/svg">
<path d="M7.25 0C6.0125 0 5 1.0125 5 2.25V33.75C5 34.9875 6.0125 36 7.25 36H29.75C30.9875 36 32 34.9875 32 33.75V9L23 0H7.25Z" fill="white"/>
<path d="M25.25 9H32L23 0V6.75C23 7.9875 24.0125 9 25.25 9Z" fill="#F1F4F7"/>
<path d="M13.13 24H12.15V16.91H16.46V17.82H13.13V20.1H16.15V21.02H13.13V24ZM18.439 24H17.509V19.19H18.439V24ZM17.489 17.85C17.3623 17.7167 17.299 17.5567 17.299 17.37C17.299 17.1833 17.3623 17.0233 17.489 16.89C17.6223 16.7567 17.7823 16.69 17.969 16.69C18.1557 16.69 18.3157 16.7567 18.449 16.89C18.5823 17.0167 18.649 17.1767 18.649 17.37C18.649 17.5567 18.5823 17.7167 18.449 17.85C18.3157 17.9767 18.1557 18.04 17.969 18.04C17.7823 18.04 17.6223 17.9767 17.489 17.85ZM20.9783 24H20.0383V16.76H20.9783V24ZM23.1873 21.1H25.8173C25.804 20.74 25.684 20.4467 25.4573 20.22C25.2307 19.9867 24.9107 19.87 24.4973 19.87C24.124 19.87 23.8173 19.9933 23.5773 20.24C23.3373 20.48 23.2073 20.7667 23.1873 21.1ZM25.9573 22.35L26.7673 22.63C26.6273 23.0767 26.3673 23.4433 25.9873 23.73C25.6073 24.01 25.1473 24.15 24.6073 24.15C23.934 24.15 23.3607 23.92 22.8873 23.46C22.4207 22.9933 22.1873 22.3667 22.1873 21.58C22.1873 20.8467 22.414 20.24 22.8673 19.76C23.3207 19.28 23.8607 19.04 24.4873 19.04C25.214 19.04 25.7807 19.27 26.1873 19.73C26.594 20.1833 26.7973 20.7933 26.7973 21.56C26.7973 21.68 26.7907 21.78 26.7773 21.86H23.1573C23.164 22.2867 23.304 22.6367 23.5773 22.91C23.8573 23.1833 24.2007 23.32 24.6073 23.32C25.294 23.32 25.744 22.9967 25.9573 22.35Z" fill="#9E9E9E"/>
</svg>
