<svg width="24" height="25" viewBox="0 0 24 25" fill="none" xmlns="http://www.w3.org/2000/svg">
<path d="M12.8797 4.57617H6.99031C6.54403 4.57617 6.11603 4.74474 5.80047 5.0448C5.4849 5.34486 5.30762 5.75183 5.30762 6.17617V18.9762C5.30762 19.4005 5.4849 19.8075 5.80047 20.1075C6.11603 20.4076 6.54403 20.5762 6.99031 20.5762H17.0865C17.5327 20.5762 17.9607 20.4076 18.2763 20.1075C18.5919 19.8075 18.7692 19.4005 18.7692 18.9762V10.1762L12.8797 4.57617Z" stroke="currentColor" stroke-width="1.54128" stroke-linecap="round" stroke-linejoin="round"/>
<path d="M12.5193 4.57617V10.0762H18.2885" stroke="currentColor" stroke-width="1.65138" stroke-linecap="round" stroke-linejoin="round"/>
<path d="M9.26237 14.9085C9.63118 14.9085 9.91854 14.9977 10.1245 15.1759C10.3334 15.3511 10.4379 15.6 10.4379 15.9227C10.4379 16.2454 10.3334 16.4959 10.1245 16.6742C9.91854 16.8494 9.63118 16.937 9.26237 16.937H8.65845V17.9512H7.86552V14.9085H9.26237ZM9.1379 16.3423C9.4729 16.3423 9.6404 16.2024 9.6404 15.9227C9.6404 15.6431 9.4729 15.5032 9.1379 15.5032H8.65845V16.3423H9.1379ZM12.2357 14.9085C12.7121 14.9085 13.0763 15.0407 13.3283 15.305C13.5834 15.5693 13.711 15.9443 13.711 16.4298C13.711 16.9154 13.5834 17.2904 13.3283 17.5547C13.0763 17.819 12.7121 17.9512 12.2357 17.9512H10.9449V14.9085H12.2357ZM12.1574 17.3519C12.4155 17.3519 12.603 17.275 12.7198 17.1214C12.8396 16.9646 12.8996 16.7341 12.8996 16.4298C12.8996 16.1256 12.8396 15.8966 12.7198 15.7429C12.603 15.5862 12.4155 15.5078 12.1574 15.5078H11.7378V17.3519H12.1574ZM16.6189 15.5217H15.0468V16.1671H16.3008V16.7802H15.0468V17.9512H14.2539V14.9085H16.6189V15.5217Z" fill="currentColor"/>
</svg>
