<svg width="28" height="36" viewBox="0 0 28 36" fill="none" xmlns="http://www.w3.org/2000/svg">
<path d="M19.7762 0H1.11921C0.599782 0 0.178711 0.421071 0.178711 1.23814V35.3571C0.178711 35.5789 0.599782 36 1.11921 36H26.8811C27.4005 36 27.8216 35.5789 27.8216 35.3571V8.343C27.8216 7.89557 27.7618 7.75157 27.6564 7.6455L20.1761 0.165214C20.07 0.0597857 19.926 0 19.7762 0Z" fill="white"/>
<path d="M20.1074 0.097168V7.71438H27.7246L20.1074 0.097168Z" fill="#F1F4F7"/>
<path d="M26.8811 35.9999H1.11921C0.599782 35.9999 0.178711 35.5788 0.178711 35.0594V25.0713H27.8216V35.0594C27.8216 35.5788 27.4005 35.9999 26.8811 35.9999Z" fill="#556080"/>
<path d="M12.2425 27.5938V28.4462L9.15746 33.078L8.98196 33.2188H12.2425V34.0712H7.93604V33.2188L11.0211 28.587L11.2056 28.4462H7.93604V27.5938H12.2425Z" fill="white"/>
<path d="M14.8169 34.0712H13.7446V27.5938H14.8169V34.0712Z" fill="white"/>
<path d="M17.4807 34.0712H16.4258V27.5938H18.2888C18.5639 27.5938 18.8365 27.6375 19.1059 27.7255C19.3752 27.8136 19.6169 27.9454 19.831 28.1209C20.0451 28.2964 20.218 28.5092 20.3498 28.758C20.4816 29.0068 20.5478 29.2864 20.5478 29.5975C20.5478 29.926 20.4919 30.223 20.3806 30.4898C20.2694 30.7566 20.1139 30.981 19.9146 31.1622C19.7153 31.3435 19.4749 31.4843 19.1939 31.584C18.913 31.6836 18.6019 31.7331 18.2624 31.7331H17.4801V34.0712H17.4807ZM17.4807 28.3935V30.9597H18.4476C18.5761 30.9597 18.7034 30.9379 18.8301 30.8935C18.9561 30.8498 19.0718 30.7778 19.1772 30.6782C19.2826 30.5785 19.3675 30.4397 19.4318 30.261C19.4961 30.0823 19.5282 29.8611 19.5282 29.5975C19.5282 29.4921 19.5134 29.37 19.4845 29.233C19.4549 29.0955 19.3951 28.9637 19.3045 28.8377C19.2132 28.7117 19.0859 28.6063 18.922 28.5214C18.7581 28.4365 18.5408 28.3941 18.2714 28.3941H17.4807V28.3935Z" fill="white"/>
<path d="M14.3215 15.4284V14.1426H15.6072V12.8569H14.3215V11.5712H15.6072V10.2855H14.3215V8.99979H15.6072V7.71408H14.3215V6.42836H15.6072V5.14265H14.3215V3.85693H13.0358V5.14265H11.7501V6.42836H13.0358V7.71408H11.7501V8.99979H13.0358V10.2855H11.7501V11.5712H13.0358V12.8569H11.7501V14.1426H13.0358V15.4284H10.4644V18.6426C10.4644 20.415 11.9063 21.8569 13.6786 21.8569C15.451 21.8569 16.8929 20.415 16.8929 18.6426V15.4284H14.3215ZM15.6072 18.6426C15.6072 19.7059 14.7419 20.5712 13.6786 20.5712C12.6154 20.5712 11.7501 19.7059 11.7501 18.6426V16.7141H15.6072V18.6426Z" fill="#556080"/>
<path d="M13.0359 19.2857H14.3216C14.6765 19.2857 14.9645 18.9984 14.9645 18.6429C14.9645 18.2874 14.6765 18 14.3216 18H13.0359C12.6811 18 12.3931 18.2874 12.3931 18.6429C12.3931 18.9984 12.6811 19.2857 13.0359 19.2857Z" fill="#556080"/>
</svg>
