<svg width="28" height="36" viewBox="0 0 28 36" fill="none" xmlns="http://www.w3.org/2000/svg">
<path d="M19.7762 0H1.11921C0.599782 0 0.178711 0.421071 0.178711 1.23814V35.3571C0.178711 35.5789 0.599782 36 1.11921 36H26.8811C27.4005 36 27.8216 35.5789 27.8216 35.3571V8.343C27.8216 7.89557 27.7618 7.75157 27.6564 7.6455L20.1761 0.165214C20.07 0.0597857 19.926 0 19.7762 0Z" fill="white"/>
<path d="M20.1074 0.097168V7.71438H27.7246L20.1074 0.097168Z" fill="#F1F4F7"/>
<path d="M26.8811 35.9999H1.11921C0.599782 35.9999 0.178711 35.5788 0.178711 35.0594V25.0713H27.8216V35.0594C27.8216 35.5788 27.4005 35.9999 26.8811 35.9999Z" fill="#91CDA0"/>
<path d="M9.10095 30.925L10.7447 34.0718H9.52331L8.49474 31.6283H8.40667L7.29903 34.0718H6.0776L7.72138 30.925L5.97217 27.5938H7.17624L8.3186 30.2308H8.40667L9.6461 27.5938H10.8502L9.10095 30.925Z" fill="white"/>
<path d="M13.3809 27.5942V33.272H16.3605V34.0717H12.3086V27.5942H13.3809Z" fill="white"/>
<path d="M21.0979 32.2961C21.0979 32.5301 21.0497 32.7576 20.9527 32.9775C20.8556 33.1973 20.7199 33.3902 20.5444 33.5573C20.3689 33.7245 20.1517 33.8576 19.8939 33.9572C19.6361 34.0568 19.3429 34.1063 19.0151 34.1063C18.8743 34.1063 18.7297 34.0986 18.5799 34.0845C18.4301 34.0703 18.2797 34.0446 18.1273 34.0099C17.9749 33.9746 17.8297 33.9263 17.6921 33.8646C17.5545 33.8029 17.4356 33.7283 17.3359 33.6403L17.5204 32.8843C17.6021 32.9312 17.7062 32.9768 17.8322 33.0206C17.9582 33.0643 18.0881 33.1054 18.2231 33.1433C18.3574 33.1819 18.4924 33.2121 18.6274 33.2359C18.7618 33.2591 18.8878 33.2713 19.0054 33.2713C19.3629 33.2713 19.6367 33.1877 19.827 33.0206C20.0173 32.8534 20.1124 32.6059 20.1124 32.2781C20.1124 32.0788 20.0449 31.9091 19.9106 31.7683C19.7756 31.6275 19.6072 31.5002 19.4053 31.3858C19.2034 31.2713 18.9849 31.1576 18.7502 31.0431C18.5156 30.9287 18.2957 30.7937 18.0913 30.6388C17.8862 30.4838 17.7165 30.3006 17.5815 30.0898C17.4465 29.8789 17.3797 29.6153 17.3797 29.2991C17.3797 29.0123 17.4324 28.7571 17.5378 28.5347C17.6432 28.3123 17.7853 28.1226 17.964 27.9677C18.1427 27.8128 18.351 27.6938 18.5882 27.6116C18.8254 27.5293 19.0762 27.4888 19.3397 27.4888C19.6091 27.4888 19.8817 27.5138 20.1568 27.5633C20.4319 27.6128 20.6544 27.6938 20.8247 27.8051C20.7894 27.8809 20.7482 27.9645 20.7019 28.0558C20.655 28.1471 20.6107 28.2313 20.5702 28.3103C20.529 28.3894 20.4937 28.4556 20.4647 28.5083C20.4352 28.5611 20.4178 28.5906 20.412 28.5964C20.3767 28.5791 20.3374 28.5559 20.2931 28.5263C20.2487 28.4968 20.1857 28.4678 20.1041 28.4383C20.0218 28.4087 19.9138 28.3888 19.7788 28.3766C19.6438 28.3643 19.4709 28.3676 19.26 28.3856C19.1424 28.3978 19.0318 28.4306 18.9257 28.4865C18.8197 28.5424 18.7264 28.6106 18.6442 28.6928C18.5619 28.7751 18.4976 28.8671 18.4507 28.9699C18.4037 29.0721 18.3806 29.1711 18.3806 29.2643C18.3806 29.4983 18.4474 29.6873 18.5824 29.8313C18.7168 29.9753 18.8839 30.1007 19.0832 30.2093C19.2825 30.318 19.4992 30.4234 19.7338 30.5256C19.9678 30.6278 20.1864 30.7532 20.3889 30.8991C20.5914 31.0451 20.7592 31.2289 20.8942 31.4481C21.0304 31.668 21.0979 31.9502 21.0979 32.2961Z" fill="white"/>
<path d="M11.1074 10.2858V7.71436H3.39307V10.2858V11.5715V12.8572V14.1429V15.4286V16.7144V18.0001V19.2858V21.8572H9.82164H11.1074H24.6074V19.2858V18.0001V16.7144V15.4286V14.1429V12.8572V10.2858H11.1074ZM4.67878 9.00007H9.82164V10.2858H4.67878V9.00007ZM4.67878 11.5715H9.82164V12.8572H4.67878V11.5715ZM4.67878 14.1429H9.82164V15.4286H4.67878V14.1429ZM4.67878 16.7144H9.82164V18.0001H4.67878V16.7144ZM9.82164 20.5715H4.67878V19.2858H9.82164V20.5715ZM23.3216 20.5715H11.1074V19.2858H23.3216V20.5715ZM23.3216 18.0001H11.1074V16.7144H23.3216V18.0001ZM23.3216 15.4286H11.1074V14.1429H23.3216V15.4286ZM11.1074 12.8572V11.5715H23.3216V12.8572H11.1074Z" fill="#91CDA0"/>
</svg>
