<svg width="24" height="24" viewBox="0 0 24 24" fill="none" xmlns="http://www.w3.org/2000/svg">
<mask id="path-1-outside-1_5417:3378" maskUnits="userSpaceOnUse" x="3.19238" y="1.42285" width="17" height="20" fill="black">
<rect fill="white" x="3.19238" y="1.42285" width="17" height="20"/>
<path d="M18.4101 8.99867C17.7423 8.10409 16.8391 7.47252 15.8669 7.22029C15.2203 7.05265 14.4388 7.06675 13.5434 7.26232L13.5434 7.2621C13.5394 7.26307 13.531 7.265 13.5174 7.26803C13.494 7.27274 13.471 7.27813 13.4484 7.28341C13.3922 7.29657 13.3056 7.31734 13.2128 7.34153C13.0911 7.37311 12.9674 7.40062 12.8441 7.4236C12.8422 7.33122 12.8387 7.23627 12.8333 7.13918C12.9387 5.96279 13.4154 4.95167 14.2542 4.12788C14.9802 3.41492 15.721 3.11455 15.7276 3.11188C15.9107 3.0398 16.0008 2.83266 15.9289 2.64926C15.8569 2.46582 15.6502 2.37562 15.4671 2.44766C15.4323 2.46139 14.6055 2.79238 13.7781 3.59626C13.3398 4.02212 12.8534 4.63221 12.5173 5.45104C12.3378 4.94146 12.0676 4.45373 11.6671 4.05291C10.0527 2.43735 7.02713 2.94039 6.84886 2.97175C6.84872 2.97179 6.84858 2.97179 6.84844 2.97182C6.71794 2.99273 6.60831 3.08408 6.56966 3.21068C6.56396 3.22934 6.55941 3.24675 6.55681 3.26128C6.53633 3.37653 6.1216 5.80807 7.16646 7.49115C5.72052 8.1858 4.19238 9.90445 4.19238 12.7608C4.19238 13.774 4.50054 15.0124 5.06015 16.2478C5.6084 17.4582 6.34887 18.5642 7.14509 19.3621C8.01261 20.2322 8.90399 20.6921 9.72278 20.6921C10.2023 20.6921 10.6963 20.6194 11.1516 20.4818C11.6001 20.3459 12.0765 20.3373 12.5294 20.4568C12.5309 20.4572 12.5325 20.4576 12.5341 20.458C12.5621 20.4654 12.59 20.4734 12.618 20.4818C13.0731 20.6194 13.5671 20.6921 14.0466 20.6921C14.8301 20.6921 15.684 20.2689 16.5159 19.4684C18.2324 17.8189 19.577 14.8726 19.577 12.7608C19.5769 11.322 19.1734 10.021 18.4101 8.99867ZM11.1636 4.55785C11.8445 5.2393 12.0666 6.279 12.1177 7.15303C12.1051 7.31349 12.0985 8.01449 12.0985 8.01449L9.39693 5.31091C9.25774 5.17165 9.03221 5.17172 8.89323 5.3112C8.75422 5.45061 8.75433 5.67655 8.89348 5.81585L11.6138 8.5382C10.6835 8.58811 9.07381 8.51732 8.1399 7.58271C7.01819 6.46016 7.14149 4.36549 7.22355 3.64068C7.94768 3.55854 10.0415 3.43494 11.1636 4.55785ZM16.0224 18.9536C15.3256 19.624 14.6423 19.9784 14.0465 19.9784C13.6416 19.9784 13.2073 19.9146 12.8237 19.7987C12.7882 19.7879 12.7525 19.7778 12.7167 19.7683C12.7161 19.7682 12.7156 19.768 12.7151 19.7679C12.1334 19.6136 11.5214 19.6242 10.9455 19.7986C10.5618 19.9146 10.1275 19.9784 9.72261 19.9784C9.097 19.9784 8.37992 19.5909 7.64878 18.8576C6.10996 17.3156 4.90458 14.6375 4.90458 12.7608C4.90458 10.1383 6.33128 8.61687 7.61829 8.06926C7.62431 8.0754 7.6304 8.08154 7.63649 8.08764C8.61279 9.06465 10.1124 9.26546 11.1807 9.26543C11.8583 9.26543 12.3633 9.18857 12.449 9.1698C12.7334 9.10743 12.7265 8.97459 12.7442 8.89259C12.7444 8.89155 12.7447 8.89052 12.7449 8.88948C12.7451 8.88834 12.7453 8.88716 12.7456 8.88602C12.7459 8.88456 12.7462 8.8831 12.7464 8.8816C12.7465 8.88096 12.7467 8.88035 12.7468 8.87971C12.7535 8.84245 12.8015 8.56314 12.8281 8.14527C12.849 8.14541 12.8702 8.14373 12.8914 8.14009C13.0583 8.1114 13.2265 8.07519 13.3917 8.03233C13.4552 8.01574 13.5167 8.00065 13.5678 7.98848C15.0371 8.5018 16.4901 10.1574 16.4901 12.7608C16.4901 13.5235 16.2938 14.4329 15.9222 15.3909C15.851 15.5745 15.9419 15.7813 16.1253 15.8527C16.1676 15.8691 16.2113 15.877 16.2542 15.877C16.3968 15.877 16.5315 15.7905 16.5863 15.6493C16.9894 14.6098 17.2025 13.6109 17.2025 12.7608C17.2025 10.3893 16.1138 8.70165 14.7997 7.81846C15.1267 7.81164 15.4237 7.84254 15.6884 7.91116C17.2182 8.30805 18.8646 9.99494 18.8646 12.7608C18.8645 14.6696 17.5897 17.4476 16.0224 18.9536Z"/>
</mask>
<path d="M18.4101 8.99867C17.7423 8.10409 16.8391 7.47252 15.8669 7.22029C15.2203 7.05265 14.4388 7.06675 13.5434 7.26232L13.5434 7.2621C13.5394 7.26307 13.531 7.265 13.5174 7.26803C13.494 7.27274 13.471 7.27813 13.4484 7.28341C13.3922 7.29657 13.3056 7.31734 13.2128 7.34153C13.0911 7.37311 12.9674 7.40062 12.8441 7.4236C12.8422 7.33122 12.8387 7.23627 12.8333 7.13918C12.9387 5.96279 13.4154 4.95167 14.2542 4.12788C14.9802 3.41492 15.721 3.11455 15.7276 3.11188C15.9107 3.0398 16.0008 2.83266 15.9289 2.64926C15.8569 2.46582 15.6502 2.37562 15.4671 2.44766C15.4323 2.46139 14.6055 2.79238 13.7781 3.59626C13.3398 4.02212 12.8534 4.63221 12.5173 5.45104C12.3378 4.94146 12.0676 4.45373 11.6671 4.05291C10.0527 2.43735 7.02713 2.94039 6.84886 2.97175C6.84872 2.97179 6.84858 2.97179 6.84844 2.97182C6.71794 2.99273 6.60831 3.08408 6.56966 3.21068C6.56396 3.22934 6.55941 3.24675 6.55681 3.26128C6.53633 3.37653 6.1216 5.80807 7.16646 7.49115C5.72052 8.1858 4.19238 9.90445 4.19238 12.7608C4.19238 13.774 4.50054 15.0124 5.06015 16.2478C5.6084 17.4582 6.34887 18.5642 7.14509 19.3621C8.01261 20.2322 8.90399 20.6921 9.72278 20.6921C10.2023 20.6921 10.6963 20.6194 11.1516 20.4818C11.6001 20.3459 12.0765 20.3373 12.5294 20.4568C12.5309 20.4572 12.5325 20.4576 12.5341 20.458C12.5621 20.4654 12.59 20.4734 12.618 20.4818C13.0731 20.6194 13.5671 20.6921 14.0466 20.6921C14.8301 20.6921 15.684 20.2689 16.5159 19.4684C18.2324 17.8189 19.577 14.8726 19.577 12.7608C19.5769 11.322 19.1734 10.021 18.4101 8.99867ZM11.1636 4.55785C11.8445 5.2393 12.0666 6.279 12.1177 7.15303C12.1051 7.31349 12.0985 8.01449 12.0985 8.01449L9.39693 5.31091C9.25774 5.17165 9.03221 5.17172 8.89323 5.3112C8.75422 5.45061 8.75433 5.67655 8.89348 5.81585L11.6138 8.5382C10.6835 8.58811 9.07381 8.51732 8.1399 7.58271C7.01819 6.46016 7.14149 4.36549 7.22355 3.64068C7.94768 3.55854 10.0415 3.43494 11.1636 4.55785ZM16.0224 18.9536C15.3256 19.624 14.6423 19.9784 14.0465 19.9784C13.6416 19.9784 13.2073 19.9146 12.8237 19.7987C12.7882 19.7879 12.7525 19.7778 12.7167 19.7683C12.7161 19.7682 12.7156 19.768 12.7151 19.7679C12.1334 19.6136 11.5214 19.6242 10.9455 19.7986C10.5618 19.9146 10.1275 19.9784 9.72261 19.9784C9.097 19.9784 8.37992 19.5909 7.64878 18.8576C6.10996 17.3156 4.90458 14.6375 4.90458 12.7608C4.90458 10.1383 6.33128 8.61687 7.61829 8.06926C7.62431 8.0754 7.6304 8.08154 7.63649 8.08764C8.61279 9.06465 10.1124 9.26546 11.1807 9.26543C11.8583 9.26543 12.3633 9.18857 12.449 9.1698C12.7334 9.10743 12.7265 8.97459 12.7442 8.89259C12.7444 8.89155 12.7447 8.89052 12.7449 8.88948C12.7451 8.88834 12.7453 8.88716 12.7456 8.88602C12.7459 8.88456 12.7462 8.8831 12.7464 8.8816C12.7465 8.88096 12.7467 8.88035 12.7468 8.87971C12.7535 8.84245 12.8015 8.56314 12.8281 8.14527C12.849 8.14541 12.8702 8.14373 12.8914 8.14009C13.0583 8.1114 13.2265 8.07519 13.3917 8.03233C13.4552 8.01574 13.5167 8.00065 13.5678 7.98848C15.0371 8.5018 16.4901 10.1574 16.4901 12.7608C16.4901 13.5235 16.2938 14.4329 15.9222 15.3909C15.851 15.5745 15.9419 15.7813 16.1253 15.8527C16.1676 15.8691 16.2113 15.877 16.2542 15.877C16.3968 15.877 16.5315 15.7905 16.5863 15.6493C16.9894 14.6098 17.2025 13.6109 17.2025 12.7608C17.2025 10.3893 16.1138 8.70165 14.7997 7.81846C15.1267 7.81164 15.4237 7.84254 15.6884 7.91116C17.2182 8.30805 18.8646 9.99494 18.8646 12.7608C18.8645 14.6696 17.5897 17.4476 16.0224 18.9536Z" fill="#E48713"/>
<path d="M15.8669 7.22029L15.9423 6.9299L15.9422 6.92989L15.8669 7.22029ZM13.5434 7.26232L13.2475 7.31179L13.2995 7.62267L13.6075 7.55541L13.5434 7.26232ZM13.5434 7.2621L13.8393 7.21263L13.7862 6.89485L13.473 6.97049L13.5434 7.2621ZM13.5174 7.26803L13.5766 7.5622L13.583 7.56077L13.5174 7.26803ZM13.4484 7.28341L13.3801 6.99129L13.3799 6.99132L13.4484 7.28341ZM13.2128 7.34153L13.2882 7.63192L13.2885 7.63183L13.2128 7.34153ZM12.8441 7.4236L12.5441 7.42973L12.5514 7.7833L12.899 7.71853L12.8441 7.4236ZM12.8333 7.13918L12.5345 7.1124L12.5326 7.13412L12.5338 7.15588L12.8333 7.13918ZM14.2542 4.12788L14.044 3.91384L14.044 3.91384L14.2542 4.12788ZM15.7276 3.11188L15.6177 2.83272L15.6158 2.83351L15.7276 3.11188ZM15.9289 2.64926L15.6496 2.7588L15.6496 2.75882L15.9289 2.64926ZM15.4671 2.44766L15.3573 2.1685L15.357 2.16862L15.4671 2.44766ZM13.7781 3.59626L13.5691 3.38109L13.5691 3.38109L13.7781 3.59626ZM12.5173 5.45104L12.2343 5.5507L12.4959 6.2933L12.7948 5.56495L12.5173 5.45104ZM11.6671 4.05291L11.8793 3.84086L11.8793 3.84086L11.6671 4.05291ZM6.84886 2.97175L6.79688 2.67629L6.78635 2.67814L6.77598 2.68074L6.84886 2.97175ZM6.84844 2.97182L6.8959 3.26805L6.90872 3.26599L6.92132 3.26284L6.84844 2.97182ZM6.56966 3.21068L6.85658 3.2983L6.85659 3.29826L6.56966 3.21068ZM6.55681 3.26128L6.2615 3.20841L6.26143 3.20879L6.55681 3.26128ZM7.16646 7.49115L7.29637 7.76156L7.5976 7.61684L7.42134 7.33292L7.16646 7.49115ZM5.06015 16.2478L5.33343 16.124L5.33342 16.124L5.06015 16.2478ZM7.14509 19.3621L7.35754 19.1503L7.35744 19.1502L7.14509 19.3621ZM11.1516 20.4818L11.2384 20.7689L11.2386 20.7689L11.1516 20.4818ZM12.5294 20.4568L12.6084 20.1674L12.6059 20.1667L12.5294 20.4568ZM12.5341 20.458L12.611 20.168L12.607 20.167L12.5341 20.458ZM12.618 20.4818L12.531 20.769L12.5312 20.769L12.618 20.4818ZM16.5159 19.4684L16.308 19.2521L16.3079 19.2522L16.5159 19.4684ZM19.577 12.7608H19.877V12.7608L19.577 12.7608ZM12.1177 7.15303L12.4168 7.17653L12.4184 7.15604L12.4172 7.13552L12.1177 7.15303ZM12.0985 8.01449L11.8862 8.22654L12.3917 8.73237L12.3984 8.01733L12.0985 8.01449ZM9.39693 5.31091L9.60914 5.09886L9.60912 5.09884L9.39693 5.31091ZM8.89323 5.3112L9.10567 5.52303L9.10575 5.52295L8.89323 5.3112ZM8.89348 5.81585L8.68124 6.02787L8.68127 6.0279L8.89348 5.81585ZM11.6138 8.5382L11.6299 8.83776L12.3012 8.80174L11.826 8.32614L11.6138 8.5382ZM8.1399 7.58271L8.35211 7.37065L8.35211 7.37065L8.1399 7.58271ZM7.22355 3.64068L7.18974 3.34259L6.95234 3.36952L6.92546 3.60693L7.22355 3.64068ZM12.8237 19.7987L12.7367 20.0858L12.737 20.0859L12.8237 19.7987ZM12.7167 19.7683L12.7936 19.4783L12.7896 19.4773L12.7167 19.7683ZM12.7151 19.7679L12.7925 19.478L12.792 19.4779L12.7151 19.7679ZM10.9455 19.7986L11.0323 20.0858L11.0325 20.0857L10.9455 19.7986ZM7.64878 18.8576L7.86123 18.6458L7.86113 18.6457L7.64878 18.8576ZM7.61829 8.06926L7.83248 7.8592L7.68917 7.71308L7.50084 7.79321L7.61829 8.06926ZM7.63649 8.08764L7.42417 8.29958L7.42428 8.2997L7.63649 8.08764ZM11.1807 9.26543V8.96543H11.1807L11.1807 9.26543ZM12.449 9.1698L12.5132 9.46286L12.5133 9.46284L12.449 9.1698ZM12.7442 8.89259L13.0375 8.9559L13.038 8.95326L12.7442 8.89259ZM12.7449 8.88948L12.4518 8.82548L12.4511 8.82881L12.7449 8.88948ZM12.7456 8.88602L13.0388 8.95004L13.0401 8.94337L12.7456 8.88602ZM12.7464 8.8816L13.0412 8.93765L13.0424 8.93083L12.7464 8.8816ZM12.7468 8.87971L12.4515 8.8269L12.4509 8.83047L12.7468 8.87971ZM12.8281 8.14527L12.8302 7.84527L12.5468 7.84334L12.5288 8.12618L12.8281 8.14527ZM12.8914 8.14009L12.942 8.43579L12.9423 8.43576L12.8914 8.14009ZM13.3917 8.03233L13.467 8.32272L13.4675 8.3226L13.3917 8.03233ZM13.5678 7.98848L13.6667 7.70527L13.5837 7.67628L13.4982 7.69665L13.5678 7.98848ZM15.9222 15.3909L16.2019 15.4993L16.202 15.4993L15.9222 15.3909ZM16.1253 15.8527L16.0165 16.1322L16.0165 16.1323L16.1253 15.8527ZM16.5863 15.6493L16.866 15.7578L16.866 15.7577L16.5863 15.6493ZM14.7997 7.81846L14.7935 7.51852L13.8451 7.53829L14.6324 8.06745L14.7997 7.81846ZM15.6884 7.91116L15.7638 7.62077L15.7637 7.62076L15.6884 7.91116ZM18.8646 12.7608L19.1646 12.7608V12.7608H18.8646ZM18.6505 8.8192C17.9467 7.87643 16.9879 7.20119 15.9423 6.9299L15.7916 7.51067C16.6903 7.74385 17.5378 8.33175 18.1697 9.17814L18.6505 8.8192ZM15.9422 6.92989C15.2363 6.74688 14.4046 6.76715 13.4794 6.96923L13.6075 7.55541C14.473 7.36635 15.2044 7.35842 15.7916 7.51068L15.9422 6.92989ZM13.8393 7.21284L13.8393 7.21263L13.2475 7.31158L13.2475 7.31179L13.8393 7.21284ZM13.473 6.97049C13.4731 6.97045 13.4728 6.97054 13.4716 6.9708C13.4706 6.97105 13.4691 6.97138 13.4673 6.97181C13.4635 6.97267 13.4584 6.97382 13.4518 6.97529L13.583 7.56077C13.596 7.55786 13.607 7.55538 13.6138 7.55372L13.473 6.97049ZM13.4582 6.97393C13.4296 6.9797 13.402 6.98615 13.3801 6.99129L13.5167 7.57552C13.5399 7.57011 13.5585 7.56578 13.5766 7.56213L13.4582 6.97393ZM13.3799 6.99132C13.3224 7.00481 13.2332 7.0262 13.1371 7.05124L13.2885 7.63183C13.378 7.60849 13.462 7.58834 13.5168 7.5755L13.3799 6.99132ZM13.1375 7.05115C13.0225 7.08097 12.9056 7.10697 12.7891 7.12868L12.899 7.71853C13.0292 7.69428 13.1597 7.66525 13.2882 7.63192L13.1375 7.05115ZM13.144 7.41747C13.142 7.32182 13.1385 7.22334 13.1328 7.12248L12.5338 7.15588C12.539 7.24921 12.5423 7.34062 12.5441 7.42973L13.144 7.41747ZM13.1321 7.16596C13.2312 6.06005 13.6768 5.11545 14.4644 4.34192L14.044 3.91384C13.154 4.78788 12.6462 5.86552 12.5345 7.1124L13.1321 7.16596ZM14.4644 4.34192C15.151 3.66761 15.8516 3.38538 15.8395 3.39025L15.6158 2.83351C15.5904 2.84372 14.8093 3.16224 14.044 3.91384L14.4644 4.34192ZM15.8375 3.39102C16.175 3.25817 16.3404 2.87688 16.2082 2.5397L15.6496 2.75882C15.6612 2.78844 15.6464 2.82143 15.6177 2.83273L15.8375 3.39102ZM16.2082 2.53972C16.0758 2.2022 15.6949 2.03561 15.3573 2.1685L15.577 2.72681C15.6054 2.71562 15.6381 2.72944 15.6496 2.7588L16.2082 2.53972ZM15.357 2.16862C15.3029 2.18998 14.4358 2.53895 13.5691 3.38109L13.9872 3.81142C14.7752 3.04581 15.5618 2.73281 15.5773 2.7267L15.357 2.16862ZM13.5691 3.38109C13.108 3.82905 12.5947 4.47232 12.2397 5.33713L12.7948 5.56495C13.112 4.7921 13.5716 4.21519 13.9872 3.81142L13.5691 3.38109ZM12.8002 5.35138C12.6096 4.81006 12.3186 4.28044 11.8793 3.84086L11.4549 4.26497C11.8167 4.62702 12.066 5.07287 12.2343 5.5507L12.8002 5.35138ZM11.8793 3.84086C10.9967 2.95757 9.74912 2.66981 8.74148 2.59554C7.72616 2.52071 6.89789 2.65852 6.79688 2.67629L6.90085 3.26721C6.9781 3.25362 7.75175 3.12423 8.69738 3.19392C9.6507 3.26418 10.7232 3.53269 11.4549 4.26497L11.8793 3.84086ZM6.77598 2.68074C6.78724 2.67792 6.79653 2.6763 6.80237 2.67538C6.80764 2.67456 6.81217 2.67401 6.81138 2.67411C6.81138 2.67411 6.81138 2.67411 6.81137 2.67411C6.81136 2.67411 6.81135 2.67412 6.81134 2.67412C6.81131 2.67412 6.81127 2.67413 6.81123 2.67413C6.81113 2.67414 6.81097 2.67416 6.81078 2.67419C6.81041 2.67424 6.80979 2.67431 6.80904 2.67441C6.80756 2.67461 6.80513 2.67494 6.80216 2.67541C6.79625 2.67634 6.78688 2.67797 6.77555 2.68081L6.92132 3.26284C6.91006 3.26566 6.90077 3.26728 6.89493 3.26819C6.88966 3.26902 6.88513 3.26956 6.88592 3.26946C6.88592 3.26946 6.88592 3.26946 6.88593 3.26946C6.88594 3.26946 6.88595 3.26946 6.88596 3.26946C6.88598 3.26946 6.88602 3.26945 6.88607 3.26945C6.88617 3.26943 6.88633 3.26941 6.88652 3.26939C6.88689 3.26934 6.88751 3.26926 6.88826 3.26916C6.88974 3.26896 6.89217 3.26863 6.89514 3.26817C6.90105 3.26724 6.91042 3.2656 6.92175 3.26276L6.77598 2.68074ZM6.80097 2.6756C6.56306 2.71372 6.35647 2.88152 6.28273 3.12309L6.85659 3.29826C6.86014 3.28664 6.87281 3.27175 6.8959 3.26805L6.80097 2.6756ZM6.28274 3.12306C6.27538 3.14716 6.26707 3.17729 6.2615 3.20841L6.85211 3.31414C6.85179 3.31593 6.85182 3.31536 6.85269 3.31195C6.85352 3.30875 6.85478 3.30421 6.85658 3.2983L6.28274 3.12306ZM6.26143 3.20879C6.24918 3.27772 6.13708 3.93645 6.16226 4.79705C6.18729 5.65228 6.34868 6.74265 6.91158 7.64938L7.42134 7.33292C6.93938 6.55657 6.78571 5.58962 6.762 4.7795C6.73845 3.97475 6.84395 3.36008 6.85218 3.31376L6.26143 3.20879ZM7.03655 7.22073C5.49131 7.9631 3.89238 9.78403 3.89238 12.7608H4.49238C4.49238 10.0249 5.94973 8.40851 7.29637 7.76156L7.03655 7.22073ZM3.89238 12.7608C3.89238 13.8285 4.21531 15.1097 4.78688 16.3715L5.33342 16.124C4.78577 14.915 4.49238 13.7194 4.49238 12.7608H3.89238ZM4.78688 16.3715C5.34738 17.609 6.10699 18.7465 6.93274 19.574L7.35744 19.1502C6.59076 18.3819 5.86942 17.3073 5.33343 16.124L4.78688 16.3715ZM6.93264 19.5739C7.8286 20.4725 8.79199 20.9921 9.72278 20.9921V20.3921C9.01599 20.3921 8.19662 19.9918 7.35754 19.1503L6.93264 19.5739ZM9.72278 20.9921C10.2314 20.9921 10.7547 20.9151 11.2384 20.7689L11.0648 20.1946C10.6379 20.3236 10.1731 20.3921 9.72278 20.3921V20.9921ZM11.2386 20.7689C11.6339 20.6492 12.0537 20.6416 12.4528 20.7468L12.6059 20.1667C12.0992 20.033 11.5663 20.0427 11.0647 20.1947L11.2386 20.7689ZM12.4503 20.7462C12.4528 20.7468 12.4567 20.7479 12.4612 20.749L12.607 20.167C12.6084 20.1673 12.6091 20.1675 12.6084 20.1674L12.4503 20.7462ZM12.4572 20.748C12.4818 20.7545 12.5063 20.7615 12.531 20.769L12.705 20.1947C12.6736 20.1852 12.6424 20.1764 12.611 20.168L12.4572 20.748ZM12.5312 20.769C13.0147 20.9151 13.538 20.9921 14.0466 20.9921V20.3921C13.5963 20.3921 13.1315 20.3236 12.7048 20.1947L12.5312 20.769ZM14.0466 20.9921C14.9376 20.9921 15.8623 20.5136 16.7239 19.6846L16.3079 19.2522C15.5057 20.0241 14.7225 20.3921 14.0466 20.3921V20.9921ZM16.7237 19.6847C17.6149 18.8284 18.4002 17.6458 18.9631 16.4125C19.525 15.1811 19.877 13.8731 19.877 12.7608H19.277C19.277 13.7603 18.9567 14.9813 18.4172 16.1634C17.8786 17.3436 17.1334 18.459 16.308 19.2521L16.7237 19.6847ZM19.877 12.7608C19.8769 11.2659 19.4574 9.89992 18.6505 8.81919L18.1697 9.17815C18.8895 10.1421 19.2769 11.378 19.277 12.7608L19.877 12.7608ZM10.9513 4.7699C11.5522 5.37123 11.7683 6.31686 11.8182 7.17053L12.4172 7.13552C12.3649 6.24113 12.1367 5.10737 11.3758 4.3458L10.9513 4.7699ZM11.8186 7.12953C11.8114 7.22138 11.8065 7.44831 11.8034 7.63897C11.8018 7.73722 11.8005 7.83034 11.7997 7.89886C11.7993 7.93313 11.799 7.96128 11.7988 7.98089C11.7987 7.99069 11.7986 7.99836 11.7986 8.00359C11.7985 8.0062 11.7985 8.00821 11.7985 8.00957C11.7985 8.01024 11.7985 8.01076 11.7985 8.01111C11.7985 8.01129 11.7985 8.01142 11.7985 8.01151C11.7985 8.01156 11.7985 8.01159 11.7985 8.01162C11.7985 8.01163 11.7985 8.01164 11.7985 8.01164C11.7985 8.01165 11.7985 8.01166 12.0985 8.01449C12.3984 8.01733 12.3984 8.01733 12.3984 8.01732C12.3984 8.01732 12.3984 8.01731 12.3984 8.01731C12.3984 8.01729 12.3984 8.01726 12.3984 8.01722C12.3985 8.01714 12.3985 8.01702 12.3985 8.01686C12.3985 8.01653 12.3985 8.01604 12.3985 8.01539C12.3985 8.01408 12.3985 8.01213 12.3985 8.00957C12.3986 8.00446 12.3987 7.99691 12.3988 7.98723C12.399 7.96787 12.3993 7.94 12.3997 7.90605C12.4005 7.83812 12.4017 7.74596 12.4033 7.6489C12.4066 7.44894 12.4114 7.24514 12.4168 7.17653L11.8186 7.12953ZM12.3107 7.80244L9.60914 5.09886L9.18471 5.52297L11.8862 8.22654L12.3107 7.80244ZM9.60912 5.09884C9.35274 4.84232 8.93692 4.84232 8.68072 5.09945L9.10575 5.52295C9.1275 5.50112 9.16273 5.50097 9.18474 5.52299L9.60912 5.09884ZM8.6808 5.09937C8.42494 5.35596 8.42517 5.77152 8.68124 6.02787L9.10573 5.60383C9.08349 5.58157 9.0835 5.54526 9.10567 5.52303L8.6808 5.09937ZM8.68127 6.0279L11.4016 8.75025L11.826 8.32614L9.10569 5.60379L8.68127 6.0279ZM11.5977 8.23863C11.1469 8.26282 10.5393 8.25707 9.93756 8.13558C9.33342 8.01362 8.76154 7.78039 8.35211 7.37065L7.92769 7.79476C8.45217 8.31963 9.15208 8.58911 9.81883 8.72372C10.4879 8.8588 11.1504 8.86349 11.6299 8.83776L11.5977 8.23863ZM8.35211 7.37065C7.85908 6.87725 7.62323 6.15023 7.52776 5.42346C7.43304 4.7025 7.48202 4.02442 7.52165 3.67443L6.92546 3.60693C6.88302 3.98174 6.82932 4.7134 6.93287 5.50161C7.03565 6.28402 7.29901 7.16561 7.92769 7.79476L8.35211 7.37065ZM7.25737 3.93877C7.607 3.89911 8.28466 3.85004 9.00522 3.94481C9.73155 4.04034 10.4582 4.27636 10.9513 4.7699L11.3758 4.3458C10.7469 3.71643 9.86558 3.4528 9.08346 3.34993C8.29555 3.24631 7.56423 3.30011 7.18974 3.34259L7.25737 3.93877ZM15.8144 18.7374C15.1404 19.3859 14.5285 19.6784 14.0465 19.6784V20.2784C14.7561 20.2784 15.5109 19.8621 16.2304 19.1697L15.8144 18.7374ZM14.0465 19.6784C13.6707 19.6784 13.2656 19.6188 12.9105 19.5115L12.737 20.0859C13.1489 20.2103 13.6125 20.2784 14.0465 20.2784V19.6784ZM12.9108 19.5116C12.8717 19.4997 12.8326 19.4887 12.7936 19.4783L12.6398 20.0583C12.6724 20.0669 12.7047 20.0761 12.7367 20.0858L12.9108 19.5116ZM12.7896 19.4773C12.7959 19.4789 12.8009 19.4804 12.8009 19.4804C12.8017 19.4806 12.8003 19.4802 12.7993 19.4799C12.798 19.4795 12.7956 19.4788 12.7925 19.478L12.6376 20.0577C12.6348 20.0569 12.6327 20.0563 12.6316 20.056C12.6309 20.0558 12.6298 20.0555 12.6308 20.0558C12.6314 20.0559 12.6369 20.0576 12.6438 20.0593L12.7896 19.4773ZM12.792 19.4779C12.1565 19.3094 11.4878 19.321 10.8586 19.5115L11.0325 20.0857C11.5551 19.9275 12.1103 19.9178 12.6382 20.0578L12.792 19.4779ZM10.8588 19.5114C10.5035 19.6188 10.0984 19.6784 9.72261 19.6784V20.2784C10.1566 20.2784 10.6202 20.2103 11.0323 20.0858L10.8588 19.5114ZM9.72261 19.6784C9.21541 19.6784 8.57107 19.3577 7.86123 18.6458L7.43634 19.0694C8.18878 19.8241 8.97858 20.2784 9.72261 20.2784V19.6784ZM7.86113 18.6457C7.12238 17.9054 6.45526 16.8826 5.97319 15.8116C5.49007 14.7382 5.20458 13.6427 5.20458 12.7608H4.60458C4.60458 13.7556 4.92177 14.9375 5.42605 16.0578C5.93137 17.1805 6.63636 18.2678 7.43643 19.0695L7.86113 18.6457ZM5.20458 12.7608C5.20458 10.2603 6.55784 8.8465 7.73575 8.34532L7.50084 7.79321C6.10472 8.38725 4.60458 10.0163 4.60458 12.7608H5.20458ZM7.40411 8.27933C7.41094 8.28629 7.41769 8.29309 7.42417 8.29958L7.84882 7.8757C7.84312 7.86999 7.83769 7.86452 7.83248 7.8592L7.40411 8.27933ZM7.42428 8.2997C8.48947 9.36565 10.0956 9.56546 11.1807 9.56543L11.1807 8.96543C10.1293 8.96546 8.73611 8.76364 7.8487 7.87559L7.42428 8.2997ZM11.1807 9.56543C11.8753 9.56543 12.4023 9.48712 12.5132 9.46286L12.3848 8.87674C12.3242 8.89001 11.8413 8.96543 11.1807 8.96543V9.56543ZM12.5133 9.46284C12.6966 9.42262 12.847 9.34624 12.9421 9.21108C12.9874 9.14652 13.0094 9.08319 13.0215 9.03495C13.0274 9.01181 13.0311 8.99115 13.0335 8.97792C13.0365 8.96117 13.0368 8.95901 13.0374 8.95589L12.451 8.82928C12.4472 8.84667 12.4439 8.86659 12.4427 8.87304C12.4409 8.88302 12.4401 8.88667 12.4397 8.8885C12.4393 8.89018 12.4418 8.87933 12.4512 8.86603C12.461 8.85203 12.4693 8.84811 12.4645 8.85085C12.4576 8.85473 12.4349 8.86577 12.3847 8.87676L12.5133 9.46284ZM13.038 8.95326C13.0375 8.9556 13.0371 8.95752 13.0373 8.95659C13.0373 8.95648 13.038 8.95353 13.0387 8.95016L12.4511 8.82881C12.4516 8.82647 12.452 8.82455 12.4518 8.82548C12.4518 8.82559 12.4511 8.82854 12.4504 8.83191L13.038 8.95326ZM13.038 8.95348C13.0388 8.94981 13.0394 8.94655 13.0394 8.94644C13.0396 8.94539 13.0392 8.94749 13.0387 8.95002L12.4525 8.82203C12.4517 8.8257 12.451 8.82896 12.451 8.82907C12.4508 8.83012 12.4512 8.82802 12.4518 8.82549L13.038 8.95348ZM13.0401 8.94337C13.0403 8.94214 13.0407 8.93994 13.0412 8.93763L12.4517 8.82556C12.4516 8.82626 12.4514 8.82698 12.4511 8.82867L13.0401 8.94337ZM13.0424 8.93083C13.0415 8.93593 13.0406 8.94021 13.0408 8.9392C13.0409 8.93917 13.0409 8.9388 13.041 8.93837C13.0411 8.93792 13.0412 8.93722 13.0414 8.93637C13.0417 8.93469 13.0422 8.9321 13.0427 8.92894L12.4509 8.83047C12.4517 8.82537 12.4526 8.82109 12.4524 8.8221C12.4524 8.82213 12.4523 8.82251 12.4522 8.82293C12.4521 8.82339 12.452 8.82409 12.4518 8.82494C12.4515 8.82661 12.451 8.8292 12.4505 8.83237L13.0424 8.93083ZM13.0421 8.93251C13.0503 8.88688 13.1 8.59604 13.1275 8.16435L12.5288 8.12618C12.503 8.53024 12.4566 8.79803 12.4515 8.82691L13.0421 8.93251ZM12.8261 8.44526C12.8645 8.44552 12.9032 8.44244 12.942 8.43579L12.8408 7.84439C12.8371 7.84503 12.8336 7.8453 12.8302 7.84527L12.8261 8.44526ZM12.9423 8.43576C13.1174 8.40564 13.2938 8.36766 13.467 8.32272L13.3163 7.74195C13.1592 7.78271 12.9992 7.81717 12.8406 7.84443L12.9423 8.43576ZM13.4675 8.3226C13.5284 8.30669 13.5877 8.29212 13.6373 8.28031L13.4982 7.69665C13.4457 7.70917 13.382 7.72479 13.3159 7.74207L13.4675 8.3226ZM13.4688 8.27169C14.8087 8.73981 16.1901 10.2751 16.1901 12.7608H16.7901C16.7901 10.0396 15.2654 8.2638 13.6667 7.70527L13.4688 8.27169ZM16.1901 12.7608C16.1901 13.4759 16.005 14.3477 15.6425 15.2824L16.202 15.4993C16.5825 14.518 16.7901 13.571 16.7901 12.7608H16.1901ZM15.6426 15.2824C15.5116 15.62 15.6785 16.0007 16.0165 16.1322L16.2341 15.5731C16.2053 15.5619 16.1904 15.529 16.2019 15.4993L15.6426 15.2824ZM16.0165 16.1323C16.094 16.1624 16.1745 16.177 16.2542 16.177V15.577C16.2481 15.577 16.2413 15.5759 16.234 15.5731L16.0165 16.1323ZM16.2542 16.177C16.5168 16.177 16.765 16.018 16.866 15.7578L16.3066 15.5408C16.2979 15.563 16.2768 15.577 16.2542 15.577V16.177ZM16.866 15.7577C17.2785 14.6938 17.5025 13.6576 17.5025 12.7608H16.9025C16.9025 13.5643 16.7002 14.5257 16.3065 15.5408L16.866 15.7577ZM17.5025 12.7608C17.5025 10.2916 16.3659 8.50961 14.9671 7.56947L14.6324 8.06745C15.8618 8.8937 16.9025 10.487 16.9025 12.7608H17.5025ZM14.806 8.11839C15.1108 8.11204 15.3797 8.14105 15.6131 8.20156L15.7637 7.62076C15.4677 7.54403 15.1427 7.51124 14.7935 7.51852L14.806 8.11839ZM15.6131 8.20154C16.9995 8.56125 18.5646 10.1199 18.5646 12.7608H19.1646C19.1646 9.86999 17.4368 8.05484 15.7638 7.62077L15.6131 8.20154ZM18.5646 12.7608C18.5646 13.6571 18.2626 14.7848 17.7585 15.8831C17.2555 16.9791 16.5648 18.0163 15.8146 18.7372L16.2303 19.1699C17.0473 18.3848 17.7776 17.28 18.3038 16.1333C18.8291 14.9889 19.1646 13.7732 19.1646 12.7608L18.5646 12.7608Z" fill="#E48713" mask="url(#path-1-outside-1_5417:3378)"/>
</svg>
