<svg width="36" height="36" viewBox="0 0 36 36" fill="none" xmlns="http://www.w3.org/2000/svg">
<path d="M27.6271 13.2583C26.6057 11.8627 25.2244 10.8775 23.7375 10.484C22.7486 10.2225 21.5533 10.2445 20.1839 10.5496L20.1839 10.5492C20.1778 10.5507 20.1649 10.5537 20.1442 10.5585C20.1084 10.5658 20.0731 10.5742 20.0385 10.5825C19.9526 10.603 19.8202 10.6354 19.6783 10.6731C19.4921 10.7224 19.3029 10.7653 19.1143 10.8012C19.1114 10.6571 19.1061 10.5089 19.0979 10.3575C19.2591 8.5223 19.9881 6.94495 21.271 5.65985C22.3813 4.54763 23.5143 4.07905 23.5245 4.07488C23.8045 3.96244 23.9423 3.63931 23.8323 3.3532C23.7222 3.06703 23.406 2.92631 23.1261 3.0387C23.0728 3.06013 21.8083 3.57646 20.5429 4.83051C19.8725 5.49486 19.1285 6.4466 18.6145 7.72397C18.34 6.92903 17.9268 6.16817 17.3143 5.5429C14.8452 3.02261 10.2178 3.80736 9.94518 3.85629C9.94496 3.85634 9.94474 3.85634 9.94452 3.8564C9.74493 3.88902 9.57727 4.03152 9.51816 4.22901C9.50945 4.25812 9.50248 4.28529 9.4985 4.30794C9.46718 4.48773 8.8329 8.28094 10.4309 10.9065C8.21948 11.9902 5.88232 14.6713 5.88232 19.1272C5.88232 20.7078 6.35362 22.6396 7.2095 24.5669C8.048 26.4551 9.18049 28.1805 10.3982 29.4252C11.725 30.7826 13.0883 31.5 14.3406 31.5C15.074 31.5 15.8295 31.3866 16.5259 31.1719C17.2118 30.96 17.9403 30.9465 18.633 31.1329C18.6354 31.1336 18.6378 31.1342 18.6402 31.1348C18.683 31.1464 18.7257 31.1588 18.7686 31.172C19.4646 31.3866 20.2202 31.5 20.9535 31.5C22.1517 31.5 23.4577 30.8398 24.73 29.5911C27.3553 27.0178 29.4117 22.4216 29.4117 19.1272C29.4115 16.8826 28.7945 14.8532 27.6271 13.2583ZM16.5441 6.33059C17.5855 7.39366 17.9253 9.01559 18.0034 10.3791C17.9841 10.6294 17.974 11.723 17.974 11.723L13.8422 7.50538C13.6293 7.28812 13.2844 7.28823 13.0719 7.50582C12.8593 7.7233 12.8594 8.07576 13.0722 8.29307L17.2327 12.5399C15.8099 12.6178 13.348 12.5074 11.9197 11.0494C10.2041 9.29819 10.3927 6.03051 10.5182 4.89981C11.6257 4.77168 14.8281 4.57886 16.5441 6.33059ZM23.9753 28.7879C22.9096 29.8338 21.8646 30.3867 20.9533 30.3867C20.334 30.3867 19.6698 30.2871 19.0832 30.1063C19.0288 30.0895 18.9743 30.0737 18.9195 30.0589C18.9186 30.0587 18.9178 30.0584 18.917 30.0582C18.0274 29.8176 17.0915 29.8342 16.2107 30.1062C15.6238 30.2871 14.9596 30.3867 14.3403 30.3867C13.3835 30.3867 12.2868 29.7822 11.1686 28.6382C8.81508 26.2327 6.97156 22.0549 6.97156 19.1272C6.97156 15.0361 9.15358 12.6627 11.122 11.8084C11.1312 11.818 11.1405 11.8276 11.1498 11.8371C12.6429 13.3612 14.9365 13.6745 16.5704 13.6744C17.6067 13.6744 18.379 13.5545 18.5101 13.5252C18.9451 13.4279 18.9345 13.2207 18.9616 13.0928C18.9619 13.0912 18.9623 13.0896 18.9626 13.0879C18.963 13.0862 18.9633 13.0843 18.9637 13.0825C18.9641 13.0803 18.9646 13.078 18.965 13.0756C18.9652 13.0746 18.9654 13.0737 18.9655 13.0727C18.9757 13.0146 19.0492 12.5788 19.09 11.927C19.1219 11.9272 19.1542 11.9246 19.1868 11.9189C19.442 11.8741 19.6992 11.8176 19.9518 11.7508C20.049 11.7249 20.143 11.7014 20.2211 11.6824C22.4683 12.4832 24.6906 15.0658 24.6906 19.1272C24.6906 20.3169 24.3903 21.7356 23.8221 23.2301C23.7132 23.5166 23.8522 23.8392 24.1326 23.9505C24.1974 23.9762 24.2642 23.9885 24.3298 23.9885C24.5479 23.9885 24.7539 23.8535 24.8377 23.6332C25.4542 22.0116 25.7801 20.4534 25.7801 19.1272C25.7801 15.4277 24.1151 12.7949 22.1054 11.4171C22.6055 11.4065 23.0597 11.4547 23.4645 11.5618C25.8041 12.1809 28.3222 14.8125 28.3222 19.1272C28.3221 22.1049 26.3723 26.4386 23.9753 28.7879Z" fill="currentColor"/>
</svg>
