<svg width="25" height="24" viewBox="0 0 25 24" fill="none" xmlns="http://www.w3.org/2000/svg">
<path d="M18.5 8.1667V7.6667H18H11.6668C11.5745 7.6667 11.5 7.59198 11.5 7.50004C11.5 7.40809 11.5745 7.33337 11.6668 7.33337H18C18.4589 7.33337 18.8333 7.70759 18.8333 8.1667V16.8333C18.8333 17.2924 18.4589 17.6667 18 17.6667H16.276H15.0688L15.9224 18.5202L16.1177 18.7156L16.1179 18.7157C16.1829 18.7807 16.183 18.8858 16.1177 18.9511C16.085 18.9839 16.0431 19 16 19C15.9568 19 15.9149 18.9839 15.8822 18.9511L14.5489 17.6178L14.5487 17.6177C14.4837 17.5527 14.4836 17.4475 14.5489 17.3822L15.8822 16.0489L15.8827 16.0483C15.9466 15.9843 16.0521 15.9833 16.1179 16.049C16.1829 16.114 16.183 16.2192 16.1177 16.2845L15.9224 16.4798L15.0689 17.3333H16.276H18H18.5V16.8333V8.1667ZM4.83333 16.8333V17.3333H5.33333H11.6668C11.7584 17.3333 11.8333 17.4081 11.8333 17.5C11.8333 17.5919 11.7584 17.6667 11.6668 17.6667H5.33333C4.87427 17.6667 4.5 17.2925 4.5 16.8333V8.1667C4.5 7.70755 4.87427 7.33337 5.33333 7.33337H7.05732H8.26443L7.41088 6.47982L7.21555 6.28448L7.21543 6.28437C7.15041 6.21939 7.15025 6.11423 7.21555 6.04893L7.21588 6.04859C7.28048 5.98387 7.38596 5.9837 7.45088 6.0487L7.4511 6.04893L8.78443 7.38226L8.78454 7.38237C8.84957 7.44735 8.84973 7.55251 8.78443 7.61781L7.4511 8.95114L7.45088 8.95137C7.41852 8.98376 7.37667 9.00003 7.33332 9.00003C7.28997 9.00003 7.24812 8.98376 7.21577 8.95137L7.21543 8.95103C7.15041 8.88605 7.15025 8.78089 7.21554 8.71559L7.41088 8.52025L8.26443 7.6667H7.05732H5.33333H4.83333V8.1667V16.8333ZM9.16665 12.5C9.16665 11.1219 10.2886 10 11.6668 10C13.0448 10 14.1666 11.1218 14.1666 12.5C14.1666 13.8782 13.0448 15 11.6668 15C10.2886 15 9.16665 13.8782 9.16665 12.5ZM9.49998 12.5C9.49998 13.6952 10.4715 14.6667 11.6668 14.6667C12.8614 14.6667 13.8333 13.6952 13.8333 12.5C13.8333 11.3048 12.8614 10.3334 11.6668 10.3334C10.4715 10.3334 9.49998 11.3048 9.49998 12.5Z" fill="currentColor" stroke="currentColor"/>
</svg>
