<svg width="25" height="24" viewBox="0 0 25 24" fill="none" xmlns="http://www.w3.org/2000/svg">
<path d="M16.5 19V17.3333C16.5 16.4493 16.1839 15.6014 15.6213 14.9763C15.0587 14.3512 14.2956 14 13.5 14H7.5C6.70435 14 5.94129 14.3512 5.37868 14.9763C4.81607 15.6014 4.5 16.4493 4.5 17.3333V19" stroke="currentColor" stroke-width="1.7" stroke-linecap="round" stroke-linejoin="round"/>
<path d="M10.5 11C12.1569 11 13.5 9.65685 13.5 8C13.5 6.34315 12.1569 5 10.5 5C8.84315 5 7.5 6.34315 7.5 8C7.5 9.65685 8.84315 11 10.5 11Z" stroke="currentColor" stroke-width="1.7" stroke-linecap="round" stroke-linejoin="round"/>
<path d="M21.5 19V17.2964C21.4996 16.5415 21.3029 15.8082 20.9409 15.2115C20.5789 14.6149 20.0721 14.1887 19.5 14" stroke="currentColor" stroke-width="1.7" stroke-linecap="round" stroke-linejoin="round"/>
<path d="M16.5 5C17.0721 5.17056 17.5792 5.55796 17.9413 6.10114C18.3034 6.64432 18.5 7.31238 18.5 8C18.5 8.68762 18.3034 9.35567 17.9413 9.89886C17.5792 10.442 17.0721 10.8294 16.5 11" stroke="currentColor" stroke-width="1.7" stroke-linecap="round" stroke-linejoin="round"/>
</svg>
