<svg width="24" height="25" viewBox="0 0 24 25" fill="none" xmlns="http://www.w3.org/2000/svg">
<path d="M16 19.7681V18.0437C16 17.129 15.6839 16.2517 15.1213 15.6049C14.5587 14.9581 13.7956 14.5947 13 14.5947H7C6.20435 14.5947 5.44129 14.9581 4.87868 15.6049C4.31607 16.2517 4 17.129 4 18.0437V19.7681" stroke="white" stroke-width="1.7" stroke-linecap="round" stroke-linejoin="round"/>
<path d="M10 11.4913C11.6569 11.4913 13 10.1016 13 8.38725C13 6.67293 11.6569 5.2832 10 5.2832C8.34315 5.2832 7 6.67293 7 8.38725C7 10.1016 8.34315 11.4913 10 11.4913Z" stroke="white" stroke-width="1.7" stroke-linecap="round" stroke-linejoin="round"/>
<path d="M21 19.7681V18.0055C20.9996 17.2244 20.8029 16.4656 20.4409 15.8483C20.0789 15.2309 19.5721 14.79 19 14.5947" stroke="white" stroke-width="1.7" stroke-linecap="round" stroke-linejoin="round"/>
<path d="M16 5.2832C16.5721 5.45967 17.0792 5.86052 17.4413 6.42254C17.8034 6.98456 18 7.67579 18 8.38725C18 9.09871 17.8034 9.78994 17.4413 10.352C17.0792 10.914 16.5721 11.3148 16 11.4913" stroke="white" stroke-width="1.7" stroke-linecap="round" stroke-linejoin="round"/>
</svg>
