<svg width="20" height="20" viewBox="0 0 20 20" fill="none" xmlns="http://www.w3.org/2000/svg">
<path d="M13.3335 15.8327V14.4438C13.3335 13.7071 13.0701 13.0005 12.6013 12.4796C12.1324 11.9587 11.4965 11.666 10.8335 11.666H5.8335C5.17045 11.666 4.53457 11.9587 4.06573 12.4796C3.59689 13.0005 3.3335 13.7071 3.3335 14.4438V15.8327"  stroke-width="1.0625" stroke-linecap="round" stroke-linejoin="round"/>
<path d="M8.3335 9.16602C9.71421 9.16602 10.8335 8.04673 10.8335 6.66602C10.8335 5.2853 9.71421 4.16602 8.3335 4.16602C6.95278 4.16602 5.8335 5.2853 5.8335 6.66602C5.8335 8.04673 6.95278 9.16602 8.3335 9.16602Z"   stroke-width="1.0625" stroke-linecap="round" stroke-linejoin="round"/>
<path d="M17.5002 15.8327V14.413C17.4998 13.7839 17.3359 13.1728 17.0343 12.6756C16.7326 12.1784 16.3102 11.8233 15.8335 11.666"   stroke-width="1.0625" stroke-linecap="round" stroke-linejoin="round"/>
<path d="M13.3335 4.16602C13.8103 4.30815 14.2328 4.63098 14.5346 5.08364C14.8364 5.53629 15.0002 6.093 15.0002 6.66602C15.0002 7.23903 14.8364 7.79574 14.5346 8.2484C14.2328 8.70105 13.8103 9.02389 13.3335 9.16602"   stroke-width="1.0625" stroke-linecap="round" stroke-linejoin="round"/>
</svg>
