<svg width="30" height="28" viewBox="0 0 30 28" fill="none" xmlns="http://www.w3.org/2000/svg">
<path d="M20 22.2958V20.399C20 19.3929 19.6049 18.428 18.9017 17.7166C18.1984 17.0051 17.2446 16.6055 16.25 16.6055H8.75C7.75544 16.6055 6.80161 17.0051 6.09835 17.7166C5.39509 18.428 5 19.3929 5 20.399V22.2958" stroke="#2E2F31" stroke-width="2" stroke-linecap="round" stroke-linejoin="round"/>
<path d="M12.5 13.1897C14.5711 13.1897 16.25 11.6611 16.25 9.77551C16.25 7.88991 14.5711 6.36133 12.5 6.36133C10.4289 6.36133 8.75 7.88991 8.75 9.77551C8.75 11.6611 10.4289 13.1897 12.5 13.1897Z" stroke="#2E2F31" stroke-width="1.7" stroke-linecap="round" stroke-linejoin="round"/>
<path d="M26.25 22.2958V20.357C26.2494 19.4979 26.0036 18.6633 25.5511 17.9842C25.0986 17.3052 24.4651 16.8203 23.75 16.6055" stroke="#2E2F31" stroke-width="1.7" stroke-linecap="round" stroke-linejoin="round"/>
<path d="M20 6.36133C20.7151 6.55543 21.349 6.99632 21.8017 7.6145C22.2543 8.23267 22.5 8.99296 22.5 9.77551C22.5 10.5581 22.2543 11.3183 21.8017 11.9365C21.349 12.5547 20.7151 12.9956 20 13.1897" stroke="#2E2F31" stroke-width="1.7" stroke-linecap="round" stroke-linejoin="round"/>
</svg>
