<svg width="36" height="36" viewBox="0 0 36 36" fill="none" xmlns="http://www.w3.org/2000/svg">
    <g stroke="">
<path d="M17.5261 31.0729L17.5261 31.0729L5.33031 18.6228L5.33026 18.6228C4.00615 17.2716 3.26139 15.438 3.26178 13.5249C3.26217 11.6118 4.00768 9.7784 5.33234 8.42781C6.65679 7.07744 8.45154 6.32022 10.3214 6.32062C12.1913 6.32101 13.9857 7.07899 15.3096 8.42993L15.3097 8.42998L17.5476 10.7126L17.7765 10.9461L18.0055 10.7126L20.2434 8.42998L20.2434 8.42993C21.5673 7.07899 23.3618 6.32101 25.2317 6.32062C27.1015 6.32022 28.8963 7.07744 30.2207 8.42781C31.5454 9.7784 32.2909 11.6117 32.2913 13.5249C32.2917 15.438 31.5469 17.2716 30.2228 18.6228L30.2228 18.6228L18.027 31.0729L18.0269 31.0729C17.9935 31.1071 17.9541 31.1339 17.9112 31.152C17.8683 31.1701 17.8226 31.1794 17.7765 31.1794C17.7305 31.1794 17.6848 31.1701 17.6419 31.152C17.599 31.1339 17.5596 31.1071 17.5261 31.0729ZM5.83302 8.95873L5.83274 8.95902C4.64605 10.1724 3.98056 11.8149 3.98021 13.5261C3.97986 15.2373 4.64467 16.8801 5.83087 18.094L5.83114 18.0943L17.5475 30.0549L17.7765 30.2888L18.0056 30.0549L29.7219 18.0943C29.7219 18.0943 29.7219 18.0943 29.7219 18.0943C30.9106 16.8813 31.5772 15.2376 31.5768 13.5252C31.5765 11.8128 30.9093 10.1694 29.72 8.9569C28.5306 7.74416 26.9162 7.06187 25.2316 7.06222C23.5471 7.06258 21.933 7.74554 20.744 8.95874C20.744 8.95875 20.744 8.95877 20.744 8.95879L18.0268 11.7302C17.9594 11.7991 17.8692 11.8366 17.7765 11.8366C17.6839 11.8366 17.5937 11.7991 17.5262 11.7303L14.8091 8.95874L14.5801 9.18319L14.8091 8.95873C13.6199 7.74578 12.0056 7.06315 10.321 7.06315C8.63647 7.06315 7.02222 7.74578 5.83302 8.95873Z" fill="currentColor" stroke="currentColor" stroke-width="0.641232"/>
<path d="M10.3211 10.1493V8.76661C9.78075 8.76577 9.24433 8.86076 8.73584 9.04733L9.19535 10.3481C9.55649 10.2158 9.93742 10.1485 10.3211 10.1493Z" fill="currentColor"/>
<path d="M7.88912 15.8214C7.30541 15.1816 6.98845 14.3354 7.00522 13.4616C7.02198 12.5878 7.37117 11.7548 7.97897 11.1388C8.00904 11.1082 8.0396 11.0781 8.07064 11.0488L7.14921 10.0347C7.10561 10.0759 7.06269 10.1181 7.02047 10.1612C6.16391 11.0294 5.67187 12.2034 5.64835 13.4349C5.62482 14.6664 6.07164 15.859 6.89438 16.7606L7.88912 15.8214Z" fill="currentColor"/>
    </g>
</svg>
