<svg width="24" height="24" viewBox="0 0 24 24" fill="none" xmlns="http://www.w3.org/2000/svg">
<path d="M22.6236 11.5221H20.7624C21.5361 9.5821 21.4525 8.01163 21.1597 6.94926C20.6578 5.05546 18.9639 3 16.4544 3C15.7852 3 15.116 3.13857 14.4259 3.41571C13.2338 3.90071 12.4392 4.4319 12.0837 4.70904C11.7281 4.4319 10.9544 3.90071 9.74144 3.41571C9.05133 3.13857 8.36122 3 7.71293 3C5.20342 3 3.50951 5.05546 3.0076 6.94926C2.71483 8.08092 2.61027 9.78995 3.59316 11.9378H1.3346C1.14639 11.9378 1 12.0995 1 12.3073C1 12.5152 1.14639 12.6768 1.3346 12.6768H3.99049C4.09506 12.8847 4.22053 13.0926 4.36692 13.3004C6.54183 16.7647 11.2681 20.5292 12.1255 20.7601V20.7832C12.1255 20.7832 12.1464 20.7832 12.1673 20.7601C12.1882 20.7601 12.2091 20.7601 12.23 20.7601V20.737C12.962 20.3444 17.5 17.1111 19.884 13.2773C20.1141 12.9309 20.3023 12.5845 20.4696 12.238H22.6654C22.8536 12.238 23 12.0764 23 11.8685C23 11.6607 22.8118 11.5221 22.6236 11.5221ZM19.2776 12.8847C17.0608 16.4644 12.9829 19.3513 12.1046 19.9749C11.2053 19.3513 7.14829 16.4413 4.91065 12.8847C4.86882 12.8154 4.827 12.7461 4.78517 12.6768H7.85932C7.98479 12.6768 8.11027 12.6076 8.173 12.469L9.57414 9.42043L11.77 15.633C11.8118 15.7716 11.9582 15.864 12.0837 15.864C12.0837 15.864 12.0836 15.864 12.1046 15.864C12.2509 15.864 12.3764 15.7485 12.4183 15.5868L14.3422 8.31187L15.3669 11.984C15.4087 12.1226 15.5133 12.2149 15.6388 12.238C15.7643 12.2611 15.8897 12.1918 15.9734 12.0764L16.789 10.7599L17.4791 12.0533C17.5418 12.1687 17.6464 12.238 17.7719 12.238H19.654C19.5285 12.469 19.403 12.6768 19.2776 12.8847ZM20.0304 11.5221H17.981L17.1236 9.90543C17.0608 9.78995 16.9563 9.72067 16.8308 9.72067C16.7053 9.72067 16.6008 9.76686 16.538 9.88234L15.827 11.0371L14.6768 6.90307C14.635 6.7414 14.4886 6.64902 14.3422 6.62593C14.1958 6.62593 14.0494 6.7414 14.0076 6.90307L12.0627 14.3166L9.95057 8.35806C9.90874 8.21949 9.78327 8.12711 9.65779 8.12711C9.51141 8.12711 9.40684 8.19639 9.34411 8.33496L7.69202 11.9147H4.36692C3.53042 10.2288 3.30038 8.6121 3.67681 7.15711C4.11597 5.51736 5.55894 3.76214 7.73384 3.76214C8.31939 3.76214 8.92586 3.90071 9.53232 4.13166C11.0589 4.75523 11.8745 5.47117 11.8954 5.47117C12.0209 5.58665 12.1882 5.58665 12.3137 5.47117C12.3137 5.47117 13.1293 4.75523 14.6768 4.13166C15.2833 3.87761 15.8897 3.76214 16.4753 3.76214C18.6293 3.76214 20.0932 5.51736 20.5323 7.15711C20.8878 8.49663 20.6996 9.97472 20.0304 11.5221Z" fill="currentColor"/>
</svg>
