<svg width="17" height="16" viewBox="0 0 17 16" fill="none" xmlns="http://www.w3.org/2000/svg">
<path d="M9.11926 13.8083C12.3744 13.8083 15.0132 11.1649 15.0132 7.90413C15.0132 4.64337 12.3744 2 9.11926 2C5.86414 2 3.22534 4.64337 3.22534 7.90413C3.22534 11.1649 5.86414 13.8083 9.11926 13.8083Z" stroke="#2E2F31" stroke-width="1.1" stroke-linecap="round" stroke-linejoin="round"/>
<path d="M7.40405 6.13269C7.54262 5.7381 7.81613 5.40536 8.17613 5.19342C8.53613 4.98148 8.9594 4.904 9.37096 4.97472C9.78252 5.04543 10.1558 5.25978 10.4247 5.57978C10.6936 5.89979 10.8408 6.30481 10.8402 6.7231C10.8402 7.90393 9.07203 8.49434 9.07203 8.49434" stroke="#2E2F31" stroke-width="1.1" stroke-linecap="round" stroke-linejoin="round"/>
<path d="M9.11914 10.8555H9.12505" stroke="#2E2F31" stroke-width="1.1" stroke-linecap="round" stroke-linejoin="round"/>
</svg>
