<svg width="23" height="22" viewBox="0 0 23 22" fill="none" xmlns="http://www.w3.org/2000/svg">
<path d="M17.8889 7.25257L17.8883 7.25214L12.7943 3.32357L12.7942 3.32352C12.4332 3.04565 11.9905 2.89497 11.535 2.89497C11.0795 2.89497 10.6367 3.04565 10.2758 3.32352L10.2757 3.32357L5.18172 7.25209L5.18166 7.25214L2.56497 9.26699C2.48081 9.32456 2.40918 9.3986 2.35441 9.48464C2.29909 9.57157 2.26214 9.6689 2.24586 9.77064C2.22958 9.87238 2.23429 9.97637 2.25973 10.0762C2.28516 10.1761 2.33077 10.2697 2.39374 10.3512C2.45671 10.4328 2.53571 10.5006 2.62588 10.5504C2.71604 10.6003 2.81547 10.6312 2.91802 10.6411C3.02057 10.6511 3.12408 10.64 3.22217 10.6085C3.319 10.5773 3.40853 10.5269 3.48538 10.4603L4.88729 9.41038L4.88429 17.0845V17.0845C4.88429 17.632 5.10178 18.1571 5.48891 18.5442C5.87603 18.9313 6.40109 19.1488 6.94858 19.1488H16.1152C16.6627 19.1488 17.1878 18.9313 17.5749 18.5442C17.962 18.1571 18.1795 17.6321 18.1795 17.0846C18.1795 17.0846 18.1795 17.0846 18.1795 17.0845L18.1825 9.41362L19.5865 10.4945L19.5864 10.4946L19.5914 10.498C19.7504 10.6058 19.9445 10.649 20.1342 10.6186C20.3239 10.5882 20.4949 10.4867 20.6123 10.3346C20.7298 10.1825 20.7848 9.99142 20.7662 9.80021C20.7475 9.60899 20.6567 9.43207 20.5122 9.3055L20.5123 9.30538L20.5079 9.30198L17.8889 7.25257ZM16.67 17.0845V17.0845C16.67 17.2317 16.6116 17.3728 16.5075 17.4768C16.4035 17.5809 16.2624 17.6393 16.1152 17.6393H6.94858C6.80144 17.6393 6.66034 17.5809 6.5563 17.4768C6.45227 17.3728 6.39382 17.2317 6.39381 17.0846C6.39381 17.0846 6.39381 17.0846 6.39381 17.0845L6.39687 8.2187L11.1965 4.52966L11.1966 4.52962C11.2936 4.45494 11.4126 4.41445 11.535 4.41445C11.6574 4.41445 11.7764 4.45494 11.8734 4.52962L11.8735 4.52966L16.6731 8.21867L16.67 17.0845Z" fill="currentColor" stroke="currentColor" stroke-width="0.2"/>
</svg>
