<svg width="36" height="36" viewBox="0 0 36 36" fill="none" xmlns="http://www.w3.org/2000/svg">
<circle cx="18" cy="18" r="18" fill="#44C7FF"/>
<path d="M22.2858 21.6429H13.7144V20.1858H22.2858V21.6429ZM22.2858 18.7286H13.7144V17.2715H22.2858V18.7286ZM22.2858 15.8144H13.7144V14.3572H22.2858V15.8144ZM11.5715 25.2858L12.643 24.1929L13.7144 25.2858L14.7858 24.1929L15.8572 25.2858L16.9287 24.1929L18.0001 25.2858L19.0715 24.1929L20.143 25.2858L21.2144 24.1929L22.2858 25.2858L23.3572 24.1929L24.4287 25.2858V10.7144L23.3572 11.8072L22.2858 10.7144L21.2144 11.8072L20.143 10.7144L19.0715 11.8072L18.0001 10.7144L16.9287 11.8072L15.8572 10.7144L14.7858 11.8072L13.7144 10.7144L12.643 11.8072L11.5715 10.7144V25.2858Z" fill="white"/>
</svg>
