<svg width="24" height="24" viewBox="0 0 24 24" fill="none" xmlns="http://www.w3.org/2000/svg">
<path d="M17.2735 4.5H6.8034C5.97734 4.5 5.30768 5.26533 5.30768 6.2094V18.1752C5.30768 19.1193 5.97734 19.8846 6.8034 19.8846H17.2735C18.0996 19.8846 18.7692 19.1193 18.7692 18.1752V6.2094C18.7692 5.26533 18.0996 4.5 17.2735 4.5Z" stroke="currentColor" stroke-width="1.7" stroke-linecap="round" stroke-linejoin="round"/>
<path d="M9.14598 16.7979L9.14386 16.0625L15.0802 16.0454L15.0824 16.7808L9.14598 16.7979Z" stroke="currentColor" stroke-width="0.8" stroke-linecap="round" stroke-linejoin="round"/>
<path d="M12.0385 7.38477V14.1155" stroke="currentColor" stroke-linecap="round" stroke-linejoin="round"/>
<path d="M13.641 8.3457H11.2372C10.9396 8.3457 10.6543 8.47233 10.4439 8.69774C10.2335 8.92314 10.1154 9.22886 10.1154 9.54763C10.1154 9.8664 10.2335 10.1721 10.4439 10.3975C10.6543 10.6229 10.9396 10.7495 11.2372 10.7495H12.8397C13.1372 10.7495 13.4226 10.8762 13.6329 11.1016C13.8433 11.327 13.9615 11.6327 13.9615 11.9515C13.9615 12.2702 13.8433 12.576 13.6329 12.8014C13.4226 13.0268 13.1372 13.1534 12.8397 13.1534H10.1154" stroke="currentColor" stroke-linecap="round" stroke-linejoin="round"/>
</svg>
