<svg width="18" height="18" viewBox="0 0 18 18" fill="none" xmlns="http://www.w3.org/2000/svg">
<path d="M5.61985 0C4.03931 0 2.75258 1.26216 2.75258 2.8125V13.5H0.458763C0.337095 13.5 0.220414 13.5474 0.134382 13.6318C0.0483499 13.7162 1.21771e-05 13.8307 0 13.95V15.3C0 16.788 1.23558 18 2.75258 18H12.8454C14.3624 18 15.5979 16.788 15.5979 15.3V2.8125C15.5979 1.74519 16.4596 0.9 17.5477 0.9C17.6682 0.898327 17.7833 0.85018 17.8679 0.765971C17.9525 0.681761 18 0.568256 18 0.45C18 0.331743 17.9525 0.218239 17.8679 0.134029C17.7833 0.0498199 17.6682 0.00167311 17.5477 0H5.61985ZM5.61985 0.9H15.4689C14.988 1.40325 14.6804 2.07026 14.6804 2.8125V15.3C14.6804 16.305 13.8699 17.1 12.8454 17.1H12.5945C12.558 17.0834 12.5194 17.0716 12.4798 17.0648C11.64 16.8992 11.0103 16.1809 11.0103 15.3V13.95C11.0103 13.8307 10.962 13.7162 10.8759 13.6318C10.7899 13.5474 10.6732 13.5 10.5515 13.5H3.6701V2.8125C3.6701 1.74519 4.53175 0.9 5.61985 0.9ZM5.46215 4.05C5.40189 4.05276 5.34278 4.06713 5.28819 4.0923C5.2336 4.11747 5.1846 4.15294 5.14399 4.19669C5.10338 4.24044 5.07195 4.2916 5.0515 4.34726C5.03104 4.40293 5.02197 4.462 5.0248 4.5211C5.02762 4.5802 5.04229 4.63818 5.06796 4.69172C5.09363 4.74526 5.1298 4.79332 5.1744 4.83315C5.21901 4.87298 5.27118 4.9038 5.32793 4.92385C5.38468 4.94389 5.4449 4.95278 5.50516 4.95H8.7165C8.77729 4.95084 8.83764 4.93983 8.89406 4.91759C8.95047 4.89536 9.00182 4.86234 9.04511 4.82047C9.0884 4.7786 9.12278 4.72871 9.14625 4.67369C9.16971 4.61868 9.1818 4.55964 9.1818 4.5C9.1818 4.44036 9.16971 4.38132 9.14625 4.32631C9.12278 4.27129 9.0884 4.2214 9.04511 4.17953C9.00182 4.13766 8.95047 4.10464 8.89406 4.08241C8.83764 4.06017 8.77729 4.04916 8.7165 4.05H5.50516C5.49083 4.04934 5.47647 4.04934 5.46215 4.05ZM5.46215 6.3C5.40189 6.30276 5.34278 6.31713 5.28819 6.3423C5.2336 6.36747 5.1846 6.40294 5.14399 6.44669C5.10338 6.49043 5.07195 6.5416 5.0515 6.59726C5.03104 6.65293 5.02197 6.712 5.0248 6.7711C5.02762 6.8302 5.04229 6.88818 5.06796 6.94172C5.09363 6.99526 5.1298 7.04332 5.1744 7.08315C5.21901 7.12298 5.27118 7.15379 5.32793 7.17384C5.38468 7.19389 5.4449 7.20278 5.50516 7.2H12.8454C12.9062 7.20084 12.9665 7.18983 13.0229 7.16759C13.0793 7.14536 13.1307 7.11234 13.174 7.07047C13.2173 7.0286 13.2516 6.97871 13.2751 6.92369C13.2986 6.86868 13.3107 6.80964 13.3107 6.75C13.3107 6.69036 13.2986 6.63132 13.2751 6.5763C13.2516 6.52129 13.2173 6.4714 13.174 6.42953C13.1307 6.38766 13.0793 6.35464 13.0229 6.33241C12.9665 6.31017 12.9062 6.29916 12.8454 6.3H5.50516C5.49083 6.29934 5.47647 6.29934 5.46215 6.3ZM5.46215 8.55C5.40189 8.55276 5.34278 8.56713 5.28819 8.5923C5.2336 8.61747 5.1846 8.65294 5.14399 8.69669C5.10338 8.74043 5.07195 8.7916 5.0515 8.84726C5.03104 8.90293 5.02197 8.962 5.0248 9.0211C5.02762 9.0802 5.04229 9.13818 5.06796 9.19172C5.09363 9.24526 5.1298 9.29332 5.1744 9.33315C5.21901 9.37298 5.27118 9.4038 5.32793 9.42384C5.38468 9.44389 5.4449 9.45278 5.50516 9.45H12.8454C12.9062 9.45084 12.9665 9.43983 13.0229 9.41759C13.0793 9.39536 13.1307 9.36234 13.174 9.32047C13.2173 9.2786 13.2516 9.22871 13.2751 9.17369C13.2986 9.11868 13.3107 9.05964 13.3107 9C13.3107 8.94036 13.2986 8.88132 13.2751 8.82631C13.2516 8.77129 13.2173 8.7214 13.174 8.67953C13.1307 8.63766 13.0793 8.60464 13.0229 8.58241C12.9665 8.56017 12.9062 8.54916 12.8454 8.55H5.50516C5.49083 8.54934 5.47647 8.54934 5.46215 8.55ZM5.46215 10.8C5.40189 10.8028 5.34278 10.8171 5.28819 10.8423C5.2336 10.8675 5.1846 10.9029 5.14399 10.9467C5.10338 10.9904 5.07195 11.0416 5.0515 11.0973C5.03104 11.1529 5.02197 11.212 5.0248 11.2711C5.02762 11.3302 5.04229 11.3882 5.06796 11.4417C5.09363 11.4953 5.1298 11.5433 5.1744 11.5831C5.21901 11.623 5.27118 11.6538 5.32793 11.6738C5.38468 11.6939 5.4449 11.7028 5.50516 11.7H8.7165C8.77729 11.7008 8.83764 11.6898 8.89406 11.6676C8.95047 11.6454 9.00182 11.6123 9.04511 11.5705C9.0884 11.5286 9.12278 11.4787 9.14625 11.4237C9.16971 11.3687 9.1818 11.3096 9.1818 11.25C9.1818 11.1904 9.16971 11.1313 9.14625 11.0763C9.12278 11.0213 9.0884 10.9714 9.04511 10.9295C9.00182 10.8877 8.95047 10.8546 8.89406 10.8324C8.83764 10.8102 8.77729 10.7992 8.7165 10.8H5.50516C5.49083 10.7993 5.47647 10.7993 5.46215 10.8ZM0.917526 14.4H10.0928V15.3C10.0928 15.999 10.3783 16.6196 10.8239 17.1H2.75258C1.72802 17.1 0.917526 16.305 0.917526 15.3V14.4Z" fill="currentColor"/>
</svg>
