<svg width="20" height="20" viewBox="0 0 20 20" fill="none" xmlns="http://www.w3.org/2000/svg">
<mask id="path-1-inside-1" fill="white">
<path d="M6.24427 0C4.48813 0 3.05842 1.4024 3.05842 3.125V15H0.509737C0.37455 15 0.244905 15.0527 0.149313 15.1465C0.0537221 15.2402 1.35301e-05 15.3674 0 15.5V17C0 18.6534 1.37287 20 3.05842 20H14.2726C15.9582 20 17.331 18.6534 17.331 17V3.125C17.331 1.9391 18.2884 1 19.4974 1C19.6314 0.998141 19.7592 0.944645 19.8532 0.851079C19.9473 0.757512 20 0.631396 20 0.5C20 0.368604 19.9473 0.242488 19.8532 0.148921C19.7592 0.0553554 19.6314 0.00185901 19.4974 0H6.24427ZM6.24427 1H17.1877C16.6533 1.55917 16.3116 2.30029 16.3116 3.125V17C16.3116 18.1166 15.411 19 14.2726 19H13.9939C13.9533 18.9816 13.9105 18.9684 13.8664 18.9609C12.9333 18.7769 12.2337 17.9788 12.2337 17V15.5C12.2337 15.3674 12.18 15.2402 12.0844 15.1465C11.9888 15.0527 11.8591 15 11.7239 15H4.07789V3.125C4.07789 1.9391 5.03528 1 6.24427 1ZM6.06905 4.5C6.0021 4.50307 5.93643 4.51904 5.87577 4.547C5.81511 4.57497 5.76067 4.61438 5.71554 4.66299C5.67042 4.71159 5.6355 4.76845 5.61277 4.83029C5.59005 4.89214 5.57997 4.95777 5.58311 5.02344C5.58624 5.08911 5.60254 5.15353 5.63106 5.21302C5.65958 5.27251 5.69978 5.32591 5.74934 5.37016C5.7989 5.41442 5.85687 5.44866 5.91992 5.47094C5.98298 5.49322 6.04989 5.50309 6.11684 5.5H9.685C9.75254 5.50094 9.8196 5.4887 9.88229 5.46399C9.94497 5.43928 10.002 5.4026 10.0501 5.35608C10.0982 5.30956 10.1364 5.25412 10.1625 5.19299C10.1886 5.13187 10.202 5.06626 10.202 5C10.202 4.93374 10.1886 4.86813 10.1625 4.80701C10.1364 4.74588 10.0982 4.69044 10.0501 4.64392C10.002 4.5974 9.94497 4.56072 9.88229 4.53601C9.8196 4.5113 9.75254 4.49906 9.685 4.5H6.11684C6.10092 4.49927 6.08497 4.49927 6.06905 4.5ZM6.06905 7C6.0021 7.00307 5.93643 7.01904 5.87577 7.047C5.81511 7.07497 5.76067 7.11438 5.71554 7.16299C5.67042 7.21159 5.6355 7.26845 5.61277 7.33029C5.59005 7.39214 5.57997 7.45777 5.58311 7.52344C5.58624 7.58911 5.60254 7.65353 5.63106 7.71302C5.65958 7.77251 5.69978 7.82591 5.74934 7.87016C5.7989 7.91442 5.85687 7.94866 5.91992 7.97094C5.98298 7.99322 6.04989 8.00309 6.11684 8H14.2726C14.3402 8.00094 14.4072 7.9887 14.4699 7.96399C14.5326 7.93928 14.5896 7.9026 14.6378 7.85608C14.6859 7.80956 14.7241 7.75412 14.7501 7.69299C14.7762 7.63187 14.7896 7.56626 14.7896 7.5C14.7896 7.43374 14.7762 7.36813 14.7501 7.30701C14.7241 7.24588 14.6859 7.19044 14.6378 7.14392C14.5896 7.0974 14.5326 7.06072 14.4699 7.03601C14.4072 7.0113 14.3402 6.99906 14.2726 7H6.11684C6.10092 6.99927 6.08497 6.99927 6.06905 7ZM6.06905 9.5C6.0021 9.50307 5.93643 9.51904 5.87577 9.547C5.81511 9.57497 5.76067 9.61438 5.71554 9.66299C5.67042 9.71159 5.6355 9.76845 5.61277 9.83029C5.59005 9.89214 5.57997 9.95777 5.58311 10.0234C5.58624 10.0891 5.60254 10.1535 5.63106 10.213C5.65958 10.2725 5.69978 10.3259 5.74934 10.3702C5.7989 10.4144 5.85687 10.4487 5.91992 10.4709C5.98298 10.4932 6.04989 10.5031 6.11684 10.5H14.2726C14.3402 10.5009 14.4072 10.4887 14.4699 10.464C14.5326 10.4393 14.5896 10.4026 14.6378 10.3561C14.6859 10.3096 14.7241 10.2541 14.7501 10.193C14.7762 10.1319 14.7896 10.0663 14.7896 10C14.7896 9.93374 14.7762 9.86813 14.7501 9.80701C14.7241 9.74588 14.6859 9.69044 14.6378 9.64392C14.5896 9.5974 14.5326 9.56072 14.4699 9.53601C14.4072 9.5113 14.3402 9.49906 14.2726 9.5H6.11684C6.10092 9.49927 6.08497 9.49927 6.06905 9.5ZM6.06905 12C6.0021 12.0031 5.93643 12.019 5.87577 12.047C5.81511 12.075 5.76067 12.1144 5.71554 12.163C5.67042 12.2116 5.6355 12.2684 5.61277 12.3303C5.59005 12.3921 5.57997 12.4578 5.58311 12.5234C5.58624 12.5891 5.60254 12.6535 5.63106 12.713C5.65958 12.7725 5.69978 12.8259 5.74934 12.8702C5.7989 12.9144 5.85687 12.9487 5.91992 12.9709C5.98298 12.9932 6.04989 13.0031 6.11684 13H9.685C9.75254 13.0009 9.8196 12.9887 9.88229 12.964C9.94497 12.9393 10.002 12.9026 10.0501 12.8561C10.0982 12.8096 10.1364 12.7541 10.1625 12.693C10.1886 12.6319 10.202 12.5663 10.202 12.5C10.202 12.4337 10.1886 12.3681 10.1625 12.307C10.1364 12.2459 10.0982 12.1904 10.0501 12.1439C10.002 12.0974 9.94497 12.0607 9.88229 12.036C9.8196 12.0113 9.75254 11.9991 9.685 12H6.11684C6.10092 11.9993 6.08497 11.9993 6.06905 12ZM1.01947 16H11.2142V17C11.2142 17.7767 11.5314 18.4662 12.0266 19H3.05842C1.92003 19 1.01947 18.1166 1.01947 17V16Z"/>
</mask>
<path d="M6.24427 0C4.48813 0 3.05842 1.4024 3.05842 3.125V15H0.509737C0.37455 15 0.244905 15.0527 0.149313 15.1465C0.0537221 15.2402 1.35301e-05 15.3674 0 15.5V17C0 18.6534 1.37287 20 3.05842 20H14.2726C15.9582 20 17.331 18.6534 17.331 17V3.125C17.331 1.9391 18.2884 1 19.4974 1C19.6314 0.998141 19.7592 0.944645 19.8532 0.851079C19.9473 0.757512 20 0.631396 20 0.5C20 0.368604 19.9473 0.242488 19.8532 0.148921C19.7592 0.0553554 19.6314 0.00185901 19.4974 0H6.24427ZM6.24427 1H17.1877C16.6533 1.55917 16.3116 2.30029 16.3116 3.125V17C16.3116 18.1166 15.411 19 14.2726 19H13.9939C13.9533 18.9816 13.9105 18.9684 13.8664 18.9609C12.9333 18.7769 12.2337 17.9788 12.2337 17V15.5C12.2337 15.3674 12.18 15.2402 12.0844 15.1465C11.9888 15.0527 11.8591 15 11.7239 15H4.07789V3.125C4.07789 1.9391 5.03528 1 6.24427 1ZM6.06905 4.5C6.0021 4.50307 5.93643 4.51904 5.87577 4.547C5.81511 4.57497 5.76067 4.61438 5.71554 4.66299C5.67042 4.71159 5.6355 4.76845 5.61277 4.83029C5.59005 4.89214 5.57997 4.95777 5.58311 5.02344C5.58624 5.08911 5.60254 5.15353 5.63106 5.21302C5.65958 5.27251 5.69978 5.32591 5.74934 5.37016C5.7989 5.41442 5.85687 5.44866 5.91992 5.47094C5.98298 5.49322 6.04989 5.50309 6.11684 5.5H9.685C9.75254 5.50094 9.8196 5.4887 9.88229 5.46399C9.94497 5.43928 10.002 5.4026 10.0501 5.35608C10.0982 5.30956 10.1364 5.25412 10.1625 5.19299C10.1886 5.13187 10.202 5.06626 10.202 5C10.202 4.93374 10.1886 4.86813 10.1625 4.80701C10.1364 4.74588 10.0982 4.69044 10.0501 4.64392C10.002 4.5974 9.94497 4.56072 9.88229 4.53601C9.8196 4.5113 9.75254 4.49906 9.685 4.5H6.11684C6.10092 4.49927 6.08497 4.49927 6.06905 4.5ZM6.06905 7C6.0021 7.00307 5.93643 7.01904 5.87577 7.047C5.81511 7.07497 5.76067 7.11438 5.71554 7.16299C5.67042 7.21159 5.6355 7.26845 5.61277 7.33029C5.59005 7.39214 5.57997 7.45777 5.58311 7.52344C5.58624 7.58911 5.60254 7.65353 5.63106 7.71302C5.65958 7.77251 5.69978 7.82591 5.74934 7.87016C5.7989 7.91442 5.85687 7.94866 5.91992 7.97094C5.98298 7.99322 6.04989 8.00309 6.11684 8H14.2726C14.3402 8.00094 14.4072 7.9887 14.4699 7.96399C14.5326 7.93928 14.5896 7.9026 14.6378 7.85608C14.6859 7.80956 14.7241 7.75412 14.7501 7.69299C14.7762 7.63187 14.7896 7.56626 14.7896 7.5C14.7896 7.43374 14.7762 7.36813 14.7501 7.30701C14.7241 7.24588 14.6859 7.19044 14.6378 7.14392C14.5896 7.0974 14.5326 7.06072 14.4699 7.03601C14.4072 7.0113 14.3402 6.99906 14.2726 7H6.11684C6.10092 6.99927 6.08497 6.99927 6.06905 7ZM6.06905 9.5C6.0021 9.50307 5.93643 9.51904 5.87577 9.547C5.81511 9.57497 5.76067 9.61438 5.71554 9.66299C5.67042 9.71159 5.6355 9.76845 5.61277 9.83029C5.59005 9.89214 5.57997 9.95777 5.58311 10.0234C5.58624 10.0891 5.60254 10.1535 5.63106 10.213C5.65958 10.2725 5.69978 10.3259 5.74934 10.3702C5.7989 10.4144 5.85687 10.4487 5.91992 10.4709C5.98298 10.4932 6.04989 10.5031 6.11684 10.5H14.2726C14.3402 10.5009 14.4072 10.4887 14.4699 10.464C14.5326 10.4393 14.5896 10.4026 14.6378 10.3561C14.6859 10.3096 14.7241 10.2541 14.7501 10.193C14.7762 10.1319 14.7896 10.0663 14.7896 10C14.7896 9.93374 14.7762 9.86813 14.7501 9.80701C14.7241 9.74588 14.6859 9.69044 14.6378 9.64392C14.5896 9.5974 14.5326 9.56072 14.4699 9.53601C14.4072 9.5113 14.3402 9.49906 14.2726 9.5H6.11684C6.10092 9.49927 6.08497 9.49927 6.06905 9.5ZM6.06905 12C6.0021 12.0031 5.93643 12.019 5.87577 12.047C5.81511 12.075 5.76067 12.1144 5.71554 12.163C5.67042 12.2116 5.6355 12.2684 5.61277 12.3303C5.59005 12.3921 5.57997 12.4578 5.58311 12.5234C5.58624 12.5891 5.60254 12.6535 5.63106 12.713C5.65958 12.7725 5.69978 12.8259 5.74934 12.8702C5.7989 12.9144 5.85687 12.9487 5.91992 12.9709C5.98298 12.9932 6.04989 13.0031 6.11684 13H9.685C9.75254 13.0009 9.8196 12.9887 9.88229 12.964C9.94497 12.9393 10.002 12.9026 10.0501 12.8561C10.0982 12.8096 10.1364 12.7541 10.1625 12.693C10.1886 12.6319 10.202 12.5663 10.202 12.5C10.202 12.4337 10.1886 12.3681 10.1625 12.307C10.1364 12.2459 10.0982 12.1904 10.0501 12.1439C10.002 12.0974 9.94497 12.0607 9.88229 12.036C9.8196 12.0113 9.75254 11.9991 9.685 12H6.11684C6.10092 11.9993 6.08497 11.9993 6.06905 12ZM1.01947 16H11.2142V17C11.2142 17.7767 11.5314 18.4662 12.0266 19H3.05842C1.92003 19 1.01947 18.1166 1.01947 17V16Z" fill="white" stroke="white" stroke-width="2" mask="url(#path-1-inside-1)"/>
</svg>
