<svg width="14" height="14" viewBox="0 0 14 14" fill="none" xmlns="http://www.w3.org/2000/svg">
<path d="M4.37099 0C3.14169 0 2.14089 0.981678 2.14089 2.1875V10.5H0.356816C0.262185 10.5 0.171433 10.5369 0.104519 10.6025C0.0376055 10.6682 9.47109e-06 10.7572 0 10.85V11.9C0 13.0573 0.96101 14 2.14089 14H9.99084C11.1707 14 12.1317 13.0573 12.1317 11.9V2.1875C12.1317 1.35737 12.8019 0.7 13.6482 0.7C13.742 0.698699 13.8314 0.661251 13.8973 0.595755C13.9631 0.530259 14 0.441977 14 0.35C14 0.258023 13.9631 0.169741 13.8973 0.104245C13.8314 0.0387488 13.742 0.00130131 13.6482 0H4.37099ZM4.37099 0.7H12.0314C11.6573 1.09142 11.4181 1.6102 11.4181 2.1875V11.9C11.4181 12.6817 10.7877 13.3 9.99084 13.3H9.7957C9.76732 13.2871 9.73733 13.2779 9.7065 13.2727C9.05332 13.1439 8.56357 12.5852 8.56357 11.9V10.85C8.56357 10.7572 8.52597 10.6682 8.45905 10.6025C8.39214 10.5369 8.30139 10.5 8.20676 10.5H2.85452V2.1875C2.85452 1.35737 3.5247 0.7 4.37099 0.7ZM4.24834 3.15C4.20147 3.15215 4.1555 3.16333 4.11304 3.1829C4.07058 3.20248 4.03247 3.23007 4.00088 3.26409C3.96929 3.29812 3.94485 3.33791 3.92894 3.3812C3.91303 3.4245 3.90598 3.47044 3.90817 3.51641C3.91037 3.56238 3.92178 3.60747 3.94174 3.64912C3.96171 3.69076 3.98984 3.72814 4.02454 3.75911C4.05923 3.79009 4.09981 3.81406 4.14395 3.82966C4.18809 3.84525 4.23492 3.85216 4.28179 3.85H6.7795C6.82678 3.85066 6.87372 3.84209 6.9176 3.82479C6.96148 3.8075 7.00141 3.78182 7.03509 3.74926C7.06876 3.71669 7.0955 3.67789 7.11375 3.6351C7.132 3.59231 7.1414 3.54638 7.1414 3.5C7.1414 3.45362 7.132 3.40769 7.11375 3.3649C7.0955 3.32211 7.06876 3.28331 7.03509 3.25074C7.00141 3.21818 6.96148 3.1925 6.9176 3.17521C6.87372 3.15791 6.82678 3.14934 6.7795 3.15H4.28179C4.27064 3.14949 4.25948 3.14949 4.24834 3.15ZM4.24834 4.9C4.20147 4.90215 4.1555 4.91333 4.11304 4.9329C4.07058 4.95248 4.03247 4.98007 4.00088 5.01409C3.96929 5.04812 3.94485 5.08791 3.92894 5.1312C3.91303 5.1745 3.90598 5.22044 3.90817 5.26641C3.91037 5.31238 3.92178 5.35747 3.94174 5.39912C3.96171 5.44076 3.98984 5.47814 4.02454 5.50912C4.05923 5.54009 4.09981 5.56406 4.14395 5.57966C4.18809 5.59525 4.23492 5.60216 4.28179 5.6H9.99084C10.0381 5.60066 10.0851 5.59209 10.1289 5.57479C10.1728 5.5575 10.2128 5.53182 10.2464 5.49926C10.2801 5.46669 10.3068 5.42789 10.3251 5.3851C10.3433 5.34231 10.3527 5.29638 10.3527 5.25C10.3527 5.20362 10.3433 5.15769 10.3251 5.1149C10.3068 5.07211 10.2801 5.03331 10.2464 5.00074C10.2128 4.96818 10.1728 4.9425 10.1289 4.92521C10.0851 4.90791 10.0381 4.89934 9.99084 4.9H4.28179C4.27064 4.89949 4.25948 4.89949 4.24834 4.9ZM4.24834 6.65C4.20147 6.65215 4.1555 6.66333 4.11304 6.6829C4.07058 6.70248 4.03247 6.73007 4.00088 6.76409C3.96929 6.79812 3.94485 6.83791 3.92894 6.8812C3.91303 6.9245 3.90598 6.97044 3.90817 7.01641C3.91037 7.06238 3.92178 7.10747 3.94174 7.14912C3.96171 7.19076 3.98984 7.22814 4.02454 7.25912C4.05923 7.29009 4.09981 7.31406 4.14395 7.32966C4.18809 7.34525 4.23492 7.35216 4.28179 7.35H9.99084C10.0381 7.35066 10.0851 7.34209 10.1289 7.32479C10.1728 7.3075 10.2128 7.28182 10.2464 7.24926C10.2801 7.21669 10.3068 7.17789 10.3251 7.1351C10.3433 7.09231 10.3527 7.04638 10.3527 7C10.3527 6.95362 10.3433 6.90769 10.3251 6.8649C10.3068 6.82211 10.2801 6.78331 10.2464 6.75074C10.2128 6.71818 10.1728 6.6925 10.1289 6.67521C10.0851 6.65791 10.0381 6.64934 9.99084 6.65H4.28179C4.27064 6.64949 4.25948 6.64949 4.24834 6.65ZM4.24834 8.4C4.20147 8.40215 4.1555 8.41333 4.11304 8.4329C4.07058 8.45248 4.03247 8.48007 4.00088 8.51409C3.96929 8.54812 3.94485 8.58791 3.92894 8.6312C3.91303 8.6745 3.90598 8.72044 3.90817 8.76641C3.91037 8.81238 3.92178 8.85747 3.94174 8.89912C3.96171 8.94076 3.98984 8.97814 4.02454 9.00912C4.05923 9.04009 4.09981 9.06406 4.14395 9.07966C4.18809 9.09525 4.23492 9.10216 4.28179 9.1H6.7795C6.82678 9.10066 6.87372 9.09209 6.9176 9.07479C6.96148 9.0575 7.00141 9.03182 7.03509 8.99926C7.06876 8.96669 7.0955 8.92789 7.11375 8.8851C7.132 8.84231 7.1414 8.79638 7.1414 8.75C7.1414 8.70362 7.132 8.65769 7.11375 8.6149C7.0955 8.57211 7.06876 8.53331 7.03509 8.50074C7.00141 8.46818 6.96148 8.4425 6.9176 8.42521C6.87372 8.40791 6.82678 8.39934 6.7795 8.4H4.28179C4.27064 8.39949 4.25948 8.39949 4.24834 8.4ZM0.713631 11.2H7.84994V11.9C7.84994 12.4437 8.07198 12.9263 8.41862 13.3H2.14089C1.34402 13.3 0.713631 12.6817 0.713631 11.9V11.2Z" fill="#2E2F31"/>
</svg>
