<svg width="60" height="33" viewBox="0 0 60 33" fill="none" xmlns="http://www.w3.org/2000/svg">
<path d="M54.6333 0.666992H4.96667C3.64942 0.666992 2.38613 1.19026 1.4547 2.1217C0.523272 3.05313 0 4.31642 0 5.63366V27.487C0 28.1392 0.128467 28.7851 0.378065 29.3877C0.627663 29.9902 0.993505 30.5378 1.4547 30.999C1.9159 31.4602 2.46342 31.826 3.06601 32.0756C3.66859 32.3252 4.31443 32.4537 4.96667 32.4537H54.6333C55.2856 32.4537 55.9314 32.3252 56.534 32.0756C57.1366 31.826 57.6841 31.4602 58.1453 30.999C58.6065 30.5378 58.9723 29.9902 59.2219 29.3877C59.4715 28.7851 59.6 28.1392 59.6 27.487V5.63366C59.6 4.31642 59.0767 3.05313 58.1453 2.1217C57.2139 1.19026 55.9506 0.666992 54.6333 0.666992ZM54.6333 30.467H4.96667C4.17632 30.467 3.41835 30.153 2.85949 29.5942C2.30063 29.0353 1.98667 28.2773 1.98667 27.487V5.63366C1.98667 4.84331 2.30063 4.08534 2.85949 3.52648C3.41835 2.96762 4.17632 2.65366 4.96667 2.65366H54.6333C55.4237 2.65366 56.1816 2.96762 56.7405 3.52648C57.2994 4.08534 57.6133 4.84331 57.6133 5.63366V8.61366H56.62C56.3565 8.61366 56.1039 8.71831 55.9176 8.9046C55.7313 9.09089 55.6267 9.34354 55.6267 9.60699V23.5137C55.6267 23.7771 55.7313 24.0298 55.9176 24.2161C56.1039 24.4023 56.3565 24.507 56.62 24.507H57.6133V27.487C57.6133 28.2773 57.2994 29.0353 56.7405 29.5942C56.1816 30.153 55.4237 30.467 54.6333 30.467Z" fill="currentColor"/>
</svg>
