<svg width="18" height="18" viewBox="0 0 18 18" fill="none" xmlns="http://www.w3.org/2000/svg">
<path d="M0.537509 0.000814236C0.38945 0.016332 0.252447 0.0863227 0.153114 0.197201C0.053781 0.308079 -0.000787845 0.451929 8.59668e-06 0.60079V17.4C2.26141e-05 17.5591 0.063241 17.7118 0.17576 17.8243C0.288278 17.9368 0.440882 18 0.600009 18H17.4C17.5591 18 17.7117 17.9368 17.8243 17.8243C17.9368 17.7118 18 17.5591 18 17.4V9.0004C18.0011 8.9209 17.9864 8.84196 17.9568 8.76819C17.9272 8.69441 17.8831 8.62726 17.8273 8.57064C17.7715 8.51402 17.705 8.46906 17.6316 8.43838C17.5583 8.40769 17.4795 8.39188 17.4 8.39188C17.3205 8.39188 17.2418 8.40769 17.1684 8.43838C17.0951 8.46906 17.0285 8.51402 16.9727 8.57064C16.9169 8.62726 16.8729 8.69441 16.8432 8.76819C16.8136 8.84196 16.7989 8.9209 16.8 9.0004V16.8001H1.20001V1.20075H9.00001C9.07952 1.20188 9.15845 1.18719 9.23223 1.15754C9.30601 1.12789 9.37317 1.08388 9.42979 1.02806C9.48641 0.972236 9.53137 0.905708 9.56206 0.832357C9.59274 0.759007 9.60855 0.680288 9.60855 0.600778C9.60855 0.521267 9.59274 0.442548 9.56206 0.369198C9.53137 0.295848 9.48641 0.229331 9.42979 0.173507C9.37317 0.117683 9.30601 0.0736746 9.23223 0.0440271C9.15845 0.0143796 9.07952 -0.000308843 9.00001 0.000814236H0.600009C0.57919 -0.000271412 0.558328 -0.000271412 0.537509 0.000814236ZM12.1375 0.000814236C11.9784 0.00910188 11.8291 0.0802522 11.7224 0.198629C11.6157 0.317006 11.5605 0.472905 11.5688 0.632028C11.577 0.791151 11.6482 0.940471 11.7666 1.04713C11.885 1.15378 12.0409 1.20904 12.2 1.20075H15.95L7.37501 9.77536C7.26254 9.88813 7.19944 10.0409 7.19954 10.2002C7.19965 10.3594 7.26297 10.5121 7.37558 10.6248C7.4882 10.7374 7.64091 10.8007 7.80018 10.8008C7.95944 10.8009 8.11224 10.7378 8.22501 10.6253L16.8 2.05072V5.80055C16.7989 5.88005 16.8136 5.95898 16.8432 6.03276C16.8729 6.10654 16.9169 6.17369 16.9727 6.23031C17.0285 6.28693 17.0951 6.3319 17.1684 6.36258C17.2418 6.39327 17.3205 6.40907 17.4 6.40907C17.4795 6.40907 17.5583 6.39327 17.6316 6.36258C17.705 6.3319 17.7715 6.28693 17.8273 6.23031C17.8831 6.17369 17.9272 6.10654 17.9568 6.03276C17.9864 5.95898 18.0011 5.88005 18 5.80055V0.60079C18 0.441672 17.9368 0.289072 17.8243 0.176559C17.7117 0.0640453 17.5591 0.000830146 17.4 0.000814236H12.2C12.1792 -0.000271412 12.1583 -0.000271412 12.1375 0.000814236Z" fill="currentColor"/>
</svg>
