<svg width="11" height="13" viewBox="0 0 11 13" fill="none" xmlns="http://www.w3.org/2000/svg">
<path d="M9.22975 6.33203H2.36966C1.82842 6.33203 1.38965 6.82045 1.38965 7.42294V11.2411C1.38965 11.8436 1.82842 12.332 2.36966 12.332H9.22975C9.771 12.332 10.2098 11.8436 10.2098 11.2411V7.42294C10.2098 6.82045 9.771 6.33203 9.22975 6.33203Z" stroke="currentColor" stroke-width="1.13333" stroke-linecap="round" stroke-linejoin="round"/>
<path d="M3.28027 6.33333V3.96296C3.28027 3.17714 3.54578 2.4235 4.01837 1.86783C4.49097 1.31217 5.13195 1 5.80031 1C6.46866 1 7.10964 1.31217 7.58224 1.86783C8.05484 2.4235 8.32034 3.17714 8.32034 3.96296V6.33333" stroke="currentColor" stroke-width="1.13333" stroke-linecap="round" stroke-linejoin="round"/>
</svg>
