<svg width="24" height="24" viewBox="0 0 24 24" fill="none" xmlns="http://www.w3.org/2000/svg">
<mask id="path-1-inside-1_5904:91606" fill="white">
<path d="M13.005 16.5319L3.66725 18.2294C3.29381 18.2997 2.88252 18.0376 2.88469 17.7307V3.47111C2.88256 3.16424 3.29381 2.90216 3.66725 2.97245L13.005 4.67002C13.2829 4.72237 13.4974 4.94032 13.4958 5.16869V7.54529C13.5005 7.81435 13.1955 8.06183 12.8591 8.06183C12.5227 8.06183 12.2177 7.81435 12.2225 7.54529V5.57717L4.15802 4.11301V17.0889L12.2225 15.6247V13.6566C12.2178 13.3875 12.5227 13.14 12.8591 13.14C13.1955 13.14 13.5006 13.3875 13.4958 13.6566V16.0332C13.4929 16.2728 13.2604 16.4844 13.005 16.5319Z"/>
</mask>
<path d="M13.005 16.5319L3.66725 18.2294C3.29381 18.2997 2.88252 18.0376 2.88469 17.7307V3.47111C2.88256 3.16424 3.29381 2.90216 3.66725 2.97245L13.005 4.67002C13.2829 4.72237 13.4974 4.94032 13.4958 5.16869V7.54529C13.5005 7.81435 13.1955 8.06183 12.8591 8.06183C12.5227 8.06183 12.2177 7.81435 12.2225 7.54529V5.57717L4.15802 4.11301V17.0889L12.2225 15.6247V13.6566C12.2178 13.3875 12.5227 13.14 12.8591 13.14C13.1955 13.14 13.5006 13.3875 13.4958 13.6566V16.0332C13.4929 16.2728 13.2604 16.4844 13.005 16.5319Z" fill="white"/>
<path d="M13.005 16.5319L13.3708 18.4981L13.3628 18.4996L13.005 16.5319ZM3.66725 18.2294L3.29731 16.2639L3.30953 16.2617L3.66725 18.2294ZM2.88469 17.7307H4.88474L4.88463 17.7449L2.88469 17.7307ZM2.88469 3.47111L4.88469 3.45728V3.47111H2.88469ZM3.66725 2.97245L3.30952 4.94024L3.2973 4.93794L3.66725 2.97245ZM13.005 4.67002L13.3628 2.70224L13.3753 2.70459L13.005 4.67002ZM13.4958 5.16869H11.4958V5.16158L11.4958 5.15446L13.4958 5.16869ZM13.4958 7.54529L11.4961 7.58062L11.4958 7.56296V7.54529H13.4958ZM12.2225 7.54529H14.2225V7.56296L14.2221 7.58062L12.2225 7.54529ZM12.2225 5.57717L12.5797 3.60934L14.2225 3.90759V5.57717H12.2225ZM4.15802 4.11301H2.15802V1.7172L4.51529 2.14518L4.15802 4.11301ZM4.15802 17.0889L4.51529 19.0567L2.15802 19.4847V17.0889H4.15802ZM12.2225 15.6247H14.2225V17.2943L12.5797 17.5925L12.2225 15.6247ZM12.2225 13.6566L14.2222 13.6219L14.2225 13.6392V13.6566H12.2225ZM13.4958 13.6566H11.4958V13.6389L11.4961 13.6212L13.4958 13.6566ZM13.4958 16.0332H15.4958V16.0452L15.4956 16.0573L13.4958 16.0332ZM13.3628 18.4996L4.02498 20.1972L3.30953 16.2617L12.6473 14.5641L13.3628 18.4996ZM4.03719 20.1949C3.29559 20.3345 2.58821 20.1446 2.06031 19.8082C1.5696 19.4955 0.877088 18.8008 0.884735 17.7166L4.88463 17.7449C4.89012 16.9676 4.40217 16.5574 4.20992 16.4349C3.98049 16.2887 3.66547 16.1946 3.29732 16.2639L4.03719 20.1949ZM0.884686 17.7307V3.47111H4.88469V17.7307H0.884686ZM0.884733 3.48494C0.877236 2.401 1.56958 1.70642 2.06033 1.39369C2.58825 1.05728 3.29563 0.867382 4.03721 1.00697L3.2973 4.93794C3.66543 5.00723 3.98047 4.91322 4.20993 4.767C4.40223 4.64446 4.89001 4.23435 4.88464 3.45728L0.884733 3.48494ZM4.02498 1.00471L13.3628 2.70228L12.6473 6.63777L3.30953 4.9402L4.02498 1.00471ZM13.3753 2.70459C14.2852 2.87601 15.5063 3.69612 15.4957 5.18293L11.4958 5.15446C11.4921 5.68231 11.7332 6.05648 11.9298 6.25621C12.1324 6.46206 12.3794 6.58734 12.6348 6.63546L13.3753 2.70459ZM15.4958 5.16869V7.54529H11.4958V5.16869H15.4958ZM15.4955 7.50996C15.5118 8.43215 15.0085 9.09811 14.5655 9.45758C14.1047 9.83138 13.503 10.0618 12.8591 10.0618V6.06183C12.5516 6.06183 12.2706 6.16853 12.0453 6.35133C11.8377 6.51979 11.4846 6.92749 11.4961 7.58062L15.4955 7.50996ZM12.8591 10.0618C12.2152 10.0618 11.6135 9.83138 11.1528 9.45758C10.7097 9.09811 10.2065 8.43215 10.2228 7.50996L14.2221 7.58062C14.2337 6.92749 13.8806 6.51979 13.6729 6.35133C13.4476 6.16853 13.1666 6.06183 12.8591 6.06183V10.0618ZM10.2225 7.54529V5.57717H14.2225V7.54529H10.2225ZM11.8652 7.545L3.80075 6.08084L4.51529 2.14518L12.5797 3.60934L11.8652 7.545ZM6.15802 4.11301V17.0889H2.15802V4.11301H6.15802ZM3.80074 15.121L11.8652 13.6569L12.5797 17.5925L4.51529 19.0567L3.80074 15.121ZM10.2225 15.6247V13.6566H14.2225V15.6247H10.2225ZM10.2228 13.6913C10.2068 12.7696 10.7097 12.1039 11.1528 11.7443C11.6135 11.3705 12.2152 11.14 12.8591 11.14V15.14C13.1667 15.14 13.4477 15.0333 13.673 14.8505C13.8807 14.682 14.2335 14.2745 14.2222 13.6219L10.2228 13.6913ZM12.8591 11.14C13.503 11.14 14.1047 11.3705 14.5655 11.7443C15.0085 12.1038 15.5118 12.7697 15.4955 13.6919L11.4961 13.6212C11.4846 14.2744 11.8377 14.6821 12.0453 14.8505C12.2706 15.0333 12.5516 15.14 12.8591 15.14V11.14ZM15.4958 13.6566V16.0332H11.4958V13.6566H15.4958ZM15.4956 16.0573C15.4863 16.8316 15.1131 17.4215 14.7464 17.7815C14.3771 18.1442 13.8964 18.4004 13.3708 18.4981L12.6393 14.5656C12.3691 14.6158 12.1323 14.7424 11.9438 14.9276C11.758 15.11 11.5024 15.4744 11.4959 16.0091L15.4956 16.0573Z" fill="white" mask="url(#path-1-inside-1_5904:91606)"/>
<mask id="path-3-inside-2_5904:91606" fill="white">
<path d="M5.43117 10.6015C5.43711 10.7229 5.49957 10.8632 5.6036 10.9517L8.99915 13.8381C9.22924 14.0035 9.67045 14.0718 9.92762 13.8805C10.1809 13.6921 10.1734 13.3268 9.92105 13.1377L7.53355 11.1109H20.9234C21.275 11.1109 21.5601 10.8828 21.5601 10.6015C21.5601 10.3202 21.275 10.0922 20.9234 10.0922H7.53355L9.92105 8.06535C10.1383 7.89124 10.1784 7.51307 9.92762 7.32254C9.67686 7.13203 9.2198 7.19289 8.99915 7.365L5.6036 10.2513C5.48741 10.3501 5.43079 10.466 5.43117 10.6015Z"/>
</mask>
<path d="M5.43117 10.6015C5.43711 10.7229 5.49957 10.8632 5.6036 10.9517L8.99915 13.8381C9.22924 14.0035 9.67045 14.0718 9.92762 13.8805C10.1809 13.6921 10.1734 13.3268 9.92105 13.1377L7.53355 11.1109H20.9234C21.275 11.1109 21.5601 10.8828 21.5601 10.6015C21.5601 10.3202 21.275 10.0922 20.9234 10.0922H7.53355L9.92105 8.06535C10.1383 7.89124 10.1784 7.51307 9.92762 7.32254C9.67686 7.13203 9.2198 7.19289 8.99915 7.365L5.6036 10.2513C5.48741 10.3501 5.43079 10.466 5.43117 10.6015Z" fill="white"/>
<path d="M5.6036 10.9517L4.30827 12.4755L4.30778 12.4751L5.6036 10.9517ZM8.99915 13.8381L7.83171 15.462L7.76573 15.4145L7.70382 15.3619L8.99915 13.8381ZM9.92762 13.8805L8.73412 12.2756L8.73417 12.2756L9.92762 13.8805ZM9.92105 13.1377L8.72165 14.7381L8.67302 14.7017L8.62669 14.6624L9.92105 13.1377ZM7.53355 11.1109L6.23919 12.6355L2.0873 9.11086H7.53355V11.1109ZM7.53355 10.0922V12.0922H2.0873L6.23919 8.56749L7.53355 10.0922ZM9.92105 8.06535L8.62669 6.54067L8.64825 6.52237L8.67032 6.50468L9.92105 8.06535ZM9.92762 7.32254L8.71787 8.91518L8.71774 8.91508L9.92762 7.32254ZM8.99915 7.365L7.70382 5.84114L7.7359 5.81388L7.76909 5.78799L8.99915 7.365ZM5.6036 10.2513L4.3082 8.72754L4.30827 8.72748L5.6036 10.2513ZM7.42878 10.5037C7.4175 10.2735 7.35851 10.0798 7.28443 9.92512C7.20936 9.76836 7.08884 9.58938 6.89942 9.42826L4.30778 12.4751C3.75931 12.0086 3.46495 11.3406 3.43356 10.6993L7.42878 10.5037ZM6.89893 9.42785L10.2945 12.3142L7.70382 15.3619L4.30827 12.4755L6.89893 9.42785ZM10.1666 12.2141C9.93977 12.0511 9.74457 12.0101 9.61439 11.9995C9.4927 11.9897 9.12519 11.9848 8.73412 12.2756L11.1211 15.4853C10.4729 15.9674 9.75619 16.024 9.29207 15.9865C8.81948 15.9483 8.28863 15.7904 7.83171 15.462L10.1666 12.2141ZM8.73417 12.2756C7.86267 12.9237 7.95638 14.1646 8.72165 14.7381L11.1204 11.5372C12.3904 12.489 12.4992 14.4606 11.1211 15.4854L8.73417 12.2756ZM8.62669 14.6624L6.23919 12.6355L8.8279 9.58618L11.2154 11.613L8.62669 14.6624ZM7.53355 9.11086H20.9234V13.1109H7.53355V9.11086ZM20.9234 9.11086C20.6769 9.11086 20.3876 9.18916 20.1242 9.39996C19.857 9.61369 19.5601 10.0258 19.5601 10.6015H23.5601C23.5601 12.3807 21.9401 13.1109 20.9234 13.1109V9.11086ZM19.5601 10.6015C19.5601 11.1773 19.857 11.5894 20.1242 11.8031C20.3877 12.0139 20.6769 12.0922 20.9234 12.0922V8.09218C21.94 8.09218 23.5601 8.8222 23.5601 10.6015H19.5601ZM20.9234 12.0922H7.53355V8.09218H20.9234V12.0922ZM6.23919 8.56749L8.62669 6.54067L11.2154 9.59003L8.8279 11.6169L6.23919 8.56749ZM8.67032 6.50468C8.28691 6.81195 8.11754 7.23445 8.1016 7.6168C8.08422 8.03362 8.24916 8.55915 8.71787 8.91518L11.1374 5.7299C12.6093 6.84795 12.216 8.78916 11.1718 9.62602L8.67032 6.50468ZM8.71774 8.91508C9.11734 9.21866 9.49049 9.21048 9.60081 9.20225C9.68323 9.19611 9.7677 9.1796 9.8563 9.14893C9.93883 9.12036 10.0753 9.06205 10.2292 8.942L7.76909 5.78799C8.26351 5.40235 8.83979 5.24789 9.30338 5.21333C9.76009 5.17927 10.4872 5.23591 11.1375 5.73L8.71774 8.91508ZM10.2945 8.88885L6.89892 11.7752L4.30827 8.72748L7.70382 5.84114L10.2945 8.88885ZM6.899 11.7751C7.01403 11.6773 7.1574 11.5211 7.26861 11.2948C7.38283 11.0624 7.43179 10.8193 7.43116 10.5959L3.43118 10.6071C3.42893 9.81122 3.80121 9.15854 4.3082 8.72754L6.899 11.7751Z" fill="white" mask="url(#path-3-inside-2_5904:91606)"/>
</svg>
