<svg width="20" height="20" viewBox="0 0 20 20" fill="none" xmlns="http://www.w3.org/2000/svg">
<path d="M10.8376 13.7759L3.05609 15.1905C2.74488 15.2491 2.40214 15.0307 2.40394 14.775V2.89194C2.40218 2.63622 2.74488 2.41782 3.05609 2.47639L10.8376 3.89103C11.0692 3.93466 11.2479 4.11628 11.2465 4.30659V6.28709C11.2505 6.5113 10.9963 6.71754 10.716 6.71754C10.4357 6.71754 10.1815 6.5113 10.1854 6.28709V4.64699L3.46506 3.42686V14.2401L10.1854 13.0199V11.3798C10.1815 11.1556 10.4357 10.9494 10.716 10.9494C10.9963 10.9494 11.2505 11.1556 11.2465 11.3798V13.3603C11.2441 13.56 11.0504 13.7363 10.8376 13.7759Z" fill="black"/>
<path d="M4.52605 8.83427C4.53101 8.93543 4.58305 9.05235 4.66975 9.12609L7.49937 11.5314C7.69112 11.6692 8.05879 11.7261 8.2731 11.5668C8.48419 11.4098 8.47791 11.1053 8.26762 10.9477L6.27804 9.25873H17.4362C17.7292 9.25873 17.9668 9.06869 17.9668 8.83427C17.9668 8.59985 17.7292 8.40982 17.4362 8.40982H6.27804L8.26762 6.7208C8.44866 6.57571 8.48212 6.26056 8.2731 6.10179C8.06413 5.94304 7.68325 5.99375 7.49937 6.13717L4.66975 8.54245C4.57292 8.62477 4.52574 8.72134 4.52605 8.83427Z" fill="black"/>
</svg>
