<svg width="199" height="194" viewBox="0 0 199 194" fill="none" xmlns="http://www.w3.org/2000/svg">
<path d="M114.53 30.2301C114.53 36.0982 112.79 41.8346 109.53 46.7138C106.27 51.593 101.636 55.3959 96.2142 57.6416C90.7927 59.8872 84.8271 60.4748 79.0716 59.33C73.3162 58.1851 68.0295 55.3593 63.8801 51.2099C59.7307 47.0605 56.9049 41.7738 55.76 36.0184C54.6152 30.263 55.2028 24.2973 57.4485 18.8758C59.6941 13.4544 63.497 8.82055 68.3762 5.56036C73.2554 2.30018 78.9918 0.560059 84.86 0.560059C92.7289 0.560059 100.276 3.68599 105.84 9.2502C111.404 14.8144 114.53 22.3611 114.53 30.2301Z" fill="#E73346"/>
<path d="M37.49 193.98C37.49 193.98 32.49 124.92 0 75.1902L7.41998 35.4702C7.41998 35.4702 40.15 65.1502 59.65 113.75C59.65 113.75 116.5 47.0102 198.36 23.6802L191.94 57.1302C191.94 57.1302 132.24 77.3602 37.48 193.97" fill="#E73346"/>
</svg>
