<svg width="36" height="36" viewBox="0 0 36 36" fill="none" xmlns="http://www.w3.org/2000/svg">
<circle cx="18" cy="18" r="18" fill="#54EC51"/>
<g clip-path="url(#clip0)">
<path d="M19.3635 13.1119C19.4534 12.919 19.5071 12.7064 19.5071 12.4798C19.5071 11.6491 18.8313 10.9731 18.0004 10.9731C17.1696 10.9731 16.4937 11.6491 16.4937 12.4798C16.4937 12.7064 16.5475 12.919 16.6375 13.1119C13.2937 13.7263 10.7222 16.5518 10.4924 20.0133H25.5085C25.2786 16.5518 22.7073 13.7263 19.3635 13.1119ZM18.0004 12.9821C17.7234 12.9821 17.4982 12.757 17.4982 12.4798C17.4982 12.2027 17.7234 11.9776 18.0004 11.9776C18.2776 11.9776 18.5026 12.2027 18.5026 12.4798C18.5026 12.757 18.2776 12.9821 18.0004 12.9821Z" fill="white"/>
<path d="M9.42871 21.0181C9.66204 22.1629 10.7611 23.027 11.9736 23.027H24.0272C25.2399 23.027 26.3382 22.1629 26.5716 21.0181H9.42871Z" fill="white"/>
</g>
<defs>
<clipPath id="clip0">
<rect width="17.1429" height="17.1429" fill="white" transform="translate(9.42871 8.42871)"/>
</clipPath>
</defs>
</svg>
