<svg width="35" height="36" viewBox="0 0 35 36" fill="none" xmlns="http://www.w3.org/2000/svg">
<path d="M11.1905 16.531L11.1903 16.5311L10.7825 16.6357L10.5833 16.6867L10.595 16.892L11.3393 29.9575C11.3292 29.965 11.3169 29.9736 11.3023 29.9832C11.2314 30.0295 11.1279 30.0832 11.0037 30.1343C10.7515 30.2381 10.455 30.3151 10.2293 30.3151C10.0032 30.3151 9.70644 30.238 9.45257 30.1365C9.32777 30.0865 9.22269 30.0344 9.15013 29.99C9.13879 29.983 9.12878 29.9766 9.12002 29.9707L9.86436 16.892L9.87606 16.6865L9.67665 16.6356L9.26848 16.5313C9.26846 16.5313 9.26845 16.5313 9.26844 16.5313C7.84872 16.1684 6.89677 15.0397 6.89677 13.8256V6.65625V6.40625H6.64677H5.5415H5.2915V6.65625V13.8253C5.2915 15.5174 6.48364 17.0234 8.21143 17.6906L7.51017 30.0286L7.50977 30.0357V30.0428C7.50977 30.3455 7.64721 30.6039 7.84011 30.8114C8.03157 31.0174 8.28768 31.185 8.55887 31.3167C9.09904 31.5789 9.75357 31.7246 10.2293 31.7246C10.705 31.7246 11.3601 31.5789 11.9009 31.3135C12.1725 31.1803 12.4288 31.0103 12.6202 30.8009C12.8133 30.5897 12.9491 30.3276 12.9488 30.0213H12.9492L12.9484 30.0073L12.2472 17.691C13.9753 17.024 15.1671 15.5176 15.1671 13.8256V6.65625V6.40625H14.9171H13.8118H13.5618V6.65625V13.8256C13.5618 15.0397 12.6098 16.1684 11.1905 16.531ZM9.072 29.9331C9.07215 29.9332 9.07346 29.9344 9.07552 29.9369C9.07289 29.9344 9.07185 29.9331 9.072 29.9331ZM11.3738 29.9281C11.3752 29.9262 11.3761 29.9252 11.3762 29.9252C11.3763 29.9252 11.3756 29.9262 11.3738 29.9281Z" fill="currentColor" stroke="currentColor" stroke-width="0.5"/>
<path d="M10.7474 6.65625V6.50625H10.5974H9.8606H9.7106V6.65625V14.6244V14.7744H9.8606H10.5974H10.7474V14.6244V6.65625Z" fill="currentColor" stroke="currentColor" stroke-width="0.3"/>
<path d="M20.792 21.3122L20.792 21.3122L20.7743 21.7812L20.7646 22.0406H21.0242H24.3401V30.0386C24.3401 31.0116 25.2823 31.7241 26.3342 31.7241C27.386 31.7241 28.3287 31.0116 28.3287 30.0386V6V5.75H28.0787H27.5261C25.9748 5.75 24.789 6.68453 23.8923 8.03524C22.9968 9.38431 22.3627 11.1849 21.9118 13.013C21.0091 16.6728 20.8219 20.5239 20.792 21.3122ZM25.9454 20.8811V20.6311H25.6954H22.4317C22.5801 18.0507 23.014 14.9329 23.7683 12.3373C24.1586 10.9944 24.6313 9.80293 25.1874 8.90012C25.6578 8.13644 26.1721 7.60464 26.7238 7.34401L26.7234 30.0386C26.7234 30.1472 26.5963 30.3146 26.3342 30.3146C26.0724 30.3146 25.9454 30.1474 25.9454 30.0386V20.8811Z" fill="currentColor" stroke="currentColor" stroke-width="0.5"/>
</svg>
