<svg width="36" height="36" viewBox="0 0 36 36" fill="none" xmlns="http://www.w3.org/2000/svg">
<path d="M18.3824 13.5C17.3644 13.5 16.3693 13.8079 15.5229 14.3848C14.6764 14.9617 14.0167 15.7816 13.6272 16.7409C13.2376 17.7002 13.1357 18.7558 13.3343 19.7742C13.5329 20.7926 14.0231 21.7281 14.7429 22.4623C15.4627 23.1965 16.3798 23.6965 17.3783 23.8991C18.3767 24.1017 19.4116 23.9977 20.3521 23.6004C21.2926 23.203 22.0965 22.5301 22.662 21.6667C23.2276 20.8034 23.5295 19.7884 23.5295 18.75C23.5279 17.3581 22.9851 16.0237 22.0202 15.0394C21.0553 14.0552 19.747 13.5016 18.3824 13.5ZM18.3824 23.3437C17.4917 23.3437 16.6209 23.0743 15.8803 22.5696C15.1397 22.0648 14.5624 21.3473 14.2216 20.5079C13.8807 19.6686 13.7915 18.7449 13.9653 17.8538C14.139 16.9627 14.568 16.1442 15.1978 15.5017C15.8277 14.8593 16.6302 14.4218 17.5038 14.2445C18.3774 14.0673 19.283 14.1582 20.1059 14.5059C20.9288 14.8536 21.6322 15.4424 22.1271 16.1978C22.622 16.9533 22.8861 17.8414 22.8861 18.75C22.8847 19.9679 22.4098 21.1356 21.5655 21.9967C20.7212 22.8579 19.5764 23.3424 18.3824 23.3437Z" fill="currentColor"/>
<path d="M33.3088 4.5H32.2794C31.0512 4.50139 29.8738 4.99418 29.0053 5.87025C28.1369 6.74632 27.6484 7.93413 27.647 9.17308V10.2764C26.5598 9.03258 25.2373 8.0202 23.7571 7.29866C22.2769 6.57711 20.6688 6.16092 19.0271 6.07447C17.3854 5.98803 15.7432 6.23308 14.1966 6.79525C12.65 7.35742 11.2302 8.22541 10.0205 9.34832L9.74515 4.98613C9.73536 4.84954 9.67247 4.72239 9.57019 4.63235C9.46791 4.54232 9.33451 4.49669 9.19903 4.5054C9.06356 4.51412 8.93698 4.57647 8.84686 4.67888C8.75674 4.78129 8.71037 4.91547 8.71786 5.0522L9.04469 10.2308C8.80761 10.3991 8.13366 10.6519 7.05876 10.7156V5.01923C7.05876 4.88152 7.00454 4.74945 6.90801 4.65208C6.81148 4.5547 6.68057 4.5 6.54406 4.5C6.40755 4.5 6.27663 4.5547 6.1801 4.65208C6.08358 4.74945 6.02935 4.88152 6.02935 5.01923V10.7155C5.01583 10.6544 4.30849 10.4216 4.04348 10.2292L4.37026 5.05227C4.37774 4.91553 4.33137 4.78135 4.24125 4.67894C4.15113 4.57653 4.02456 4.51418 3.88908 4.50547C3.75361 4.49675 3.62021 4.54238 3.51793 4.63242C3.41564 4.72246 3.35276 4.84961 3.34297 4.98619L2.94529 11.2859C2.91002 11.8915 3.10168 12.4885 3.48226 12.9582C3.86285 13.428 4.40455 13.7363 4.99994 13.822V19.0385C4.86343 19.0385 4.73251 19.0932 4.63598 19.1905C4.53946 19.2879 4.48523 19.42 4.48523 19.5577V29.4231C4.48523 29.9739 4.70214 30.5022 5.08825 30.8917C5.47435 31.2812 5.99802 31.5 6.54406 31.5C7.09009 31.5 7.61376 31.2812 7.99987 30.8917C8.38597 30.5022 8.60288 29.9739 8.60288 29.4231V26.131C9.91424 27.8439 11.645 29.1829 13.625 30.0163C15.6049 30.8496 17.7658 31.1487 19.8951 30.884C22.0244 30.6194 24.0487 29.8001 25.7689 28.5068C27.4891 27.2135 28.8459 25.4907 29.7059 23.5079V29.4231C29.7059 29.9739 29.9228 30.5022 30.3089 30.8917C30.695 31.2812 31.2186 31.5 31.7647 31.5C32.3107 31.5 32.8344 31.2812 33.2205 30.8917C33.6066 30.5022 33.8235 29.9739 33.8235 29.4231V5.01923C33.8235 4.88152 33.7693 4.74945 33.6728 4.65208C33.5762 4.5547 33.4453 4.5 33.3088 4.5ZM7.57347 29.4231C7.57347 29.6985 7.46501 29.9626 7.27196 30.1574C7.07891 30.3521 6.81707 30.4615 6.54406 30.4615C6.27104 30.4615 6.0092 30.3521 5.81615 30.1574C5.6231 29.9626 5.51464 29.6985 5.51464 29.4231V20.0769H7.57347V29.4231ZM6.02935 19.0385V13.8462H7.05876V19.0385H6.02935ZM7.74969 12.8077H5.33842C5.15253 12.8077 4.9686 12.7695 4.79784 12.6954C4.62709 12.6213 4.4731 12.5128 4.34529 12.3767C4.21748 12.2405 4.11853 12.0795 4.05448 11.9034C3.99043 11.7274 3.96263 11.54 3.97278 11.3528C4.54989 11.5923 5.39883 11.7692 6.54406 11.7692C7.48462 11.7692 8.42917 11.6365 9.11521 11.3553C9.12507 11.5423 9.09705 11.7294 9.03288 11.9052C8.9687 12.081 8.86971 12.2417 8.74194 12.3776C8.61416 12.5135 8.46029 12.6217 8.2897 12.6957C8.1191 12.7696 7.93537 12.8077 7.74969 12.8077ZM26.0566 26.919C24.8114 28.0766 23.3246 28.9379 21.7058 29.4392C20.087 29.9406 18.3774 30.0693 16.7027 29.816C15.0281 29.5626 13.4311 28.9336 12.0293 27.9752C10.6275 27.0168 9.45665 25.7535 8.60288 24.2783V19.5577C8.60288 19.42 8.54866 19.2879 8.45213 19.1905C8.3556 19.0932 8.22469 19.0385 8.08818 19.0385V13.822C8.68399 13.7363 9.22604 13.4276 9.60665 12.9573C9.98727 12.4869 10.1786 11.8894 10.1426 11.2834L10.1072 10.7225C11.2569 9.48047 12.6668 8.51288 14.2343 7.89029C15.8017 7.26769 17.4871 7.00578 19.1676 7.12366C20.8481 7.24154 22.4813 7.73623 23.9482 8.57166C25.4152 9.4071 26.6788 10.5622 27.647 11.9528V19.5577C27.647 19.6954 27.7013 19.8275 27.7978 19.9248C27.8943 20.0222 28.0252 20.0769 28.1617 20.0769H29.6009C29.2454 22.7044 27.9918 25.1243 26.0566 26.919ZM32.7941 29.4231C32.7941 29.6985 32.6856 29.9626 32.4926 30.1574C32.2995 30.3521 32.0377 30.4615 31.7647 30.4615C31.4917 30.4615 31.2298 30.3521 31.0368 30.1574C30.8437 29.9626 30.7353 29.6985 30.7353 29.4231V20.0769H32.7941V29.4231ZM32.7941 19.0385H28.6764V9.17308C28.6775 8.20945 29.0575 7.2856 29.7329 6.60421C30.4084 5.92282 31.3242 5.53954 32.2794 5.53846H32.7941V19.0385Z" fill="currentColor"/>
</svg>
