<svg width="36" height="36" viewBox="0 0 36 36" fill="none" xmlns="http://www.w3.org/2000/svg">
<path d="M32.1686 10.8671L24.6401 3.18796C24.3944 2.93735 23.9975 2.93735 23.7518 3.18796L3.12544 24.2268C2.87974 24.4775 2.87974 24.8823 3.12544 25.1329L10.654 32.812C10.8997 33.0627 11.2966 33.0627 11.5423 32.812L32.1686 11.7732C32.4143 11.5225 32.4143 11.1177 32.1686 10.8671ZM11.095 31.4497L4.46105 24.6831L9.44438 19.6001L11.7061 21.907C11.9455 22.1641 12.3487 22.1705 12.5944 21.9199C12.8464 21.6757 12.8527 21.2644 12.607 21.0138C12.6007 21.0074 12.6007 21.0074 12.5944 21.001L10.3327 18.7004L11.977 17.0232L15.505 20.6218C15.7507 20.8724 16.1539 20.8724 16.3933 20.6154C16.639 20.3648 16.639 19.9599 16.3933 19.7093L12.8653 16.1107L14.5096 14.4335L16.7713 16.7341C17.017 16.9847 17.4139 16.9847 17.6596 16.7341C17.9053 16.4835 17.9053 16.0786 17.6596 15.828L15.3979 13.5275L17.0422 11.8503L20.5703 15.4489C20.816 15.6995 21.2129 15.6995 21.4586 15.4489C21.7043 15.1982 21.7043 14.7934 21.4586 14.5428L17.9305 10.9442L19.5749 9.267L21.8366 11.574C22.0823 11.8246 22.4792 11.831 22.7249 11.5804C22.9706 11.3298 22.9769 10.9249 22.7312 10.6743C22.7312 10.6743 22.7312 10.6743 22.7249 10.6679L20.4821 8.34165L22.1264 6.66445L25.6544 10.263C25.9001 10.5137 26.297 10.5137 26.5427 10.263C26.7884 10.0124 26.7884 9.60758 26.5427 9.35697L23.0147 5.75838L24.1991 4.55028L30.833 11.3169L11.095 31.4497Z" fill="currentColor"/>
<path d="M11.5927 24.2909C10.7989 23.4877 9.51998 23.4877 8.73248 24.2909C7.94497 25.1006 7.94497 26.4051 8.73248 27.2083C9.51998 28.0116 10.8052 28.0116 11.5927 27.2083C12.3802 26.4051 12.3802 25.1006 11.5927 24.2909ZM10.7674 26.283C10.7548 26.2958 10.7359 26.3151 10.6981 26.3087C10.402 26.6107 9.91689 26.6107 9.61448 26.3087C9.31838 26.0067 9.31838 25.5119 9.61448 25.2034C9.91059 24.9014 10.3957 24.9014 10.6981 25.2034C11.0068 25.4926 11.0509 25.9681 10.7674 26.283Z" fill="currentColor"/>
</svg>
