<svg width="29" height="29" viewBox="0 0 29 29" fill="none" xmlns="http://www.w3.org/2000/svg">
<g fill="currentColor">
<path d="M10.4106 12.4309C12.2454 12.7892 14.1035 11.9742 14.1035 11.1016C14.1035 10.4331 12.9166 9.68555 11.3281 9.68555C9.84176 9.68555 8.55273 10.3833 8.55273 11.1016C8.55273 11.6531 9.35148 12.2246 10.4106 12.4309Z"/>
<path d="M19.4017 16.5958H22.5997V14.5459C21.6884 15.4077 20.5399 16.0813 19.4017 16.5958Z"/>
<path d="M2.56962 14.1713C4.14349 15.1373 6.26185 15.9218 8.3814 16.3239C14.8594 17.5547 22.5996 14.3059 22.5996 11.1016C22.5996 9.09932 21.3707 7.24858 19.1393 5.89023C17.0395 4.61213 14.2655 3.9082 11.3281 3.9082C5.28032 3.9082 0 6.94992 0 11.1016C0 12.0866 0.949127 13.1768 2.56962 14.1713ZM6.8909 10.6896C7.17552 9.12384 9.04177 7.98633 11.3281 7.98633C13.8372 7.98633 15.8027 9.35471 15.8027 11.1016C15.8027 12.8484 13.8372 14.2168 11.3281 14.2168C10.905 14.2168 10.4869 14.1771 10.0854 14.0986C8.15246 13.7222 6.85352 12.5177 6.85352 11.1016C6.85352 10.9635 6.86615 10.8248 6.8909 10.6896Z"/>
<path d="M11.3281 18.2951C10.2156 18.2951 9.11761 18.1937 8.06449 17.9936C5.39729 17.4876 2.00043 16.2583 0 14.4102V19.7112C0 21.3304 1.15654 22.8217 3.15392 23.9106C4.28118 24.5248 5.5279 24.9096 6.85952 25.0543C6.92369 25.0613 6.87113 25.059 8.21295 25.0611V22.0008C8.21295 21.5433 8.56452 21.1497 9.02149 21.1281C9.50934 21.1051 9.91211 21.4939 9.91211 21.9768V25.0637L12.7441 25.0682V22.0008C12.7441 21.5433 13.0957 21.1497 13.5527 21.1281C14.0406 21.1051 14.4434 21.4939 14.4434 21.9768V25.0708L17.2754 25.0752V22.0008C17.2754 21.5433 17.627 21.1497 18.0839 21.1281C18.5718 21.1051 18.9746 21.4939 18.9746 21.9768V25.0779L21.8066 25.0823V22.0008C21.8066 21.5433 22.1582 21.1497 22.6152 21.1281C23.1031 21.1051 23.5059 21.4939 23.5059 21.9768V25.0849L28.1491 25.092C28.5936 25.092 29 24.7439 29 24.2279V19.1447C29 18.6755 28.6196 18.2951 28.1504 18.2951H11.3281Z"/>
</g>
</svg>
