<svg width="24" height="24" viewBox="0 0 24 24" fill="none" xmlns="http://www.w3.org/2000/svg">
    <g stroke="currentColor" stroke-width="1.5" stroke-linecap="round" stroke-linejoin="round">
<path d="M12 3C11.2044 3 10.4413 3.24834 9.87868 3.69039C9.31607 4.13244 9 4.73199 9 5.35714V11.6429C9 12.268 9.31607 12.8676 9.87868 13.3096C10.4413 13.7517 11.2044 14 12 14C12.7956 14 13.5587 13.7517 14.1213 13.3096C14.6839 12.8676 15 12.268 15 11.6429V5.35714C15 4.73199 14.6839 4.13244 14.1213 3.69039C13.5587 3.24834 12.7956 3 12 3Z"/>
<path d="M18 10V11.5556C18 12.9995 17.3679 14.3843 16.2426 15.4054C15.1174 16.4264 13.5913 17 12 17C10.4087 17 8.88258 16.4264 7.75736 15.4054C6.63214 14.3843 6 12.9995 6 11.5556V10"/>
<path d="M12 17V20" />
<path d="M9 20H15"/>
    </g>
</svg>
