<svg width="24" height="24" viewBox="0 0 24 24" fill="none" xmlns="http://www.w3.org/2000/svg">
    <g fill="currentColor">
<path d="M5.0625 4H10.5C10.8105 4 11.0625 4.252 11.0625 4.5625C11.0625 4.873 10.8105 5.125 10.5 5.125H5.0625C4.54575 5.125 4.125 5.54575 4.125 6.0625V18.4375C4.125 18.9542 4.54575 19.375 5.0625 19.375H18.9375C19.4542 19.375 19.875 18.9542 19.875 18.4375L19.9375 12.0625C19.9375 11.752 20.1895 11.5 20.5 11.5C20.8105 11.5 21.0625 11.752 21.0625 12.0625L21 18.4375C21 19.5752 20.0752 20.5 18.9375 20.5H5.0625C3.92475 20.5 3 19.5752 3 18.4375V6.0625C3 4.92475 3.92475 4 5.0625 4Z"/>
<path d="M15.5 14L10.6562 14C10.294 14 10 13.706 10 13.3437V8.49999C10 8.13775 10.294 7.84375 10.6562 7.84375C11.0185 7.84375 11.3125 8.13775 11.3125 8.49999V12.6875L15.5 12.6875C15.8622 12.6875 16.1562 12.9815 16.1562 13.3438C16.1562 13.706 15.8622 14 15.5 14Z" />
<path d="M11.5 13C11.3465 13 11.1928 12.9416 11.0761 12.8239C10.8417 12.5896 10.8417 12.2096 11.0761 11.9753L18.9754 4.17577C19.2098 3.94141 19.5897 3.94141 19.8242 4.17577C20.0586 4.41027 20.0586 4.79022 19.8242 5.02457L11.9248 12.8239C11.8072 12.9416 11.6537 13 11.5 13Z"/>
    </g>
</svg>
