<svg width="24" height="24" viewBox="0 0 24 24" fill="none" xmlns="http://www.w3.org/2000/svg">
<path d="M17.3333 9.2C17.3333 7.82087 16.7714 6.49823 15.7712 5.52304C14.771 4.54786 13.4145 4 12 4C10.5855 4 9.22896 4.54786 8.22876 5.52304C7.22857 6.49823 6.66667 7.82087 6.66667 9.2C6.66667 15.2667 4 17 4 17H20C20 17 17.3333 15.2667 17.3333 9.2Z" stroke="currentColor" stroke-width="1.7" stroke-linecap="round" stroke-linejoin="round"/>
<path d="M13 20C12.8476 20.3042 12.6288 20.5566 12.3655 20.7321C12.1023 20.9076 11.8038 21 11.5 21C11.1962 21 10.8977 20.9076 10.6345 20.7321C10.3712 20.5566 10.1524 20.3042 10 20" stroke="currentColor" stroke-width="1.7" stroke-linecap="round" stroke-linejoin="round"/>
</svg>
