<svg width="20" height="20" viewBox="0 0 20 20" fill="none" xmlns="http://www.w3.org/2000/svg">
<path d="M14.4446 7.66732C14.4446 6.51805 13.9764 5.41585 13.1429 4.60319C12.3094 3.79053 11.1789 3.33398 10.0002 3.33398C8.82142 3.33398 7.69096 3.79053 6.85747 4.60319C6.02397 5.41585 5.55572 6.51805 5.55572 7.66732C5.55572 12.7229 3.3335 14.1673 3.3335 14.1673H16.6668C16.6668 14.1673 14.4446 12.7229 14.4446 7.66732Z" stroke-width="1.3" stroke-linecap="round" stroke-linejoin="round"/>
<path d="M10.8335 16.666C10.7065 16.9195 10.5241 17.1299 10.3048 17.2761C10.0854 17.4224 9.83666 17.4993 9.5835 17.4993C9.33033 17.4993 9.08161 17.4224 8.86223 17.2761C8.64286 17.1299 8.46053 16.9195 8.3335 16.666"  stroke-width="1.3" stroke-linecap="round" stroke-linejoin="round"/>
</svg>
