<svg width="30" height="28" viewBox="0 0 30 28" fill="none" xmlns="http://www.w3.org/2000/svg">
<path d="M14.6875 15.4669C15.2053 15.4669 15.625 15.0847 15.625 14.6133C15.625 14.1419 15.2053 13.7598 14.6875 13.7598C14.1697 13.7598 13.75 14.1419 13.75 14.6133C13.75 15.0847 14.1697 15.4669 14.6875 15.4669Z" stroke="#2E2F31" stroke-width="2" stroke-linecap="round" stroke-linejoin="round"/>
<path d="M14.6875 8.06842C15.2053 8.06842 15.625 7.68627 15.625 7.21487C15.625 6.74347 15.2053 6.36133 14.6875 6.36133C14.1697 6.36133 13.75 6.74347 13.75 7.21487C13.75 7.68627 14.1697 8.06842 14.6875 8.06842Z" fill="#2E2F31" stroke="#2E2F31" stroke-width="1.5" stroke-linecap="round" stroke-linejoin="round"/>
<path d="M14.6875 22.8633C15.2053 22.8633 15.625 22.4812 15.625 22.0098C15.625 21.5384 15.2053 21.1562 14.6875 21.1562C14.1697 21.1562 13.75 21.5384 13.75 22.0098C13.75 22.4812 14.1697 22.8633 14.6875 22.8633Z" fill="#2E2F31" stroke="#2E2F31" stroke-width="1.5" stroke-linecap="round" stroke-linejoin="round"/>
</svg>
