<svg width="24" height="24" viewBox="0 0 24 24" fill="none" xmlns="http://www.w3.org/2000/svg">
<path d="M13 12.25C13 11.8358 12.6642 11.5 12.25 11.5C11.8358 11.5 11.5 11.8358 11.5 12.25C11.5 12.6642 11.8358 13 12.25 13C12.6642 13 13 12.6642 13 12.25Z" fill="currentColor" stroke="currentColor" stroke-width="1.5" stroke-linecap="round" stroke-linejoin="round"/>
<path d="M6.5 12.25C6.5 11.8358 6.16421 11.5 5.75 11.5C5.33579 11.5 5 11.8358 5 12.25C5 12.6642 5.33579 13 5.75 13C6.16421 13 6.5 12.6642 6.5 12.25Z" fill="currentColor" stroke="currentColor" stroke-width="1.5" stroke-linecap="round" stroke-linejoin="round"/>
<path d="M19.5 12.25C19.5 11.8358 19.1642 11.5 18.75 11.5C18.3358 11.5 18 11.8358 18 12.25C18 12.6642 18.3358 13 18.75 13C19.1642 13 19.5 12.6642 19.5 12.25Z" fill="currentColor" stroke="currentColor" stroke-width="1.5" stroke-linecap="round" stroke-linejoin="round"/>
</svg>
