<svg width="20" height="20" viewBox="0 0 20 20" fill="none" xmlns="http://www.w3.org/2000/svg">
<path d="M9.7915 10.8333C10.1367 10.8333 10.4165 10.5534 10.4165 10.2083C10.4165 9.86307 10.1367 9.58325 9.7915 9.58325C9.44633 9.58325 9.1665 9.86307 9.1665 10.2083C9.1665 10.5534 9.44633 10.8333 9.7915 10.8333Z" fill="#2E2F31" stroke="#2E2F31" stroke-width="1.5" stroke-linecap="round" stroke-linejoin="round"/>
<path d="M9.7915 5.41675C10.1367 5.41675 10.4165 5.13693 10.4165 4.79175C10.4165 4.44657 10.1367 4.16675 9.7915 4.16675C9.44633 4.16675 9.1665 4.44657 9.1665 4.79175C9.1665 5.13693 9.44633 5.41675 9.7915 5.41675Z" fill="#2E2F31" stroke="#2E2F31" stroke-width="1.5" stroke-linecap="round" stroke-linejoin="round"/>
<path d="M9.7915 16.25C10.1367 16.25 10.4165 15.9702 10.4165 15.625C10.4165 15.2798 10.1367 15 9.7915 15C9.44633 15 9.1665 15.2798 9.1665 15.625C9.1665 15.9702 9.44633 16.25 9.7915 16.25Z" fill="#2E2F31" stroke="#2E2F31" stroke-width="1.5" stroke-linecap="round" stroke-linejoin="round"/>
</svg>
