<svg width="24" height="25" viewBox="0 0 24 25" fill="none" xmlns="http://www.w3.org/2000/svg">
<path d="M11.75 13.5598C12.1642 13.5598 12.5 13.2124 12.5 12.7838C12.5 12.3552 12.1642 12.0078 11.75 12.0078C11.3358 12.0078 11 12.3552 11 12.7838C11 13.2124 11.3358 13.5598 11.75 13.5598Z" fill="currentColor" stroke="currentColor" stroke-width="1.5" stroke-linecap="round" stroke-linejoin="round"/>
<path d="M11.75 6.83523C12.1642 6.83523 12.5 6.48779 12.5 6.05921C12.5 5.63064 12.1642 5.2832 11.75 5.2832C11.3358 5.2832 11 5.63064 11 6.05921C11 6.48779 11.3358 6.83523 11.75 6.83523Z" fill="currentColor" stroke="currentColor" stroke-width="1.5" stroke-linecap="round" stroke-linejoin="round"/>
<path d="M11.75 20.2854C12.1642 20.2854 12.5 19.938 12.5 19.5094C12.5 19.0808 12.1642 18.7334 11.75 18.7334C11.3358 18.7334 11 19.0808 11 19.5094C11 19.938 11.3358 20.2854 11.75 20.2854Z" fill="currentColor" stroke="currentColor" stroke-width="1.5" stroke-linecap="round" stroke-linejoin="round"/>
</svg>
