<svg width="19" height="18" viewBox="0 0 19 18" fill="none" xmlns="http://www.w3.org/2000/svg">
<path d="M7.25 3.375H6.125C5.82663 3.375 5.54048 3.49353 5.32951 3.7045C5.11853 3.91548 5 4.20163 5 4.5V13.5C5 13.7984 5.11853 14.0845 5.32951 14.2955C5.54048 14.5065 5.82663 14.625 6.125 14.625H7.25C7.54837 14.625 7.83452 14.5065 8.0455 14.2955C8.25647 14.0845 8.375 13.7984 8.375 13.5V4.5C8.375 4.20163 8.25647 3.91548 8.0455 3.7045C7.83452 3.49353 7.54837 3.375 7.25 3.375Z" fill="currentColor"/>
<path d="M12.875 3.375H11.75C11.4516 3.375 11.1655 3.49353 10.9545 3.7045C10.7435 3.91548 10.625 4.20163 10.625 4.5V13.5C10.625 13.7984 10.7435 14.0845 10.9545 14.2955C11.1655 14.5065 11.4516 14.625 11.75 14.625H12.875C13.1734 14.625 13.4595 14.5065 13.6705 14.2955C13.8815 14.0845 14 13.7984 14 13.5V4.5C14 4.20163 13.8815 3.91548 13.6705 3.7045C13.4595 3.49353 13.1734 3.375 12.875 3.375Z" fill="currentColor"/>
</svg>
