<svg width="18" height="19" viewBox="0 0 18 19" fill="none" xmlns="http://www.w3.org/2000/svg">
<path d="M16.9995 13.6426V16.1348C17.0004 16.3661 16.9545 16.5951 16.8648 16.8071C16.775 17.0191 16.6434 17.2094 16.4783 17.3658C16.3132 17.5222 16.1183 17.6413 15.906 17.7154C15.6938 17.7895 15.4689 17.817 15.2457 17.7962C12.7702 17.5185 10.3923 16.6449 8.30312 15.2459C6.35937 13.9704 4.71141 12.2687 3.47627 10.2615C2.11669 8.09432 1.27059 5.62689 1.00653 3.05911C0.986426 2.82939 1.01286 2.59786 1.08416 2.37927C1.15546 2.16067 1.27005 1.9598 1.42065 1.78945C1.57124 1.61909 1.75454 1.48298 1.95886 1.38978C2.16319 1.29659 2.38407 1.24834 2.60744 1.24813H5.02086C5.41128 1.24416 5.78977 1.38692 6.0858 1.64981C6.38182 1.9127 6.57517 2.27777 6.62981 2.67698C6.73168 3.47453 6.92059 4.25763 7.19295 5.01132C7.30118 5.30866 7.32461 5.6318 7.26045 5.94247C7.19629 6.25313 7.04723 6.53829 6.83093 6.76416L5.80925 7.81918C6.95446 9.89894 8.62206 11.621 10.6361 12.8035L11.6578 11.7485C11.8765 11.5252 12.1527 11.3712 12.4535 11.305C12.7544 11.2387 13.0673 11.2629 13.3552 11.3747C14.0851 11.6559 14.8435 11.851 15.6158 11.9562C16.0066 12.0131 16.3635 12.2164 16.6186 12.5273C16.8737 12.8383 17.0093 13.2352 16.9995 13.6426Z"  stroke-width="1.5" stroke-linecap="round" stroke-linejoin="round"/>
</svg>
