<svg width="24" height="24" viewBox="0 0 24 24" fill="none" xmlns="http://www.w3.org/2000/svg">
<path d="M12.0287 4.6748C14.024 4.6748 15.6772 6.32801 15.6772 8.32326C15.6772 10.3755 14.024 12.0287 12.0287 12.0287C9.97645 12.0287 8.32324 10.3755 8.32324 8.32326C8.32324 6.32801 9.97645 4.6748 12.0287 4.6748ZM12.0287 5.81495C10.6035 5.81495 9.46338 6.95509 9.46338 8.32326C9.46338 9.74844 10.6035 10.8886 12.0287 10.8886C13.3969 10.8886 14.537 9.74844 14.537 8.32326C14.537 6.95509 13.3969 5.81495 12.0287 5.81495Z" fill="#757575"/>
<path d="M12.0287 12.4277C15.7342 12.4277 18.8126 15.2211 19.1546 18.8695C19.2116 19.4966 18.0715 19.4966 18.0145 18.9265C17.6724 15.9052 15.1071 13.5679 12.0287 13.5679C8.89332 13.5679 6.328 15.9052 5.98596 18.9265C5.92895 19.4966 4.78881 19.4966 4.84582 18.8695C5.24487 15.2211 8.32325 12.4277 12.0287 12.4277Z" fill="#757575"/>
</svg>
