<svg width="24" height="24" viewBox="0 0 24 24" fill="none" xmlns="http://www.w3.org/2000/svg">
<path d="M11.9999 0.333008C5.55992 0.333008 0.333252 5.55967 0.333252 11.9997C0.333252 18.4397 5.55992 23.6663 11.9999 23.6663C18.4399 23.6663 23.6666 18.4397 23.6666 11.9997C23.6666 5.55967 18.4399 0.333008 11.9999 0.333008ZM11.9999 3.83301C13.9366 3.83301 15.4999 5.39634 15.4999 7.33301C15.4999 9.26968 13.9366 10.833 11.9999 10.833C10.0633 10.833 8.49992 9.26968 8.49992 7.33301C8.49992 5.39634 10.0633 3.83301 11.9999 3.83301ZM11.9999 20.3997C9.08325 20.3997 6.50492 18.9063 4.99992 16.643C5.03492 14.3213 9.66659 13.0497 11.9999 13.0497C14.3216 13.0497 18.9649 14.3213 18.9999 16.643C17.4949 18.9063 14.9166 20.3997 11.9999 20.3997Z" fill="currentColor"/>
</svg>
