<svg width="21" height="21" viewBox="0 0 21 21" fill="none" xmlns="http://www.w3.org/2000/svg">
    <g fill="currentColor">
<path d="M17.3816 1.43239L14.8958 0L12.41 1.43239L9.9241 0L7.43827 1.43239L5.57428 0.358312V17.2356H16.6694V19.7118C16.6694 20.4221 17.2473 21 17.9575 21C18.6678 21 19.2457 20.4221 19.2457 19.7118V0.358312L17.3816 1.43239ZM7.08833 11.2412V9.9975H12.41V11.2412H7.08833ZM17.7317 8.52566H7.08833V7.28198H17.7317V8.52566ZM17.7317 5.81014H7.08833V4.56647H17.7317V5.81014Z"/>
<path d="M15.4258 19.7111V18.4785H1.75433V19.7111C1.75433 20.4213 2.3322 20.9992 3.04247 20.9992H15.7785C15.5545 20.6216 15.4258 20.1811 15.4258 19.7111Z"/>
    </g>
</svg>
