<svg width="24" height="24" viewBox="0 0 24 24" fill="none" xmlns="http://www.w3.org/2000/svg">
<mask id="path-1-inside-1" fill="white">
<path d="M3.61564 3.53156C3.7131 3.45322 3.83271 3.40372 3.95961 3.38922C4.0865 3.37471 4.2151 3.39584 4.32944 3.44997L21.2936 11.4858C21.4019 11.5372 21.4929 11.6161 21.5565 11.7137C21.6201 11.8113 21.6538 11.9237 21.6538 12.0384C21.6538 12.1531 21.6201 12.2656 21.5565 12.3632C21.4929 12.4607 21.4019 12.5397 21.2936 12.591L4.32944 20.6269C4.21518 20.6812 4.08661 20.7024 3.9597 20.6881C3.83278 20.6738 3.71311 20.6244 3.61553 20.5462C3.51796 20.468 3.44679 20.3643 3.41085 20.2481C3.37491 20.1319 3.37578 20.0083 3.41337 19.8925L5.96453 12.0384L3.41337 4.18432C3.376 4.0687 3.37524 3.94523 3.41119 3.82921C3.44715 3.71319 3.51823 3.6097 3.61564 3.53156ZM7.12853 12.6566L5.10979 18.8751L19.5424 12.0384L5.10979 5.20178L7.12853 11.4203H14.4766C14.6497 11.4203 14.8156 11.4854 14.938 11.6013C15.0604 11.7173 15.1291 11.8745 15.1291 12.0384C15.1291 12.2024 15.0604 12.3596 14.938 12.4755C14.8156 12.5914 14.6497 12.6566 14.4766 12.6566H7.12984H7.12853Z"/>
</mask>
<path d="M4.32944 3.44997L4.98925 2.05706L4.98898 2.05693L4.32944 3.44997ZM21.2936 11.4858L21.9547 10.0935L21.9534 10.0929L21.2936 11.4858ZM21.6538 12.0384H20.1125H21.6538ZM21.2936 12.591L21.9534 13.984L21.9547 13.9833L21.2936 12.591ZM4.32944 20.6269L3.66962 19.234L3.66811 19.2347L4.32944 20.6269ZM3.41337 19.8925L1.94748 19.4164L1.94746 19.4165L3.41337 19.8925ZM5.96453 12.0384L7.43042 12.5146L7.58508 12.0384L7.43042 11.5623L5.96453 12.0384ZM3.41337 4.18432L1.9468 4.65837L1.94748 4.66047L3.41337 4.18432ZM7.12853 12.6566V11.1153H6.00842L5.66256 12.1807L7.12853 12.6566ZM5.10979 18.8751L3.64382 18.3992L2.54059 21.7976L5.76961 20.268L5.10979 18.8751ZM19.5424 12.0384L20.2022 13.4313L23.1427 12.0384L20.2022 10.6455L19.5424 12.0384ZM5.10979 5.20178L5.76961 3.80887L2.54059 2.2793L3.64382 5.67769L5.10979 5.20178ZM7.12853 11.4203L5.66256 11.8962L6.00842 12.9616H7.12853V11.4203ZM4.58127 4.73286C4.4466 4.84111 4.29063 4.9027 4.13465 4.92053L3.78456 1.85791C3.37479 1.90475 2.9796 2.06533 2.65001 2.33027L4.58127 4.73286ZM4.13465 4.92053C3.97882 4.93834 3.81806 4.91316 3.6699 4.84301L4.98898 2.05693C4.61215 1.87852 4.19419 1.81108 3.78456 1.85791L4.13465 4.92053ZM3.66962 4.84288L20.6338 12.8787L21.9534 10.0929L4.98925 2.05706L3.66962 4.84288ZM20.6325 12.8781C20.4916 12.8112 20.3614 12.7029 20.2652 12.5552L22.8478 10.8722C22.6243 10.5294 22.3121 10.2632 21.9547 10.0935L20.6325 12.8781ZM20.2652 12.5552C20.1683 12.4066 20.1125 12.2275 20.1125 12.0384H23.195C23.195 11.62 23.0718 11.216 22.8478 10.8722L20.2652 12.5552ZM20.1125 12.0384C20.1125 11.8494 20.1683 11.6702 20.2652 11.5217L22.8478 13.2046C23.0718 12.8609 23.195 12.4568 23.195 12.0384H20.1125ZM20.2652 11.5217C20.3614 11.374 20.4916 11.2656 20.6325 11.1987L21.9547 13.9833C22.3121 13.8137 22.6243 13.5475 22.8478 13.2046L20.2652 11.5217ZM20.6338 11.1981L3.66962 19.234L4.98925 22.0198L21.9534 13.984L20.6338 11.1981ZM3.66811 19.2347C3.81621 19.1643 3.97696 19.139 4.1328 19.1566L3.78659 22.2196C4.19627 22.2659 4.61415 22.198 4.99077 22.0191L3.66811 19.2347ZM4.1328 19.1566C4.28879 19.1742 4.4448 19.2356 4.57957 19.3436L2.6515 21.7488C2.98141 22.0132 3.37677 22.1733 3.78659 22.2196L4.1328 19.1566ZM4.57957 19.3436C4.71515 19.4523 4.82557 19.606 4.88332 19.7927L1.93838 20.7035C2.068 21.1227 2.32077 21.4837 2.6515 21.7488L4.57957 19.3436ZM4.88332 19.7927C4.94136 19.9804 4.93986 20.1821 4.87929 20.3686L1.94746 19.4165C1.81171 19.8344 1.80846 20.2834 1.93838 20.7035L4.88332 19.7927ZM4.87926 20.3687L7.43042 12.5146L4.49863 11.5623L1.94748 19.4164L4.87926 20.3687ZM7.43042 11.5623L4.87926 3.70817L1.94748 4.66047L4.49863 12.5146L7.43042 11.5623ZM4.87994 3.71027C4.94018 3.89663 4.94147 4.09805 4.88342 4.2854L1.93897 3.37302C1.80901 3.79242 1.81182 4.24077 1.9468 4.65837L4.87994 3.71027ZM4.88342 4.2854C4.82566 4.47182 4.7154 4.62527 4.58003 4.73386L2.65125 2.32927C2.32106 2.59412 2.06864 2.95456 1.93897 3.37302L4.88342 4.2854ZM5.66256 12.1807L3.64382 18.3992L6.57576 19.351L8.5945 13.1325L5.66256 12.1807ZM5.76961 20.268L20.2022 13.4313L18.8826 10.6455L4.44998 17.4822L5.76961 20.268ZM20.2022 10.6455L5.76961 3.80887L4.44998 6.59469L18.8826 13.4313L20.2022 10.6455ZM3.64382 5.67769L5.66256 11.8962L8.5945 10.9444L6.57576 4.72588L3.64382 5.67769ZM7.12853 12.9616H14.4766V9.879H7.12853V12.9616ZM14.4766 12.9616C14.267 12.9616 14.0503 12.8834 13.878 12.7202L15.998 10.4824C15.581 10.0874 15.0324 9.879 14.4766 9.879V12.9616ZM13.878 12.7202C13.7029 12.5543 13.5878 12.311 13.5878 12.0384H16.6704C16.6704 11.438 16.4179 10.8802 15.998 10.4824L13.878 12.7202ZM13.5878 12.0384C13.5878 11.7659 13.7029 11.5225 13.878 11.3566L15.998 13.5944C16.4179 13.1967 16.6704 12.6388 16.6704 12.0384H13.5878ZM13.878 11.3566C14.0503 11.1934 14.267 11.1153 14.4766 11.1153V14.1979C15.0324 14.1979 15.581 13.9895 15.998 13.5944L13.878 11.3566ZM14.4766 11.1153H7.12984V14.1979H14.4766V11.1153ZM7.12984 11.1153H7.12853V14.1979H7.12984V11.1153Z" fill="currentColor" mask="url(#path-1-inside-1)"/>
</svg>
