<svg width="36" height="36" viewBox="0 0 36 36" fill="none" xmlns="http://www.w3.org/2000/svg">
<circle cx="18" cy="18" r="18" fill="#FFDE34"/>
<g clip-path="url(#clip0)">
<path d="M26.255 15.7616C25.7166 15.309 24.8929 15.3629 24.4254 15.9203L24.1445 16.2526L26.1355 17.9232L26.4038 17.5921C26.8651 17.0434 26.8067 16.2239 26.255 15.7616Z" fill="white"/>
<path d="M20.6317 20.4082L20.4836 20.5836C20.355 20.7375 20.2623 20.9215 20.2158 21.1166L19.8131 22.8019C19.775 22.9613 19.8305 23.1289 19.9561 23.2342C20.0783 23.337 20.2508 23.3668 20.4066 23.3002L21.9967 22.6107C22.1807 22.5307 22.3457 22.4076 22.4743 22.2549L22.623 22.079L20.6317 20.4082Z" fill="white"/>
<path d="M23.5854 16.9136L21.1907 19.7469L23.1818 21.4177L25.5764 18.5842L23.5854 16.9136Z" fill="white"/>
<path d="M22.7872 12.2063L21.1417 10.6428C20.9861 10.4953 20.7947 10.4085 20.593 10.3521V12.8849H23.1647C23.1109 12.6275 22.9798 12.3892 22.7872 12.2063Z" fill="white"/>
<path d="M19.3742 20.9155C19.4516 20.5915 19.606 20.2848 19.82 20.0284L23.1932 16.037V13.751H20.161C19.9216 13.751 19.7278 13.5573 19.7278 13.3179V10.2856H13.2302C12.5136 10.2856 11.9307 10.8686 11.9307 11.5852V23.7718C11.9307 24.4884 12.5136 25.0714 13.2302 25.0714H21.8937C22.6103 25.0714 23.1932 24.4884 23.1932 23.7718V22.7478L23.137 22.8144C22.9242 23.0678 22.6496 23.2721 22.3438 23.4054L20.7524 24.0954C20.3039 24.289 19.7846 24.2204 19.4004 23.8986C19.021 23.5801 18.8564 23.0831 18.9715 22.6008L19.3742 20.9155ZM14.0965 12.8847H18.4283C18.6677 12.8847 18.8615 13.0784 18.8615 13.3179C18.8615 13.5573 18.6677 13.751 18.4283 13.751H14.0965C13.8571 13.751 13.6634 13.5573 13.6634 13.3179C13.6634 13.0784 13.8571 12.8847 14.0965 12.8847ZM14.0965 15.5126H21.0273C21.2668 15.5126 21.4605 15.7064 21.4605 15.9458C21.4605 16.1852 21.2668 16.379 21.0273 16.379H14.0965C13.8571 16.379 13.6634 16.1852 13.6634 15.9458C13.6634 15.7064 13.8571 15.5126 14.0965 15.5126ZM17.5619 21.5771H14.0965C13.8571 21.5771 13.6634 21.3833 13.6634 21.1439C13.6634 20.9045 13.8571 20.7107 14.0965 20.7107H17.5619C17.8014 20.7107 17.9951 20.9045 17.9951 21.1439C17.9951 21.3833 17.8014 21.5771 17.5619 21.5771ZM14.0965 18.978C13.8571 18.978 13.6634 18.7843 13.6634 18.5449C13.6634 18.3054 13.8571 18.1117 14.0965 18.1117H19.2946C19.5341 18.1117 19.7278 18.3054 19.7278 18.5449C19.7278 18.7843 19.5341 18.978 19.2946 18.978H14.0965Z" fill="white"/>
</g>
<defs>
<clipPath id="clip0">
<rect width="14.7857" height="14.7857" fill="white" transform="translate(11.9285 10.2856)"/>
</clipPath>
</defs>
</svg>
