<svg width="24" height="24" viewBox="0 0 24 24" fill="none" xmlns="http://www.w3.org/2000/svg">
<path d="M2.27793 12.6045L2.22849 12.597L2.22848 12.5971L2.22845 12.5973L2.22836 12.5979L2.22807 12.6L2.22708 12.6075C2.22629 12.614 2.22524 12.6233 2.22419 12.6351C2.22207 12.6587 2.2199 12.6923 2.21957 12.7332C2.21892 12.8146 2.22557 12.9259 2.25524 13.0437C2.3149 13.2806 2.46915 13.5471 2.84202 13.6457C2.95152 13.6749 3.06569 13.6822 3.17802 13.6672C3.29037 13.6522 3.39866 13.6152 3.49671 13.5583C3.59476 13.5014 3.68063 13.4258 3.74942 13.3357C3.81822 13.2456 3.86858 13.1429 3.89763 13.0333L3.8993 13.0338V13.0234L3.90992 12.9902L3.90993 12.9902L3.91019 12.9894C3.92781 12.9307 3.94654 12.8724 3.96636 12.8144C4.31864 11.8328 4.83502 10.9181 5.49349 10.1093C6.69148 8.64815 8.69634 7.175 12.0003 7.175C15.3043 7.175 17.3075 8.64815 18.5072 10.1094C19.0145 10.7319 19.4382 11.4181 19.7677 12.1505L19.7677 12.1506C19.8912 12.4241 19.999 12.7045 20.0907 12.9903L20.1032 13.0293L20.1044 13.0343L20.1044 13.0343L20.1048 13.0358C20.1669 13.2534 20.3119 13.4379 20.5087 13.5495C20.7055 13.6612 20.9383 13.691 21.1568 13.6327C21.3754 13.5743 21.5623 13.4323 21.6772 13.2375C21.7911 13.0443 21.8253 12.8146 21.7727 12.5968V12.5878L21.7674 12.5773L21.7668 12.5761L21.7633 12.5608L21.7633 12.5607L21.7625 12.5579C21.7323 12.455 21.6996 12.3529 21.6643 12.2517L21.6641 12.2513C21.2452 11.0767 20.6285 9.98246 19.8407 9.01579L19.8406 9.01567C18.3752 7.22849 15.9097 5.45 12.0003 5.45C8.09248 5.45 5.627 7.2285 4.15842 9.01563L4.15829 9.01579C3.37047 9.98246 2.75376 11.0767 2.33483 12.2513L2.33483 12.2513L2.33465 12.2518C2.3174 12.302 2.29817 12.3613 2.2833 12.4079L2.26497 12.4659L2.25969 12.4828L2.25828 12.4874L2.25791 12.4886L2.25782 12.4889L2.2578 12.4889L2.25779 12.489L2.25779 12.489L2.25776 12.489L2.25733 12.4905L2.22971 12.5913L2.22938 12.5912L2.2285 12.5969L2.27793 12.6045Z" fill="currentColor" stroke="currentColor" stroke-width="0.1"/>
<path d="M12 10.325C10.9093 10.325 9.86327 10.7583 9.09202 11.5295C8.32078 12.3008 7.8875 13.3468 7.8875 14.4375C7.8875 15.5282 8.32078 16.5742 9.09202 17.3455C9.86327 18.1167 10.9093 18.55 12 18.55C13.0907 18.55 14.1367 18.1167 14.908 17.3455C15.6792 16.5742 16.1125 15.5282 16.1125 14.4375C16.1125 13.3468 15.6792 12.3008 14.908 11.5295C14.1367 10.7583 13.0907 10.325 12 10.325ZM9.6125 14.4375C9.6125 13.8043 9.86404 13.197 10.3118 12.7493C10.7595 12.3015 11.3668 12.05 12 12.05C12.6332 12.05 13.2405 12.3015 13.6882 12.7493C14.136 13.197 14.3875 13.8043 14.3875 14.4375C14.3875 15.0707 14.136 15.678 13.6882 16.1257C13.2405 16.5735 12.6332 16.825 12 16.825C11.3668 16.825 10.7595 16.5735 10.3118 16.1257C9.86404 15.678 9.6125 15.0707 9.6125 14.4375Z" fill="currentColor" stroke="currentColor" stroke-width="0.1"/>
</svg>
