<svg width="24" height="24" viewBox="0 0 24 24" fill="none" xmlns="http://www.w3.org/2000/svg">
<g clip-path="url(#clip0)">
<path d="M19.6456 10.7692H16.9683C16.7023 13.1759 14.7913 15.0869 12.3846 15.3529V19.4231C12.3846 19.7417 12.1263 20 11.8077 20C11.4891 20 11.2308 19.7417 11.2308 19.4231V15.3529C8.82407 15.0869 6.91312 13.1759 6.64708 10.7692H3.96974L5.0041 11.8036C5.2294 12.0289 5.2294 12.3942 5.0041 12.6195C4.7788 12.8448 4.41351 12.8448 4.18821 12.6195L2.16898 10.6003C1.94367 10.375 1.94367 10.0097 2.16898 9.78436L4.18821 7.76513C4.41351 7.53983 4.7788 7.53983 5.0041 7.76513C5.2294 7.99043 5.2294 8.35572 5.0041 8.58102L3.96974 9.61538H7.19231C7.51093 9.61538 7.76923 9.87368 7.76923 10.1923C7.76923 12.4227 9.57731 14.2308 11.8077 14.2308C14.0381 14.2308 15.8462 12.4227 15.8462 10.1923C15.8462 9.87368 16.1044 9.61538 16.4231 9.61538H19.6456L18.6113 8.58102C18.386 8.35572 18.386 7.99043 18.6113 7.76513C18.8366 7.53983 19.2019 7.53983 19.4272 7.76513L21.4464 9.78436C21.6717 10.0097 21.6717 10.375 21.4464 10.6003L19.4272 12.6195C19.2019 12.8448 18.8366 12.8448 18.6113 12.6195C18.386 12.3942 18.386 12.0289 18.6113 11.8036L19.6456 10.7692ZM8.95207 7.33668C8.72676 7.56199 8.36147 7.56199 8.13617 7.33668C7.91087 7.11138 7.91087 6.74609 8.13617 6.52079C10.1639 4.49307 13.4515 4.49307 15.4792 6.52079C15.7045 6.74609 15.7045 7.11138 15.4792 7.33668C15.2539 7.56199 14.8886 7.56199 14.6633 7.33668C13.0862 5.75957 10.5292 5.75957 8.95207 7.33668Z" fill="currentColor"/>
</g>
<defs>
<clipPath id="clip0">
<rect width="24" height="24" fill="white"/>
</clipPath>
</defs>
</svg>
