<svg width="24" height="24" viewBox="0 0 24 24" fill="none" xmlns="http://www.w3.org/2000/svg">
<path d="M11.9612 4.35801C7.77025 4.35801 4.36094 7.76748 4.36094 11.9584C4.36094 16.1489 7.77034 19.558 11.9612 19.558C16.1517 19.558 19.5609 16.1489 19.5609 11.9584C19.5609 7.76749 16.1517 4.35801 11.9612 4.35801ZM11.9612 18.6365C8.27863 18.6365 5.28255 15.6406 5.28255 11.9585C5.28255 8.27586 8.27864 5.2797 11.9612 5.2797C15.6434 5.2797 18.6392 8.27585 18.6392 11.9585C18.6392 15.6406 15.6434 18.6365 11.9612 18.6365Z" fill="currentColor" stroke="currentColor" stroke-width="0.2"/>
<path d="M11.9611 7.6709C11.5184 7.6709 11.1582 8.03098 11.1582 8.47357C11.1582 8.91559 11.5184 9.27527 11.9611 9.27527C12.4031 9.27527 12.7627 8.91567 12.7627 8.47357C12.7627 8.03098 12.4031 7.6709 11.9611 7.6709Z" fill="black"/>
<path d="M15.4565 8.71082C15.3767 8.70184 15.2958 8.69727 15.216 8.69727C14.1341 8.69727 13.2265 9.50875 13.1053 10.5849C12.9741 11.75 13.8148 12.8047 14.9793 12.9362C15.0589 12.9451 15.1397 12.9497 15.2195 12.9497C16.3014 12.9497 17.209 12.1381 17.3307 11.0619C17.462 9.89746 16.6213 8.84279 15.4565 8.71082ZM16.6137 10.9809C16.5332 11.6919 15.9339 12.2281 15.2195 12.2281C15.1667 12.2281 15.113 12.2251 15.0602 12.2191C14.291 12.1323 13.7356 11.4355 13.8224 10.6657C13.9025 9.95487 14.5017 9.41887 15.2161 9.41887C15.269 9.41887 15.3227 9.42192 15.3755 9.42785C16.1449 9.51509 16.7004 10.2118 16.6137 10.9809Z" fill="currentColor"/>
<path d="M10.4007 12.9717C9.58206 12.9717 8.91602 13.6379 8.91602 14.4567C8.91602 15.2751 9.58206 15.941 10.4007 15.941C11.2192 15.941 11.885 15.2751 11.885 14.4567C11.885 13.6378 11.2192 12.9717 10.4007 12.9717ZM10.4007 15.2194C9.97991 15.2194 9.63762 14.8772 9.63762 14.4567C9.63762 14.0357 9.97999 13.6933 10.4007 13.6933C10.8212 13.6933 11.1634 14.0357 11.1634 14.4567C11.1633 14.8772 10.8212 15.2194 10.4007 15.2194Z" fill="currentColor"/>
<path d="M10.1925 10.8237C10.1925 10.1838 9.67207 9.66309 9.0324 9.66309C8.3921 9.66309 7.87109 10.1837 7.87109 10.8237C7.87109 11.4637 8.3921 11.9845 9.0324 11.9845C9.67215 11.9845 10.1925 11.4637 10.1925 10.8237ZM8.5927 10.8237C8.5927 10.5816 8.78994 10.3847 9.0324 10.3847C9.27422 10.3847 9.4709 10.5816 9.4709 10.8237C9.4709 11.0659 9.27414 11.2629 9.0324 11.2629C8.78994 11.2629 8.5927 11.0659 8.5927 10.8237Z" fill="currentColor"/>
<path d="M11.6856 10.0029C11.2838 10.0029 10.957 10.3298 10.957 10.7317C10.957 11.1335 11.2839 11.4603 11.6856 11.4603C12.0875 11.4603 12.4144 11.1335 12.4144 10.7317C12.4144 10.3298 12.0875 10.0029 11.6856 10.0029Z" fill="currentColor"/>
</svg>
