<svg width="36" height="36" viewBox="0 0 36 36" fill="none" xmlns="http://www.w3.org/2000/svg">
    <g fill="currentColor">
<mask id="path-1-inside-1" fill="white">
<path d="M20.3174 12.1334C20.1838 12.0246 20.015 11.971 19.8446 11.9831H17.2656L19.6911 9.221L19.9183 8.96421L20.0349 8.81389C20.0754 8.7558 20.1084 8.69262 20.1332 8.62599C20.161 8.5542 20.1755 8.47771 20.1761 8.40051C20.1933 8.21786 20.1045 8.04171 19.949 7.94956C19.7472 7.85514 19.5259 7.81208 19.3042 7.82429H16.2893C16.1284 7.8131 15.969 7.86211 15.841 7.96209C15.7352 8.05392 15.6764 8.18999 15.6814 8.33162C15.6814 8.54457 15.751 8.67398 15.8901 8.71994C16.0897 8.7778 16.2969 8.80316 16.5042 8.7951H18.4691C18.3872 8.91199 18.2808 9.04978 18.1498 9.20847L17.6463 9.78469L16.9647 10.5363L16.1726 11.4319C15.8983 11.7451 15.7182 11.9539 15.6322 12.0582C15.4373 12.2998 15.4615 12.6547 15.6875 12.8662C15.8494 12.9907 16.0502 13.0507 16.2524 13.0353H19.8384C20.01 13.049 20.1805 12.9977 20.3174 12.8913C20.4217 12.7983 20.4802 12.663 20.477 12.5217C20.4823 12.3746 20.4239 12.2326 20.3174 12.1334Z"/>
</mask>
<path d="M20.3174 12.1334L21.2032 11.182L21.1718 11.1527L21.1386 11.1256L20.3174 12.1334ZM19.8446 11.9831V13.2831H19.8908L19.9369 13.2798L19.8446 11.9831ZM17.2656 11.9831L16.2888 11.1253L14.3939 13.2831H17.2656V11.9831ZM19.6911 9.221L18.7174 8.35958L18.7142 8.36321L19.6911 9.221ZM19.9183 8.96421L20.8919 9.82562L20.9196 9.79431L20.9452 9.76128L19.9183 8.96421ZM20.0349 8.81389L21.0619 9.61096L21.0822 9.58483L21.1011 9.5577L20.0349 8.81389ZM20.1332 8.62599L18.9212 8.15565L18.9177 8.16472L18.9143 8.17385L20.1332 8.62599ZM20.1761 8.40051L18.8818 8.27922L18.8766 8.33458L18.8762 8.39017L20.1761 8.40051ZM19.949 7.94956L20.6114 6.83103L20.5571 6.79884L20.4999 6.77208L19.949 7.94956ZM19.3042 7.82429V9.12429H19.34L19.3757 9.12233L19.3042 7.82429ZM16.2893 7.82429L16.199 9.12116L16.2441 9.12429H16.2893V7.82429ZM15.841 7.96209L15.0409 6.93748L15.0142 6.95829L14.9887 6.98047L15.841 7.96209ZM15.6814 8.33162H16.9814V8.30873L16.9805 8.28585L15.6814 8.33162ZM15.8901 8.71994L15.4825 9.95436L15.5052 9.96187L15.5281 9.96852L15.8901 8.71994ZM16.5042 8.7951V7.4951H16.4789L16.4536 7.49608L16.5042 8.7951ZM18.4691 8.7951L19.5338 9.54107L20.9673 7.4951H18.4691V8.7951ZM18.1498 9.20847L19.1287 10.0639L19.1407 10.0502L19.1523 10.0361L18.1498 9.20847ZM17.6463 9.78469L18.6093 10.658L18.6173 10.6491L18.6252 10.6401L17.6463 9.78469ZM16.9647 10.5363L16.0017 9.66298L15.9963 9.66898L15.9909 9.67505L16.9647 10.5363ZM16.1726 11.4319L15.1988 10.5707L15.1946 10.5755L16.1726 11.4319ZM15.6322 12.0582L14.6288 11.2317L14.6207 11.2417L15.6322 12.0582ZM15.6875 12.8662L14.7991 13.8152L14.8452 13.8584L14.8953 13.8969L15.6875 12.8662ZM16.2524 13.0353V11.7353H16.2029L16.1535 11.7391L16.2524 13.0353ZM19.8384 13.0353L19.9419 11.7394L19.8903 11.7353H19.8384V13.0353ZM20.3174 12.8913L21.1157 13.9173L21.1498 13.8907L21.1821 13.8619L20.3174 12.8913ZM20.477 12.5217L19.1779 12.475L19.1765 12.5128L19.1774 12.5507L20.477 12.5217ZM21.1386 11.1256C20.7505 10.8094 20.2556 10.6505 19.7523 10.6864L19.9369 13.2798C19.7745 13.2914 19.6172 13.2398 19.4962 13.1412L21.1386 11.1256ZM19.8446 10.6831H17.2656V13.2831H19.8446V10.6831ZM18.2424 12.8409L20.6679 10.0788L18.7142 8.36321L16.2888 11.1253L18.2424 12.8409ZM20.6647 10.0824L20.8919 9.82562L18.9446 8.10279L18.7174 8.35958L20.6647 10.0824ZM20.9452 9.76128L21.0619 9.61096L19.0079 8.01682L18.8913 8.16713L20.9452 9.76128ZM21.1011 9.5577C21.2052 9.40853 21.2893 9.24724 21.352 9.07813L18.9143 8.17385C18.9276 8.13799 18.9457 8.10306 18.9687 8.07008L21.1011 9.5577ZM21.3451 9.09633C21.4305 8.87626 21.4743 8.64379 21.4761 8.41085L18.8762 8.39017C18.8768 8.31163 18.8915 8.23213 18.9212 8.15565L21.3451 9.09633ZM21.4705 8.52181C21.5336 7.84799 21.2079 7.18429 20.6114 6.83103L19.2865 9.06809C19.0012 8.89912 18.8529 8.58774 18.8818 8.27922L21.4705 8.52181ZM20.4999 6.77208C20.1048 6.58723 19.6698 6.50218 19.2327 6.52626L19.3757 9.12233C19.3819 9.12198 19.3895 9.12305 19.398 9.12704L20.4999 6.77208ZM19.3042 6.52429H16.2893V9.12429H19.3042V6.52429ZM16.3795 6.52743C15.8956 6.49376 15.4197 6.64168 15.0409 6.93748L16.6411 8.98669C16.5184 9.08254 16.3612 9.13244 16.199 9.12116L16.3795 6.52743ZM14.9887 6.98047C14.5831 7.33264 14.3635 7.84788 14.3822 8.37738L16.9805 8.28585C16.9892 8.53211 16.8874 8.7752 16.6933 8.94371L14.9887 6.98047ZM14.3814 8.33162C14.3814 8.56305 14.4166 8.88418 14.5886 9.20406C14.7805 9.56094 15.0961 9.82677 15.4825 9.95436L16.2978 7.48551C16.545 7.56715 16.7562 7.74529 16.8785 7.97274C16.9809 8.16319 16.9814 8.31314 16.9814 8.33162H14.3814ZM15.5281 9.96852C15.8614 10.0651 16.2078 10.1076 16.5547 10.0941L16.4536 7.49608C16.3859 7.49871 16.318 7.49046 16.2521 7.47135L15.5281 9.96852ZM16.5042 10.0951H18.4691V7.4951H16.5042V10.0951ZM17.4044 8.04913C17.3485 8.12894 17.2649 8.23836 17.1473 8.38081L19.1523 10.0361C19.2967 9.8612 19.4259 9.69503 19.5338 9.54107L17.4044 8.04913ZM17.1709 8.35307L16.6674 8.92929L18.6252 10.6401L19.1287 10.0639L17.1709 8.35307ZM16.6833 8.91139L16.0017 9.66298L17.9277 11.4096L18.6093 10.658L16.6833 8.91139ZM15.9909 9.67505L15.1988 10.5707L17.1464 12.2932L17.9385 11.3975L15.9909 9.67505ZM15.1946 10.5755C14.9228 10.8859 14.7294 11.1096 14.6288 11.2317L16.6356 12.8848C16.707 12.7982 16.8739 12.6043 17.1506 12.2884L15.1946 10.5755ZM14.6207 11.2417C14 12.0107 14.0736 13.1361 14.7991 13.8152L16.5759 11.9172C16.8495 12.1732 16.8746 12.5889 16.6438 12.8748L14.6207 11.2417ZM14.8953 13.8969C15.3096 14.2154 15.8273 14.3715 16.3513 14.3315L16.1535 11.7391C16.2732 11.73 16.3893 11.766 16.4797 11.8355L14.8953 13.8969ZM16.2524 14.3353H19.8384V11.7353H16.2524V14.3353ZM19.7349 14.3312C20.2328 14.371 20.7245 14.2216 21.1157 13.9173L19.5191 11.8652C19.6365 11.7739 19.7871 11.7271 19.9419 11.7394L19.7349 14.3312ZM21.1821 13.8619C21.5745 13.5124 21.7882 13.01 21.7767 12.4928L19.1774 12.5507C19.1721 12.316 19.2689 12.0843 19.4526 11.9206L21.1821 13.8619ZM21.7762 12.5685C21.7949 12.0491 21.5892 11.5413 21.2032 11.182L19.4315 13.0848C19.2586 12.9239 19.1698 12.7001 19.1779 12.475L21.7762 12.5685Z" mask="url(#path-1-inside-1)"/>
<path d="M25.7517 15.3338C25.6443 15.2461 25.5082 15.2036 25.371 15.2148H23.3078L25.2421 13.0101L25.4263 12.8034L25.543 12.6594C25.5759 12.613 25.6027 12.5625 25.6228 12.5091C25.646 12.4514 25.6585 12.3898 25.6596 12.3274C25.675 12.1813 25.6054 12.0393 25.4815 11.9642C25.3201 11.8885 25.1431 11.8541 24.9658 11.864H22.5341C22.406 11.8567 22.2795 11.8967 22.178 11.9767C22.0931 12.0495 22.0456 12.158 22.049 12.2711C22.049 12.4381 22.1043 12.5425 22.2148 12.5842C22.3746 12.6294 22.5404 12.6484 22.7061 12.6406H24.278C24.2166 12.7345 24.1306 12.841 24.0201 12.9725L23.6149 13.436L23.0868 14.0624L22.4727 14.7764C22.2517 15.0269 22.1064 15.1981 22.0368 15.2899C21.8921 15.4792 21.9106 15.7494 22.0797 15.9163C22.2086 16.0141 22.3679 16.0608 22.528 16.0478H25.3772C25.5133 16.0589 25.6487 16.0188 25.7579 15.9351C25.8391 15.86 25.8839 15.7524 25.8807 15.6407C25.8835 15.5241 25.8365 15.4121 25.7517 15.3338Z" />
<path d="M32.193 11.8141C32.0595 11.7053 31.8907 11.6517 31.7202 11.6638H29.1228L31.5483 8.90171L31.7755 8.64492L31.9228 8.46328C31.9634 8.40519 31.9964 8.34201 32.0211 8.27538C32.049 8.20359 32.0635 8.1271 32.0641 8.04991C32.0812 7.86726 31.9925 7.6911 31.8369 7.59895C31.6351 7.50453 31.4138 7.46155 31.1921 7.47369H28.1465C27.9856 7.46249 27.8263 7.5115 27.6982 7.61148C27.5925 7.70331 27.5336 7.83938 27.5386 7.98101C27.5386 8.19396 27.6082 8.32338 27.7474 8.36933C27.9469 8.42719 28.1541 8.45256 28.3614 8.44449H30.3263C30.2444 8.56138 30.1381 8.69917 30.007 8.85787L29.4974 9.44661L28.8342 10.1982L28.0421 11.0938C27.7678 11.407 27.5877 11.6158 27.5017 11.7202C27.3068 11.9617 27.331 12.3166 27.557 12.5281C27.719 12.6526 27.9197 12.7127 28.1219 12.6972H31.7018C31.8751 12.7195 32.0503 12.6748 32.193 12.572C32.2973 12.479 32.3558 12.3437 32.3527 12.2024C32.358 12.0553 32.2996 11.9133 32.193 11.8141Z"/>
<path d="M30.0745 22.3606C29.8996 22.1759 29.6318 22.1187 29.399 22.2165C22.7437 25.0267 15.1151 21.8017 12.36 15.0132C10.9609 11.566 11.0454 7.67798 12.5927 4.29739C12.7377 3.9847 12.6067 3.61133 12.3001 3.46344C12.1428 3.3875 11.9611 3.38335 11.8006 3.45185C4.50413 6.50902 1.0189 15.0206 4.01612 22.463C7.01334 29.9054 15.358 33.4603 22.6546 30.4031C25.9824 29.0088 28.6717 26.3849 30.1851 23.0557C30.2916 22.8229 30.2477 22.5472 30.0745 22.3606ZM17.2349 30.2523C10.0216 30.251 4.17516 24.2856 4.17639 16.9281C4.17715 12.0969 6.74217 7.64486 10.8795 5.29325C10.3896 6.77654 10.1407 8.33154 10.1427 9.89673C10.143 17.946 16.5407 24.471 24.4321 24.4706C25.7547 24.4705 27.0708 24.2832 28.3429 23.9139C25.9616 27.8413 21.7621 30.2375 17.2349 30.2523Z"/>
    </g>
</svg>
