<svg width="6" height="5" viewBox="0 0 6 5" fill="none" xmlns="http://www.w3.org/2000/svg">
<path d="M5.4966 3.84735H0.425067C0.22105 3.84735 0.107306 3.61264 0.233688 3.45285L2.76945 0.416974C2.86695 0.2933 3.05472 0.2933 3.15221 0.416974L5.68798 3.45285C5.81436 3.61264 5.69971 3.84735 5.4966 3.84735Z" fill="white"/>
<path d="M5.49678 3.66686C5.41644 3.66686 5.3361 3.66686 5.25575 3.66686C5.04451 3.66686 4.83418 3.66686 4.62294 3.66686C4.32955 3.66686 4.03617 3.66686 3.74368 3.66686C3.41419 3.66686 3.08379 3.66686 2.75429 3.66686C2.43292 3.66686 2.11064 3.66686 1.78927 3.66686C1.52477 3.66686 1.26118 3.66686 0.996676 3.66686C0.835087 3.66686 0.673499 3.66686 0.51191 3.66686C0.483925 3.66686 0.455941 3.66776 0.427956 3.66686C0.427054 3.66686 0.427054 3.66686 0.426151 3.66686C0.424345 3.66686 0.420734 3.66686 0.419832 3.66686C0.41261 3.66686 0.386431 3.66415 0.415318 3.66776C0.444205 3.67137 0.418026 3.66776 0.411707 3.66595C0.406291 3.66415 0.400874 3.66234 0.396361 3.66144C0.367473 3.65422 0.408096 3.66325 0.409902 3.66776C0.407193 3.66325 0.38282 3.65151 0.378306 3.6497C0.36296 3.64158 0.394555 3.66054 0.394555 3.66234C0.393653 3.65963 0.385528 3.65422 0.383723 3.65241C0.379209 3.6479 0.374695 3.64248 0.370182 3.63797C0.356641 3.62623 0.386431 3.66686 0.380112 3.65061C0.377403 3.64339 0.368376 3.62353 0.362057 3.61991C0.363863 3.62082 0.37289 3.65602 0.370182 3.63977C0.369279 3.63526 0.366571 3.62984 0.365668 3.62533C0.363863 3.61811 0.355738 3.57658 0.361154 3.60998C0.365668 3.64248 0.364765 3.59644 0.36296 3.58832C0.360252 3.57297 0.361154 3.60818 0.359349 3.61089C0.362057 3.60728 0.36296 3.59283 0.363863 3.59012C0.364765 3.58561 0.368376 3.57929 0.368376 3.57478C0.370182 3.55763 0.363862 3.59193 0.360252 3.59283C0.363862 3.59193 0.378306 3.56395 0.380112 3.55853C0.386431 3.53957 0.362057 3.5811 0.362057 3.5811C0.433373 3.50346 0.498369 3.41861 0.565171 3.33736C0.72676 3.14327 0.889251 2.95009 1.05084 2.756C1.25937 2.50685 1.467 2.2577 1.67553 2.00764C1.87955 1.7639 2.08356 1.51926 2.28758 1.27553C2.43924 1.09408 2.5909 0.912629 2.74255 0.731181C2.78318 0.682433 2.8247 0.632783 2.86533 0.584036C2.87435 0.573203 2.88338 0.56237 2.89331 0.550635C2.89512 0.548829 2.89602 0.547024 2.89782 0.546121C2.90143 0.541608 2.90595 0.536191 2.90956 0.531678C2.91498 0.526261 2.9222 0.520845 2.92671 0.514526C2.93935 0.498277 2.91498 0.528067 2.91317 0.524456C2.91317 0.523553 2.92671 0.515428 2.92761 0.515428C2.94296 0.505498 2.94657 0.515428 2.93123 0.511817C2.9231 0.510012 2.91407 0.516331 2.93123 0.51272C2.93845 0.510915 2.94567 0.509109 2.95289 0.506401C2.98268 0.496471 2.94206 0.510915 2.93845 0.507304C2.94025 0.509109 2.95289 0.506401 2.9556 0.506401C2.96101 0.506401 2.96733 0.506401 2.97275 0.506401C3.00435 0.505498 2.96101 0.508207 2.95831 0.503693C2.96011 0.506401 2.98719 0.510915 2.9908 0.511817C3.0233 0.519942 2.97817 0.510012 2.97907 0.506401C2.97907 0.506401 2.99803 0.517234 2.99893 0.518137C3.02511 0.530775 2.98449 0.513623 2.9908 0.510915C2.99171 0.510012 3.00344 0.521748 3.00435 0.523553C3.01157 0.530775 3.01789 0.538899 3.02511 0.546121L3.02601 0.547024C3.03323 0.555148 3.03955 0.563273 3.04677 0.5723C3.08379 0.616534 3.1208 0.661671 3.15871 0.705904C3.30496 0.881034 3.4512 1.05616 3.59744 1.23129C3.79965 1.47322 4.00096 1.71516 4.20317 1.95618C4.4126 2.20714 4.62204 2.4581 4.83147 2.70906C4.99757 2.90856 5.16458 3.10807 5.33068 3.30667C5.40561 3.39694 5.47692 3.49353 5.55817 3.57839C5.55907 3.57929 5.55907 3.58019 5.55997 3.58019C5.55727 3.57749 5.52928 3.53325 5.54553 3.56214C5.54824 3.56665 5.55095 3.57207 5.55456 3.57658C5.55546 3.57839 5.55997 3.59103 5.56178 3.59103C5.55726 3.59012 5.54914 3.5486 5.55546 3.57839C5.55727 3.58561 5.55907 3.60367 5.56268 3.60908C5.55997 3.60547 5.56088 3.56304 5.55997 3.59193C5.55997 3.59644 5.55997 3.60276 5.55997 3.60728C5.55997 3.61089 5.55817 3.61901 5.55907 3.62262C5.55726 3.61901 5.569 3.57658 5.56088 3.60457C5.55817 3.6145 5.55546 3.62443 5.55275 3.63346C5.54553 3.66234 5.57261 3.60005 5.55275 3.63165C5.55004 3.63616 5.54734 3.64068 5.54463 3.64429C5.5356 3.66144 5.53289 3.64339 5.55456 3.63255C5.54824 3.63616 5.53831 3.6488 5.53379 3.65512C5.51484 3.67679 5.56719 3.63707 5.53379 3.65512C5.52928 3.65783 5.52477 3.66054 5.52025 3.66325C5.5022 3.67498 5.51484 3.65422 5.5347 3.65783C5.52838 3.65693 5.51032 3.66505 5.504 3.66686C5.48053 3.67408 5.50762 3.65512 5.51935 3.66595C5.51845 3.66505 5.49588 3.66686 5.49678 3.66686C5.402 3.66866 5.31172 3.7481 5.31624 3.8474C5.32075 3.94309 5.39568 4.02975 5.49678 4.02795C5.64754 4.02434 5.79017 3.94761 5.8651 3.8149C5.93822 3.68401 5.94002 3.52061 5.86329 3.39062C5.83801 3.34819 5.8019 3.30938 5.76941 3.27056C5.65025 3.12793 5.53109 2.9853 5.41283 2.84357C5.21874 2.61157 5.02556 2.37956 4.83147 2.14756C4.61482 1.88848 4.39906 1.6294 4.18241 1.37031C3.99554 1.14644 3.80868 0.922559 3.62091 0.698682C3.51529 0.5723 3.40967 0.445918 3.30405 0.319536C3.22371 0.222944 3.1217 0.159753 2.99442 0.147115C2.84908 0.131768 2.71547 0.202181 2.6243 0.310509C2.525 0.429669 2.4257 0.548829 2.3264 0.66799C2.14224 0.888256 1.95899 1.10852 1.77483 1.32788C1.55908 1.58697 1.34242 1.84515 1.12667 2.10423C0.929874 2.33984 0.733982 2.57455 0.537187 2.81017C0.41261 2.95912 0.288033 3.10897 0.163457 3.25792C0.144499 3.28049 0.124639 3.30306 0.105682 3.32653C0.015409 3.43847 -0.0252138 3.5811 0.0163117 3.72192C0.0578373 3.86185 0.171581 3.9792 0.315115 4.01531C0.419832 4.04149 0.5417 4.02975 0.649125 4.02975C0.860364 4.02975 1.07251 4.02975 1.28374 4.02975C1.58345 4.02975 1.88225 4.02975 2.18196 4.02975C2.51958 4.02975 2.8572 4.02975 3.19482 4.02975C3.52071 4.02975 3.8475 4.02975 4.17338 4.02975C4.43878 4.02975 4.70419 4.02975 4.96959 4.02975C5.12486 4.02975 5.27922 4.02975 5.43449 4.02975C5.45526 4.02975 5.47602 4.02975 5.49678 4.02975C5.59157 4.02975 5.68184 3.9467 5.67733 3.84921C5.67281 3.74991 5.59789 3.66686 5.49678 3.66686Z" fill="white"/>
</svg>
