<svg width="30" height="30" viewBox="0 0 30 30" fill="none" xmlns="http://www.w3.org/2000/svg">
<path d="M7.35691 2.07537C5.30289 2.07537 3.88 3.01002 3.2313 4.19414C2.5826 5.37826 2.5 6.77866 2.5 8.07851C2.5 11.5047 3.84318 14.2683 5.60456 16.7632C5.80036 18.4727 6.41949 19.7166 7.28792 20.5593C8.18282 21.4277 9.357 21.8504 10.4477 21.8504C12.3189 21.8504 13.98 20.5324 13.98 18.6723C13.98 17.7012 13.7537 16.3788 12.7106 15.0086C13.1342 13.3029 13.5708 11.3747 13.5384 9.49102C13.5384 9.48739 13.5385 9.48365 13.5384 9.48001C13.5357 7.40028 12.7948 5.61081 11.6757 4.30449C10.5546 2.9958 9.03995 2.13137 7.39831 2.07539C7.38451 2.07513 7.37071 2.07513 7.35691 2.07539V2.07537ZM7.31552 3.48788C7.31918 3.48801 7.32563 3.48774 7.32932 3.48788C8.20277 3.52185 9.33173 4.05404 10.2269 5.09901C11.1259 6.1484 11.7723 7.67499 11.7723 9.49102C11.7723 9.49469 11.7723 9.49836 11.7723 9.50204C11.8029 11.1855 11.3896 13.0251 10.972 14.7107C9.89544 15.2729 8.63569 15.6518 6.97057 15.8031C5.39172 13.5094 4.26615 11.0913 4.26615 8.07851C4.26615 6.84427 4.40432 5.58772 4.85947 4.75692C5.30971 3.93505 5.87241 3.49734 7.31552 3.48788ZM22.3278 7.7254C20.6862 7.78139 19.1715 8.64581 18.0504 9.9545C16.9313 11.2608 16.1903 13.0502 16.1877 15.13C16.1877 15.1339 16.1877 15.1371 16.1877 15.1409C16.1553 17.0246 16.5919 18.9529 17.0155 20.6586C15.9724 22.0287 15.7461 23.3512 15.7461 24.3222C15.7461 26.1824 17.4072 27.5004 19.2784 27.5004C20.3691 27.5004 21.5433 27.0776 22.4382 26.2092C23.3066 25.3665 23.9257 24.1226 24.1215 22.4131C25.8829 19.9183 27.2261 17.1547 27.2261 13.7285C27.2261 12.4287 27.1435 11.0283 26.4948 9.84415C25.8461 8.66004 24.4232 7.7254 22.3692 7.7254C22.3554 7.72514 22.3416 7.72514 22.3278 7.7254ZM22.3968 9.13789C22.402 9.13792 22.4054 9.13786 22.4106 9.13789C23.8537 9.14736 24.4164 9.58509 24.8666 10.4069C25.3218 11.2377 25.46 12.4943 25.46 13.7285C25.46 16.7413 24.3344 19.1593 22.7555 21.4532C21.0904 21.3018 19.8307 20.9229 18.7541 20.3607C18.3365 18.6752 17.9232 16.8356 17.9538 15.1521C17.9538 15.1484 17.9538 15.1448 17.9538 15.1411C17.9538 13.3251 18.6002 11.7985 19.4992 10.7491C20.3944 9.70415 21.5233 9.17198 22.3968 9.138V9.13789ZM11.3583 16.0901C11.9777 17.0505 12.2138 17.9509 12.2138 18.6723C12.2138 19.9174 11.3392 20.4379 10.4477 20.4379C9.90633 20.4379 9.25547 20.2382 8.65393 19.6544C8.14425 19.1599 7.73385 18.2873 7.50869 17.0943C8.9921 16.9228 10.2611 16.5863 11.3583 16.0901ZM18.3678 21.7401C19.465 22.2363 20.734 22.5728 22.2174 22.7443C21.9923 23.9373 21.5818 24.8099 21.0722 25.3044C20.4706 25.8882 19.8198 26.0879 19.2784 26.0879C18.3869 26.0879 17.5123 25.5674 17.5123 24.3223C17.5123 23.6009 17.7484 22.7005 18.3678 21.7401Z" fill="currentColor"/>
</svg>
