<svg
width="20"
height="20"
viewBox="0 0 20 20"
fill="none"
xmlns="http://www.w3.org/2000/svg"
>
<path
  d="M0 10C0 4.47715 4.47715 0 10 0C15.5228 0 20 4.47715 20 10C20 15.5228 15.5228 20 10 20C4.47715 20 0 15.5228 0 10Z"
  fill="#C2C2C2"
/>
<path
  d="M9.79167 10.834C10.1368 10.834 10.4167 10.5542 10.4167 10.209C10.4167 9.86381 10.1368 9.58398 9.79167 9.58398C9.44649 9.58398 9.16667 9.86381 9.16667 10.209C9.16667 10.5542 9.44649 10.834 9.79167 10.834Z"
  fill="white"
  stroke="white"
/>
<path
  d="M9.79167 5.41602C10.1368 5.41602 10.4167 5.13619 10.4167 4.79102C10.4167 4.44584 10.1368 4.16602 9.79167 4.16602C9.44649 4.16602 9.16667 4.44584 9.16667 4.79102C9.16667 5.13619 9.44649 5.41602 9.79167 5.41602Z"
  fill="white"
  stroke="white"
/>
<path
  d="M9.79167 16.25C10.1368 16.25 10.4167 15.9702 10.4167 15.625C10.4167 15.2798 10.1368 15 9.79167 15C9.44649 15 9.16667 15.2798 9.16667 15.625C9.16667 15.9702 9.44649 16.25 9.79167 16.25Z"
  fill="white"
  stroke="white"
/>
</svg>