<svg width="229" height="258" viewBox="0 0 229 258" fill="none" xmlns="http://www.w3.org/2000/svg">
<path d="M93.6405 0.428467C89.1574 0.6618 85.2922 4.96152 85.5255 9.45281C85.7588 13.9441 90.0506 17.817 94.5319 17.5837H105.945V29.3782C82.3188 31.1392 60.7244 40.1874 43.2659 54.2151L35.2407 46.174L43.5329 37.866C46.0796 35.3771 46.8136 31.2131 45.2679 28.0023C43.7244 24.7895 40.0191 22.7693 36.4892 23.214C34.5687 23.4673 32.7419 24.3986 31.4077 25.8046L2.87506 54.3949C-0.614953 57.4961 -0.788484 63.6087 2.52207 66.9032C5.83262 70.1958 11.9334 69.9784 15.0002 66.4565L23.2026 58.2358L30.7811 65.8301C11.939 86.2339 0.375752 113.456 0.375752 143.381C0.375752 206.438 51.5729 257.743 114.502 257.743C177.432 257.743 228.629 206.438 228.629 143.381C228.629 113.457 217.068 86.2313 198.223 65.8301L205.802 58.2358L214.004 66.4565C217.071 69.9764 223.172 70.1958 226.482 66.9032C229.793 63.6106 229.619 57.496 226.129 54.3949L197.597 25.8046C195.804 23.9339 193.13 22.9508 190.553 23.214C187.348 23.559 184.438 25.8764 183.379 28.9275C182.32 31.9788 183.17 35.6064 185.471 37.8681L193.763 46.1761L185.738 54.2172C168.278 40.189 146.684 31.1391 123.059 29.3803V17.5858H134.472C138.995 17.6496 143.153 13.5413 143.153 9.00817C143.153 4.47712 138.993 0.366743 134.472 0.43056H93.6371L93.6405 0.428467ZM114.505 46.174C168.183 46.174 211.513 89.5941 211.513 143.381C211.513 197.172 168.183 240.588 114.505 240.588C60.8265 240.588 17.4968 197.168 17.4968 143.381C17.4968 89.5905 60.827 46.174 114.505 46.174Z" fill="currentColor"/>
</svg>
