<svg width="20" height="20" viewBox="0 0 20 20" fill="none" xmlns="http://www.w3.org/2000/svg">
<path d="M13.3335 15.8334V14.4445C13.3335 13.7078 13.0701 13.0013 12.6013 12.4803C12.1324 11.9594 11.4965 11.6667 10.8335 11.6667H5.8335C5.17045 11.6667 4.53457 11.9594 4.06573 12.4803C3.59689 13.0013 3.3335 13.7078 3.3335 14.4445V15.8334" stroke="#2E2F31" stroke-linecap="round" stroke-linejoin="round"/>
<path d="M8.3335 9.16675C9.71421 9.16675 10.8335 8.04746 10.8335 6.66675C10.8335 5.28604 9.71421 4.16675 8.3335 4.16675C6.95278 4.16675 5.8335 5.28604 5.8335 6.66675C5.8335 8.04746 6.95278 9.16675 8.3335 9.16675Z" stroke="#2E2F31" stroke-linecap="round" stroke-linejoin="round"/>
<path d="M17.5002 15.8334V14.4138C17.4998 13.7847 17.3359 13.1735 17.0343 12.6763C16.7326 12.1791 16.3102 11.824 15.8335 11.6667" stroke="#2E2F31" stroke-linecap="round" stroke-linejoin="round"/>
<path d="M13.3335 4.16675C13.8103 4.30888 14.2328 4.63172 14.5346 5.08437C14.8364 5.53702 15.0002 6.09374 15.0002 6.66675C15.0002 7.23976 14.8364 7.79648 14.5346 8.24913C14.2328 8.70178 13.8103 9.02462 13.3335 9.16675" stroke="#2E2F31" stroke-linecap="round" stroke-linejoin="round"/>
</svg>
