<svg width="31" height="31" viewBox="0 0 31 31" fill="none" xmlns="http://www.w3.org/2000/svg">
<path d="M2.80994 0.15H28.0992C29.5661 0.15 30.7591 1.34302 30.7592 2.80994V28.0992C30.7592 29.5661 29.5661 30.7592 28.0992 30.7592H2.80994C1.34303 30.7592 0.15 29.5661 0.15 28.0992V2.80994C0.15 1.34303 1.34303 0.15 2.80994 0.15ZM27.5 29.3167L27.5206 29.3167C27.8928 29.3167 28.3482 29.3168 28.7056 29.084C29.0866 28.8359 29.3167 28.3568 29.3167 27.5V3.33333L29.3167 3.31273C29.3168 2.94051 29.3169 2.48516 29.084 2.1277C28.8359 1.74671 28.3568 1.51667 27.5 1.51667H15.8333H3.33333C2.86788 1.51667 2.41499 1.74788 2.08143 2.08143C1.74788 2.41499 1.51667 2.86788 1.51667 3.33333V27.5L1.51666 27.5206C1.51658 27.8928 1.51648 28.3482 1.74931 28.7056C1.99747 29.0866 2.4765 29.3167 3.33333 29.3167H27.5Z" fill="currentColor" stroke="currentColor" stroke-width="0.3"/>
<path d="M14.9993 5C11.9224 5 9.02919 6.23465 6.85354 8.47724C6.60351 8.73488 6.60351 9.15222 6.85354 9.4098L10.4736 13.1401C10.7236 13.3977 11.1286 13.3977 11.3786 13.1401C13.3749 11.083 16.6238 11.083 18.62 13.1401C18.745 13.2689 18.9088 13.3333 19.0726 13.3333C19.2363 13.3333 19.4 13.2689 19.5251 13.1401L23.1452 9.4098C23.3952 9.15216 23.3952 8.73482 23.1452 8.47724C20.9695 6.23465 18.0763 5 14.9993 5ZM19.0501 11.7644C17.8762 10.7739 16.4375 10.2786 14.9993 10.2786C14.395 10.2786 13.7946 10.3863 13.2097 10.5612L12.3818 8.68393C12.2368 8.3529 11.858 8.20476 11.5343 8.35674C11.2123 8.50747 11.0705 8.89835 11.2167 9.23006L12.0184 11.0475C11.6456 11.2498 11.2842 11.4811 10.9486 11.7644L8.22475 8.95765C10.0967 7.25093 12.4786 6.31899 14.9993 6.31899C17.52 6.31899 19.9019 7.25093 21.7738 8.95765L19.0501 11.7644Z" fill="currentColor"/>
<path d="M15.5936 18.792L13.871 20.6398L15.6281 23.1605H14.405L13.1733 21.3754L12.6565 21.9405V23.1605H11.666V16.666H12.6565V20.5591L14.2672 18.792H15.5936Z" fill="currentColor"/>
<path d="M15.8478 23.4026L16.7694 23.1515C16.8039 23.4266 16.9158 23.6508 17.1053 23.8242C17.3005 24.0037 17.5388 24.0934 17.8202 24.0934C18.6126 24.0934 19.0088 23.6568 19.0088 22.7837V22.3262C18.9112 22.5116 18.7562 22.6641 18.5437 22.7837C18.3313 22.9033 18.0815 22.9631 17.7944 22.9631C17.2316 22.9631 16.7665 22.7628 16.399 22.3621C16.0373 21.9614 15.8564 21.4531 15.8564 20.8372C15.8564 20.2451 16.0373 19.7428 16.399 19.3302C16.7608 18.9175 17.2259 18.7112 17.7944 18.7112C18.4088 18.7112 18.8222 18.9235 19.0347 19.3481V18.792H19.9993V22.7478C19.9993 23.3937 19.8242 23.9289 19.4739 24.3535C19.1237 24.7841 18.581 24.9993 17.8461 24.9993C17.3063 24.9993 16.8527 24.8469 16.4852 24.5419C16.1177 24.2369 15.9052 23.8571 15.8478 23.4026ZM17.958 22.0751C18.2796 22.0751 18.538 21.9644 18.7332 21.7432C18.9342 21.5159 19.0347 21.2139 19.0347 20.8372C19.0347 20.4664 18.9342 20.1704 18.7332 19.9491C18.5322 19.7219 18.2738 19.6082 17.958 19.6082C17.6365 19.6082 17.3723 19.7219 17.1656 19.9491C16.9646 20.1704 16.8641 20.4664 16.8641 20.8372C16.8641 21.2139 16.9646 21.5159 17.1656 21.7432C17.3666 21.9644 17.6307 22.0751 17.958 22.0751Z" fill="currentColor"/>
</svg>
