<svg width="24" height="24" viewBox="0 0 24 24" fill="none" xmlns="http://www.w3.org/2000/svg">
    <path d="M18.3677 9.4411L18.2293 9.43948C16.2996 9.43948 14.5635 10.5646 13.6806 12.3265C13.1252 12.0652 12.523 11.9167 11.896 11.9167C10.8602 11.9167 9.88609 12.3019 9.11489 12.9729C9.10001 12.2636 9.01143 11.5572 8.925 10.9297C8.85097 10.3932 8.77994 9.87261 8.77531 9.43913L10.7766 9.43948C11.0936 9.43948 11.392 9.31047 11.6162 9.0766L13.1995 7.42508C13.6521 6.95305 13.6552 6.19594 13.2232 5.71079C13.3741 5.47491 13.446 5.19238 13.4183 4.9039C13.3831 4.53336 13.1926 4.20195 12.8953 3.99548L11.9343 3.3274C11.4701 3.00443 10.9293 2.8335 10.3707 2.8335C9.20644 2.8335 8.11209 3.30646 7.28876 4.16525C5.77226 5.74698 4.57899 7.55816 3.74095 9.54875C2.73129 11.947 2.21949 13.7162 2.21949 14.8069C2.21949 15.4318 2.16768 15.9394 2.06526 16.3161C1.84647 17.1204 2.19088 17.9784 2.90255 18.4026C5.75337 20.1017 8.99577 21 12.2791 21H12.8516C14.8868 21 16.8976 20.6597 18.8285 19.9884L19.1057 19.8916C20.2386 19.4981 21.0002 18.3962 21.0002 17.1503V12.3333C21.0001 10.7785 19.8192 9.48101 18.3677 9.4411ZM20.2084 17.1503C20.2084 18.0401 19.6646 18.8272 18.8547 19.1086L18.5776 19.2054C16.7283 19.8481 14.8017 20.1743 12.8516 20.1743H12.2791C9.13333 20.1743 6.02661 19.3138 3.29524 17.6857C2.90018 17.4503 2.70769 16.9797 2.82674 16.5414C2.94927 16.0918 3.01113 15.508 3.01113 14.8068C3.01113 13.8448 3.51403 12.1417 4.4661 9.88097C5.26394 7.98432 6.40196 6.25783 7.84843 4.74907C8.52219 4.0463 9.41785 3.65923 10.3707 3.65923C10.7723 3.65923 11.1612 3.78221 11.4952 4.01445L12.4561 4.68253C12.5555 4.75147 12.6189 4.86194 12.6305 4.98534C12.6425 5.10912 12.6007 5.23008 12.5168 5.31799L11.2524 6.63685C11.1171 6.77798 10.9111 6.81266 10.7402 6.72356C10.6111 6.65621 10.5238 6.53242 10.5006 6.38367C10.4774 6.23492 10.5226 6.08853 10.6247 5.98208L10.9884 5.60268C11.143 5.44138 11.143 5.18011 10.9884 5.01886C10.8338 4.85757 10.5833 4.85757 10.4287 5.01886L10.065 5.39827C9.78085 5.69461 9.65442 6.10227 9.71899 6.51632C9.78356 6.93002 10.0267 7.27475 10.3862 7.46224C10.8616 7.70981 11.4356 7.61386 11.8122 7.22071L12.678 6.3176C12.785 6.47839 12.777 6.69816 12.6398 6.8413L11.0564 8.49282C10.9826 8.56985 10.8805 8.61378 10.7766 8.61378L8.92827 8.61347C8.95309 8.57062 8.97692 8.52653 9.00924 8.49282C9.16387 8.33153 9.16387 8.07025 9.00924 7.909C8.85461 7.74771 8.60412 7.74771 8.44953 7.909C7.80205 8.58436 7.95939 9.72583 8.14145 11.0475C8.23578 11.7337 8.33356 12.4434 8.33356 13.1554C8.33356 14.8561 7.09969 15.2182 7.0471 15.2327C6.83681 15.2895 6.70926 15.5125 6.76222 15.7327C6.80705 15.9205 6.96825 16.0455 7.14567 16.0455C7.17736 16.0455 7.20983 16.0415 7.24193 16.033C7.71588 15.9095 8.49261 15.4351 8.88303 14.462C8.88841 14.4544 8.89717 14.4516 8.90218 14.4436C9.56242 13.3783 10.6815 12.7425 11.896 12.7425C12.8415 12.7425 13.7321 13.1247 14.4036 13.8191C14.559 13.9795 14.8099 13.9787 14.9633 13.8166C15.1172 13.6545 15.1164 13.3932 14.961 13.2328C14.7778 13.0434 14.5771 12.8801 14.3695 12.7297C15.1135 11.2264 16.5887 10.2653 18.2293 10.2653L18.3464 10.2669C19.3731 10.2951 20.2084 11.2221 20.2084 12.3333V17.1503H20.2084Z" fill="currentColor"/>
</svg>