<svg width="28" height="28" viewBox="0 0 28 28" fill="none" xmlns="http://www.w3.org/2000/svg">
    <g fill="currentColor">
<path d="M5.87121 5.11423L8.71236 2.27307L7.59678 1.15749C7.36987 0.930576 6.96091 0.930576 6.73399 1.15749L4.75562 3.13586C4.64217 3.24932 4.57703 3.40677 4.57703 3.56725C4.57703 3.72773 4.64217 3.88519 4.75562 3.99865L5.87121 5.11423Z"/>
<path d="M5.00854 7.45004C5.00854 7.61052 5.07369 7.76797 5.18714 7.88143L6.831 9.46286L10.6167 6.63775L13.2884 3.40905L11.4794 1.58913C11.2525 1.36222 10.8436 1.36222 10.6167 1.58913L5.18714 7.01864C5.07369 7.1321 5.00854 7.28956 5.00854 7.45004Z"/>
<path d="M5.43982 10.4691C5.43982 10.6295 5.50496 10.787 5.61842 10.9005L6.44928 11.7313C7.0226 11.5406 7.62483 11.416 8.24862 11.3646L15.6147 3.99816C15.7281 3.88471 15.7933 3.72725 15.7933 3.56677C15.7933 3.40629 15.7281 3.24883 15.6147 3.13538L14.4991 2.01979C14.2722 1.79288 13.8632 1.79288 13.6363 2.01979L5.61842 10.0377C5.50496 10.1511 5.43982 10.3086 5.43982 10.4691Z"/>
<path d="M20.7914 14.3524L13.6363 7.19727L10.7952 10.0384L14.2373 13.4805C14.33 13.5685 14.4197 13.6587 14.5082 13.7514L17.9503 17.1935L20.7914 14.3524Z"/>
<path d="M26.5783 16.9404C26.5783 16.7799 26.5132 16.6225 26.3997 16.509L25.7155 15.8248L24.1853 14.3057L17.7279 20.3595L19.4232 22.1171L20.1074 22.8013C20.3344 23.0282 20.7433 23.0282 20.9702 22.8013L26.3997 17.3718C26.5132 17.2584 26.5783 17.1009 26.5783 16.9404Z"/>
<path d="M26.1466 13.9203C26.1466 13.7598 26.0815 13.6023 25.9681 13.4889L24.8525 12.3733C24.6256 12.1464 24.2166 12.1464 23.9897 12.3733L16.6236 19.7398C16.5723 20.3636 16.4476 20.9654 16.257 21.5391L17.0874 22.3696C17.3143 22.5965 17.7233 22.5965 17.9502 22.3696L25.9681 14.3517C26.0815 14.2382 26.1466 14.0808 26.1466 13.9203Z"/>
<path d="M26.8308 20.3919L25.7152 19.2764L22.874 22.1175L23.9896 23.2331C24.2165 23.46 24.6255 23.46 24.8524 23.2331L26.8308 21.2547C26.9442 21.1413 27.0094 20.9838 27.0094 20.8233C27.0094 20.6629 26.9442 20.5054 26.8308 20.3919Z"/>
<path d="M13.6234 14.0865C12.3866 12.9179 10.7232 12.1953 8.89106 12.1953C5.08531 12.1953 1.98877 15.2919 1.98877 19.0976C1.98877 22.9034 5.08531 25.9999 8.89106 25.9999C12.6968 25.9999 15.7934 22.9034 15.7934 19.0976C15.7934 17.2655 15.0708 15.602 13.9021 14.3652L13.6234 14.0865ZM8.89106 24.7057C5.79366 24.7057 3.28295 22.195 3.28295 19.0976C3.28295 16.0002 5.79366 13.4895 8.89106 13.4895C11.9885 13.4895 14.4992 16.0002 14.4992 19.0976C14.4992 22.195 11.9885 24.7057 8.89106 24.7057Z"/>
<path d="M8.89109 22.1176C10.5589 22.1176 11.9108 20.7656 11.9108 19.0979C11.9108 17.4301 10.5589 16.0781 8.89109 16.0781C7.22333 16.0781 5.87134 17.4301 5.87134 19.0979C5.87134 20.7656 7.22333 22.1176 8.89109 22.1176Z"/>
    </g>
</svg>
