<svg width="29" height="30" viewBox="0 0 29 30" fill="none" xmlns="http://www.w3.org/2000/svg">
<mask id="path-1-outside-1_9939_7205" maskUnits="userSpaceOnUse" x="0.375" y="0.5" width="28" height="29" fill="black">
<rect fill="white" x="0.375" y="0.5" width="28" height="29"/>
<path d="M25.8052 17.5179L21.5985 8.9442L20.7539 6.50999C20.01 4.36615 18.7879 1.85983 15.916 1.50238C15.8802 1.49798 15.844 1.49969 15.8089 1.50742C15.6473 1.54358 11.8429 2.4055 10.8787 3.8365C10.8686 3.85165 10.8598 3.86762 10.8524 3.88422C10.7013 4.22982 9.40521 7.30167 10.4379 8.70036L10.6939 9.04715C11.1095 9.59718 11.6516 10.0428 12.276 10.3475C12.9004 10.6523 13.5894 10.8076 14.2865 10.8006C14.4672 10.8006 14.6478 10.7904 14.8273 10.7701C15.0266 10.7452 15.2185 10.68 15.3909 10.5786C15.5633 10.4772 15.7124 10.3418 15.8288 10.1809L16.1791 9.70474C16.5322 11.3458 17.4237 15.3529 18.3658 18.5313C17.6741 18.4868 16.359 18.4954 15.3653 19.0656C14.2426 18.3252 8.00398 14.6324 1.50469 19.1827C1.47165 19.2058 1.44357 19.2351 1.42205 19.2689C1.40053 19.3027 1.38599 19.3403 1.37927 19.3796C1.37255 19.4189 1.37377 19.4591 1.38287 19.498C1.39196 19.5368 1.40876 19.5735 1.43229 19.606C1.45582 19.6384 1.48563 19.666 1.52001 19.6872C1.55439 19.7083 1.59268 19.7226 1.63268 19.7292C1.67268 19.7358 1.71362 19.7346 1.75314 19.7257C1.79267 19.7167 1.83002 19.7002 1.86306 19.6771C8.63098 14.9389 14.907 19.4767 15.171 19.6721C15.2227 19.7107 15.2855 19.7322 15.3504 19.7336C15.4153 19.735 15.479 19.7161 15.5324 19.6798C16.4962 19.0275 18.0269 19.1058 18.5547 19.156C19.0448 20.7363 19.5393 22.0358 19.9704 22.6087C20.0192 22.6733 20.0921 22.7162 20.173 22.728C20.254 22.7398 20.3364 22.7196 20.4022 22.6718C20.468 22.624 20.5118 22.5525 20.524 22.473C20.5362 22.3935 20.5158 22.3125 20.4673 22.2477C20.057 21.7026 19.5726 20.3973 19.0885 18.8051L19.0866 18.7988C17.8641 14.7763 16.6444 8.92513 16.6274 8.84321C16.6265 8.83879 16.6234 8.83558 16.6223 8.83125C16.5624 8.4983 16.2045 8.15709 15.4959 7.76285C15.4606 7.74321 15.4217 7.7306 15.3814 7.72573C15.3412 7.72086 15.3003 7.72383 15.2613 7.73447C15.2222 7.7451 15.1856 7.7632 15.1536 7.78773C15.1216 7.81225 15.0949 7.84273 15.0749 7.87741C15.0549 7.91209 15.0421 7.9503 15.0371 7.98985C15.0322 8.02941 15.0352 8.06953 15.046 8.10794C15.0569 8.14635 15.0753 8.18229 15.1002 8.2137C15.1252 8.24512 15.1562 8.27139 15.1915 8.29103C15.5083 8.42979 15.7867 8.64109 16.0034 8.90723L15.328 9.82518C15.2619 9.9179 15.177 9.99616 15.0786 10.055C14.9802 10.1139 14.8704 10.1521 14.7562 10.1672C14.0826 10.2526 13.398 10.1609 12.7723 9.90158C12.1465 9.64223 11.6019 9.22446 11.194 8.69088L10.9381 8.3441C10.2435 7.40334 11.0321 5.02387 11.4088 4.1498C12.109 3.15718 14.8258 2.356 15.892 2.11148C18.3718 2.44937 19.4459 4.62136 20.1692 6.70562L21.0204 9.15859C21.0224 9.16451 21.0272 9.16846 21.0296 9.17418C21.0321 9.18025 21.0315 9.18669 21.0344 9.19267L25.2486 17.7816C26.2305 19.7312 26.8206 21.8485 26.9866 24.0175C27.0746 25.3258 26.8749 26.2808 26.4096 26.7796C26.2802 26.9161 26.1229 27.024 25.9479 27.0962C25.7729 27.1684 25.5843 27.2033 25.3946 27.1985C22.4551 27.2657 16.5084 26.1394 16.4487 26.1282C16.3802 26.1148 16.3091 26.1249 16.2473 26.1569C16.1713 26.196 8.57188 30.003 1.83714 26.2227C1.76603 26.183 1.68178 26.1726 1.60287 26.1938C1.52397 26.215 1.45686 26.2662 1.41627 26.336C1.37569 26.4057 1.36494 26.4885 1.38638 26.5661C1.40782 26.6436 1.45971 26.7097 1.53066 26.7497C3.65743 27.9242 6.06151 28.5275 8.50099 28.499C11.2416 28.4681 13.9447 27.8698 16.4341 26.7432C17.2653 26.8979 22.5833 27.8659 25.4076 27.8055C25.6808 27.8088 25.9517 27.7557 26.2028 27.6497C26.4538 27.5436 26.6794 27.387 26.8649 27.1899C27.4554 26.557 27.7038 25.4764 27.6032 23.9778C27.432 21.731 26.8215 19.5376 25.8052 17.5179Z"/>
</mask>
<path d="M25.8052 17.5179L21.5985 8.9442L20.7539 6.50999C20.01 4.36615 18.7879 1.85983 15.916 1.50238C15.8802 1.49798 15.844 1.49969 15.8089 1.50742C15.6473 1.54358 11.8429 2.4055 10.8787 3.8365C10.8686 3.85165 10.8598 3.86762 10.8524 3.88422C10.7013 4.22982 9.40521 7.30167 10.4379 8.70036L10.6939 9.04715C11.1095 9.59718 11.6516 10.0428 12.276 10.3475C12.9004 10.6523 13.5894 10.8076 14.2865 10.8006C14.4672 10.8006 14.6478 10.7904 14.8273 10.7701C15.0266 10.7452 15.2185 10.68 15.3909 10.5786C15.5633 10.4772 15.7124 10.3418 15.8288 10.1809L16.1791 9.70474C16.5322 11.3458 17.4237 15.3529 18.3658 18.5313C17.6741 18.4868 16.359 18.4954 15.3653 19.0656C14.2426 18.3252 8.00398 14.6324 1.50469 19.1827C1.47165 19.2058 1.44357 19.2351 1.42205 19.2689C1.40053 19.3027 1.38599 19.3403 1.37927 19.3796C1.37255 19.4189 1.37377 19.4591 1.38287 19.498C1.39196 19.5368 1.40876 19.5735 1.43229 19.606C1.45582 19.6384 1.48563 19.666 1.52001 19.6872C1.55439 19.7083 1.59268 19.7226 1.63268 19.7292C1.67268 19.7358 1.71362 19.7346 1.75314 19.7257C1.79267 19.7167 1.83002 19.7002 1.86306 19.6771C8.63098 14.9389 14.907 19.4767 15.171 19.6721C15.2227 19.7107 15.2855 19.7322 15.3504 19.7336C15.4153 19.735 15.479 19.7161 15.5324 19.6798C16.4962 19.0275 18.0269 19.1058 18.5547 19.156C19.0448 20.7363 19.5393 22.0358 19.9704 22.6087C20.0192 22.6733 20.0921 22.7162 20.173 22.728C20.254 22.7398 20.3364 22.7196 20.4022 22.6718C20.468 22.624 20.5118 22.5525 20.524 22.473C20.5362 22.3935 20.5158 22.3125 20.4673 22.2477C20.057 21.7026 19.5726 20.3973 19.0885 18.8051L19.0866 18.7988C17.8641 14.7763 16.6444 8.92513 16.6274 8.84321C16.6265 8.83879 16.6234 8.83558 16.6223 8.83125C16.5624 8.4983 16.2045 8.15709 15.4959 7.76285C15.4606 7.74321 15.4217 7.7306 15.3814 7.72573C15.3412 7.72086 15.3003 7.72383 15.2613 7.73447C15.2222 7.7451 15.1856 7.7632 15.1536 7.78773C15.1216 7.81225 15.0949 7.84273 15.0749 7.87741C15.0549 7.91209 15.0421 7.9503 15.0371 7.98985C15.0322 8.02941 15.0352 8.06953 15.046 8.10794C15.0569 8.14635 15.0753 8.18229 15.1002 8.2137C15.1252 8.24512 15.1562 8.27139 15.1915 8.29103C15.5083 8.42979 15.7867 8.64109 16.0034 8.90723L15.328 9.82518C15.2619 9.9179 15.177 9.99616 15.0786 10.055C14.9802 10.1139 14.8704 10.1521 14.7562 10.1672C14.0826 10.2526 13.398 10.1609 12.7723 9.90158C12.1465 9.64223 11.6019 9.22446 11.194 8.69088L10.9381 8.3441C10.2435 7.40334 11.0321 5.02387 11.4088 4.1498C12.109 3.15718 14.8258 2.356 15.892 2.11148C18.3718 2.44937 19.4459 4.62136 20.1692 6.70562L21.0204 9.15859C21.0224 9.16451 21.0272 9.16846 21.0296 9.17418C21.0321 9.18025 21.0315 9.18669 21.0344 9.19267L25.2486 17.7816C26.2305 19.7312 26.8206 21.8485 26.9866 24.0175C27.0746 25.3258 26.8749 26.2808 26.4096 26.7796C26.2802 26.9161 26.1229 27.024 25.9479 27.0962C25.7729 27.1684 25.5843 27.2033 25.3946 27.1985C22.4551 27.2657 16.5084 26.1394 16.4487 26.1282C16.3802 26.1148 16.3091 26.1249 16.2473 26.1569C16.1713 26.196 8.57188 30.003 1.83714 26.2227C1.76603 26.183 1.68178 26.1726 1.60287 26.1938C1.52397 26.215 1.45686 26.2662 1.41627 26.336C1.37569 26.4057 1.36494 26.4885 1.38638 26.5661C1.40782 26.6436 1.45971 26.7097 1.53066 26.7497C3.65743 27.9242 6.06151 28.5275 8.50099 28.499C11.2416 28.4681 13.9447 27.8698 16.4341 26.7432C17.2653 26.8979 22.5833 27.8659 25.4076 27.8055C25.6808 27.8088 25.9517 27.7557 26.2028 27.6497C26.4538 27.5436 26.6794 27.387 26.8649 27.1899C27.4554 26.557 27.7038 25.4764 27.6032 23.9778C27.432 21.731 26.8215 19.5376 25.8052 17.5179Z" fill="currentColor"/>
<path d="M21.5985 8.9442L20.9372 9.17366L20.9512 9.21411L20.9701 9.25254L21.5985 8.9442ZM20.7539 6.50999L21.4152 6.28052L21.4152 6.28051L20.7539 6.50999ZM15.916 1.50238L16.0024 0.807739L16.0015 0.807624L15.916 1.50238ZM15.8089 1.50742L15.6584 0.82377L15.656 0.824324L15.8089 1.50742ZM10.8787 3.8365L10.2982 3.44533L10.2962 3.44823L10.8787 3.8365ZM10.8524 3.88422L10.2126 3.60017L10.2111 3.60376L10.8524 3.88422ZM10.4379 8.70036L11.0011 8.28467L11.0011 8.28457L10.4379 8.70036ZM10.6939 9.04715L10.1307 9.46287L10.1354 9.46912L10.6939 9.04715ZM14.2865 10.8006L14.2864 10.1006L14.2796 10.1007L14.2865 10.8006ZM14.8273 10.7701L14.9059 11.4657L14.9139 11.4647L14.8273 10.7701ZM15.8288 10.1809L15.2649 9.76598L15.2616 9.77056L15.8288 10.1809ZM16.1791 9.70474L16.8635 9.55749L16.5365 8.03794L15.6153 9.28987L16.1791 9.70474ZM18.3658 18.5313L18.3209 19.2299L19.3221 19.2942L19.037 18.3324L18.3658 18.5313ZM15.3653 19.0656L14.9799 19.65L15.3398 19.8873L15.7137 19.6728L15.3653 19.0656ZM1.50469 19.1827L1.90603 19.7562L1.90616 19.7561L1.50469 19.1827ZM1.86306 19.6771L2.26441 20.2506L2.26452 20.2505L1.86306 19.6771ZM15.171 19.6721L15.5899 19.1112L15.5874 19.1094L15.171 19.6721ZM15.5324 19.6798L15.14 19.1L15.1381 19.1014L15.5324 19.6798ZM18.5547 19.156L19.2233 18.9487L19.0852 18.5033L18.6211 18.4592L18.5547 19.156ZM19.9704 22.6087L19.4111 23.0296L19.412 23.0309L19.9704 22.6087ZM20.4673 22.2477L21.0275 21.828L21.0266 21.8268L20.4673 22.2477ZM19.0885 18.8051L18.4181 19.0063L18.4188 19.0087L19.0885 18.8051ZM19.0866 18.7988L19.7571 18.5975L19.7564 18.5952L19.0866 18.7988ZM16.6274 8.84321L17.3129 8.70138L17.3126 8.69983L16.6274 8.84321ZM16.6223 8.83125L15.9333 8.95504L15.9376 8.97894L15.9435 9.00249L16.6223 8.83125ZM15.4959 7.76285L15.8362 7.15115L15.8362 7.15114L15.4959 7.76285ZM15.1915 8.29103L14.8512 8.90273L14.8802 8.91889L14.9107 8.93222L15.1915 8.29103ZM16.0034 8.90723L16.5672 9.32209L16.8884 8.88556L16.5463 8.46527L16.0034 8.90723ZM15.328 9.82518L14.7641 9.41027L14.758 9.41885L15.328 9.82518ZM14.7562 10.1672L14.8442 10.8617L14.8481 10.8612L14.7562 10.1672ZM11.194 8.69088L10.6308 9.10663L10.6379 9.11599L11.194 8.69088ZM10.9381 8.3441L11.5013 7.9284L11.5012 7.92832L10.9381 8.3441ZM11.4088 4.1498L10.8368 3.74631L10.7948 3.80582L10.766 3.8727L11.4088 4.1498ZM15.892 2.11148L15.9865 1.41789L15.86 1.40065L15.7355 1.42919L15.892 2.11148ZM20.1692 6.70562L20.8306 6.47615L20.8305 6.4761L20.1692 6.70562ZM21.0204 9.15859L21.6818 8.92937L21.6817 8.92912L21.0204 9.15859ZM21.0296 9.17418L21.6766 8.90686L21.6754 8.9041L21.0296 9.17418ZM21.0344 9.19267L20.4054 9.49991L20.406 9.50101L21.0344 9.19267ZM25.2486 17.7816L24.6201 18.09L24.6234 18.0965L25.2486 17.7816ZM26.9866 24.0175L27.6851 23.9706L27.6846 23.9641L26.9866 24.0175ZM26.4096 26.7796L26.9177 27.2611L26.9214 27.2571L26.4096 26.7796ZM25.3946 27.1985L25.4124 26.4987L25.3955 26.4983L25.3786 26.4986L25.3946 27.1985ZM16.4487 26.1282L16.3146 26.8152L16.319 26.816L16.4487 26.1282ZM16.2473 26.1569L16.5677 26.7793L16.569 26.7786L16.2473 26.1569ZM1.83714 26.2227L2.17977 25.6123L2.17859 25.6116L1.83714 26.2227ZM1.53066 26.7497L1.1867 27.3594L1.19227 27.3625L1.53066 26.7497ZM8.50099 28.499L8.49309 27.7991L8.49282 27.7991L8.50099 28.499ZM16.4341 26.7432L16.5622 26.055L16.3459 26.0148L16.1455 26.1055L16.4341 26.7432ZM25.4076 27.8055L25.4161 27.1055L25.4043 27.1054L25.3926 27.1056L25.4076 27.8055ZM26.8649 27.1899L27.3746 27.6696L27.3767 27.6674L26.8649 27.1899ZM27.6032 23.9778L28.3017 23.9309L28.3012 23.9246L27.6032 23.9778ZM26.4336 17.2095L22.2269 8.63585L20.9701 9.25254L25.1767 17.8262L26.4336 17.2095ZM22.2598 8.71473L21.4152 6.28052L20.0925 6.73945L20.9372 9.17366L22.2598 8.71473ZM21.4152 6.28051C20.6726 4.1404 19.3291 1.22178 16.0024 0.80774L15.8295 2.19702C18.2468 2.49788 19.3474 4.5919 20.0925 6.73946L21.4152 6.28051ZM16.0015 0.807624C15.8871 0.793543 15.7711 0.79899 15.6584 0.823775L15.9593 2.19106C15.917 2.20038 15.8734 2.20242 15.8305 2.19714L16.0015 0.807624ZM15.656 0.824324C15.5636 0.845005 14.5382 1.07727 13.4046 1.4914C12.8383 1.69828 12.2274 1.95683 11.6859 2.26613C11.1578 2.56778 10.6287 2.95479 10.2982 3.44533L11.4592 4.22767C11.6108 4.00271 11.9189 3.74536 12.3803 3.4818C12.8283 3.22589 13.3595 2.99839 13.885 2.80639C14.9351 2.42277 15.8926 2.20599 15.9618 2.19051L15.656 0.824324ZM10.2962 3.44823C10.2641 3.49636 10.2362 3.54718 10.2126 3.60017L11.4922 4.16827C11.4834 4.18805 11.473 4.20695 11.4611 4.22477L10.2962 3.44823ZM10.2111 3.60376C10.1283 3.79307 9.74538 4.6965 9.51713 5.74903C9.40303 6.27518 9.32152 6.86528 9.34643 7.43684C9.37112 8.00338 9.50319 8.61284 9.87481 9.11615L11.0011 8.28457C10.8563 8.08853 10.7631 7.7895 10.7451 7.37589C10.7273 6.96729 10.7856 6.50558 10.8853 6.04573C11.0847 5.12626 11.4254 4.32097 11.4938 4.16469L10.2111 3.60376ZM9.87474 9.11606L10.1307 9.46284L11.2571 8.63145L11.0011 8.28467L9.87474 9.11606ZM10.1354 9.46912C10.6179 10.1077 11.2465 10.624 11.969 10.9766L12.5831 9.71848C12.0568 9.46162 11.6011 9.08664 11.2524 8.62517L10.1354 9.46912ZM11.969 10.9766C12.6915 11.3292 13.488 11.5086 14.2935 11.5006L14.2796 10.1007C13.6908 10.1065 13.1094 9.97536 12.5831 9.71848L11.969 10.9766ZM14.2867 11.5006C14.4936 11.5006 14.7003 11.4889 14.9059 11.4657L14.7486 10.0745C14.5952 10.0919 14.4409 10.1006 14.2864 10.1006L14.2867 11.5006ZM14.9139 11.4647C15.2075 11.4281 15.4908 11.332 15.7458 11.182L15.0359 9.9753C14.9462 10.0281 14.8457 10.0624 14.7407 10.0755L14.9139 11.4647ZM15.7458 11.182C16.0009 11.0319 16.2225 10.8309 16.3959 10.5912L15.2616 9.77056C15.2023 9.8526 15.1256 9.92253 15.0359 9.9753L15.7458 11.182ZM16.3926 10.5957L16.7429 10.1196L15.6153 9.28987L15.265 9.766L16.3926 10.5957ZM15.4948 9.85199C15.8482 11.4945 16.7443 15.5242 17.6947 18.7302L19.037 18.3324C18.103 15.1816 17.2162 11.1971 16.8635 9.55749L15.4948 9.85199ZM18.4107 17.8327C17.6992 17.787 16.2021 17.7784 15.0169 18.4585L15.7137 19.6728C16.516 19.2124 17.649 19.1867 18.3209 19.2299L18.4107 17.8327ZM15.7507 18.4813C14.5911 17.7165 7.9878 13.7893 1.10322 18.6093L1.90616 19.7561C8.02015 15.4756 13.8941 18.9339 14.9799 19.65L15.7507 18.4813ZM1.10334 18.6092C0.99544 18.6847 0.902936 18.7809 0.831648 18.8928L2.01245 19.645C1.9842 19.6893 1.94786 19.727 1.90603 19.7562L1.10334 18.6092ZM0.831648 18.8928C0.760341 19.0048 0.71179 19.1301 0.689293 19.2616L2.06925 19.4976C2.0602 19.5505 2.04072 19.6006 2.01245 19.645L0.831648 18.8928ZM0.689293 19.2616C0.666796 19.3931 0.670897 19.5277 0.701312 19.6576L2.06442 19.3383C2.07665 19.3905 2.0783 19.4447 2.06925 19.4976L0.689293 19.2616ZM0.701312 19.6576C0.731722 19.7874 0.787716 19.9095 0.86553 20.0168L1.99905 19.1951C2.0298 19.2376 2.05221 19.2862 2.06442 19.3383L0.701312 19.6576ZM0.86553 20.0168C0.943318 20.1241 1.04128 20.2145 1.15334 20.2834L1.88668 19.0909C1.92997 19.1175 1.96832 19.1527 1.99905 19.1951L0.86553 20.0168ZM1.15334 20.2834C1.26538 20.3523 1.38952 20.3985 1.51863 20.4198L1.74673 19.0385C1.79584 19.0467 1.84341 19.0643 1.88668 19.0909L1.15334 20.2834ZM1.51863 20.4198C1.64775 20.4412 1.77984 20.4373 1.90752 20.4084L1.59876 19.0429C1.64739 19.0319 1.69761 19.0304 1.74673 19.0385L1.51863 20.4198ZM1.90752 20.4084C2.03522 20.3795 2.15653 20.3261 2.26441 20.2506L1.46172 19.1036C1.50351 19.0743 1.55012 19.0539 1.59876 19.0429L1.90752 20.4084ZM2.26452 20.2505C5.45477 18.0171 8.5032 17.9753 10.7982 18.5065C13.1149 19.0427 14.6608 20.1653 14.7546 20.2347L15.5874 19.1094C15.4172 18.9834 13.6931 17.7395 11.1139 17.1425C8.51283 16.5405 5.03927 16.599 1.4616 19.1037L2.26452 20.2505ZM14.7521 20.2329C14.9215 20.3594 15.1257 20.429 15.3355 20.4334L15.3653 19.0338C15.4453 19.0355 15.5239 19.062 15.5899 19.1112L14.7521 20.2329ZM15.3355 20.4334C15.5453 20.4379 15.7522 20.3771 15.9267 20.2581L15.1381 19.1014C15.2059 19.0552 15.2854 19.0321 15.3653 19.0338L15.3355 20.4334ZM15.9247 20.2595C16.266 20.0285 16.7543 19.9021 17.2752 19.8511C17.7833 19.8014 18.2493 19.8301 18.4884 19.8529L18.6211 18.4592C18.3324 18.4317 17.7691 18.3961 17.1389 18.4578C16.5216 18.5182 15.7626 18.6787 15.1401 19.1L15.9247 20.2595ZM17.8861 19.3633C18.1341 20.1631 18.3866 20.9028 18.6352 21.5212C18.8779 22.1249 19.1371 22.6654 19.4111 23.0296L20.5298 22.1879C20.3727 21.9791 20.169 21.5834 19.9342 20.999C19.7052 20.4294 19.4654 19.7292 19.2233 18.9487L17.8861 19.3633ZM19.412 23.0309C19.5731 23.244 19.8111 23.3826 20.0719 23.4206L20.2742 22.0353C20.373 22.0498 20.4653 22.1026 20.5288 22.1866L19.412 23.0309ZM20.0719 23.4206C20.3324 23.4587 20.599 23.394 20.8136 23.2381L19.9907 22.1055C20.0737 22.0452 20.1755 22.0209 20.2742 22.0353L20.0719 23.4206ZM20.8136 23.2381C21.0287 23.0819 21.175 22.8456 21.2159 22.5792L19.8321 22.3668C19.8486 22.2594 19.9072 22.1661 19.9907 22.1055L20.8136 23.2381ZM21.2159 22.5792C21.2568 22.3126 21.188 22.0423 21.0274 21.828L19.9071 22.6675C19.8436 22.5827 19.8155 22.4744 19.8321 22.3668L21.2159 22.5792ZM21.0266 21.8268C20.8829 21.6359 20.6875 21.2503 20.4572 20.6633C20.2337 20.0936 19.9975 19.3885 19.7582 18.6014L18.4188 19.0087C18.6636 19.8138 18.9117 20.5574 19.154 21.1747C19.3894 21.7748 19.6414 22.3145 19.9079 22.6686L21.0266 21.8268ZM19.7589 18.6038L19.757 18.5975L18.4162 19.0001L18.4181 19.0063L19.7589 18.6038ZM19.7564 18.5952C18.5444 14.6075 17.3304 8.78595 17.3129 8.70138L15.9419 8.98505C15.9583 9.0643 17.1839 14.9452 18.4169 19.0023L19.7564 18.5952ZM17.3126 8.69983C17.2996 8.63765 17.2806 8.58842 17.266 8.5556C17.2587 8.53935 17.2522 8.52624 17.2477 8.5176C17.2435 8.5094 17.2399 8.50285 17.2394 8.50192C17.2378 8.499 17.2403 8.5036 17.2426 8.50788C17.2454 8.51316 17.2506 8.52307 17.2566 8.53582C17.2686 8.56143 17.2869 8.60428 17.301 8.66L15.9435 9.00249C15.9581 9.06038 15.9772 9.10526 15.9902 9.13282C15.9967 9.14656 16.0024 9.15742 16.0057 9.16366C16.0074 9.16684 16.0087 9.1694 16.0095 9.17077C16.01 9.17163 16.0109 9.17341 16.0104 9.17247C16.0103 9.17228 16.0095 9.17078 16.0084 9.16878C16.0073 9.16671 16.0056 9.16355 16.0036 9.15965C15.9997 9.15197 15.9936 9.13983 15.9868 9.12458C15.9731 9.09373 15.9548 9.04656 15.9423 8.9866L17.3126 8.69983ZM17.3112 8.70746C17.245 8.33882 17.0284 8.04415 16.7844 7.81244C16.5385 7.57894 16.2151 7.36194 15.8362 7.15115L15.1556 8.37455C15.4853 8.55801 15.6951 8.70872 15.8203 8.82762C15.9474 8.94832 15.9397 8.99072 15.9333 8.95504L17.3112 8.70746ZM15.8362 7.15114C15.7214 7.08726 15.5954 7.04651 15.4655 7.0308L15.2974 8.42066C15.248 8.41469 15.1998 8.39917 15.1556 8.37456L15.8362 7.15114ZM15.4655 7.0308C15.3356 7.01508 15.2038 7.02464 15.0774 7.05903L15.4451 8.4099C15.3969 8.42302 15.3467 8.42664 15.2974 8.42066L15.4655 7.0308ZM15.0774 7.05903C14.9511 7.09342 14.8321 7.15212 14.7276 7.23232L15.5797 8.34313C15.5391 8.37428 15.4933 8.39678 15.4451 8.4099L15.0774 7.05903ZM14.7276 7.23232C14.623 7.31255 14.5347 7.41283 14.4684 7.5279L15.6814 8.22692C15.6551 8.27263 15.6203 8.31196 15.5797 8.34313L14.7276 7.23232ZM14.4684 7.5279C14.4021 7.64299 14.3592 7.77038 14.3426 7.90281L15.7317 8.07689C15.725 8.13021 15.7078 8.18119 15.6814 8.22692L14.4684 7.5279ZM14.3426 7.90281C14.326 8.03525 14.3361 8.16954 14.3723 8.29786L15.7198 7.91803C15.7343 7.96953 15.7384 8.02357 15.7317 8.07689L14.3426 7.90281ZM14.3723 8.29786C14.4084 8.42615 14.4698 8.54547 14.5522 8.64918L15.6483 7.77822C15.6808 7.8191 15.7053 7.86655 15.7198 7.91803L14.3723 8.29786ZM14.5522 8.64918C14.6346 8.75287 14.7363 8.83884 14.8512 8.90273L15.5318 7.67932C15.5761 7.70395 15.6158 7.73736 15.6483 7.77822L14.5522 8.64918ZM14.9107 8.93222C15.1264 9.02671 15.3147 9.17004 15.4606 9.3492L16.5463 8.46527C16.2587 8.11213 15.8903 7.83288 15.4723 7.64983L14.9107 8.93222ZM15.4396 8.49238L14.7642 9.41032L15.8918 10.24L16.5672 9.32209L15.4396 8.49238ZM14.758 9.41885C14.7484 9.43237 14.7354 9.44466 14.7192 9.45432L15.4379 10.6558C15.6186 10.5477 15.7754 10.4034 15.898 10.2315L14.758 9.41885ZM14.7192 9.45432C14.703 9.46399 14.6843 9.47064 14.6643 9.47329L14.8481 10.8612C15.0564 10.8336 15.2573 10.7638 15.4379 10.6558L14.7192 9.45432ZM14.6682 9.47279C14.1151 9.54288 13.5533 9.46754 13.0403 9.25492L12.5043 10.5482C13.2428 10.8543 14.0501 10.9623 14.8442 10.8617L14.6682 9.47279ZM13.0403 9.25492C12.5273 9.04234 12.0825 8.70054 11.7502 8.26578L10.6379 9.11599C11.1213 9.74838 11.7656 10.2421 12.5043 10.5482L13.0403 9.25492ZM11.7572 8.27519L11.5013 7.9284L10.3749 8.75979L10.6308 9.10658L11.7572 8.27519ZM11.5012 7.92832C11.4444 7.85128 11.3795 7.68511 11.3648 7.38093C11.3506 7.08723 11.3864 6.73379 11.4592 6.35364C11.6049 5.59327 11.8782 4.82927 12.0516 4.42689L10.766 3.8727C10.5627 4.3444 10.2534 5.20716 10.0842 6.09024C9.99961 6.53181 9.94494 7.00426 9.96645 7.44861C9.98745 7.88248 10.0845 8.36653 10.3749 8.75987L11.5012 7.92832ZM11.9808 4.55328C12.0708 4.42574 12.2711 4.25034 12.6109 4.04959C12.9378 3.8564 13.3397 3.67096 13.77 3.50129C14.6305 3.16193 15.5415 2.91003 16.0485 2.79377L15.7355 1.42919C15.1763 1.55745 14.1958 1.8284 13.2563 2.19891C12.7866 2.38418 12.3114 2.60043 11.8987 2.84428C11.4988 3.08057 11.0969 3.37754 10.8368 3.74631L11.9808 4.55328ZM15.7975 2.80507C17.8248 3.08131 18.7807 4.83967 19.5079 6.93514L20.8305 6.4761C20.1111 4.40305 18.9188 1.81743 15.9865 1.41789L15.7975 2.80507ZM19.5079 6.93509L20.3591 9.38805L21.6817 8.92912L20.8306 6.47615L19.5079 6.93509ZM20.359 9.3878C20.3793 9.44635 20.4036 9.49196 20.422 9.52266C20.4311 9.53788 20.4392 9.55017 20.4449 9.55854C20.4504 9.56659 20.455 9.57293 20.4561 9.57457C20.4588 9.57829 20.4559 9.57422 20.4541 9.57167C20.4514 9.56785 20.4459 9.55996 20.4392 9.54961C20.4259 9.52893 20.4041 9.49273 20.3838 9.44427L21.6754 8.9041C21.6539 8.85278 21.6307 8.81394 21.6157 8.79071C21.6082 8.7791 21.6018 8.76996 21.5983 8.76492C21.5965 8.76235 21.595 8.76028 21.5943 8.75928C21.5939 8.75878 21.5936 8.75833 21.5935 8.75823C21.5934 8.75802 21.5935 8.75816 21.5936 8.75835C21.5939 8.75877 21.5976 8.76389 21.6022 8.77069C21.6071 8.77782 21.6144 8.78885 21.6227 8.80278C21.6396 8.83089 21.6625 8.87378 21.6818 8.92937L20.359 9.3878ZM20.3827 9.44151C20.3627 9.3932 20.3524 9.35235 20.3471 9.32809C20.3445 9.31602 20.3428 9.30651 20.342 9.3019C20.3414 9.29885 20.3406 9.29387 20.3414 9.29849C20.3417 9.30056 20.343 9.30839 20.3449 9.31809C20.3468 9.32818 20.3498 9.34276 20.3542 9.36011C20.3631 9.39522 20.3784 9.44451 20.4054 9.49991L21.6634 8.88543C21.689 8.93784 21.7032 8.98408 21.7113 9.01611C21.7153 9.03192 21.718 9.04496 21.7197 9.0535C21.7212 9.06165 21.7223 9.06791 21.7223 9.06843C21.7224 9.06865 21.7224 9.06882 21.7224 9.06856C21.7223 9.06843 21.7222 9.06788 21.7221 9.06726C21.7219 9.06603 21.7215 9.06349 21.721 9.06034C21.7199 9.05418 21.7179 9.04312 21.7149 9.02949C21.7089 9.00213 21.6978 8.95821 21.6766 8.90686L20.3827 9.44151ZM20.406 9.50101L24.6202 18.09L25.877 17.4733L21.6628 8.88433L20.406 9.50101ZM24.6234 18.0965C25.5643 19.9648 26.1296 21.9933 26.2887 24.071L27.6846 23.9641C27.5115 21.7037 26.8966 19.4976 25.8738 17.4668L24.6234 18.0965ZM26.2882 24.0645C26.3738 25.3386 26.1518 26.0297 25.8977 26.3022L26.9214 27.2571C27.5979 26.5319 27.7753 25.3131 27.6851 23.9706L26.2882 24.0645ZM25.9014 26.2982C25.8404 26.3626 25.7654 26.4143 25.6809 26.4492L26.2149 27.7433C26.4804 27.6338 26.7201 27.4697 26.9177 27.2611L25.9014 26.2982ZM25.6809 26.4492C25.5964 26.484 25.5048 26.501 25.4124 26.4987L25.3768 27.8982C25.6638 27.9055 25.9495 27.8528 26.2149 27.7433L25.6809 26.4492ZM25.3786 26.4986C23.9754 26.5308 21.8081 26.2752 19.9439 26.0003C18.0958 25.7277 16.6047 25.4452 16.5784 25.4403L16.319 26.816C16.3525 26.8224 17.8645 27.1087 19.7396 27.3853C21.5985 27.6595 23.8743 27.9334 25.4106 27.8983L25.3786 26.4986ZM16.5828 25.4411C16.3599 25.3976 16.1281 25.4304 15.9256 25.5352L16.569 26.7786C16.4901 26.8195 16.4005 26.832 16.3146 26.8152L16.5828 25.4411ZM15.927 25.5345C15.9276 25.5342 14.0775 26.4647 11.418 26.9327C8.75762 27.4008 5.35579 27.395 2.17977 25.6123L1.49451 26.8331C5.05324 28.8307 8.8185 28.8116 11.6606 28.3115C14.5034 27.8113 16.491 26.8188 16.5677 26.7793L15.927 25.5345ZM2.17859 25.6116C1.94762 25.4826 1.67553 25.4494 1.421 25.5179L1.78475 26.8698C1.68803 26.8958 1.58444 26.8834 1.49569 26.8338L2.17859 25.6116ZM1.421 25.5179C1.16622 25.5864 0.945826 25.7525 0.811167 25.984L2.02138 26.6879C1.9679 26.7798 1.88172 26.8437 1.78475 26.8698L1.421 25.5179ZM0.811167 25.984C0.676233 26.2161 0.639879 26.4928 0.711686 26.7526L2.06107 26.3796C2.08999 26.4842 2.07514 26.5954 2.02138 26.6879L0.811167 25.984ZM0.711686 26.7526C0.783403 27.012 0.95585 27.2291 1.18671 27.3594L1.8746 26.14C1.96357 26.1902 2.03224 26.2753 2.06107 26.3796L0.711686 26.7526ZM1.19227 27.3625C3.42553 28.5957 5.94909 29.2289 8.50916 29.199L8.49282 27.7991C6.17392 27.8261 3.88932 27.2526 1.86904 26.1369L1.19227 27.3625ZM8.50889 29.199C11.346 29.167 14.1448 28.5476 16.7227 27.3809L16.1455 26.1055C13.7446 27.192 11.1371 27.7692 8.49309 27.7991L8.50889 29.199ZM16.306 27.4314C17.1132 27.5816 22.5105 28.5677 25.4226 28.5053L25.3926 27.1056C22.6561 27.1642 17.4174 26.2142 16.5622 26.055L16.306 27.4314ZM25.3991 28.5054C25.7685 28.5099 26.135 28.4382 26.4752 28.2945L25.9304 27.0048C25.7684 27.0733 25.5932 27.1077 25.4161 27.1055L25.3991 28.5054ZM26.4752 28.2945C26.8153 28.1508 27.1219 27.9382 27.3746 27.6696L26.3552 26.7101C26.2369 26.8358 26.0923 26.9364 25.9304 27.0048L26.4752 28.2945ZM27.3767 27.6674C28.1688 26.8186 28.4063 25.4895 28.3017 23.9309L26.9048 24.0247C27.0014 25.4633 26.742 26.2955 26.3531 26.7123L27.3767 27.6674ZM28.3012 23.9246C28.123 21.5864 27.4877 19.3043 26.4305 17.2032L25.1799 17.8325C26.1553 19.771 26.741 21.8755 26.9053 24.031L28.3012 23.9246Z" fill="currentColor" mask="url(#path-1-outside-1_9939_7205)"/>
</svg>
