<svg width="36" height="36" viewBox="0 0 36 36" fill="none" xmlns="http://www.w3.org/2000/svg">
<circle cx="18" cy="18" r="18" fill="#4F6CDE"/>
<path d="M12.4025 11.8349L14.5334 9.70407L13.6967 8.86738C13.5265 8.6972 13.2198 8.6972 13.0496 8.86738L11.5658 10.3512C11.4807 10.4363 11.4319 10.5543 11.4319 10.6747C11.4319 10.7951 11.4807 10.9132 11.5658 10.9983L12.4025 11.8349Z" fill="white"/>
<path d="M11.7556 13.5868C11.7556 13.7072 11.8045 13.8252 11.8896 13.9103L13.1225 15.0964L15.9617 12.9776L17.9655 10.5561L16.6088 9.19112C16.4386 9.02093 16.1319 9.02093 15.9617 9.19112L11.8896 13.2633C11.8045 13.3483 11.7556 13.4664 11.7556 13.5868Z" fill="white"/>
<path d="M12.0793 15.8518C12.0793 15.9722 12.1282 16.0902 12.2133 16.1753L12.8364 16.7985C13.2664 16.6555 13.7181 16.562 14.1859 16.5235L19.7105 10.9986C19.7956 10.9135 19.8444 10.7954 19.8444 10.6751C19.8444 10.5547 19.7956 10.4366 19.7105 10.3515L18.8738 9.51485C18.7036 9.34466 18.3969 9.34466 18.2267 9.51485L12.2133 15.5283C12.1282 15.6133 12.0793 15.7314 12.0793 15.8518Z" fill="white"/>
<path d="M23.5931 18.7633L18.2268 13.397L16.0959 15.5278L18.6775 18.1094C18.7471 18.1754 18.8144 18.243 18.8807 18.3126L21.4623 20.8942L23.5931 18.7633Z" fill="white"/>
<path d="M27.9332 20.7051C27.9332 20.5847 27.8844 20.4666 27.7993 20.3815L27.2861 19.8684L26.1385 18.729L21.2954 23.2694L22.5669 24.5876L23.0801 25.1007C23.2502 25.2709 23.557 25.2709 23.7271 25.1007L27.7993 21.0286C27.8844 20.9435 27.9332 20.8254 27.9332 20.7051Z" fill="white"/>
<path d="M27.6096 18.4392C27.6096 18.3189 27.5608 18.2008 27.4757 18.1157L26.639 17.279C26.4688 17.1088 26.1621 17.1088 25.9919 17.279L20.4674 22.8039C20.4289 23.2717 20.3354 23.7231 20.1924 24.1534L20.8152 24.7762C20.9854 24.9464 21.2921 24.9464 21.4623 24.7762L27.4757 18.7628C27.5608 18.6777 27.6096 18.5596 27.6096 18.4392Z" fill="white"/>
<path d="M28.1228 23.2927L27.2861 22.4561L25.1553 24.5869L25.992 25.4236C26.1621 25.5938 26.4689 25.5938 26.639 25.4236L28.1228 23.9398C28.2079 23.8547 28.2568 23.7366 28.2568 23.6163C28.2568 23.4959 28.2079 23.3778 28.1228 23.2927Z" fill="white"/>
<path d="M18.217 18.5644C17.2894 17.6879 16.0418 17.146 14.6677 17.146C11.8134 17.146 9.49097 19.4684 9.49097 22.3227C9.49097 25.177 11.8134 27.4994 14.6677 27.4994C17.522 27.4994 19.8444 25.177 19.8444 22.3227C19.8444 20.9486 19.3025 19.701 18.426 18.7734L18.217 18.5644ZM14.6677 26.5288C12.3446 26.5288 10.4616 24.6458 10.4616 22.3227C10.4616 19.9997 12.3446 18.1166 14.6677 18.1166C16.9907 18.1166 18.8738 19.9997 18.8738 22.3227C18.8738 24.6458 16.9907 26.5288 14.6677 26.5288Z" fill="white"/>
<path d="M14.6679 24.5872C15.9187 24.5872 16.9327 23.5733 16.9327 22.3224C16.9327 21.0716 15.9187 20.0576 14.6679 20.0576C13.4171 20.0576 12.4031 21.0716 12.4031 22.3224C12.4031 23.5733 13.4171 24.5872 14.6679 24.5872Z" fill="white"/>
</svg>
