<svg width="28" height="28" viewBox="0 0 28 28" fill="none" xmlns="http://www.w3.org/2000/svg">
<path d="M15.0932 0.353486L15.0934 0.35351C18.0865 0.722926 19.3451 3.31681 20.0952 5.46045L20.9438 7.88595L25.1811 16.45C25.1812 16.4502 25.1813 16.4504 25.1814 16.4506C26.215 18.4876 26.8359 20.6999 27.0101 22.9663L27.0102 22.9677C27.1125 24.4794 26.8643 25.6135 26.2252 26.2927L26.2248 26.2931C26.0232 26.5055 25.7784 26.674 25.5062 26.788C25.2349 26.9017 24.9422 26.9587 24.6471 26.9555C21.8281 27.0147 16.5836 26.0769 15.6162 25.8992C13.0988 27.0219 10.3679 27.618 7.59947 27.649C7.59945 27.649 7.59943 27.649 7.59942 27.649L7.59774 27.499C5.13776 27.5275 2.71347 26.9242 0.56883 25.7497L15.0932 0.353486ZM15.0932 0.353486C15.0405 0.347047 14.987 0.349539 14.9351 0.360867L14.9345 0.360983M15.0932 0.353486L14.9345 0.360983M9.96893 2.88422C9.97637 2.86762 9.98522 2.85165 9.99541 2.8365C10.9678 1.4055 14.8041 0.543579 14.967 0.507419C15.0025 0.499687 15.039 0.497983 15.075 0.50238C17.9711 0.859827 19.2034 3.36615 19.9536 5.50999L20.8053 7.9442L25.0473 16.5179C26.0722 18.5376 26.6879 20.731 26.8605 22.9778L9.96893 2.88422ZM9.96893 2.88422C9.81653 3.22982 8.50955 6.30167 9.55097 7.70036L9.96893 2.88422ZM14.9345 0.360983C14.8506 0.379611 13.8436 0.605767 12.7337 1.00787C12.1788 1.20888 11.5945 1.45519 11.0856 1.74345C10.5796 2.03005 10.1337 2.36604 9.87134 2.7522L9.87092 2.75282M14.9345 0.360983L9.87092 2.75282M9.87092 2.75282C9.85598 2.77504 9.84297 2.79849 9.83203 2.82293L9.83168 2.8237M9.87092 2.75282L9.83168 2.8237M9.83168 2.8237C9.75392 3.00004 9.38449 3.86498 9.16573 4.86534C9.05636 5.36549 8.98333 5.90527 9.00564 6.41295C9.02791 6.91961 9.14575 7.40729 9.43066 7.78994L9.68875 8.13671L9.68874 8.13671M9.83168 2.8237L9.68874 8.13671M9.68874 8.13671L9.68976 8.13805M9.68874 8.13671L9.68976 8.13805M9.68976 8.13805C10.1233 8.70705 10.6886 9.16767 11.3391 9.48256C11.9895 9.79736 12.7069 9.95768 13.4327 9.95062M9.68976 8.13805L13.9956 9.91896M13.9956 9.91896L13.9939 9.91917C13.8076 9.94006 13.6202 9.95056 13.4327 9.95062M13.9956 9.91896C14.2166 9.89163 14.4296 9.81992 14.6211 9.70819C14.8124 9.59657 14.9782 9.44738 15.1079 9.26982M13.9956 9.91896L15.1079 9.26982M13.4327 9.95062C13.4325 9.95062 13.4322 9.95062 13.4319 9.95062L13.4319 9.80062L13.4334 9.95062C13.4332 9.95062 13.4329 9.95062 13.4327 9.95062ZM15.1079 9.26982C15.108 9.26964 15.1081 9.26945 15.1083 9.26927L15.2642 9.05919C15.6499 10.8189 16.4694 14.4153 17.3413 17.3708C16.6214 17.3437 15.4585 17.3943 14.5259 17.891C13.2028 17.0458 6.95826 13.5458 0.457096 18.0595M15.1079 9.26982L14.7718 18.8043C14.6922 18.858 14.5976 18.8856 14.5015 18.8836C14.4054 18.8815 14.312 18.8499 14.2347 18.7928C14.1073 18.6993 12.4783 17.5304 10.0398 16.9707C7.60374 16.4116 4.36057 16.46 0.989573 18.8003L0.989545 18.8003C0.940202 18.8346 0.88462 18.8589 0.826006 18.872C0.767399 18.8852 0.706751 18.8869 0.647472 18.8772L0.647465 18.8772C0.588194 18.8675 0.531284 18.8465 0.479996 18.8152C0.428713 18.784 0.383991 18.743 0.34854 18.6945M0.457096 18.0595C0.457105 18.0595 0.457113 18.0595 0.457122 18.0595L0.542642 18.1827L0.457096 18.0595ZM0.457096 18.0595C0.407756 18.0937 0.365565 18.1373 0.333103 18.1878L0.333101 18.1878C0.30063 18.2384 0.278572 18.2949 0.268356 18.3541C0.25814 18.4133 0.260001 18.474 0.273815 18.5324C0.287628 18.5909 0.313081 18.646 0.34854 18.6945M0.34854 18.6945L0.469635 18.606M0.34854 18.6945L0.469635 18.606M0.469635 18.606L0.348537 18.6945L0.469635 18.606ZM0.469635 18.606C0.493364 18.6384 0.523423 18.666 0.558095 18.6872C0.592768 18.7083 0.631375 18.7226 0.671712 18.7292C0.712049 18.7358 0.753326 18.7346 0.793187 18.7257C0.833048 18.7167 0.870712 18.7002 0.904029 18.6771L0.469635 18.606ZM19.0443 21.6997L19.0441 21.6994C18.814 21.3963 18.5747 20.9126 18.333 20.3165C18.1 19.7415 17.8607 19.0515 17.6229 18.2968C17.344 18.2747 16.8883 18.2555 16.3915 18.3037C15.8279 18.3584 15.2281 18.4983 14.7722 18.804L19.0443 21.6997ZM19.0443 21.6997C19.1177 21.796 19.2266 21.8591 19.3464 21.8764C19.4661 21.8938 19.5884 21.8643 19.6866 21.7935C19.7849 21.7226 19.8514 21.6159 19.87 21.4959C19.8886 21.3759 19.8574 21.2541 19.7842 21.1573L19.7841 21.1571M19.0443 21.6997L19.7841 21.1571M19.7841 21.1571C19.5905 20.902 19.3711 20.4559 19.1368 19.8638M19.7841 21.1571L19.1368 19.8638M19.1368 19.8638C18.904 19.2756 18.6612 18.5555 18.4178 17.7616L19.1368 19.8638ZM15.6402 24.9808C15.5386 24.9613 15.4331 24.9761 15.341 25.0233L18.4176 17.7611L18.4159 17.7553L18.4157 17.7548C17.1853 13.7399 15.9565 7.89506 15.9393 7.81257L15.9392 7.81227C15.937 7.80171 15.934 7.79272 15.9312 7.78558C15.8889 7.58265 15.7611 7.39315 15.5675 7.21083C15.3674 7.02243 15.0864 6.83152 14.7239 6.63151L14.6514 6.76285L14.7239 6.63151C14.6713 6.6025 14.6135 6.58395 14.5539 6.5768C14.4942 6.56964 14.4337 6.574 14.3757 6.58965C14.3177 6.6053 14.2633 6.63198 14.2154 6.66835C14.1676 6.70472 14.1274 6.7501 14.0972 6.80204L14.2269 6.87741L14.0972 6.80204C14.067 6.85399 14.0475 6.91142 14.04 6.97104L14.1888 6.98985L14.04 6.97105C14.0325 7.03067 14.0371 7.09115 14.0535 7.14896C14.0699 7.20676 14.0978 7.26061 14.1354 7.3075L14.2524 7.2137L14.1354 7.3075C14.1729 7.35438 14.2194 7.39335 14.272 7.42237L14.2782 7.42579L14.2847 7.42861C14.5466 7.54233 14.7802 7.70816 14.9709 7.9147L14.3617 8.73579L14.3616 8.73578L14.3603 8.73762C14.3059 8.81338 14.2357 8.87759 14.1541 8.92603C14.0725 8.97439 13.9814 9.00591 13.8864 9.01845C13.2329 9.10052 12.5688 9.01227 11.9619 8.76284C11.3553 8.51354 10.8279 8.11225 10.433 7.60029L10.1756 7.25454L10.1756 7.25452C10.0258 7.05328 9.94771 6.76241 9.93039 6.40746C9.91317 6.05471 9.95672 5.65462 10.0348 5.25039C10.1892 4.45108 10.4743 3.65737 10.6612 3.22435C10.8209 3.00609 11.0992 2.78714 11.4589 2.57635C11.8227 2.3632 12.2571 2.16562 12.7066 1.9898C13.591 1.64394 14.521 1.3873 15.0575 1.26383C17.4427 1.60048 18.4951 3.67686 19.2225 5.75517L20.0807 8.20807C20.0841 8.21772 20.088 8.22594 20.0916 8.23262C20.0938 8.24021 20.0971 8.24923 20.1019 8.25896L20.102 8.25919L24.3516 16.8482L24.3524 16.8496C25.3335 18.7815 25.9231 20.8793 26.0891 23.0284C26.1771 24.3284 25.9711 25.2261 25.5479 25.6765C25.4323 25.7974 25.2914 25.8932 25.1345 25.9574C24.9773 26.0217 24.8078 26.0528 24.6371 26.0485L24.6371 26.0483L24.6299 26.0485C23.162 26.0818 20.9333 25.819 19.0555 25.5443C17.2008 25.2731 15.701 24.9922 15.6412 24.981L15.6407 24.9809C15.6406 24.9809 15.6404 24.9808 15.6402 24.9808Z" fill="#E49A0A" stroke="#E49A0A" stroke-width="0.3"/>
</svg>
