<svg width="24" height="24" viewBox="0 0 24 24" fill="none" xmlns="http://www.w3.org/2000/svg">
<path d="M18.3677 9.4411L18.2293 9.43948C16.2996 9.43948 14.5635 10.5646 13.6806 12.3265C13.1252 12.0652 12.523 11.9167 11.896 11.9167C10.8602 11.9167 9.88609 12.3019 9.11489 12.9729C9.10001 12.2636 9.01143 11.5572 8.925 10.9297C8.85097 10.3932 8.77994 9.87261 8.77531 9.43913L10.7766 9.43948C11.0936 9.43948 11.392 9.31047 11.6162 9.0766L13.1995 7.42508C13.6521 6.95305 13.6552 6.19594 13.2232 5.71079C13.3741 5.47491 13.446 5.19238 13.4183 4.9039C13.3831 4.53336 13.1926 4.20195 12.8953 3.99548L11.9343 3.3274C11.4701 3.00443 10.9293 2.8335 10.3707 2.8335C9.20644 2.8335 8.11209 3.30646 7.28876 4.16525C5.77226 5.74698 4.57899 7.55816 3.74095 9.54875C2.73129 11.947 2.21949 13.7162 2.21949 14.8069C2.21949 15.4318 2.16768 15.9394 2.06526 16.3161C1.84647 17.1204 2.19088 17.9784 2.90255 18.4026C5.75337 20.1017 8.99577 21 12.2791 21H12.8516C14.8868 21 16.8976 20.6597 18.8285 19.9884L19.1057 19.8916C20.2386 19.4981 21.0002 18.3962 21.0002 17.1503V12.3333C21.0001 10.7785 19.8192 9.48101 18.3677 9.4411ZM20.2084 17.1503C20.2084 18.0401 19.6646 18.8272 18.8547 19.1086L18.5776 19.2054C16.7283 19.8481 14.8017 20.1743 12.8516 20.1743H12.2791C9.13333 20.1743 6.02661 19.3138 3.29524 17.6857C2.90018 17.4503 2.70769 16.9797 2.82674 16.5414C2.94927 16.0918 3.01113 15.508 3.01113 14.8068C3.01113 13.8448 3.51403 12.1417 4.4661 9.88097C5.26394 7.98432 6.40196 6.25783 7.84843 4.74907C8.52219 4.0463 9.41785 3.65923 10.3707 3.65923C10.7723 3.65923 11.1612 3.78221 11.4952 4.01445L12.4561 4.68253C12.5555 4.75147 12.6189 4.86194 12.6305 4.98534C12.6425 5.10912 12.6007 5.23008 12.5168 5.31799L11.2524 6.63685C11.1171 6.77798 10.9111 6.81266 10.7402 6.72356C10.6111 6.65621 10.5238 6.53242 10.5006 6.38367C10.4774 6.23492 10.5226 6.08853 10.6247 5.98208L10.9884 5.60268C11.143 5.44139 11.143 5.18011 10.9884 5.01886C10.8338 4.85757 10.5833 4.85757 10.4287 5.01886L10.065 5.39827C9.78085 5.69461 9.65442 6.10227 9.71899 6.51632C9.78356 6.93002 10.0267 7.27475 10.3862 7.46224C10.8616 7.70981 11.4356 7.61386 11.8122 7.22071L12.678 6.3176C12.785 6.47839 12.777 6.69816 12.6398 6.8413L11.0564 8.49282C10.9826 8.56985 10.8805 8.61378 10.7766 8.61378L8.92827 8.61347C8.95309 8.57062 8.97692 8.52653 9.00924 8.49282C9.16387 8.33153 9.16387 8.07025 9.00924 7.909C8.85461 7.74771 8.60412 7.74771 8.44953 7.909C7.80205 8.58436 7.95939 9.72583 8.14145 11.0475C8.23578 11.7337 8.33356 12.4434 8.33356 13.1554C8.33356 14.8561 7.09969 15.2182 7.0471 15.2327C6.83681 15.2895 6.70926 15.5125 6.76222 15.7327C6.80705 15.9205 6.96825 16.0455 7.14567 16.0455C7.17736 16.0455 7.20983 16.0415 7.24193 16.033C7.71588 15.9095 8.49261 15.4351 8.88303 14.462C8.88841 14.4544 8.89717 14.4516 8.90218 14.4436C9.56242 13.3783 10.6815 12.7425 11.896 12.7425C12.8415 12.7425 13.7321 13.1247 14.4036 13.8191C14.559 13.9795 14.8099 13.9787 14.9633 13.8166C15.1172 13.6545 15.1164 13.3932 14.961 13.2328C14.7778 13.0434 14.5771 12.8801 14.3695 12.7297C15.1135 11.2264 16.5887 10.2653 18.2293 10.2653L18.3464 10.2669C19.3731 10.2951 20.2084 11.2221 20.2084 12.3333V17.1503H20.2084Z" fill="#2E2F31"/>
<path d="M10.639 15.4118C10.565 15.3412 10.4915 15.2711 10.4189 15.201C10.2385 15.0271 10.2235 14.7246 10.3856 14.5253C10.5476 14.3259 10.823 14.3035 11.0057 14.4789C11.0773 14.548 11.1498 14.6171 11.2224 14.6865C11.4038 14.8594 11.4201 15.1618 11.2589 15.3618C11.1001 15.5593 10.8279 15.5839 10.6466 15.4189C10.6439 15.4166 10.6416 15.4141 10.639 15.4118Z" fill="#EF1733"/>
<path d="M13.0467 16.4605C12.9466 16.4523 12.8468 16.4436 12.7472 16.4349L12.7426 16.4345C12.4982 16.4101 12.3136 16.177 12.3294 15.9115C12.3456 15.6445 12.5583 15.4458 12.8052 15.4673C12.9034 15.4761 13.002 15.4847 13.1007 15.493C13.3493 15.5132 13.5353 15.7469 13.5205 16.0143C13.5055 16.2814 13.2933 16.4813 13.0467 16.4605Z" fill="#EF1733"/>
<path d="M15.2302 15.3368C15.4762 15.2969 15.7045 15.481 15.7445 15.7459C15.7848 16.0113 15.6195 16.2578 15.3756 16.2969C15.2767 16.3127 15.1777 16.3283 15.0783 16.3437C15.0715 16.3449 15.0643 16.3456 15.0573 16.3463C14.8213 16.3707 14.6038 16.1895 14.5659 15.9318C14.5268 15.6665 14.6932 15.4207 14.9372 15.3828C15.0349 15.3676 15.1326 15.3524 15.2302 15.3368Z" fill="#EF1733"/>
<path d="M19.3496 13.3614C19.5211 13.1801 19.8002 13.1909 19.9729 13.3857C20.1455 13.5805 20.1463 13.8854 19.9745 14.0666C19.9051 14.14 19.8345 14.2137 19.7627 14.2879C19.746 14.3049 19.7286 14.3203 19.7102 14.334C19.5367 14.4627 19.2936 14.4338 19.1391 14.2558C18.9685 14.0592 18.971 13.7543 19.1447 13.5751C19.2141 13.5035 19.2824 13.4322 19.3496 13.3614Z" fill="#EF1733"/>
<path d="M17.6161 14.7044C17.8472 14.6118 18.1059 14.7414 18.1948 14.9929C18.2839 15.2446 18.169 15.5233 17.9383 15.6156C17.845 15.6529 17.7511 15.69 17.6568 15.727C17.6442 15.7322 17.631 15.7365 17.6182 15.7401C17.3975 15.8028 17.1626 15.6727 17.0797 15.4344C16.9922 15.1822 17.1087 14.9044 17.3401 14.8135C17.4327 14.7772 17.5247 14.7409 17.6161 14.7044Z" fill="#EF1733"/>
</svg>
