<svg width="24" height="24" viewBox="0 0 24 24" fill="none" xmlns="http://www.w3.org/2000/svg">
<g clip-path="url(#clip0)">
<path d="M-6.42405 -5.90625H-6.41631C-4.19759 -5.89076 0.493629 -5.62349 2.92187 -5.45312C3.15596 -5.43653 3.3323 -5.23364 3.31592 -4.99956C3.29933 -4.76547 3.09622 -4.58936 2.86236 -4.60551C0.451812 -4.77477 -4.22126 -5.04115 -6.42206 -5.05664H-6.42383C-6.54884 -5.05664 -6.65039 -4.95553 -6.65039 -4.83074V4.08927C-6.65039 4.2114 -6.55503 4.3103 -6.43312 4.31473C-0.796937 4.51585 6.21367 4.18574 8.99105 2.65622C9.53621 2.33629 10.2805 1.85617 10.288 1.85152C10.4849 1.72408 10.748 1.78072 10.8752 1.97786C11.0025 2.175 10.9458 2.43784 10.7487 2.56506C10.721 2.58298 10.136 2.96044 9.61255 3.27506C9.57825 4.0063 9.48488 6.3903 9.60259 8.49795C9.61542 8.73225 9.71875 9.5 9.26562 9.5C9.25744 9.50044 8.82046 9.04688 8.8125 9.04688C8.8125 9.04688 8.7667 8.77142 8.75431 8.5453C8.65364 6.74496 8.70408 4.75126 8.74347 3.71558C4.70273 5.41214 -3.82677 5.25793 -6.46343 5.16367C-7.04466 5.1431 -7.5 4.67117 -7.5 4.08927V-4.83074C-7.5 -5.42635 -7.01745 -5.90625 -6.42405 -5.90625Z" fill="#2E2F31" stroke="#2E2F31" stroke-width="0.3"/>
<path d="M9.05552 8.0367C9.28717 8.00262 9.50355 8.16281 9.53785 8.39468C9.88278 10.7267 10.8295 15.4442 10.8377 15.4763C10.8406 15.4875 10.843 15.4988 10.8448 15.5103C10.8539 15.5648 11.0619 16.8562 10.5742 17.9494C10.3988 18.3428 10.4485 19.0809 10.8348 19.5878C11.1236 19.9661 11.5198 20.1197 12.0139 20.0442C14.1158 19.7223 16.1389 20.2212 17.5638 21.4131C18.207 21.9514 19.1891 21.6837 19.877 21.1797C20.4104 20.7887 20.5642 20.4135 20.5319 20.3356C20.446 20.227 20.2923 20.1969 19.9352 20.1498C17.2005 19.7889 17.785 18.2103 15.0413 16.9671C13.9503 16.4726 13.9591 15.413 13.885 14.7227C13.8828 14.7023 13.8822 14.6817 13.8828 14.6612C13.8857 14.5877 14.1569 7.23529 13.7932 0.792884C13.7724 0.425164 13.7813 0.0510268 13.8195 -0.319349C13.9339 -1.42694 13.7536 -3.38523 11.2672 -4.0782C10.9618 -4.1293 7.33841 -4.72735 2.38856 -5.15193C2.1547 -5.17206 1.98146 -5.37783 2.00159 -5.61147C2.0215 -5.84533 2.22727 -6.01835 2.46091 -5.99844C7.64772 -5.55372 11.3937 -4.91851 11.4309 -4.91231C11.4446 -4.90988 11.4583 -4.90678 11.4718 -4.90302C12.8637 -4.52092 13.8233 -3.75318 14.3235 -2.62081C14.7174 -1.72983 14.7264 -0.829998 14.6647 -0.231954C14.6311 0.0935073 14.6233 0.422066 14.6415 0.744873C14.9955 7.01515 14.7519 14.135 14.7331 14.6627C14.8088 15.3973 14.8052 15.9272 15.3922 16.1931C18.3871 17.5503 17.6782 18.9948 20.0464 19.3075C20.4617 19.3623 20.8912 19.419 21.1992 19.8097C21.5591 20.2666 21.3886 20.9332 20.754 21.5494C19.777 22.4981 18.1366 22.9999 17.0186 22.0649C15.7809 21.0292 14.0036 20.5989 12.1424 20.8841C11.3415 21.0067 10.6371 20.7292 10.1594 20.1029C9.61973 19.3951 9.46796 18.3439 9.79851 17.6032C10.1565 16.8007 10.0277 15.7942 10.0091 15.6643C9.93944 15.3864 9.03428 10.7957 8.69753 8.51902C8.66324 8.28693 8.82342 8.07099 9.05552 8.0367Z" fill="#2E2F31" stroke="#2E2F31" stroke-width="0.3"/>
<path d="M10.7679 3.4036C10.6861 3.35024 10.6049 3.29727 10.5239 3.24506C10.3229 3.1155 10.0511 3.1783 9.91692 3.38563C9.78255 3.59283 9.8345 3.86414 10.0375 3.99561C10.1173 4.04705 10.1974 4.09926 10.2778 4.1516C10.4781 4.28244 10.7502 4.22092 10.8853 4.01423C11.0188 3.81067 10.9696 3.54179 10.7762 3.40903C10.7735 3.40711 10.7707 3.40552 10.7679 3.4036Z" fill="#EF1733"/>
<path d="M12.3243 5.45845C12.291 5.36401 12.2572 5.26995 12.2236 5.17611L12.222 5.17174C12.1367 4.9423 11.8822 4.82371 11.6512 4.90682C11.419 4.99063 11.2985 5.24661 11.3819 5.47921C11.4153 5.57166 11.4486 5.66463 11.4817 5.75767C11.5644 5.99229 11.8198 6.11202 12.0528 6.02944C12.2854 5.94672 12.407 5.69107 12.3243 5.45845Z" fill="#EF1733"/>
<path d="M11.8983 7.85141C11.9271 8.09883 12.1497 8.27203 12.3947 8.24295C12.6402 8.21402 12.8153 7.99156 12.7864 7.74629C12.7747 7.64694 12.7626 7.5474 12.7503 7.44767C12.7496 7.4407 12.7484 7.43359 12.7472 7.4267C12.7073 7.19277 12.4901 7.02927 12.252 7.05859C12.0069 7.08863 11.8326 7.31189 11.8627 7.55696C11.8747 7.65509 11.8867 7.75321 11.8983 7.85141Z" fill="#EF1733"/>
<path d="M11.2231 12.3296C11.1073 12.5413 11.1896 12.8079 11.4071 12.9246C11.6246 13.0414 11.8948 12.9643 12.0105 12.7523C12.0574 12.6666 12.1042 12.5797 12.1513 12.4914C12.162 12.471 12.171 12.4503 12.1784 12.429C12.2471 12.2288 12.1581 12.0016 11.9603 11.8981C11.7417 11.7838 11.4723 11.8641 11.3589 12.0774C11.3136 12.1627 11.2683 12.2467 11.2231 12.3296Z" fill="#EF1733"/>
<path d="M11.9605 10.3146C11.9387 10.5612 12.1209 10.7775 12.3669 10.7991C12.613 10.8207 12.8298 10.6387 12.8514 10.3926C12.8601 10.293 12.8685 10.193 12.8767 10.0926C12.878 10.0791 12.8783 10.0653 12.8782 10.0521C12.8761 9.82313 12.6997 9.62976 12.4671 9.61064C12.221 9.59071 12.0053 9.77406 11.9852 10.0204C11.9772 10.119 11.969 10.2171 11.9605 10.3146Z" fill="#EF1733"/>
</g>
<defs>
<clipPath id="clip0">
<rect width="20" height="21" fill="white" transform="translate(2 2)"/>
</clipPath>
</defs>
</svg>
