<svg width="24" height="24" viewBox="0 0 24 24" fill="none" xmlns="http://www.w3.org/2000/svg">
<g clip-path="url(#clip0)">
<path d="M4.35239 7.04772C4.25883 7.02646 4.16591 7.00536 4.07353 6.98486C3.84418 6.93403 3.61517 7.08456 3.56224 7.32132C3.5091 7.55803 3.64946 7.79026 3.88127 7.84219C3.97237 7.86236 4.064 7.88313 4.15584 7.90396C4.38507 7.95618 4.61471 7.80675 4.66872 7.57026C4.72231 7.33721 4.58527 7.10629 4.3619 7.04989C4.35867 7.04907 4.35561 7.04854 4.35239 7.04772Z" fill="#EF1733"/>
<path d="M6.48696 8.41038C6.42403 8.33475 6.3609 8.25959 6.29792 8.1846L6.29494 8.18113C6.13816 7.99883 5.86324 7.97635 5.67878 8.13167C5.49342 8.28807 5.46965 8.56499 5.62584 8.75082C5.6881 8.82462 5.75049 8.89891 5.8127 8.97335C5.96889 9.16129 6.24505 9.18451 6.43147 9.02901C6.61758 8.87349 6.64249 8.59649 6.48696 8.41038Z" fill="#EF1733"/>
<path d="M6.91005 10.76C7.02092 10.9782 7.28506 11.0618 7.50087 10.9515C7.71718 10.8412 7.80267 10.5765 7.69242 10.3604C7.64771 10.2729 7.60268 10.1853 7.55734 10.0976C7.5543 10.0914 7.55076 10.0853 7.54733 10.0793C7.43076 9.87743 7.17494 9.80084 6.96557 9.90904C6.75003 10.0203 6.66559 10.2854 6.77683 10.5009C6.82136 10.5872 6.8659 10.6735 6.91005 10.76Z" fill="#EF1733"/>
<path d="M7.81525 15.1159C7.78077 15.3504 7.9475 15.5679 8.18767 15.6013C8.42784 15.6348 8.65053 15.4716 8.68478 15.2368C8.69877 15.1419 8.71228 15.0459 8.72553 14.9485C8.72843 14.9261 8.72974 14.9039 8.72921 14.8818C8.72428 14.6739 8.56487 14.4949 8.34726 14.467C8.10692 14.4363 7.88613 14.6021 7.85441 14.8372C7.84176 14.9312 7.82864 15.0241 7.81525 15.1159Z" fill="#EF1733"/>
<path d="M7.80759 13.0083C7.87159 13.243 8.11322 13.3802 8.34712 13.3162C8.58124 13.2521 8.71897 13.0106 8.65491 12.7765C8.62896 12.6818 8.60263 12.5868 8.57592 12.4915C8.57249 12.4786 8.56812 12.4658 8.56348 12.4536C8.48355 12.2434 8.2551 12.1254 8.03428 12.1871C7.80074 12.2527 7.66456 12.4951 7.72999 12.729C7.75626 12.8225 7.78215 12.9157 7.80759 13.0083Z" fill="#EF1733"/>
<path d="M19.8827 7.04772C19.9763 7.02646 20.0692 7.00536 20.1616 6.98486C20.3909 6.93403 20.6199 7.08456 20.6729 7.32132C20.726 7.55803 20.5856 7.79026 20.3538 7.84219C20.2627 7.86236 20.1711 7.88313 20.0793 7.90396C19.85 7.95618 19.6204 7.80675 19.5664 7.57026C19.5128 7.33721 19.6498 7.10629 19.8732 7.04989C19.8764 7.04907 19.8795 7.04854 19.8827 7.04772Z" fill="#EF1733"/>
<path d="M17.7481 8.41038C17.8111 8.33475 17.8742 8.25959 17.9372 8.1846L17.9402 8.18113C18.097 7.99883 18.3719 7.97635 18.5563 8.13167C18.7417 8.28807 18.7655 8.56499 18.6093 8.75082C18.547 8.82462 18.4846 8.89891 18.4224 8.97335C18.2662 9.16129 17.9901 9.18451 17.8036 9.02901C17.6175 8.87349 17.5926 8.59649 17.7481 8.41038Z" fill="#EF1733"/>
<path d="M17.3251 10.76C17.2142 10.9782 16.95 11.0618 16.7342 10.9515C16.5179 10.8412 16.4324 10.5765 16.5427 10.3604C16.5874 10.2729 16.6324 10.1853 16.6778 10.0976C16.6808 10.0914 16.6843 10.0853 16.6878 10.0793C16.8043 9.87743 17.0602 9.80084 17.2695 9.90904C17.4851 10.0203 17.5695 10.2854 17.4583 10.5009C17.4137 10.5872 17.3692 10.6735 17.3251 10.76Z" fill="#EF1733"/>
<path d="M16.4199 15.1159C16.4543 15.3504 16.2876 15.5679 16.0474 15.6013C15.8073 15.6348 15.5846 15.4716 15.5503 15.2368C15.5363 15.1419 15.5228 15.0459 15.5096 14.9485C15.5067 14.9261 15.5054 14.9039 15.5059 14.8818C15.5108 14.6739 15.6702 14.4949 15.8878 14.467C16.1282 14.4363 16.349 14.6021 16.3807 14.8372C16.3933 14.9312 16.4065 15.0241 16.4199 15.1159Z" fill="#EF1733"/>
<path d="M16.4275 13.0083C16.3635 13.243 16.1219 13.3802 15.888 13.3162C15.6539 13.2521 15.5161 13.0106 15.5802 12.7765C15.6062 12.6818 15.6325 12.5868 15.6592 12.4915C15.6626 12.4786 15.667 12.4658 15.6716 12.4536C15.7516 12.2434 15.98 12.1254 16.2008 12.1871C16.4344 12.2527 16.5705 12.4951 16.5051 12.729C16.4789 12.8225 16.453 12.9157 16.4275 13.0083Z" fill="#EF1733"/>
<path d="M20.7498 3V7.10562C20.7554 9.93516 19.4776 12.6146 17.2754 14.3912L13.4579 17.4837C12.6002 18.1508 11.3993 18.1508 10.5416 17.4837L6.72414 14.3912C4.52191 12.6146 3.2441 9.93516 3.24976 7.10562V3H1.99976V7.10562C1.9964 10.2223 3.36867 13.1816 5.74976 15.1925V20.5H6.99976V16.2231L9.75539 18.4556C11.0642 19.5149 12.9353 19.5149 14.2441 18.4556L16.9998 16.2231V20.5H18.2498V15.1925C20.6309 13.1816 22.0031 10.2223 21.9998 7.10562V3H20.7498Z" fill="#2E2F31"/>
<path d="M9.86443 11.7059C10.3193 12.56 11.1391 13.0548 12 12.9952C12.859 13.0547 13.6772 12.562 14.1326 11.7109C14.3976 11.7914 14.6704 11.8325 14.9443 11.8333H15V10.8343H14.9443C14.5416 10.8337 14.1455 10.7159 13.7919 10.4917L13.1571 10.0981L13.0877 10.0636C12.7506 9.93486 12.3808 10.0045 12.0956 10.2504C12.0617 10.279 12.0293 10.3096 11.9983 10.3423C11.9673 10.3096 11.9348 10.279 11.901 10.2504C11.6159 10.0043 11.246 9.93461 10.9089 10.0636L10.1721 10.5062C9.8108 10.7271 9.40803 10.84 9 10.8348L9.04286 11.8338C9.3203 11.8325 9.59641 11.7895 9.86443 11.7059ZM11.2037 11.0032C11.2727 10.9875 11.3441 11.0073 11.3996 11.0576C11.5133 11.164 11.5771 11.3268 11.5714 11.4967H12.4286C12.4227 11.3268 12.4863 11.1637 12.6 11.0571C12.6549 11.0066 12.726 10.9866 12.7946 11.0027L13.3204 11.3308C13.002 11.7937 12.5075 12.0429 12 11.9962C11.4897 12.0471 10.9917 11.7951 10.6753 11.3258L11.2037 11.0032Z" fill="#2E2F31"/>
<path d="M12.625 6.75H14.5V5.5H12.625C12.2798 5.5 12 5.2202 12 4.875V3H10.75V4.875C10.75 5.91055 11.5895 6.75 12.625 6.75Z" fill="#2E2F31"/>
</g>
<defs>
<clipPath id="clip0">
<rect width="20" height="19" fill="white" transform="translate(2 2)"/>
</clipPath>
</defs>
</svg>
