<svg width="24" height="24" viewBox="0 0 24 24" fill="none" xmlns="http://www.w3.org/2000/svg">
<g clip-path="url(#clip0)">
<path d="M16.6161 14.9899C16.6764 15.0768 16.7363 15.163 16.7954 15.249C16.9422 15.4625 16.9092 15.7858 16.7214 15.9708C16.5338 16.1561 16.2646 16.1353 16.1158 15.9197C16.0576 15.8349 15.9985 15.7499 15.9393 15.6646C15.7914 15.4519 15.8232 15.1286 16.0102 14.9426C16.1944 14.7589 16.4609 14.7769 16.61 14.9811C16.6121 14.9841 16.6139 14.987 16.6161 14.9899Z" fill="#EF1733"/>
<path d="M14.5039 13.5017C14.6098 13.5296 14.7154 13.5579 14.8207 13.5862L14.8256 13.5876C15.0834 13.6603 15.2462 13.9432 15.1895 14.2223C15.1322 14.5028 14.8748 14.6732 14.6138 14.603C14.51 14.5749 14.4057 14.5469 14.3013 14.5192C14.0383 14.4501 13.8741 14.1662 13.93 13.8849C13.9861 13.604 14.243 13.4324 14.5039 13.5017Z" fill="#EF1733"/>
<path d="M11.9558 14.3158C11.6371 14.3143 11.3827 14.0787 11.3819 13.7912C11.3808 13.5031 11.6365 13.2715 11.9525 13.2734C12.0806 13.2743 12.2089 13.2754 12.3375 13.2768C12.3464 13.2767 12.3557 13.2772 12.3646 13.2777C12.668 13.2939 12.9091 13.5244 12.9086 13.804C12.9082 14.0917 12.6514 14.3224 12.3354 14.3191C12.2089 14.3178 12.0824 14.3165 11.9558 14.3158Z" fill="#EF1733"/>
<path d="M7.88918 15.7552C7.69525 15.9196 7.42761 15.863 7.29161 15.6285C7.15562 15.3941 7.2027 15.0706 7.39693 14.9063C7.47541 14.8397 7.55509 14.773 7.63608 14.7059C7.65481 14.6906 7.674 14.6771 7.69397 14.6655C7.88155 14.5571 8.1116 14.6271 8.23272 14.8408C8.36639 15.0769 8.31611 15.3998 8.12043 15.5617C8.04217 15.6264 7.96512 15.6909 7.88918 15.7552Z" fill="#EF1733"/>
<path d="M9.66407 14.6265C9.38837 14.6926 9.12541 14.518 9.07539 14.2374C9.02534 13.9566 9.20779 13.6758 9.48299 13.61C9.59427 13.5835 9.7061 13.5572 9.81848 13.531C9.83359 13.5273 9.84904 13.5246 9.86402 13.5226C10.1223 13.4869 10.3587 13.6587 10.4046 13.9243C10.4528 14.2054 10.2687 14.485 9.99307 14.5492C9.88277 14.5748 9.77301 14.6005 9.66407 14.6265Z" fill="#EF1733"/>
<path d="M20.7498 3V7.10562C20.7554 9.93516 19.4776 12.6146 17.2754 14.3912L13.4579 17.4837C12.6002 18.1508 11.3993 18.1508 10.5416 17.4837L6.72414 14.3912C4.52191 12.6146 3.2441 9.93516 3.24976 7.10562V3H1.99976V7.10562C1.9964 10.2223 3.36867 13.1816 5.74976 15.1925V20.5H6.99976V16.2231L9.75539 18.4556C11.0642 19.5149 12.9353 19.5149 14.2441 18.4556L16.9998 16.2231V20.5H18.2498V15.1925C20.6309 13.1816 22.0031 10.2223 21.9998 7.10562V3H20.7498Z" fill="#2E2F31"/>
<path d="M9.86443 11.7059C10.3193 12.56 11.1391 13.0548 12 12.9952C12.859 13.0547 13.6772 12.562 14.1326 11.7109C14.3976 11.7914 14.6704 11.8325 14.9443 11.8333H15V10.8343H14.9443C14.5416 10.8337 14.1455 10.7159 13.7919 10.4917L13.1571 10.0981L13.0877 10.0636C12.7506 9.93486 12.3808 10.0045 12.0956 10.2504C12.0617 10.279 12.0293 10.3096 11.9983 10.3423C11.9673 10.3096 11.9348 10.279 11.901 10.2504C11.6159 10.0043 11.246 9.93461 10.9089 10.0636L10.1721 10.5062C9.8108 10.7271 9.40803 10.84 9 10.8348L9.04286 11.8338C9.3203 11.8325 9.59641 11.7895 9.86443 11.7059ZM11.2037 11.0032C11.2727 10.9875 11.3441 11.0073 11.3996 11.0576C11.5133 11.164 11.5771 11.3268 11.5714 11.4967H12.4286C12.4227 11.3268 12.4863 11.1637 12.6 11.0571C12.6549 11.0066 12.726 10.9866 12.7946 11.0027L13.3204 11.3308C13.002 11.7937 12.5075 12.0429 12 11.9962C11.4897 12.0471 10.9917 11.7951 10.6753 11.3258L11.2037 11.0032Z" fill="#2E2F31"/>
<path d="M12.625 6.75H14.5V5.5H12.625C12.2798 5.5 12 5.2202 12 4.875V3H10.75V4.875C10.75 5.91055 11.5895 6.75 12.625 6.75Z" fill="#2E2F31"/>
</g>
<defs>
<clipPath id="clip0">
<rect width="20" height="19" fill="white" transform="translate(2 2)"/>
</clipPath>
</defs>
</svg>
