<svg width="24" height="24" viewBox="0 0 24 24" fill="none" xmlns="http://www.w3.org/2000/svg">
<g clip-path="url(#clip0)">
<path d="M2.55416 6.55767C2.47752 6.61821 2.40142 6.67835 2.32614 6.73845C2.13928 6.88769 2.1122 7.16535 2.26597 7.3586C2.41956 7.55198 2.69328 7.58918 2.88257 7.43869C2.95677 7.3794 3.03179 7.32008 3.10699 7.26062C3.29486 7.11236 3.32323 6.8349 3.17036 6.64098C3.01995 6.44957 2.7494 6.41057 2.56195 6.55152C2.55925 6.55355 2.55686 6.55563 2.55416 6.55767Z" fill="#EF1733"/>
<path d="M4.99766 5.73715C4.89752 5.73867 4.79762 5.74066 4.69795 5.74264L4.6933 5.74278C4.44865 5.7505 4.25514 5.95396 4.26032 6.19939C4.26578 6.44621 4.47001 6.64202 4.71708 6.63703C4.81534 6.63486 4.91407 6.63291 5.01281 6.63119C5.26155 6.62754 5.45644 6.42357 5.45237 6.17647C5.44808 5.92962 5.24452 5.73285 4.99766 5.73715Z" fill="#EF1733"/>
<path d="M7.13044 6.90333C7.37414 6.95488 7.60924 6.79906 7.65974 6.55756C7.71054 6.31564 7.55547 6.07876 7.31378 6.028C7.21586 6.00749 7.11768 5.98719 7.01922 5.96708C7.01239 5.96554 7.00526 5.96442 6.99836 5.96334C6.76389 5.92667 6.53971 6.08043 6.49163 6.31547C6.44202 6.55735 6.59812 6.79368 6.83999 6.84329C6.93683 6.86315 7.03367 6.88301 7.13044 6.90333Z" fill="#EF1733"/>
<path d="M11.1601 8.97025C11.3239 9.14746 11.6028 9.15433 11.7828 8.9854C11.9628 8.81647 11.9758 8.53573 11.8117 8.35857C11.7454 8.28681 11.6779 8.21472 11.6092 8.14199C11.5933 8.12535 11.5766 8.11015 11.5587 8.09642C11.3908 7.96748 11.1472 7.97943 10.986 8.134C10.808 8.30478 10.7983 8.5857 10.9643 8.76111C11.0307 8.83121 11.096 8.90098 11.1601 8.97025Z" fill="#EF1733"/>
<path d="M9.48492 7.62927C9.71172 7.7285 9.97487 7.62474 10.0737 7.39852C10.1725 7.17208 10.0691 6.90856 9.8427 6.8097C9.75112 6.76977 9.65903 6.72993 9.56642 6.69016C9.55401 6.68464 9.54109 6.67994 9.52847 6.67582C9.31083 6.60481 9.07133 6.71041 8.97909 6.9248C8.88178 7.15175 8.98686 7.4146 9.21395 7.51221C9.30486 7.55117 9.39526 7.59022 9.48492 7.62927Z" fill="#EF1733"/>
<path d="M2.74203 2H2.74738C4.27753 2.01068 7.51285 2.19501 9.1875 2.3125C9.34894 2.32394 9.47055 2.46387 9.45926 2.62531C9.44781 2.78674 9.30774 2.9082 9.14645 2.89706C7.48401 2.78033 4.2612 2.59662 2.74341 2.58594H2.74219C2.65598 2.58594 2.58594 2.65567 2.58594 2.74173V8.89346C2.58594 8.97769 2.6517 9.0459 2.73578 9.04895C6.6228 9.18765 11.4577 8.95999 13.3731 7.90515C13.7491 7.68451 14.2624 7.35339 14.2676 7.35019C14.4034 7.2623 14.5848 7.30136 14.6726 7.43732C14.7603 7.57327 14.7213 7.75455 14.5853 7.84229C14.5662 7.85464 14.1628 8.11496 13.8018 8.33194C13.7781 8.83624 13.7137 10.4804 13.7949 11.9339C13.8037 12.0955 13.875 12.625 13.5625 12.625C13.5569 12.6253 13.2555 12.3125 13.25 12.3125C13.25 12.3125 13.2184 12.1225 13.2099 11.9666C13.1404 10.725 13.1752 9.35001 13.2024 8.63574C10.4157 9.80579 4.53326 9.69943 2.71487 9.63443C2.31403 9.62024 2 9.29477 2 8.89346V2.74173C2 2.33096 2.33279 2 2.74203 2Z" fill="#2E2F31" stroke="#2E2F31" stroke-width="0.3"/>
<path d="M13.4967 11.9799C13.6565 11.9564 13.8057 12.0669 13.8294 12.2268C14.0673 13.8351 14.7202 17.0885 14.7258 17.1107C14.7278 17.1184 14.7295 17.1262 14.7307 17.1342C14.737 17.1717 14.8804 18.0623 14.5441 18.8163C14.4231 19.0876 14.4574 19.5966 14.7239 19.9462C14.923 20.2071 15.1963 20.313 15.537 20.261C16.9866 20.039 18.3818 20.383 19.3645 21.205C19.8081 21.5763 20.4854 21.3916 20.9598 21.0441C21.3277 20.7744 21.4337 20.5156 21.4115 20.4619C21.3523 20.387 21.2462 20.3663 20.9999 20.3338C19.114 20.0849 19.5171 18.9962 17.6249 18.1388C16.8724 17.7978 16.8785 17.067 16.8274 16.5909C16.8259 16.5769 16.8254 16.5627 16.8259 16.5485C16.8279 16.4979 17.015 11.4272 16.7641 6.98419C16.7498 6.73059 16.7559 6.47256 16.7823 6.21713C16.8612 5.45328 16.7368 4.10272 15.022 3.62482C14.8114 3.58957 12.3125 3.17713 8.89883 2.88431C8.73755 2.87043 8.61807 2.72852 8.63196 2.56739C8.64569 2.4061 8.7876 2.28678 8.94873 2.30051C12.5258 2.60722 15.1093 3.04529 15.1349 3.04957C15.1444 3.05124 15.1539 3.05338 15.1632 3.05597C16.1231 3.31949 16.7849 3.84897 17.1299 4.62991C17.4015 5.24438 17.4077 5.86496 17.3651 6.2774C17.342 6.50186 17.3366 6.72845 17.3491 6.95107C17.5933 11.2754 17.4253 16.1857 17.4123 16.5496C17.4645 17.0562 17.462 17.4216 17.8669 17.605C19.9323 18.541 19.4434 19.5373 21.0767 19.7529C21.3631 19.7907 21.6593 19.8298 21.8717 20.0992C22.1199 20.4143 22.0023 20.8741 21.5647 21.299C20.8908 21.9533 19.7596 22.2994 18.9885 21.6546C18.135 20.9403 16.9092 20.6435 15.6257 20.8402C15.0733 20.9247 14.5874 20.7334 14.258 20.3014C13.8858 19.8133 13.7812 19.0883 14.0091 18.5775C14.256 18.024 14.1672 17.3299 14.1544 17.2404C14.1063 17.0487 13.4821 13.8827 13.2498 12.3126C13.2262 12.1525 13.3367 12.0036 13.4967 11.9799Z" fill="#2E2F31" stroke="#2E2F31" stroke-width="0.3"/>
</g>
<defs>
<clipPath id="clip0">
<rect width="20" height="20" fill="white" transform="translate(2 2)"/>
</clipPath>
</defs>
</svg>
