<svg width="24" height="24" viewBox="0 0 24 24" fill="none" xmlns="http://www.w3.org/2000/svg">
<g clip-path="url(#clip0)">
<path d="M13.0968 3.58051C13.1169 3.50293 13.1373 3.42563 13.1576 3.34852L13.1586 3.34492C13.2107 3.15616 13.4054 3.04407 13.5953 3.09436C13.7861 3.14514 13.8999 3.34085 13.8494 3.53201C13.8292 3.608 13.8091 3.6844 13.7891 3.76085C13.7394 3.95356 13.5441 4.06663 13.3527 4.01688C13.1616 3.967 13.047 3.77163 13.0968 3.58051Z" fill="#EF1733"/>
<path d="M14.0295 5.298C14.1164 5.47736 14.0406 5.68989 13.8627 5.77551C13.6846 5.86145 13.4708 5.78654 13.3849 5.60859C13.3502 5.53648 13.3156 5.46413 13.281 5.39153C13.2785 5.38652 13.2763 5.3812 13.2741 5.37604C13.2006 5.20099 13.2769 4.99734 13.4502 4.91484C13.6285 4.82984 13.8421 4.90565 13.9271 5.08397C13.9611 5.15536 13.9952 5.22675 14.0295 5.298Z" fill="#EF1733"/>
<path d="M16.5214 7.79021C16.6866 7.89833 16.7329 8.12011 16.6246 8.28543C16.5164 8.45075 16.2946 8.49706 16.1294 8.38868C16.0625 8.34494 15.9952 8.30029 15.9272 8.25475C15.9116 8.24416 15.897 8.23275 15.8835 8.22023C15.7562 8.10269 15.73 7.90661 15.8295 7.75812C15.9396 7.59417 16.162 7.55048 16.3261 7.66062C16.3916 7.70467 16.4568 7.74783 16.5214 7.79021Z" fill="#EF1733"/>
<path d="M15.1503 6.77169C15.2852 6.91671 15.276 7.14311 15.1308 7.27784C14.9855 7.41269 14.7588 7.40456 14.6242 7.25972C14.5699 7.20113 14.5154 7.14212 14.4609 7.08271C14.4534 7.0748 14.4465 7.06629 14.44 7.05784C14.3289 6.91225 14.3457 6.70324 14.4837 6.5766C14.6298 6.44279 14.8565 6.45237 14.9902 6.59804C15.0437 6.65638 15.0971 6.71432 15.1503 6.77169Z" fill="#EF1733"/>
<path d="M2.74203 2H2.74738C4.27753 2.01068 7.51285 2.19501 9.1875 2.3125C9.34894 2.32394 9.47055 2.46387 9.45926 2.62531C9.44781 2.78674 9.30774 2.9082 9.14645 2.89706C7.48401 2.78033 4.2612 2.59662 2.74341 2.58594H2.74219C2.65598 2.58594 2.58594 2.65567 2.58594 2.74173V8.89346C2.58594 8.97769 2.6517 9.0459 2.73578 9.04895C6.6228 9.18765 11.4577 8.95999 13.3731 7.90515C13.7491 7.68451 13.9948 7.5032 14 7.5C14.1358 7.41211 14.3172 7.45117 14.405 7.58713C14.4927 7.72308 14.4536 7.90436 14.3177 7.9921C14.2986 8.00446 13.8952 8.26477 13.8018 8.33194C13.7781 8.83624 13.7137 10.4804 13.7949 11.9339C13.8037 12.0955 13.875 12.625 13.5625 12.625C13.5569 12.6253 13.2555 12.3125 13.25 12.3125C13.25 12.3125 13.2184 12.1225 13.2099 11.9666C13.1404 10.725 13.1752 9.35001 13.2024 8.63574C10.4157 9.80579 4.53326 9.69943 2.71487 9.63443C2.31403 9.62024 2 9.29477 2 8.89346V2.74173C2 2.33096 2.33279 2 2.74203 2Z" fill="#2E2F31" stroke="#2E2F31" stroke-width="0.3"/>
<path d="M13.4967 11.9799C13.6565 11.9564 13.8057 12.0669 13.8294 12.2268C14.0673 13.8351 14.7202 17.0885 14.7258 17.1107C14.7278 17.1184 14.7295 17.1262 14.7307 17.1342C14.737 17.1717 14.8804 18.0623 14.5441 18.8163C14.4231 19.0876 14.4574 19.5966 14.7239 19.9462C14.923 20.2071 15.1963 20.313 15.537 20.261C16.9866 20.039 18.3818 20.383 19.3645 21.205C19.8081 21.5763 20.4854 21.3916 20.9598 21.0441C21.3277 20.7744 21.4337 20.5156 21.4115 20.4619C21.3523 20.387 21.2462 20.3663 20.9999 20.3338C19.114 20.0849 19.5171 18.9962 17.6249 18.1388C16.8724 17.7978 16.8785 17.067 16.8274 16.5909C16.8259 16.5769 16.8254 16.5627 16.8259 16.5485C16.8279 16.4979 17.015 11.4272 16.7641 6.98419C16.7498 6.73059 16.7559 6.47256 16.7823 6.21713C16.8612 5.45328 16.7368 4.10272 15.022 3.62482C14.8114 3.58957 12.3125 3.17713 8.89883 2.88431C8.73755 2.87043 8.61807 2.72852 8.63196 2.56739C8.64569 2.4061 8.7876 2.28678 8.94873 2.30051C12.5258 2.60722 15.1093 3.04529 15.1349 3.04957C15.1444 3.05124 15.1539 3.05338 15.1632 3.05597C16.1231 3.31949 16.7849 3.84897 17.1299 4.62991C17.4015 5.24438 17.4077 5.86496 17.3651 6.2774C17.342 6.50186 17.3366 6.72845 17.3491 6.95107C17.5933 11.2754 17.4253 16.1857 17.4123 16.5496C17.4645 17.0562 17.462 17.4216 17.8669 17.605C19.9323 18.541 19.4434 19.5373 21.0767 19.7529C21.3631 19.7907 21.6593 19.8298 21.8717 20.0992C22.1199 20.4143 22.0023 20.8741 21.5647 21.299C20.8908 21.9533 19.7596 22.2994 18.9885 21.6546C18.135 20.9403 16.9092 20.6435 15.6257 20.8402C15.0733 20.9247 14.5874 20.7334 14.258 20.3014C13.8858 19.8133 13.7812 19.0883 14.0091 18.5775C14.256 18.024 14.1672 17.3299 14.1544 17.2404C14.1063 17.0487 13.4821 13.8827 13.2498 12.3126C13.2262 12.1525 13.3367 12.0036 13.4967 11.9799Z" fill="#2E2F31" stroke="#2E2F31" stroke-width="0.3"/>
</g>
<defs>
<clipPath id="clip0">
<rect width="20" height="20" fill="white" transform="translate(2 2)"/>
</clipPath>
</defs>
</svg>
