<svg width="24" height="24" viewBox="0 0 24 24" fill="none" xmlns="http://www.w3.org/2000/svg">
<path d="M10.7522 15.3608C10.8051 15.3169 10.8577 15.2734 10.9101 15.2304C11.0402 15.1237 11.2389 15.1421 11.3538 15.2718C11.4688 15.4014 11.4578 15.5916 11.3265 15.6998C11.2748 15.7422 11.2229 15.7851 11.171 15.8281C11.0414 15.9356 10.8427 15.918 10.7272 15.7889C10.6131 15.6617 10.6224 15.4734 10.7468 15.3652C10.7486 15.3637 10.7504 15.3623 10.7522 15.3608Z" fill="#EF1733"/>
<path d="M9.8446 16.9059C9.85925 16.8383 9.87418 16.771 9.88908 16.7038L9.88982 16.7006C9.92839 16.5361 10.0975 16.4321 10.2692 16.4681C10.4418 16.5045 10.5516 16.6687 10.5147 16.8352C10.4998 16.9014 10.4851 16.968 10.4705 17.0346C10.4342 17.2025 10.2645 17.3074 10.0915 17.2719C9.91874 17.2363 9.80813 17.0724 9.8446 16.9059Z" fill="#EF1733"/>
<path d="M10.3748 18.5039C10.378 18.6757 10.2367 18.8142 10.0602 18.8164C9.88344 18.8187 9.73809 18.6824 9.73519 18.512C9.73406 18.443 9.73311 18.3739 9.73233 18.3046C9.73217 18.2998 9.73236 18.2948 9.73253 18.29C9.73856 18.1264 9.87693 17.9951 10.0485 17.9937C10.2251 17.9921 10.37 18.1291 10.372 18.2994C10.3728 18.3676 10.3737 18.4357 10.3748 18.5039Z" fill="#EF1733"/>
<path d="M11.2804 21.5052C11.3826 21.6396 11.3496 21.8292 11.2066 21.9286C11.0636 22.0281 10.8646 21.9997 10.7624 21.8651C10.721 21.8108 10.6795 21.7556 10.6378 21.6994C10.6282 21.6864 10.6198 21.6731 10.6126 21.6592C10.5448 21.5285 10.5862 21.3652 10.7166 21.2765C10.8607 21.1787 11.0593 21.2093 11.16 21.345C11.2002 21.3992 11.2404 21.4526 11.2804 21.5052Z" fill="#EF1733"/>
<path d="M10.5655 20.1937C10.6045 20.3604 10.4959 20.5247 10.3237 20.5616C10.1512 20.5985 9.98016 20.4936 9.94141 20.3273C9.92579 20.26 9.91028 20.1924 9.8949 20.1244C9.89271 20.1153 9.89116 20.1059 9.88997 20.0968C9.8696 19.9401 9.97622 19.792 10.1393 19.758C10.3119 19.7222 10.4822 19.8281 10.52 19.9948C10.5351 20.0615 10.5502 20.1278 10.5655 20.1937Z" fill="#EF1733"/>
<path d="M13.257 15.3626C13.2065 15.3184 13.1563 15.2746 13.1063 15.2313C12.9821 15.1238 12.7919 15.1411 12.6816 15.2701C12.5712 15.399 12.5811 15.5893 12.7065 15.6982C12.7558 15.7409 12.8053 15.7841 12.8549 15.8274C12.9786 15.9357 13.1688 15.9193 13.2797 15.7908C13.3892 15.6643 13.3808 15.476 13.2621 15.3671C13.2604 15.3655 13.2587 15.3642 13.257 15.3626Z" fill="#EF1733"/>
<path d="M14.1211 16.9132C14.1073 16.8455 14.0932 16.7781 14.0791 16.7108L14.0785 16.7076C14.042 16.5429 13.8805 16.4379 13.7161 16.4729C13.5508 16.5083 13.4452 16.6718 13.4802 16.8385C13.4942 16.9049 13.5081 16.9715 13.5219 17.0382C13.5561 17.2063 13.7181 17.3121 13.8838 17.2777C14.0492 17.2431 14.1555 17.0799 14.1211 16.9132Z" fill="#EF1733"/>
<path d="M13.609 18.5078C13.6055 18.6795 13.7403 18.8188 13.9091 18.8221C14.0783 18.8254 14.2178 18.6899 14.2211 18.5196C14.2223 18.4507 14.2235 18.3815 14.2244 18.3122C14.2246 18.3074 14.2244 18.3024 14.2242 18.2976C14.219 18.134 14.0869 18.0019 13.9227 17.9995C13.7537 17.9969 13.6148 18.133 13.6123 18.3033C13.6113 18.3714 13.6103 18.4396 13.609 18.5078Z" fill="#EF1733"/>
<path d="M12.7342 21.5036C12.6359 21.6373 12.6669 21.8272 12.8035 21.9275C12.9401 22.0277 13.1305 22.0005 13.2287 21.8666C13.2685 21.8124 13.3084 21.7575 13.3485 21.7016C13.3576 21.6887 13.3657 21.6754 13.3727 21.6615C13.4379 21.5312 13.3988 21.3676 13.2742 21.2782C13.1367 21.1796 12.9465 21.2091 12.8498 21.3441C12.8111 21.3981 12.7725 21.4512 12.7342 21.5036Z" fill="#EF1733"/>
<path d="M13.4218 20.1965C13.384 20.3629 13.4874 20.5279 13.6522 20.5658C13.8171 20.6037 13.9811 20.4998 14.0186 20.3337C14.0338 20.2665 14.0488 20.199 14.0637 20.1312C14.0658 20.122 14.0674 20.1127 14.0685 20.1036C14.0885 19.947 13.9869 19.7983 13.8309 19.7633C13.6659 19.7265 13.5025 19.8314 13.4659 19.9979C13.4513 20.0645 13.4366 20.1307 13.4218 20.1965Z" fill="#EF1733"/>
<g clip-path="url(#clip0)">
<path d="M7.59491 13.5271C7.75424 13.9521 7.9853 15.3555 7.97526 15.8373C7.96335 16.4181 7.80874 17.358 7.65924 18.267C7.63299 18.4267 7.74112 18.5774 7.90077 18.6036C8.06018 18.6301 8.2112 18.5217 8.23741 18.3621C8.39729 17.39 8.54831 16.4719 8.56108 15.8494C8.57284 15.2859 8.33088 13.821 8.14358 13.3214C7.74253 12.251 7.1062 10.8396 7.1062 9.43257C7.1062 9.12901 6.69831 9.02659 6.55495 9.29428C6.01358 10.3053 5.81108 11.8162 5.64838 13.0303C5.48483 14.2507 5.43245 14.0612 5.56381 15.3106C5.59936 15.6485 5.63608 15.998 5.62491 16.2084C5.53053 17.9954 5.04487 20.621 4.89213 21.414H3.4485C3.38807 20.5217 3.2094 17.6181 3.28991 15.5674C3.37362 13.447 3.86463 12.2545 3.88147 11.7946C3.91338 10.9387 3.99155 10.1048 4.06057 9.36917C4.12975 8.63159 4.1844 8.04905 4.16924 7.68354C4.1335 6.80745 4.14522 5.82624 4.74026 5.27066C5.29878 4.74878 7.85398 4.44535 8.7475 4.32848C8.90797 4.3075 9.02102 4.16043 9 4C8.97902 3.83957 8.83195 3.72672 8.67152 3.7475C7.61555 3.88563 5.01432 4.21261 4.3403 4.84245C3.56405 5.5673 3.5428 6.70132 3.58381 7.70761C3.59733 8.03378 3.54167 8.62725 3.47721 9.31448C3.40753 10.0578 3.3285 10.9004 3.29596 11.773C3.28393 12.1027 2.78866 13.4122 2.70444 15.5444C2.60741 18.0155 2.88045 21.6921 2.88323 21.729C2.89471 21.8818 3.0221 22 3.17538 22H5.13331C5.27276 22 5.39292 21.9017 5.42049 21.7649C5.44803 21.6285 6.09596 18.3985 6.21003 16.2394C6.22366 15.9828 6.1862 15.6265 6.14651 15.2493C6.02549 14.0978 6.06608 14.3244 6.22909 13.1081C6.331 12.3476 6.44917 11.4658 6.65506 10.6899C6.87104 11.753 7.30014 12.7403 7.59491 13.5271Z" fill="#2E2F31"/>
<path d="M21.2956 15.5444C21.2101 13.3786 20.7167 12.1186 20.7041 11.7728C20.6794 11.1122 20.5376 8.9291 20.5 8.5C20.4859 8.33883 20.3437 8.21973 20.1826 8.23375C20.0214 8.24789 19.9022 8.39 19.9163 8.55121C19.9534 8.97399 20.0944 11.1473 20.1185 11.7945C20.1354 12.2542 20.6264 13.4482 20.7101 15.5675C20.7906 17.6177 20.6119 20.5217 20.5515 21.4141H19.1079C18.9551 20.621 18.4695 17.996 18.3751 16.2084C18.3639 15.998 18.4007 15.6486 18.4362 15.3107C18.5676 14.0609 18.5155 14.2531 18.3516 13.0303C18.1889 11.8163 17.9864 10.3053 17.445 9.29437C17.3019 9.02691 16.8938 9.12874 16.8938 9.43265C16.8938 10.8269 16.2714 12.2135 15.8564 13.3214C15.6691 13.8211 15.4271 15.286 15.4389 15.8495C15.4517 16.4727 15.6022 17.3873 15.7764 18.4463C15.9284 19.37 16.0987 20.405 16.2034 21.4141H12.293L12.293 14.793C12.293 14.6311 12.1618 14.5 12 14.5C11.8382 14.5 11.707 14.6311 11.707 14.793L11.7071 21.4141H7.79659C7.8512 20.8877 8.13621 19.0363 8.24477 18.3344C8.26949 18.1745 8.15992 18.0248 8 18.0001C7.84031 17.9755 7.69043 18.0849 7.6657 18.2448C7.53281 19.1043 7.23784 21.0597 7.1821 21.6809C7.16675 21.852 7.30155 22.0001 7.4739 22.0001H16.5262C16.6987 22.0001 16.8334 21.8519 16.818 21.6809C16.7167 20.5514 16.5244 19.3825 16.3547 18.3513C16.1841 17.3144 16.0367 16.4188 16.0248 15.8374C16.0148 15.3555 16.2458 13.9522 16.4052 13.5271C16.7016 12.7357 17.1291 11.7527 17.3449 10.6901C17.5508 11.4659 17.669 12.3477 17.7709 13.1082C17.9339 14.3245 17.9745 14.0979 17.8535 15.2494C17.8138 15.6266 17.7764 15.9829 17.7899 16.2394C17.904 18.3986 18.5519 21.6286 18.5795 21.765C18.6071 21.9018 18.7272 22.0001 18.8667 22.0001H20.8246C20.9779 22.0001 21.1053 21.882 21.1167 21.7291C21.1196 21.6922 21.3926 18.0155 21.2956 15.5444Z" fill="#2E2F31"/>
<path d="M8.69326 4.2691C9.12494 4.2152 9.35123 4.16891 9.50029 4.10402C10.1208 3.83438 10.6654 3.26039 10.742 2.58594H13.2577C13.3361 3.28969 13.9204 3.85219 14.4998 4.10395C14.7361 4.2068 15.1796 4.25664 15.7935 4.32566C16.9048 4.45059 18.5842 4.63938 19.2599 5.27074C19.8549 5.82629 19.8666 6.8075 19.8309 7.6834C19.8189 7.97285 19.8525 8.4093 19.8905 8.83781C19.9041 8.99012 20.0319 9.10488 20.182 9.10484C20.1907 9.10484 20.1995 9.10445 20.2083 9.10371C20.3694 9.08941 20.4885 8.94711 20.4742 8.78594C20.4378 8.37715 20.4057 7.96359 20.4163 7.7075C20.4573 6.70141 20.4361 5.56738 19.6599 4.84258C18.8425 4.07879 17.118 3.88492 15.8589 3.7434C15.3602 3.6873 14.8891 3.63437 14.7335 3.56664C14.2434 3.35371 13.7794 2.85934 13.8405 2.32637C13.85 2.2434 13.8237 2.16031 13.7681 2.09797C13.7124 2.03562 13.6329 2 13.5494 2H10.4508C10.3673 2 10.2878 2.03562 10.2322 2.09797C10.1766 2.16031 10.1503 2.2434 10.1598 2.32637C10.2209 2.85934 9.75682 3.35371 9.26666 3.56672C9.13678 3.62324 8.74838 3.67172 8.62072 3.6877C8.46017 3.70777 8.34623 3.85418 8.36631 4.01473C8.38639 4.17527 8.53244 4.28906 8.69326 4.2691Z" fill="#2E2F31"/>
<path d="M10.5388 6.7133C10.5342 6.73248 10.064 8.64822 8.6864 9.99697C8.57078 10.1102 8.56883 10.2956 8.68203 10.4113C8.79519 10.5269 8.9807 10.5288 9.09632 10.4156C10.5982 8.94525 11.0887 6.93369 11.1088 6.84877C11.1462 6.69143 11.0489 6.53373 10.8916 6.49627C10.7342 6.45893 10.5764 6.55607 10.5388 6.7133Z" fill="#2E2F31"/>
<path d="M13.7512 6.71317C13.7137 6.5559 13.5558 6.45883 13.3985 6.49594C13.2411 6.53332 13.1437 6.69122 13.1811 6.84864C13.2012 6.93356 13.6917 8.94512 15.1935 10.4155C15.3091 10.5287 15.4946 10.5268 15.6078 10.4111C15.721 10.2955 15.7191 10.11 15.6035 9.99684C14.2264 8.6486 13.7561 6.73379 13.7512 6.71317Z" fill="#2E2F31"/>
</g>
<defs>
<clipPath id="clip0">
<rect width="20" height="20" fill="white" transform="translate(2 2)"/>
</clipPath>
</defs>
</svg>
