<svg width="24" height="24" viewBox="0 0 24 24" fill="none" xmlns="http://www.w3.org/2000/svg">
<g clip-path="url(#clip0)">
<path d="M7.59491 13.5271C7.75424 13.9521 7.9853 15.3555 7.97526 15.8373C7.96335 16.4181 7.80874 17.358 7.65924 18.267C7.63299 18.4267 7.74112 18.5774 7.90077 18.6036C8.06018 18.6301 8.2112 18.5217 8.23741 18.3621C8.39729 17.39 8.54831 16.4719 8.56108 15.8494C8.57284 15.2859 8.33088 13.821 8.14358 13.3214C7.74253 12.251 7.1062 10.8396 7.1062 9.43257C7.1062 9.12901 6.69831 9.02659 6.55495 9.29428C6.01358 10.3053 5.81108 11.8162 5.64838 13.0303C5.48483 14.2507 5.43245 14.0612 5.56381 15.3106C5.59936 15.6485 5.63608 15.998 5.62491 16.2084C5.53053 17.9954 5.04487 20.621 4.89213 21.414H3.4485C3.38807 20.5217 3.2094 17.6181 3.28991 15.5674C3.37362 13.447 3.86463 12.2545 3.88147 11.7946C3.91338 10.9387 3.99155 10.1048 4.06057 9.36917C4.12975 8.63159 4.1844 8.04905 4.16924 7.68354C4.1335 6.80745 4.14522 5.82624 4.74026 5.27066C5.29878 4.74878 7.85398 4.44535 8.7475 4.32848C8.90797 4.3075 9.02102 4.16043 9 4C8.97902 3.83957 8.83195 3.72672 8.67152 3.7475C7.61555 3.88563 5.01432 4.21261 4.3403 4.84245C3.56405 5.5673 3.5428 6.70132 3.58381 7.70761C3.59733 8.03378 3.54167 8.62725 3.47721 9.31448C3.40753 10.0578 3.3285 10.9004 3.29596 11.773C3.28393 12.1027 2.78866 13.4122 2.70444 15.5444C2.60741 18.0155 2.88045 21.6921 2.88323 21.729C2.89471 21.8818 3.0221 22 3.17538 22H5.13331C5.27276 22 5.39292 21.9017 5.42049 21.7649C5.44803 21.6285 6.09596 18.3985 6.21003 16.2394C6.22366 15.9828 6.1862 15.6265 6.14651 15.2493C6.02549 14.0978 6.06608 14.3244 6.22909 13.1081C6.331 12.3476 6.44917 11.4658 6.65506 10.6899C6.87104 11.753 7.30014 12.7403 7.59491 13.5271Z" fill="#2E2F31"/>
<path d="M21.2956 15.5444C21.2101 13.3786 20.7167 12.1186 20.7041 11.7728C20.6794 11.1122 20.5376 8.9291 20.5 8.5C20.4859 8.33883 20.3437 8.21973 20.1826 8.23375C20.0214 8.24789 19.9022 8.39 19.9163 8.55121C19.9534 8.97399 20.0944 11.1473 20.1185 11.7945C20.1354 12.2542 20.6264 13.4482 20.7101 15.5675C20.7906 17.6177 20.6119 20.5217 20.5515 21.4141H19.1079C18.9551 20.621 18.4695 17.996 18.3751 16.2084C18.3639 15.998 18.4007 15.6486 18.4362 15.3107C18.5676 14.0609 18.5155 14.2531 18.3516 13.0303C18.1889 11.8163 17.9864 10.3053 17.445 9.29437C17.3019 9.02691 16.8938 9.12874 16.8938 9.43265C16.8938 10.8269 16.2714 12.2135 15.8564 13.3214C15.6691 13.8211 15.4271 15.286 15.4389 15.8495C15.4517 16.4727 15.6022 17.3873 15.7764 18.4463C15.9284 19.37 16.0987 20.405 16.2034 21.4141L8.5 21.5L12.293 21.793C12.293 21.6311 12.1618 21.5 12 21.5C11.8382 21.5 11.707 21.6311 11.707 21.793L14 21.5L7.79659 21.4141C7.8512 20.8877 8.13621 19.0363 8.24477 18.3344C8.26949 18.1745 8.15992 18.0248 8 18.0001C7.84031 17.9755 7.69043 18.0849 7.6657 18.2448C7.53281 19.1043 7.23784 21.0597 7.1821 21.6809C7.16675 21.852 7.30155 22.0001 7.4739 22.0001H16.5262C16.6987 22.0001 16.8334 21.8519 16.818 21.6809C16.7167 20.5514 16.5244 19.3825 16.3547 18.3513C16.1841 17.3144 16.0367 16.4188 16.0248 15.8374C16.0148 15.3555 16.2458 13.9522 16.4052 13.5271C16.7016 12.7357 17.1291 11.7527 17.3449 10.6901C17.5508 11.4659 17.669 12.3477 17.7709 13.1082C17.9339 14.3245 17.9745 14.0979 17.8535 15.2494C17.8138 15.6266 17.7764 15.9829 17.7899 16.2394C17.904 18.3986 18.5519 21.6286 18.5795 21.765C18.6071 21.9018 18.7272 22.0001 18.8667 22.0001H20.8246C20.9779 22.0001 21.1053 21.882 21.1167 21.7291C21.1196 21.6922 21.3926 18.0155 21.2956 15.5444Z" fill="#2E2F31"/>
<path d="M8.69326 4.2691C9.12494 4.2152 9.35123 4.16891 9.50029 4.10402C10.1208 3.83438 10.6654 3.26039 10.742 2.58594H13.2577C13.3361 3.28969 13.9204 3.85219 14.4998 4.10395C14.7361 4.2068 15.1796 4.25664 15.7935 4.32566C16.9048 4.45059 18.5842 4.63938 19.2599 5.27074C19.8549 5.82629 19.8666 6.8075 19.8309 7.6834C19.8189 7.97285 19.8525 8.4093 19.8905 8.83781C19.9041 8.99012 20.0319 9.10488 20.182 9.10484C20.1907 9.10484 20.1995 9.10445 20.2083 9.10371C20.3694 9.08941 20.4885 8.94711 20.4742 8.78594C20.4378 8.37715 20.4057 7.96359 20.4163 7.7075C20.4573 6.70141 20.4361 5.56738 19.6599 4.84258C18.8425 4.07879 17.118 3.88492 15.8589 3.7434C15.3602 3.6873 14.8891 3.63437 14.7335 3.56664C14.2434 3.35371 13.7794 2.85934 13.8405 2.32637C13.85 2.2434 13.8237 2.16031 13.7681 2.09797C13.7124 2.03562 13.6329 2 13.5494 2H10.4508C10.3673 2 10.2878 2.03562 10.2322 2.09797C10.1766 2.16031 10.1503 2.2434 10.1598 2.32637C10.2209 2.85934 9.75682 3.35371 9.26666 3.56672C9.13678 3.62324 8.74838 3.67172 8.62072 3.6877C8.46017 3.70777 8.34623 3.85418 8.36631 4.01473C8.38639 4.17527 8.53244 4.28906 8.69326 4.2691Z" fill="#2E2F31"/>
<path d="M7.95765 8.5644C7.8978 8.53349 7.83836 8.50281 7.77917 8.47264C7.63223 8.39776 7.45011 8.45979 7.3725 8.6114C7.29476 8.76294 7.34932 8.94546 7.49774 9.02152C7.55611 9.05125 7.61473 9.08148 7.67349 9.11179C7.8201 9.18759 8.00247 9.12642 8.08076 8.97518C8.15816 8.82621 8.10563 8.64516 7.96373 8.56754C7.96169 8.56642 7.9597 8.56552 7.95765 8.5644Z" fill="#EF1733"/>
<path d="M9.16882 9.86581C9.13935 9.80334 9.10966 9.74116 9.08004 9.67912L9.07862 9.67623C9.00412 9.52476 8.82123 9.46113 8.66854 9.53426C8.51505 9.60796 8.4502 9.792 8.52368 9.94577C8.55302 10.0069 8.58235 10.0683 8.61154 10.1299C8.68465 10.2851 8.86826 10.3494 9.02232 10.2765C9.17616 10.2035 9.2418 10.0197 9.16882 9.86581Z" fill="#EF1733"/>
<path d="M9.04339 11.5373C9.08039 11.7051 9.2452 11.8084 9.41128 11.7714C9.57771 11.7344 9.68235 11.5696 9.64543 11.4033C9.63043 11.3359 9.61523 11.2685 9.59983 11.2009C9.59885 11.1962 9.59752 11.1914 9.59624 11.1867C9.55252 11.029 9.39211 10.932 9.23078 10.9687C9.06472 11.0064 8.96071 11.1717 8.99841 11.3378C9.01351 11.4043 9.0286 11.4708 9.04339 11.5373Z" fill="#EF1733"/>
<path d="M8.89225 14.657C8.82757 14.8104 8.90265 14.9875 9.06 15.0524C9.21736 15.1174 9.39741 15.0457 9.46197 14.8921C9.48817 14.8301 9.51425 14.7672 9.54038 14.7033C9.54629 14.6886 9.55108 14.6737 9.55461 14.6586C9.58782 14.5164 9.51094 14.3668 9.36795 14.3095C9.21001 14.2464 9.03078 14.3202 8.96787 14.4745C8.94275 14.5362 8.91749 14.597 8.89225 14.657Z" fill="#EF1733"/>
<path d="M9.25777 13.223C9.26001 13.3938 9.40011 13.5295 9.57034 13.5272C9.74072 13.5248 9.87681 13.3848 9.87445 13.2145C9.87345 13.1456 9.87226 13.0764 9.87087 13.0069C9.87081 12.9975 9.87008 12.9881 9.86908 12.979C9.85171 12.822 9.7172 12.7017 9.55627 12.7048C9.38601 12.7082 9.25082 12.8491 9.25416 13.0195C9.25556 13.0877 9.25677 13.1556 9.25777 13.223Z" fill="#EF1733"/>
<path d="M10.7477 17.8825H10.1128C9.75207 17.8825 9.4173 17.702 9.21765 17.4002L9 17.0717L9.38901 16.8108L9.60666 17.1392C9.71957 17.31 9.90893 17.4119 10.1128 17.4119H10.7477C10.7877 17.4119 10.8277 17.4079 10.8667 17.3999L11.6532 17.2418C11.7184 17.2284 11.7661 17.17 11.7661 17.103V16H12.2336V17.103C12.2336 17.3933 12.0281 17.646 11.745 17.7032L10.9586 17.8613C10.8899 17.8754 10.8188 17.8825 10.7477 17.8825Z" fill="#2E2F31"/>
<path d="M10.866 20H10.1128C9.75207 20 9.4173 19.8196 9.21765 19.5177L9 19.1893L9.38901 18.9283L9.60666 19.2568C9.71957 19.4276 9.90893 19.5295 10.1128 19.5295H10.866C10.96 19.5295 11.0545 19.5071 11.1381 19.465L11.6885 19.1879C11.7362 19.1636 11.7661 19.1152 11.7661 19.0615V18.1178H12.2336V19.0615C12.2336 19.2944 12.1048 19.5043 11.8977 19.6088L11.3471 19.8859C11.1989 19.9605 11.0325 20 10.866 20Z" fill="#2E2F31"/>
<path d="M13.8874 17.8825H13.2525C13.1814 17.8825 13.1106 17.8754 13.0414 17.8613L12.2554 17.7032C11.9721 17.646 11.7666 17.3936 11.7666 17.103V16H12.2342V17.103C12.2342 17.17 12.2818 17.2284 12.3473 17.2418L13.1333 17.3999C13.1725 17.4079 13.2125 17.4119 13.2525 17.4119H13.8874C14.0913 17.4119 14.2807 17.3098 14.3936 17.1392L14.6112 16.8108L15.0002 17.0717L14.7826 17.4002C14.5827 17.702 14.2482 17.8825 13.8874 17.8825Z" fill="#2E2F31"/>
<path d="M10.7477 15.8825H10.1128C9.75207 15.8825 9.4173 15.702 9.21765 15.4002L9 15.0717L9.38901 14.8108L9.60666 15.1392C9.71957 15.31 9.90893 15.4119 10.1128 15.4119H10.7477C10.7877 15.4119 10.8277 15.4079 10.8667 15.3999L11.6532 15.2418C11.7184 15.2284 11.7661 15.17 11.7661 15.103V14H12.2336V15.103C12.2336 15.3933 12.0281 15.646 11.745 15.7032L10.9586 15.8613C10.8899 15.8754 10.8188 15.8825 10.7477 15.8825Z" fill="#2E2F31"/>
<path d="M13.8874 15.8825H13.2525C13.1814 15.8825 13.1106 15.8754 13.0414 15.8613L12.2554 15.7032C11.9721 15.646 11.7666 15.3936 11.7666 15.103V14H12.2342V15.103C12.2342 15.17 12.2818 15.2284 12.3473 15.2418L13.1333 15.3999C13.1725 15.4079 13.2125 15.4119 13.2525 15.4119H13.8874C14.0913 15.4119 14.2807 15.3098 14.3936 15.1392L14.6112 14.8108L15.0002 15.0717L14.7826 15.4002C14.5827 15.702 14.2482 15.8825 13.8874 15.8825Z" fill="#2E2F31"/>
<path d="M13.8872 20H13.134C12.9675 20 12.8011 19.9605 12.6526 19.8859L12.1021 19.6088C11.8947 19.5043 11.7661 19.2944 11.7661 19.0615V18.1178H12.2337V19.0615C12.2337 19.1154 12.2636 19.1639 12.3115 19.1879L12.8618 19.465C12.9455 19.5074 13.04 19.5295 13.134 19.5295H13.8872C14.091 19.5295 14.2804 19.4274 14.3933 19.2568L14.611 18.9283L15 19.1893L14.7823 19.5177C14.5824 19.8196 14.2479 20 13.8872 20Z" fill="#2E2F31"/>
<path d="M15.6466 8.54719C15.7064 8.51628 15.7659 8.4856 15.8251 8.45542C15.972 8.38054 16.1541 8.44258 16.2317 8.59419C16.3095 8.74573 16.2549 8.92825 16.1065 9.00431C16.0481 9.03404 15.9895 9.06427 15.9308 9.09458C15.7841 9.17038 15.6018 9.10921 15.5235 8.95797C15.4461 8.809 15.4986 8.62795 15.6405 8.55033C15.6426 8.54921 15.6445 8.54831 15.6466 8.54719Z" fill="#EF1733"/>
<path d="M14.4354 9.8486C14.4649 9.78613 14.4946 9.72395 14.5242 9.66191L14.5256 9.65902C14.6001 9.50754 14.783 9.44392 14.9357 9.51705C15.0892 9.59075 15.154 9.77479 15.0806 9.92856C15.0512 9.98966 15.0219 10.0511 14.9927 10.1127C14.9196 10.2679 14.736 10.3322 14.5819 10.2593C14.4281 10.1863 14.3625 10.0024 14.4354 9.8486Z" fill="#EF1733"/>
<path d="M14.5609 11.5201C14.5239 11.6879 14.359 11.7912 14.193 11.7542C14.0265 11.7172 13.9219 11.5523 13.9588 11.3861C13.9738 11.3187 13.989 11.2513 14.0044 11.1837C14.0054 11.179 14.0067 11.1742 14.008 11.1695C14.0517 11.0118 14.2121 10.9148 14.3735 10.9515C14.5395 10.9892 14.6435 11.1545 14.6058 11.3206C14.5907 11.3871 14.5756 11.4536 14.5609 11.5201Z" fill="#EF1733"/>
<path d="M14.712 14.6398C14.7767 14.7931 14.7016 14.9703 14.5442 15.0352C14.3869 15.1002 14.2068 15.0284 14.1423 14.8749C14.1161 14.8128 14.09 14.7499 14.0639 14.6861C14.058 14.6714 14.0532 14.6565 14.0496 14.6414C14.0164 14.4992 14.0933 14.3496 14.2363 14.2923C14.3942 14.2292 14.5735 14.303 14.6364 14.4573C14.6615 14.5189 14.6868 14.5798 14.712 14.6398Z" fill="#EF1733"/>
<path d="M14.3465 13.2058C14.3442 13.3766 14.2041 13.5123 14.0339 13.51C13.8635 13.5076 13.7274 13.3676 13.7298 13.1972C13.7308 13.1283 13.732 13.0592 13.7334 12.9897C13.7334 12.9803 13.7342 12.9708 13.7352 12.9617C13.7525 12.8048 13.887 12.6844 14.048 12.6875C14.2182 12.691 14.3534 12.8319 14.3501 13.0023C14.3487 13.0705 14.3475 13.1384 14.3465 13.2058Z" fill="#EF1733"/>
</g>
<defs>
<clipPath id="clip0">
<rect width="20" height="20" fill="white" transform="translate(2 2)"/>
</clipPath>
</defs>
</svg>
