<svg width="24" height="24" viewBox="0 0 24 24" fill="none" xmlns="http://www.w3.org/2000/svg">
<path d="M10.2568 11.5936C10.2395 11.5903 8.5 11.5 7.26157 10.1702C7.15703 10.0788 6.9904 10.0823 6.88937 10.1779C6.78838 10.2735 6.7912 10.4251 6.89575 10.5165C8 12 10.0725 12.0488 10.1493 12.0629C10.2916 12.0891 10.4308 12.0054 10.4605 11.8758C10.4901 11.7462 10.399 11.62 10.2568 11.5936Z" fill="#2E2F31"/>
<path d="M13.7877 11.6037C13.805 11.5996 15.5 11.5 16.7314 10.0279C16.8322 9.93096 16.9999 9.92649 17.1061 10.0179C17.2122 10.1093 17.2166 10.262 17.1159 10.3589C16 12 13.9947 12.053 13.9182 12.0709C13.7764 12.1041 13.6324 12.0264 13.5964 11.8975C13.5604 11.7685 13.646 11.6371 13.7877 11.6037Z" fill="#2E2F31"/>
<path d="M11.1477 6.74581C11.1278 6.68147 11.108 6.61757 11.0881 6.5542C11.0385 6.39692 10.8665 6.31052 10.704 6.36145C10.5414 6.41223 10.4495 6.57909 10.4993 6.73826C10.519 6.80072 10.5386 6.86372 10.5581 6.92687C10.6069 7.08457 10.7783 7.17174 10.9411 7.12156C11.1016 7.07234 11.1939 6.90796 11.1497 6.75235C11.1491 6.75011 11.1484 6.74806 11.1477 6.74581Z" fill="#EF1733"/>
<path d="M10.73 5.43113C10.7021 5.36984 10.6744 5.30897 10.6465 5.24865C10.5773 5.09894 10.3959 5.03508 10.2411 5.10623C10.0863 5.17725 10.0163 5.35443 10.0859 5.50599C10.1134 5.56544 10.1408 5.62545 10.1682 5.68561C10.2366 5.83584 10.4177 5.90053 10.5728 5.83009C10.7257 5.76088 10.7964 5.58611 10.7329 5.43736C10.732 5.43522 10.731 5.43328 10.73 5.43113Z" fill="#EF1733"/>
<path d="M11.0686 8.52177C11.0925 8.45696 11.116 8.3922 11.1395 8.32759L11.1406 8.32455C11.1964 8.16524 11.1135 7.9902 10.9543 7.93257C10.7942 7.87477 10.6175 7.95753 10.5593 8.11772C10.5363 8.18148 10.513 8.24549 10.4896 8.30944C10.4302 8.47038 10.513 8.64643 10.673 8.70519C10.8329 8.76375 11.01 8.68166 11.0686 8.52177Z" fill="#EF1733"/>
<path d="M9.78854 9.60397C9.69484 9.74795 9.73669 9.93792 9.87952 10.0304C10.0225 10.1232 10.2135 10.0822 10.3062 9.93936C10.3437 9.88145 10.3811 9.82333 10.4185 9.76498C10.4212 9.76097 10.4237 9.75666 10.4261 9.75248C10.5079 9.61074 10.4647 9.42832 10.3254 9.33901C10.1821 9.247 9.99131 9.28873 9.89931 9.43202C9.86248 9.48939 9.82565 9.54676 9.78854 9.60397Z" fill="#EF1733"/>
<path d="M7.45764 11.6833C7.30294 11.7446 7.22926 11.9223 7.29323 12.0801C7.35721 12.2378 7.53459 12.3159 7.68934 12.2544C7.75197 12.2295 7.81511 12.204 7.87896 12.1779C7.89362 12.1718 7.90756 12.1648 7.92083 12.1567C8.04548 12.0808 8.09832 11.921 8.03892 11.7789C7.97325 11.622 7.79493 11.546 7.64083 11.6092C7.57924 11.6345 7.51814 11.6592 7.45764 11.6833Z" fill="#EF1733"/>
<path d="M8.82305 10.8302C8.66326 10.8904 8.58322 11.0683 8.6433 11.2276C8.70345 11.387 8.88135 11.4674 9.04078 11.4072C9.10523 11.3829 9.1699 11.3582 9.23478 11.3333C9.24357 11.3301 9.25221 11.3262 9.26043 11.3221C9.40211 11.2525 9.46958 11.085 9.41195 10.9347C9.35079 10.7758 9.17238 10.6965 9.01323 10.7576C8.94957 10.7821 8.88613 10.8064 8.82305 10.8302Z" fill="#EF1733"/>
<path d="M12.9319 6.74581C12.9518 6.68147 12.9716 6.61757 12.9915 6.5542C13.0411 6.39692 13.2131 6.31052 13.3756 6.36145C13.5381 6.41223 13.6301 6.57909 13.5803 6.73826C13.5606 6.80072 13.541 6.86372 13.5215 6.92687C13.4727 7.08457 13.3013 7.17174 13.1385 7.12156C12.978 7.07234 12.8857 6.90796 12.9298 6.75235C12.9305 6.75011 12.9312 6.74806 12.9319 6.74581Z" fill="#EF1733"/>
<path d="M13.8753 5.40495C13.9233 5.35328 13.971 5.30198 14.0185 5.25124C14.1367 5.12532 14.3291 5.11425 14.4483 5.22675C14.5676 5.33912 14.5698 5.53077 14.4506 5.65836C14.4036 5.70836 14.3566 5.75894 14.3095 5.80963C14.192 5.93629 13.9995 5.94826 13.8798 5.83637C13.7615 5.72627 13.7579 5.53678 13.8704 5.41021C13.872 5.40838 13.8737 5.40678 13.8753 5.40495Z" fill="#EF1733"/>
<path d="M13.011 8.52177C12.9871 8.45696 12.9636 8.3922 12.9401 8.32759L12.939 8.32455C12.8832 8.16524 12.9661 7.9902 13.1252 7.93257C13.2854 7.87477 13.4621 7.95753 13.5203 8.11772C13.5433 8.18148 13.5665 8.24549 13.59 8.30944C13.6494 8.47038 13.5666 8.64643 13.4066 8.70519C13.2467 8.76375 13.0696 8.68166 13.011 8.52177Z" fill="#EF1733"/>
<path d="M14.2911 9.60397C14.3848 9.74795 14.3429 9.93792 14.2001 10.0304C14.057 10.1232 13.8661 10.0822 13.7734 9.93936C13.7359 9.88145 13.6985 9.82333 13.6611 9.76498C13.6584 9.76097 13.6559 9.75666 13.6535 9.75248C13.5716 9.61074 13.6149 9.42832 13.7542 9.33901C13.8975 9.247 14.0883 9.28873 14.1803 9.43202C14.2171 9.48939 14.2539 9.54676 14.2911 9.60397Z" fill="#EF1733"/>
<path d="M16.622 11.6833C16.7766 11.7446 16.8503 11.9223 16.7864 12.0801C16.7224 12.2378 16.545 12.3159 16.3903 12.2544C16.3276 12.2295 16.2645 12.204 16.2006 12.1779C16.186 12.1718 16.172 12.1648 16.1588 12.1567C16.0341 12.0808 15.9813 11.921 16.0407 11.7789C16.1063 11.622 16.2847 11.546 16.4388 11.6092C16.5004 11.6345 16.5614 11.6592 16.622 11.6833Z" fill="#EF1733"/>
<path d="M15.2565 10.8302C15.4163 10.8904 15.4964 11.0683 15.4363 11.2276C15.3761 11.387 15.1982 11.4674 15.0388 11.4072C14.9744 11.3829 14.9097 11.3582 14.8448 11.3333C14.836 11.3301 14.8274 11.3262 14.8192 11.3221C14.6775 11.2525 14.61 11.085 14.6676 10.9347C14.7288 10.7758 14.9072 10.6965 15.0664 10.7576C15.13 10.7821 15.1935 10.8064 15.2565 10.8302Z" fill="#EF1733"/>
<g clip-path="url(#clip0)">
<path d="M7.59491 13.5271C7.75424 13.9521 7.9853 15.3555 7.97526 15.8373C7.96335 16.4181 7.80874 17.358 7.65924 18.267C7.63299 18.4267 7.74112 18.5774 7.90077 18.6036C8.06018 18.6301 8.2112 18.5217 8.23741 18.3621C8.39729 17.39 8.54831 16.4719 8.56108 15.8494C8.57284 15.2859 8.33088 13.821 8.14358 13.3214C7.74253 12.251 7.1062 10.8396 7.1062 9.43257C7.1062 9.12901 6.69831 9.02659 6.55495 9.29428C6.01358 10.3053 5.81108 11.8162 5.64838 13.0303C5.48483 14.2507 5.43245 14.0612 5.56381 15.3106C5.59936 15.6485 5.63608 15.998 5.62491 16.2084C5.53053 17.9954 5.04487 20.621 4.89213 21.414H3.4485C3.38807 20.5217 3.2094 17.6181 3.28991 15.5674C3.37362 13.447 3.86463 12.2545 3.88147 11.7946C3.91338 10.9387 3.99155 10.1048 4.06057 9.36917C4.12975 8.63159 4.1844 8.04905 4.16924 7.68354C4.1335 6.80745 4.14522 5.82624 4.74026 5.27066C5.29878 4.74878 7.85398 4.44535 8.7475 4.32848C8.90797 4.3075 9.02102 4.16043 9 4C8.97902 3.83957 8.83195 3.72672 8.67152 3.7475C7.61555 3.88563 5.01432 4.21261 4.3403 4.84245C3.56405 5.5673 3.5428 6.70132 3.58381 7.70761C3.59733 8.03378 3.54167 8.62725 3.47721 9.31448C3.40753 10.0578 3.3285 10.9004 3.29596 11.773C3.28393 12.1027 2.78866 13.4122 2.70444 15.5444C2.60741 18.0155 2.88045 21.6921 2.88323 21.729C2.89471 21.8818 3.0221 22 3.17538 22H5.13331C5.27276 22 5.39292 21.9017 5.42049 21.7649C5.44803 21.6285 6.09596 18.3985 6.21003 16.2394C6.22366 15.9828 6.1862 15.6265 6.14651 15.2493C6.02549 14.0978 6.06608 14.3244 6.22909 13.1081C6.331 12.3476 6.44917 11.4658 6.65506 10.6899C6.87104 11.753 7.30014 12.7403 7.59491 13.5271Z" fill="#2E2F31"/>
<path d="M21.2956 15.5444C21.2101 13.3786 20.7167 12.1186 20.7041 11.7728C20.6794 11.1122 20.5376 8.9291 20.5 8.5C20.4859 8.33883 20.3437 8.21973 20.1826 8.23375C20.0214 8.24789 19.9022 8.39 19.9163 8.55121C19.9534 8.97399 20.0944 11.1473 20.1185 11.7945C20.1354 12.2542 20.6264 13.4482 20.7101 15.5675C20.7906 17.6177 20.6119 20.5217 20.5515 21.4141H19.1079C18.9551 20.621 18.4695 17.996 18.3751 16.2084C18.3639 15.998 18.4007 15.6486 18.4362 15.3107C18.5676 14.0609 18.5155 14.2531 18.3516 13.0303C18.1889 11.8163 17.9864 10.3053 17.445 9.29437C17.3019 9.02691 16.8938 9.12874 16.8938 9.43265C16.8938 10.8269 16.2714 12.2135 15.8564 13.3214C15.6691 13.8211 15.4271 15.286 15.4389 15.8495C15.4517 16.4727 15.6022 17.3873 15.7764 18.4463C15.9284 19.37 16.0987 20.405 16.2034 21.4141H12.293L10.5 21.5C8.20703 21.707 12.1618 21.5 12 21.5C11.8382 21.5 13.5 21.5 11.7071 21.4141H7.79659C7.8512 20.8877 8.13621 19.0363 8.24477 18.3344C8.26949 18.1745 8.15992 18.0248 8 18.0001C7.84031 17.9755 7.69043 18.0849 7.6657 18.2448C7.53281 19.1043 7.23784 21.0597 7.1821 21.6809C7.16675 21.852 7.30155 22.0001 7.4739 22.0001H16.5262C16.6987 22.0001 16.8334 21.8519 16.818 21.6809C16.7167 20.5514 16.5244 19.3825 16.3547 18.3513C16.1841 17.3144 16.0367 16.4188 16.0248 15.8374C16.0148 15.3555 16.2458 13.9522 16.4052 13.5271C16.7016 12.7357 17.1291 11.7527 17.3449 10.6901C17.5508 11.4659 17.669 12.3477 17.7709 13.1082C17.9339 14.3245 17.9745 14.0979 17.8535 15.2494C17.8138 15.6266 17.7764 15.9829 17.7899 16.2394C17.904 18.3986 18.5519 21.6286 18.5795 21.765C18.6071 21.9018 18.7272 22.0001 18.8667 22.0001H20.8246C20.9779 22.0001 21.1053 21.882 21.1167 21.7291C21.1196 21.6922 21.3926 18.0155 21.2956 15.5444Z" fill="#2E2F31"/>
<path d="M8.69326 4.2691C9.12494 4.2152 9.35123 4.16891 9.50029 4.10402C10.1208 3.83438 10.6654 3.26039 10.742 2.58594H13.2577C13.3361 3.28969 13.9204 3.85219 14.4998 4.10395C14.7361 4.2068 15.1796 4.25664 15.7935 4.32566C16.9048 4.45059 18.5842 4.63938 19.2599 5.27074C19.8549 5.82629 19.8666 6.8075 19.8309 7.6834C19.8189 7.97285 19.8525 8.4093 19.8905 8.83781C19.9041 8.99012 20.0319 9.10488 20.182 9.10484C20.1907 9.10484 20.1995 9.10445 20.2083 9.10371C20.3694 9.08941 20.4885 8.94711 20.4742 8.78594C20.4378 8.37715 20.4057 7.96359 20.4163 7.7075C20.4573 6.70141 20.4361 5.56738 19.6599 4.84258C18.8425 4.07879 17.118 3.88492 15.8589 3.7434C15.3602 3.6873 14.8891 3.63437 14.7335 3.56664C14.2434 3.35371 13.7794 2.85934 13.8405 2.32637C13.85 2.2434 13.8237 2.16031 13.7681 2.09797C13.7124 2.03562 13.6329 2 13.5494 2H10.4508C10.3673 2 10.2878 2.03562 10.2322 2.09797C10.1766 2.16031 10.1503 2.2434 10.1598 2.32637C10.2209 2.85934 9.75682 3.35371 9.26666 3.56672C9.13678 3.62324 8.74838 3.67172 8.62072 3.6877C8.46017 3.70777 8.34623 3.85418 8.36631 4.01473C8.38639 4.17527 8.53244 4.28906 8.69326 4.2691Z" fill="#2E2F31"/>
<path d="M10.7477 16.8825H10.1128C9.75207 16.8825 9.4173 16.702 9.21765 16.4002L9 16.0717L9.38901 15.8108L9.60666 16.1392C9.71957 16.31 9.90893 16.4119 10.1128 16.4119H10.7477C10.7877 16.4119 10.8277 16.4079 10.8667 16.3999L11.6532 16.2418C11.7184 16.2284 11.7661 16.17 11.7661 16.103V15H12.2336V16.103C12.2336 16.3933 12.0281 16.646 11.745 16.7032L10.9586 16.8613C10.8899 16.8754 10.8188 16.8825 10.7477 16.8825Z" fill="#2E2F31"/>
<path d="M10.866 19H10.1128C9.75207 19 9.4173 18.8196 9.21765 18.5177L9 18.1893L9.38901 17.9283L9.60666 18.2568C9.71957 18.4276 9.90893 18.5295 10.1128 18.5295H10.866C10.96 18.5295 11.0545 18.5071 11.1381 18.465L11.6885 18.1879C11.7362 18.1636 11.7661 18.1152 11.7661 18.0615V17.1178H12.2336V18.0615C12.2336 18.2944 12.1048 18.5043 11.8977 18.6088L11.3471 18.8859C11.1989 18.9605 11.0325 19 10.866 19Z" fill="#2E2F31"/>
<path d="M13.8874 16.8825H13.2525C13.1814 16.8825 13.1106 16.8754 13.0414 16.8613L12.2554 16.7032C11.9721 16.646 11.7666 16.3936 11.7666 16.103V15H12.2342V16.103C12.2342 16.17 12.2818 16.2284 12.3473 16.2418L13.1333 16.3999C13.1725 16.4079 13.2125 16.4119 13.2525 16.4119H13.8874C14.0913 16.4119 14.2807 16.3098 14.3936 16.1392L14.6112 15.8108L15.0002 16.0717L14.7826 16.4002C14.5827 16.702 14.2482 16.8825 13.8874 16.8825Z" fill="#2E2F31"/>
<path d="M10.7477 14.8825H10.1128C9.75207 14.8825 9.4173 14.702 9.21765 14.4002L9 14.0717L9.38901 13.8108L9.60666 14.1392C9.71957 14.31 9.90893 14.4119 10.1128 14.4119H10.7477C10.7877 14.4119 10.8277 14.4079 10.8667 14.3999L11.6532 14.2418C11.7184 14.2284 11.7661 14.17 11.7661 14.103V13H12.2336V14.103C12.2336 14.3933 12.0281 14.646 11.745 14.7032L10.9586 14.8613C10.8899 14.8754 10.8188 14.8825 10.7477 14.8825Z" fill="#2E2F31"/>
<path d="M13.8874 14.8825H13.2525C13.1814 14.8825 13.1106 14.8754 13.0414 14.8613L12.2554 14.7032C11.9721 14.646 11.7666 14.3936 11.7666 14.103V13H12.2342V14.103C12.2342 14.17 12.2818 14.2284 12.3473 14.2418L13.1333 14.3999C13.1725 14.4079 13.2125 14.4119 13.2525 14.4119H13.8874C14.0913 14.4119 14.2807 14.3098 14.3936 14.1392L14.6112 13.8108L15.0002 14.0717L14.7826 14.4002C14.5827 14.702 14.2482 14.8825 13.8874 14.8825Z" fill="#2E2F31"/>
<path d="M13.8872 19H13.134C12.9675 19 12.8011 18.9605 12.6526 18.8859L12.1021 18.6088C11.8947 18.5043 11.7661 18.2944 11.7661 18.0615V17.1178H12.2337V18.0615C12.2337 18.1154 12.2636 18.1639 12.3115 18.1879L12.8618 18.465C12.9455 18.5074 13.04 18.5295 13.134 18.5295H13.8872C14.091 18.5295 14.2804 18.4274 14.3933 18.2568L14.611 17.9283L15 18.1893L14.7823 18.5177C14.5824 18.8196 14.2479 19 13.8872 19Z" fill="#2E2F31"/>
</g>
<defs>
<clipPath id="clip0">
<rect width="20" height="20" fill="white" transform="translate(2 2)"/>
</clipPath>
</defs>
</svg>
