<svg width="24" height="24" viewBox="0 0 24 24" fill="none" xmlns="http://www.w3.org/2000/svg">
<path d="M4.61711 3.45379C4.55791 3.37039 4.49913 3.28755 4.44113 3.20496C4.29721 2.99989 4.34011 2.70002 4.53729 2.53531C4.73432 2.3704 5.00887 2.40089 5.15485 2.6079C5.212 2.68936 5.26994 2.77107 5.32801 2.85296C5.47317 3.05725 5.43155 3.35723 5.23509 3.52289C5.04163 3.68652 4.7697 3.65874 4.62313 3.46227C4.62101 3.45943 4.61922 3.45663 4.61711 3.45379Z" fill="#EF1733"/>
<path d="M6.78083 4.94207C6.68415 4.91494 6.58782 4.8874 6.49172 4.85992L6.48724 4.85857C6.25205 4.7881 6.11518 4.52412 6.18133 4.26649C6.2481 4.00746 6.49481 3.8529 6.73303 3.92112C6.82772 3.94844 6.92293 3.97566 7.01821 4.00262C7.25838 4.06985 7.39646 4.33472 7.33097 4.59439C7.26532 4.85376 7.01902 5.0095 6.78083 4.94207Z" fill="#EF1733"/>
<path d="M9.13833 4.25511C9.38736 4.26281 9.57642 4.48712 9.56521 4.75479C9.55419 5.02299 9.34489 5.23341 9.09799 5.22539C8.99798 5.22208 8.89776 5.21848 8.79733 5.21462C8.79033 5.2145 8.78314 5.21386 8.77618 5.21324C8.53979 5.1922 8.36081 4.97285 8.37277 4.71261C8.38492 4.44476 8.59508 4.23518 8.84187 4.24446C8.94067 4.24818 9.03948 4.2519 9.13833 4.25511Z" fill="#EF1733"/>
<path d="M13.5588 3.10106C13.7617 2.95581 14.0337 3.01962 14.166 3.24371C14.2984 3.46781 14.2411 3.76733 14.0379 3.91244C13.9558 3.97127 13.8725 4.03014 13.7878 4.08938C13.7682 4.10287 13.7482 4.11465 13.7274 4.12458C13.5326 4.21786 13.2994 4.14317 13.1817 3.93901C13.0518 3.71348 13.1123 3.4146 13.3169 3.27183C13.3988 3.21479 13.4793 3.15779 13.5588 3.10106Z" fill="#EF1733"/>
<path d="M11.601 4.08905C11.8456 4.04215 12.0748 4.21867 12.1142 4.48252C12.1536 4.74663 11.9878 4.99833 11.7437 5.04495C11.645 5.06373 11.5458 5.08231 11.4461 5.10068C11.4327 5.10334 11.419 5.10501 11.4058 5.10614C11.1771 5.1256 10.9713 4.95317 10.9353 4.70346C10.8975 4.43921 11.0648 4.18866 11.3093 4.14353C11.4071 4.12558 11.5044 4.10741 11.601 4.08905Z" fill="#EF1733"/>
<path d="M2.74203 2H2.74738C4.27753 2.01068 7.51285 2.19501 9.1875 2.3125C9.34894 2.32394 9.47055 2.46387 9.45926 2.62531C9.44781 2.78674 9.30774 2.9082 9.14645 2.89706C7.48401 2.78033 4.2612 2.59662 2.74341 2.58594H2.74219C2.65598 2.58594 2.58594 2.65567 2.58594 2.74173V8.89346C2.58594 8.97769 2.6517 9.0459 2.73578 9.04895C6.6228 9.18765 11.4577 8.95999 13.3731 7.90515C13.7491 7.68451 14.2624 7.35339 14.2676 7.35019C14.4034 7.2623 14.5848 7.30136 14.6726 7.43732C14.7603 7.57327 14.7213 7.75455 14.5853 7.84229C14.5662 7.85464 14.1628 8.11496 13.8018 8.33194C13.7781 8.83624 13.7137 10.4804 13.7949 11.9339C13.8037 12.0955 13.875 12.625 13.5625 12.625C13.5569 12.6253 13.2555 12.3125 13.25 12.3125C13.25 12.3125 13.2184 12.1225 13.2099 11.9666C13.1404 10.725 13.1752 9.35001 13.2024 8.63574C10.4157 9.80579 4.53326 9.69943 2.71487 9.63443C2.31403 9.62024 2 9.29477 2 8.89346V2.74173C2 2.33096 2.33279 2 2.74203 2Z" fill="#2E2F31" stroke="#2E2F31" stroke-width="0.3"/>
<path d="M13.4967 11.9799C13.6565 11.9564 13.8057 12.0669 13.8294 12.2268C14.0673 13.8351 14.7202 17.0885 14.7258 17.1107C14.7278 17.1184 14.7295 17.1262 14.7307 17.1342C14.737 17.1717 14.8804 18.0623 14.5441 18.8163C14.4231 19.0876 14.4574 19.5966 14.7239 19.9462C14.923 20.2071 15.1963 20.313 15.537 20.261C16.9866 20.039 18.3818 20.383 19.3645 21.205C19.8081 21.5763 20.4854 21.3916 20.9598 21.0441C21.3277 20.7744 21.4337 20.5156 21.4115 20.4619C21.3523 20.387 21.2462 20.3663 20.9999 20.3338C19.114 20.0849 19.5171 18.9962 17.6249 18.1388C16.8724 17.7978 16.8785 17.067 16.8274 16.5909C16.8259 16.5769 16.8254 16.5627 16.8259 16.5485C16.8279 16.4979 17.015 11.4272 16.7641 6.98419C16.7498 6.73059 16.7559 6.47256 16.7823 6.21713C16.8612 5.45328 16.7368 4.10272 15.022 3.62482C14.8114 3.58957 12.3125 3.17713 8.89883 2.88431C8.73755 2.87043 8.61807 2.72852 8.63196 2.56739C8.64569 2.4061 8.7876 2.28678 8.94873 2.30051C12.5258 2.60722 15.1093 3.04529 15.1349 3.04957C15.1444 3.05124 15.1539 3.05338 15.1632 3.05597C16.1231 3.31949 16.7849 3.84897 17.1299 4.62991C17.4015 5.24438 17.4077 5.86496 17.3651 6.2774C17.342 6.50186 17.3366 6.72845 17.3491 6.95107C17.5933 11.2754 17.4253 16.1857 17.4123 16.5496C17.4645 17.0562 17.462 17.4216 17.8669 17.605C19.9323 18.541 19.4434 19.5373 21.0767 19.7529C21.3631 19.7907 21.6593 19.8298 21.8717 20.0992C22.1199 20.4143 22.0023 20.8741 21.5647 21.299C20.8908 21.9533 19.7596 22.2994 18.9885 21.6546C18.135 20.9403 16.9092 20.6435 15.6257 20.8402C15.0733 20.9247 14.5874 20.7334 14.258 20.3014C13.8858 19.8133 13.7812 19.0883 14.0091 18.5775C14.256 18.024 14.1672 17.3299 14.1544 17.2404C14.1063 17.0487 13.4821 13.8827 13.2498 12.3126C13.2262 12.1525 13.3367 12.0036 13.4967 11.9799Z" fill="#2E2F31" stroke="#2E2F31" stroke-width="0.3"/>
</svg>
