<svg width="24" height="24" viewBox="0 0 24 24" fill="none" xmlns="http://www.w3.org/2000/svg">
<path d="M7.59469 13.5271C7.75403 13.9521 7.98509 15.3555 7.97505 15.8374C7.96313 16.4181 7.80852 17.3581 7.65903 18.2671C7.63278 18.4268 7.74091 18.5775 7.90056 18.6037C8.05997 18.6302 8.21099 18.5218 8.2372 18.3621C8.39708 17.3901 8.5481 16.4719 8.56087 15.8495C8.57263 15.286 8.33068 13.8211 8.14337 13.3215C7.74231 12.251 7.10598 10.8396 7.10598 9.4326C7.10598 9.12904 6.69809 9.02662 6.55473 9.29432C6.01336 10.3053 5.81086 11.8162 5.64816 13.0303C5.4846 14.2508 5.43222 14.0613 5.56359 15.3106C5.59913 15.6486 5.63585 15.9981 5.62468 16.2085C5.53031 17.9955 5.04464 20.6211 4.8919 21.4141H3.44826C3.38783 20.5218 3.20916 17.6182 3.28967 15.5675C3.37338 13.4471 3.8644 12.2546 3.88123 11.7946C3.91315 10.9387 3.99131 10.1049 4.06034 9.3692C4.12952 8.63162 4.18417 8.04908 4.16901 7.68357C4.13327 6.80747 4.14499 5.82625 4.74003 5.27067C5.29855 4.74879 7.85377 4.44536 8.74729 4.32848C8.90776 4.3075 9.02081 4.16043 8.9998 4C8.97882 3.83957 8.83175 3.72672 8.67132 3.7475C7.61533 3.88563 5.01409 4.21261 4.34006 4.84246C3.56381 5.56731 3.54256 6.70134 3.58358 7.70763C3.59709 8.0338 3.54143 8.62728 3.47697 9.31451C3.40729 10.0578 3.32826 10.9004 3.29572 11.773C3.28369 12.1028 2.78841 13.4122 2.7042 15.5445C2.60716 18.0155 2.88021 21.6922 2.88299 21.7291C2.89447 21.8819 3.02185 22.0001 3.17514 22.0001H5.13308C5.27253 22.0001 5.39269 21.9018 5.42027 21.765C5.44781 21.6286 6.09574 18.3986 6.2098 16.2394C6.22344 15.9829 6.18597 15.6266 6.14629 15.2494C6.02527 14.0978 6.06586 14.3245 6.22887 13.1082C6.33078 12.3476 6.44894 11.4659 6.65484 10.69C6.87082 11.7531 7.29993 12.7404 7.59469 13.5271Z" fill="#2E2F31"/>
<path d="M21.2954 15.5445C21.2099 13.3787 20.7165 12.1187 20.7039 11.7729C20.6793 11.1122 20.5375 8.92911 20.4998 8.5C20.4857 8.33883 20.3435 8.21973 20.1824 8.23375C20.0212 8.24789 19.902 8.39 19.9161 8.55121C19.9532 8.97399 20.0942 11.1473 20.1183 11.7945C20.1352 12.2542 20.6263 13.4482 20.7099 15.5675C20.7905 17.6178 20.6118 20.5218 20.5514 21.4142H19.1077C18.9549 20.6211 18.4693 17.996 18.3749 16.2085C18.3637 15.9981 18.4005 15.6486 18.436 15.3107C18.5674 14.0609 18.5153 14.2531 18.3514 13.0304C18.1887 11.8163 17.9862 10.3054 17.4448 9.29437C17.3017 9.02691 16.8936 9.12875 16.8936 9.43266C16.8936 10.8269 16.2712 12.2135 15.8562 13.3215C15.6689 13.8211 15.4269 15.286 15.4387 15.8495C15.4515 16.4727 15.602 17.3874 15.7762 18.4464C15.9282 19.3701 16.0985 20.4051 16.2032 21.4142H12.2928L12.2928 19.2931C12.2928 19.1313 12.1616 19.0001 11.9998 19.0001C11.838 19.0001 11.7068 19.1313 11.7068 19.2931L11.7068 21.4142H7.79635C7.85096 20.8878 8.13597 19.0363 8.24453 18.3345C8.26925 18.1746 8.15968 18.0249 7.99976 18.0001C7.84007 17.9756 7.69019 18.085 7.66546 18.2449C7.53257 19.1044 7.2376 21.0598 7.18186 21.681C7.16651 21.8521 7.30131 22.0002 7.47366 22.0002H16.5261C16.6985 22.0002 16.8332 21.852 16.8179 21.681C16.7165 20.5515 16.5242 19.3826 16.3545 18.3514C16.1839 17.3144 16.0366 16.4189 16.0246 15.8374C16.0146 15.3556 16.2456 13.9522 16.405 13.5271C16.7014 12.7357 17.1289 11.7528 17.3447 10.6901C17.5506 11.466 17.6688 12.3477 17.7707 13.1083C17.9337 14.3246 17.9743 14.0979 17.8533 15.2495C17.8136 15.6266 17.7762 15.9829 17.7897 16.2395C17.9038 18.3987 18.5518 21.6287 18.5793 21.7651C18.6069 21.9018 18.727 22.0002 18.8665 22.0002H20.8244C20.9777 22.0002 21.1051 21.882 21.1166 21.7292C21.1194 21.6923 21.3925 18.0156 21.2954 15.5445Z" fill="#2E2F31"/>
<path d="M8.69302 4.26899C9.1247 4.21509 9.35099 4.1688 9.50005 4.10391C10.1206 3.83426 10.6652 3.26028 10.7418 2.58582H13.2575C13.3359 3.28957 13.9202 3.85208 14.4996 4.10384C14.7359 4.20669 15.1794 4.25653 15.7933 4.32556C16.9046 4.45048 18.584 4.63927 19.2598 5.27064C19.8547 5.82619 19.8664 6.80741 19.8307 7.68331C19.8187 7.97277 19.8523 8.40921 19.8904 8.83773C19.9039 8.99004 20.0318 9.1048 20.1818 9.10477C20.1905 9.10477 20.1993 9.10437 20.2081 9.10363C20.3693 9.08933 20.4883 8.94703 20.474 8.78586C20.4377 8.37706 20.4055 7.96351 20.4161 7.70741C20.4572 6.70131 20.4359 5.56728 19.6597 4.84247C18.8423 4.07868 17.1178 3.88481 15.8587 3.74329C15.36 3.68719 14.8889 3.63426 14.7333 3.56653C14.2432 3.3536 13.7791 2.85922 13.8403 2.32625C13.8498 2.24328 13.8234 2.16019 13.7679 2.09785C13.7122 2.0355 13.6327 1.99988 13.5492 1.99988H10.4506C10.3671 1.99988 10.2876 2.0355 10.232 2.09785C10.1764 2.16019 10.15 2.24328 10.1596 2.32625C10.2207 2.85922 9.75658 3.3536 9.26642 3.56661C9.13654 3.62313 8.74814 3.67161 8.62048 3.68758C8.45993 3.70766 8.34599 3.85407 8.36606 4.01462C8.38614 4.17516 8.5322 4.28895 8.69302 4.26899Z" fill="#2E2F31"/>
<path d="M10.9404 5.22514C10.9358 5.24432 10.4656 7.16008 9.08801 8.50883C8.97239 8.62204 8.97044 8.80751 9.08364 8.92313C9.1968 9.03872 9.38231 9.04071 9.49794 8.92751C10.9998 7.45711 11.4903 5.44554 11.5104 5.36061C11.5478 5.20327 11.4505 5.04557 11.2932 5.00811C11.1358 4.97077 10.978 5.06792 10.9404 5.22514V5.22514Z" fill="#2E2F31"/>
<path d="M13.4588 5.22439C13.4291 5.06756 13.3037 4.97075 13.1788 5.00776C13.0537 5.04504 12.9764 5.2025 13.0061 5.35948C13.0221 5.44417 13.4116 7.45018 14.6043 8.91651C14.6961 9.02936 14.8434 9.02745 14.9333 8.91214C15.0232 8.79684 15.0217 8.61188 14.9299 8.49899C13.8363 7.15447 13.4628 5.24496 13.4588 5.22439Z" fill="#2E2F31"/>
<path fill-rule="evenodd" clip-rule="evenodd" d="M13.5267 6.23026C13.5887 6.2249 13.6514 6.22217 13.7147 6.22217C13.7781 6.22217 13.8408 6.2249 13.9028 6.23026C14.0192 6.24032 14.1055 6.34288 14.0954 6.45933C14.0854 6.57579 13.9828 6.66203 13.8664 6.65197C13.8164 6.64766 13.7659 6.64545 13.7147 6.64545C13.6636 6.64545 13.613 6.64766 13.5631 6.65197C13.4467 6.66203 13.3441 6.57579 13.3341 6.45933C13.324 6.34288 13.4102 6.24032 13.5267 6.23026ZM14.3461 6.52625C14.3955 6.42035 14.5215 6.3746 14.6274 6.42407C14.7418 6.47753 14.8508 6.54071 14.9532 6.61253C15.0489 6.67966 15.072 6.81164 15.0049 6.90733C14.9378 7.00302 14.8058 7.02618 14.7101 6.95905C14.6277 6.90128 14.5402 6.85051 14.4483 6.80757C14.3424 6.75811 14.2966 6.63215 14.3461 6.52625ZM15.1883 7.09076C15.284 7.02363 15.416 7.04679 15.4831 7.14248C15.5549 7.24486 15.6181 7.35381 15.6716 7.46826C15.7211 7.57416 15.6753 7.70012 15.5694 7.74958C15.4635 7.79905 15.3376 7.7533 15.2881 7.6474C15.2451 7.55549 15.1944 7.46792 15.1366 7.38556C15.0695 7.28987 15.0926 7.15788 15.1883 7.09076ZM15.6363 8.00022C15.7528 7.99016 15.8553 8.07641 15.8654 8.19286C15.8708 8.25488 15.8735 8.3176 15.8735 8.38091C15.8735 8.44422 15.8708 8.50695 15.8654 8.56897C15.8553 8.68542 15.7528 8.77167 15.6363 8.76161C15.5199 8.75154 15.4336 8.64898 15.4437 8.53253C15.448 8.48261 15.4502 8.43205 15.4502 8.38091C15.4502 8.32978 15.448 8.27921 15.4437 8.2293C15.4336 8.11285 15.5199 8.01028 15.6363 8.00022ZM15.5694 9.01224C15.6753 9.06171 15.7211 9.18767 15.6716 9.29357C15.6181 9.40802 15.5549 9.51697 15.4831 9.61935C15.416 9.71504 15.284 9.73819 15.1883 9.67107C15.0926 9.60394 15.0695 9.47195 15.1366 9.37627C15.1944 9.29391 15.2452 9.20634 15.2881 9.11443C15.3376 9.00852 15.4635 8.96278 15.5694 9.01224ZM15.0049 9.85449C15.072 9.95018 15.0489 10.0822 14.9532 10.1493C14.8508 10.2211 14.7418 10.2843 14.6274 10.3378C14.5215 10.3872 14.3955 10.3415 14.3461 10.2356C14.2966 10.1297 14.3424 10.0037 14.4483 9.95425C14.5402 9.91132 14.6277 9.86055 14.7101 9.80277C14.8058 9.73565 14.9378 9.7588 15.0049 9.85449ZM13.3341 10.3025C13.3441 10.186 13.4467 10.0998 13.5631 10.1099C13.613 10.1142 13.6636 10.1164 13.7147 10.1164C13.7659 10.1164 13.8164 10.1142 13.8664 10.1099C13.9828 10.0998 14.0854 10.186 14.0954 10.3025C14.1055 10.4189 14.0192 10.5215 13.9028 10.5316C13.8408 10.5369 13.7781 10.5397 13.7147 10.5397C13.6514 10.5397 13.5887 10.5369 13.5267 10.5316C13.4102 10.5215 13.324 10.4189 13.3341 10.3025Z" fill="#EF1733"/>
<path fill-rule="evenodd" clip-rule="evenodd" d="M13.9023 6.23026C13.8402 6.2249 13.7775 6.22217 13.7142 6.22217C13.6509 6.22217 13.5882 6.2249 13.5262 6.23026C13.4097 6.24032 13.3235 6.34288 13.3335 6.45933C13.3436 6.57579 13.4461 6.66203 13.5626 6.65197C13.6125 6.64766 13.6631 6.64545 13.7142 6.64545C13.7653 6.64545 13.8159 6.64766 13.8658 6.65197C13.9823 6.66203 14.0848 6.57579 14.0949 6.45933C14.105 6.34288 14.0187 6.24032 13.9023 6.23026ZM13.0829 6.52625C13.0334 6.42035 12.9075 6.3746 12.8016 6.42407C12.6871 6.47753 12.5782 6.54071 12.4758 6.61253C12.3801 6.67966 12.3569 6.81164 12.4241 6.90733C12.4912 7.00302 12.6232 7.02618 12.7189 6.95905C12.8012 6.90128 12.8888 6.85051 12.9807 6.80757C13.0866 6.75811 13.1324 6.63215 13.0829 6.52625ZM12.2406 7.09076C12.1449 7.02363 12.013 7.04679 11.9458 7.14248C11.874 7.24486 11.8108 7.35381 11.7574 7.46826C11.7079 7.57416 11.7536 7.70012 11.8596 7.74958C11.9655 7.79905 12.0914 7.7533 12.1409 7.6474C12.1838 7.55549 12.2346 7.46792 12.2924 7.38556C12.3595 7.28987 12.3363 7.15788 12.2406 7.09076ZM11.7926 8.00022C11.6762 7.99016 11.5736 8.07641 11.5636 8.19286C11.5582 8.25488 11.5555 8.3176 11.5555 8.38091C11.5555 8.44422 11.5582 8.50695 11.5636 8.56897C11.5736 8.68542 11.6762 8.77167 11.7926 8.76161C11.9091 8.75154 11.9953 8.64898 11.9853 8.53253C11.981 8.48261 11.9788 8.43205 11.9788 8.38091C11.9788 8.32978 11.981 8.27921 11.9853 8.2293C11.9953 8.11285 11.9091 8.01028 11.7926 8.00022ZM11.8596 9.01224C11.7536 9.06171 11.7079 9.18767 11.7574 9.29357C11.8108 9.40802 11.874 9.51697 11.9458 9.61935C12.013 9.71504 12.1449 9.73819 12.2406 9.67107C12.3363 9.60394 12.3595 9.47195 12.2924 9.37627C12.2346 9.29391 12.1838 9.20634 12.1409 9.11443C12.0914 9.00852 11.9655 8.96278 11.8596 9.01224ZM12.4241 9.85449C12.3569 9.95018 12.3801 10.0822 12.4758 10.1493C12.5782 10.2211 12.6871 10.2843 12.8016 10.3378C12.9075 10.3872 13.0334 10.3415 13.0829 10.2356C13.1324 10.1297 13.0866 10.0037 12.9807 9.95425C12.8888 9.91132 12.8012 9.86055 12.7189 9.80277C12.6232 9.73565 12.4912 9.7588 12.4241 9.85449ZM14.0949 10.3025C14.0848 10.186 13.9823 10.0998 13.8658 10.1099C13.8159 10.1142 13.7653 10.1164 13.7142 10.1164C13.6631 10.1164 13.6125 10.1142 13.5626 10.1099C13.4461 10.0998 13.3436 10.186 13.3335 10.3025C13.3235 10.4189 13.4097 10.5215 13.5262 10.5316C13.5882 10.5369 13.6509 10.5397 13.7142 10.5397C13.7775 10.5397 13.8402 10.5369 13.9023 10.5316C14.0187 10.5215 14.105 10.4189 14.0949 10.3025Z" fill="#EF1733"/>
</svg>
