<svg width="24" height="24" viewBox="0 0 24 24" fill="none" xmlns="http://www.w3.org/2000/svg">
<g clip-path="url(#clip0)">
<path d="M10.7477 17.8825H10.1128C9.75207 17.8825 9.4173 17.702 9.21765 17.4002L9 17.0717L9.38901 16.8108L9.60666 17.1392C9.71957 17.31 9.90893 17.4119 10.1128 17.4119H10.7477C10.7877 17.4119 10.8277 17.4079 10.8667 17.3999L11.6532 17.2418C11.7184 17.2284 11.7661 17.17 11.7661 17.103V16H12.2336V17.103C12.2336 17.3933 12.0281 17.646 11.745 17.7032L10.9586 17.8613C10.8899 17.8754 10.8188 17.8825 10.7477 17.8825Z" fill="#2E2F31"/>
<path d="M10.866 20H10.1128C9.75207 20 9.4173 19.8196 9.21765 19.5177L9 19.1893L9.38901 18.9283L9.60666 19.2568C9.71957 19.4276 9.90893 19.5295 10.1128 19.5295H10.866C10.96 19.5295 11.0545 19.5071 11.1381 19.465L11.6885 19.1879C11.7362 19.1636 11.7661 19.1152 11.7661 19.0615V18.1178H12.2336V19.0615C12.2336 19.2944 12.1048 19.5043 11.8977 19.6088L11.3471 19.8859C11.1989 19.9605 11.0325 20 10.866 20Z" fill="#2E2F31"/>
<path d="M13.8874 17.8825H13.2525C13.1814 17.8825 13.1106 17.8754 13.0414 17.8613L12.2554 17.7032C11.9721 17.646 11.7666 17.3936 11.7666 17.103V16H12.2342V17.103C12.2342 17.17 12.2818 17.2284 12.3473 17.2418L13.1333 17.3999C13.1725 17.4079 13.2125 17.4119 13.2525 17.4119H13.8874C14.0913 17.4119 14.2807 17.3098 14.3936 17.1392L14.6112 16.8108L15.0002 17.0717L14.7826 17.4002C14.5827 17.702 14.2482 17.8825 13.8874 17.8825Z" fill="#2E2F31"/>
<path d="M10.7477 15.8825H10.1128C9.75207 15.8825 9.4173 15.702 9.21765 15.4002L9 15.0717L9.38901 14.8108L9.60666 15.1392C9.71957 15.31 9.90893 15.4119 10.1128 15.4119H10.7477C10.7877 15.4119 10.8277 15.4079 10.8667 15.3999L11.6532 15.2418C11.7184 15.2284 11.7661 15.17 11.7661 15.103V14H12.2336V15.103C12.2336 15.3933 12.0281 15.646 11.745 15.7032L10.9586 15.8613C10.8899 15.8754 10.8188 15.8825 10.7477 15.8825Z" fill="#2E2F31"/>
<path d="M13.8874 15.8825H13.2525C13.1814 15.8825 13.1106 15.8754 13.0414 15.8613L12.2554 15.7032C11.9721 15.646 11.7666 15.3936 11.7666 15.103V14H12.2342V15.103C12.2342 15.17 12.2818 15.2284 12.3473 15.2418L13.1333 15.3999C13.1725 15.4079 13.2125 15.4119 13.2525 15.4119H13.8874C14.0913 15.4119 14.2807 15.3098 14.3936 15.1392L14.6112 14.8108L15.0002 15.0717L14.7826 15.4002C14.5827 15.702 14.2482 15.8825 13.8874 15.8825Z" fill="#2E2F31"/>
<path d="M13.8872 20H13.134C12.9675 20 12.8011 19.9605 12.6526 19.8859L12.1021 19.6088C11.8947 19.5043 11.7661 19.2944 11.7661 19.0615V18.1178H12.2337V19.0615C12.2337 19.1154 12.2636 19.1639 12.3115 19.1879L12.8618 19.465C12.9455 19.5074 13.04 19.5295 13.134 19.5295H13.8872C14.091 19.5295 14.2804 19.4274 14.3933 19.2568L14.611 18.9283L15 19.1893L14.7823 19.5177C14.5824 19.8196 14.2479 20 13.8872 20Z" fill="#2E2F31"/>
<path fill-rule="evenodd" clip-rule="evenodd" d="M8.21713 13.0091C8.2869 13.0031 8.35746 13 8.42869 13C8.49991 13 8.57048 13.0031 8.64025 13.0091C8.77126 13.0204 8.86829 13.1358 8.85697 13.2668C8.84565 13.3978 8.73026 13.4948 8.59926 13.4835C8.5431 13.4787 8.48621 13.4762 8.42869 13.4762C8.37116 13.4762 8.31428 13.4787 8.25812 13.4835C8.12711 13.4948 8.01173 13.3978 8.00041 13.2668C7.98909 13.1358 8.08612 13.0204 8.21713 13.0091ZM9.13893 13.3421C9.19459 13.223 9.33628 13.1715 9.45542 13.2271C9.58418 13.2873 9.70675 13.3584 9.82193 13.4392C9.92958 13.5147 9.95563 13.6632 9.88011 13.7708C9.8046 13.8785 9.65611 13.9045 9.54846 13.829C9.4558 13.764 9.35729 13.7069 9.25389 13.6586C9.13475 13.6029 9.08328 13.4612 9.13893 13.3421ZM10.0865 13.9772C10.1941 13.9016 10.3426 13.9277 10.4181 14.0353C10.4989 14.1505 10.57 14.2731 10.6301 14.4019C10.6858 14.521 10.6343 14.6627 10.5152 14.7183C10.396 14.774 10.2543 14.7225 10.1987 14.6034C10.1504 14.5 10.0933 14.4015 10.0283 14.3088C9.95276 14.2012 9.97881 14.0527 10.0865 13.9772ZM10.5905 15.0003C10.7215 14.989 10.8369 15.086 10.8482 15.217C10.8542 15.2868 10.8573 15.3574 10.8573 15.4286C10.8573 15.4998 10.8542 15.5704 10.8482 15.6402C10.8369 15.7712 10.7215 15.8682 10.5905 15.8569C10.4595 15.8455 10.3624 15.7302 10.3737 15.5992C10.3786 15.543 10.3811 15.4861 10.3811 15.4286C10.3811 15.3711 10.3786 15.3142 10.3737 15.258C10.3624 15.127 10.4595 15.0116 10.5905 15.0003ZM10.5152 16.1388C10.6343 16.1945 10.6858 16.3362 10.6301 16.4553C10.57 16.5841 10.4989 16.7066 10.4181 16.8218C10.3426 16.9295 10.1941 16.9555 10.0865 16.88C9.97881 16.8045 9.95276 16.656 10.0283 16.5484C10.0933 16.4557 10.1504 16.3572 10.1987 16.2538C10.2543 16.1347 10.396 16.0832 10.5152 16.1388ZM9.88011 17.0864C9.95563 17.194 9.92958 17.3425 9.82193 17.418C9.70675 17.4988 9.58418 17.5699 9.45542 17.63C9.33628 17.6857 9.19459 17.6342 9.13893 17.5151C9.08328 17.3959 9.13475 17.2542 9.25389 17.1986C9.35729 17.1503 9.4558 17.0932 9.54846 17.0282C9.65611 16.9527 9.8046 16.9787 9.88011 17.0864ZM8.00041 17.5904C8.01173 17.4594 8.12711 17.3623 8.25812 17.3737C8.31428 17.3785 8.37116 17.381 8.42869 17.381C8.48621 17.381 8.5431 17.3785 8.59926 17.3737C8.73026 17.3623 8.84565 17.4594 8.85697 17.5904C8.86829 17.7214 8.77126 17.8368 8.64025 17.8481C8.57048 17.8541 8.49991 17.8572 8.42869 17.8572C8.35746 17.8572 8.2869 17.8541 8.21713 17.8481C8.08612 17.8368 7.98909 17.7214 8.00041 17.5904Z" fill="#EF1733"/>
<path fill-rule="evenodd" clip-rule="evenodd" d="M15.6401 13.0091C15.5703 13.0031 15.4997 13 15.4285 13C15.3573 13 15.2867 13.0031 15.2169 13.0091C15.0859 13.0204 14.9889 13.1358 15.0002 13.2668C15.0115 13.3978 15.1269 13.4948 15.2579 13.4835C15.3141 13.4787 15.371 13.4762 15.4285 13.4762C15.486 13.4762 15.5429 13.4787 15.5991 13.4835C15.7301 13.4948 15.8454 13.3978 15.8568 13.2668C15.8681 13.1358 15.7711 13.0204 15.6401 13.0091ZM14.7182 13.3421C14.6626 13.223 14.5209 13.1715 14.4018 13.2271C14.273 13.2873 14.1504 13.3584 14.0353 13.4392C13.9276 13.5147 13.9015 13.6632 13.9771 13.7708C14.0526 13.8785 14.2011 13.9045 14.3087 13.829C14.4014 13.764 14.4999 13.7069 14.6033 13.6586C14.7224 13.6029 14.7739 13.4612 14.7182 13.3421ZM13.7707 13.9772C13.6631 13.9016 13.5146 13.9277 13.4391 14.0353C13.3583 14.1505 13.2872 14.2731 13.227 14.4019C13.1714 14.521 13.2229 14.6627 13.342 14.7183C13.4611 14.774 13.6028 14.7225 13.6585 14.6034C13.7068 14.5 13.7639 14.4015 13.8289 14.3088C13.9044 14.2012 13.8784 14.0527 13.7707 13.9772ZM13.2667 15.0003C13.1357 14.989 13.0203 15.086 13.009 15.217C13.003 15.2868 12.9999 15.3574 12.9999 15.4286C12.9999 15.4998 13.003 15.5704 13.009 15.6402C13.0203 15.7712 13.1357 15.8682 13.2667 15.8569C13.3977 15.8455 13.4947 15.7302 13.4834 15.5992C13.4786 15.543 13.4761 15.4861 13.4761 15.4286C13.4761 15.3711 13.4786 15.3142 13.4834 15.258C13.4947 15.127 13.3977 15.0116 13.2667 15.0003ZM13.342 16.1388C13.2229 16.1945 13.1714 16.3362 13.227 16.4553C13.2872 16.5841 13.3583 16.7066 13.4391 16.8218C13.5146 16.9295 13.6631 16.9555 13.7707 16.88C13.8784 16.8045 13.9044 16.656 13.8289 16.5484C13.7639 16.4557 13.7068 16.3572 13.6585 16.2538C13.6028 16.1347 13.4611 16.0832 13.342 16.1388ZM13.9771 17.0864C13.9015 17.194 13.9276 17.3425 14.0353 17.418C14.1504 17.4988 14.273 17.5699 14.4018 17.63C14.5209 17.6857 14.6626 17.6342 14.7182 17.5151C14.7739 17.3959 14.7224 17.2542 14.6033 17.1986C14.4999 17.1503 14.4014 17.0932 14.3087 17.0282C14.2011 16.9527 14.0526 16.9787 13.9771 17.0864ZM15.8568 17.5904C15.8454 17.4594 15.7301 17.3623 15.5991 17.3737C15.5429 17.3785 15.486 17.381 15.4285 17.381C15.371 17.381 15.3141 17.3785 15.2579 17.3737C15.1269 17.3623 15.0115 17.4594 15.0002 17.5904C14.9889 17.7214 15.0859 17.8368 15.2169 17.8481C15.2867 17.8541 15.3573 17.8572 15.4285 17.8572C15.4997 17.8572 15.5703 17.8541 15.6401 17.8481C15.7711 17.8368 15.8681 17.7214 15.8568 17.5904Z" fill="#EF1733"/>
<path d="M7.59491 13.5271C7.75424 13.9521 7.9853 15.3555 7.97526 15.8373C7.96335 16.4181 7.80874 17.358 7.65924 18.267C7.63299 18.4267 7.74112 18.5774 7.90077 18.6036C8.06018 18.6301 8.2112 18.5217 8.23741 18.3621C8.39729 17.39 8.54831 16.4719 8.56108 15.8494C8.57284 15.2859 8.33088 13.821 8.14358 13.3214C7.74253 12.251 7.1062 10.8396 7.1062 9.43257C7.1062 9.12901 6.69831 9.02659 6.55495 9.29428C6.01358 10.3053 5.81108 11.8162 5.64838 13.0303C5.48483 14.2507 5.43245 14.0612 5.56381 15.3106C5.59936 15.6485 5.63608 15.998 5.62491 16.2084C5.53053 17.9954 5.04487 20.621 4.89213 21.414H3.4485C3.38807 20.5217 3.2094 17.6181 3.28991 15.5674C3.37362 13.447 3.86463 12.2545 3.88147 11.7946C3.91338 10.9387 3.99155 10.1048 4.06057 9.36917C4.12975 8.63159 4.1844 8.04905 4.16924 7.68354C4.1335 6.80745 4.14522 5.82624 4.74026 5.27066C5.29878 4.74878 7.85398 4.44535 8.7475 4.32848C8.90797 4.3075 9.02102 4.16043 9 4C8.97902 3.83957 8.83195 3.72672 8.67152 3.7475C7.61555 3.88563 5.01432 4.21261 4.3403 4.84245C3.56405 5.5673 3.5428 6.70132 3.58381 7.70761C3.59733 8.03378 3.54167 8.62725 3.47721 9.31448C3.40753 10.0578 3.3285 10.9004 3.29596 11.773C3.28393 12.1027 2.78866 13.4122 2.70444 15.5444C2.60741 18.0155 2.88045 21.6921 2.88323 21.729C2.89471 21.8818 3.0221 22 3.17538 22H5.13331C5.27276 22 5.39292 21.9017 5.42049 21.7649C5.44803 21.6285 6.09596 18.3985 6.21003 16.2394C6.22366 15.9828 6.1862 15.6265 6.14651 15.2493C6.02549 14.0978 6.06608 14.3244 6.22909 13.1081C6.331 12.3476 6.44917 11.4658 6.65506 10.6899C6.87104 11.753 7.30014 12.7403 7.59491 13.5271Z" fill="#2E2F31"/>
<path d="M21.2956 15.5444C21.2101 13.3786 20.7167 12.1186 20.7041 11.7728C20.6794 11.1122 20.5376 8.9291 20.5 8.5C20.4859 8.33883 20.3437 8.21973 20.1826 8.23375C20.0214 8.24789 19.9022 8.39 19.9163 8.55121C19.9534 8.97399 20.0944 11.1473 20.1185 11.7945C20.1354 12.2542 20.6264 13.4482 20.7101 15.5675C20.7906 17.6177 20.6119 20.5217 20.5515 21.4141H19.1079C18.9551 20.621 18.4695 17.996 18.3751 16.2084C18.3639 15.998 18.4007 15.6486 18.4362 15.3107C18.5676 14.0609 18.5155 14.2531 18.3516 13.0303C18.1889 11.8163 17.9864 10.3053 17.445 9.29437C17.3019 9.02691 16.8938 9.12874 16.8938 9.43265C16.8938 10.8269 16.2714 12.2135 15.8564 13.3214C15.6691 13.8211 15.4271 15.286 15.4389 15.8495C15.4517 16.4727 15.6022 17.3873 15.7764 18.4463C15.9284 19.37 16.0987 20.405 16.2034 21.4141L8.5 21.5L12.293 21.793C12.293 21.6311 12.1618 21.5 12 21.5C11.8382 21.5 11.707 21.6311 11.707 21.793L14 21.5L7.79659 21.4141C7.8512 20.8877 8.13621 19.0363 8.24477 18.3344C8.26949 18.1745 8.15992 18.0248 8 18.0001C7.84031 17.9755 7.69043 18.0849 7.6657 18.2448C7.53281 19.1043 7.23784 21.0597 7.1821 21.6809C7.16675 21.852 7.30155 22.0001 7.4739 22.0001H16.5262C16.6987 22.0001 16.8334 21.8519 16.818 21.6809C16.7167 20.5514 16.5244 19.3825 16.3547 18.3513C16.1841 17.3144 16.0367 16.4188 16.0248 15.8374C16.0148 15.3555 16.2458 13.9522 16.4052 13.5271C16.7016 12.7357 17.1291 11.7527 17.3449 10.6901C17.5508 11.4659 17.669 12.3477 17.7709 13.1082C17.9339 14.3245 17.9745 14.0979 17.8535 15.2494C17.8138 15.6266 17.7764 15.9829 17.7899 16.2394C17.904 18.3986 18.5519 21.6286 18.5795 21.765C18.6071 21.9018 18.7272 22.0001 18.8667 22.0001H20.8246C20.9779 22.0001 21.1053 21.882 21.1167 21.7291C21.1196 21.6922 21.3926 18.0155 21.2956 15.5444Z" fill="#2E2F31"/>
<path d="M8.69326 4.2691C9.12494 4.2152 9.35123 4.16891 9.50029 4.10402C10.1208 3.83438 10.6654 3.26039 10.742 2.58594H13.2577C13.3361 3.28969 13.9204 3.85219 14.4998 4.10395C14.7361 4.2068 15.1796 4.25664 15.7935 4.32566C16.9048 4.45059 18.5842 4.63938 19.2599 5.27074C19.8549 5.82629 19.8666 6.8075 19.8309 7.6834C19.8189 7.97285 19.8525 8.4093 19.8905 8.83781C19.9041 8.99012 20.0319 9.10488 20.182 9.10484C20.1907 9.10484 20.1995 9.10445 20.2083 9.10371C20.3694 9.08941 20.4885 8.94711 20.4742 8.78594C20.4378 8.37715 20.4057 7.96359 20.4163 7.7075C20.4573 6.70141 20.4361 5.56738 19.6599 4.84258C18.8425 4.07879 17.118 3.88492 15.8589 3.7434C15.3602 3.6873 14.8891 3.63437 14.7335 3.56664C14.2434 3.35371 13.7794 2.85934 13.8405 2.32637C13.85 2.2434 13.8237 2.16031 13.7681 2.09797C13.7124 2.03562 13.6329 2 13.5494 2H10.4508C10.3673 2 10.2878 2.03562 10.2322 2.09797C10.1766 2.16031 10.1503 2.2434 10.1598 2.32637C10.2209 2.85934 9.75682 3.35371 9.26666 3.56672C9.13678 3.62324 8.74838 3.67172 8.62072 3.6877C8.46017 3.70777 8.34623 3.85418 8.36631 4.01473C8.38639 4.17527 8.53244 4.28906 8.69326 4.2691Z" fill="#2E2F31"/>
</g>
<defs>
<clipPath id="clip0">
<rect width="20" height="20" fill="white" transform="translate(2 2)"/>
</clipPath>
</defs>
</svg>
