<svg width="24" height="24" viewBox="0 0 24 24" fill="none" xmlns="http://www.w3.org/2000/svg">
<path d="M4.77109 8.83285L4.91674 8.83114C6.94795 8.83114 8.77544 10.0155 9.7048 11.8701C10.2894 11.5951 10.9233 11.4387 11.5833 11.4387C12.6736 11.4387 13.699 11.8442 14.5107 12.5504C14.5264 11.8038 14.6196 11.0603 14.7106 10.3998C14.7885 9.83503 14.8633 9.28706 14.8682 8.83077L12.7616 8.83114C12.4279 8.83114 12.1138 8.69534 11.8778 8.44917L10.2112 6.71075C9.73483 6.21388 9.73155 5.41693 10.1863 4.90625C10.0274 4.65796 9.95178 4.36057 9.98088 4.05691C10.0179 3.66687 10.2185 3.31802 10.5314 3.10069L11.543 2.39745C12.0316 2.05749 12.6009 1.87756 13.1888 1.87756C14.4144 1.87756 15.5663 2.37541 16.433 3.27939C18.0292 4.94435 19.2853 6.85083 20.1674 8.94616C21.2302 11.4706 21.769 13.3329 21.769 14.481C21.769 15.1388 21.8235 15.6731 21.9313 16.0696C22.1616 16.9163 21.7991 17.8194 21.05 18.2659C18.0491 20.0544 14.6361 21 11.18 21H10.5774C8.4351 21 6.31847 20.6417 4.28602 19.9351L3.99427 19.8333C2.80168 19.419 2.00009 18.2591 2.00009 16.9477V11.8772C2.00013 10.2406 3.24319 8.87486 4.77109 8.83285ZM2.83348 16.9477C2.83348 17.8844 3.40596 18.7128 4.2584 19.0091L4.55015 19.1109C6.49671 19.7874 8.52467 20.1308 10.5774 20.1308H11.18C14.4913 20.1308 17.7615 19.2251 20.6366 17.5113C21.0525 17.2634 21.2551 16.7681 21.1298 16.3068C21.0008 15.8335 20.9357 15.219 20.9357 14.4809C20.9357 13.4683 20.4063 11.6755 19.4041 9.29586C18.5643 7.29942 17.3664 5.48208 15.8438 3.89393C15.1346 3.15419 14.1918 2.74675 13.1889 2.74675C12.7661 2.74675 12.3568 2.87619 12.0052 3.12066L10.9937 3.82389C10.8891 3.89646 10.8224 4.01274 10.8102 4.14263C10.7975 4.27293 10.8415 4.40025 10.9298 4.49278L12.2608 5.88105C12.4032 6.0296 12.62 6.0661 12.7999 5.97231C12.9358 5.90142 13.0277 5.77112 13.0521 5.61454C13.0766 5.45796 13.0289 5.30387 12.9215 5.19182L12.5386 4.79245C12.3759 4.62267 12.3759 4.34765 12.5386 4.17792C12.7014 4.00814 12.9651 4.00814 13.1278 4.17792L13.5107 4.57729C13.8097 4.88922 13.9428 5.31833 13.8749 5.75417C13.8069 6.18964 13.551 6.5525 13.1726 6.74987C12.6721 7.01046 12.0679 6.90946 11.6715 6.49563L10.7602 5.54499C10.6475 5.71424 10.6559 5.94558 10.8004 6.09625L12.467 7.83467C12.5448 7.91575 12.6522 7.96199 12.7616 7.96199L14.7072 7.96167C14.681 7.91656 14.656 7.87016 14.6219 7.83467C14.4592 7.66489 14.4592 7.38987 14.6219 7.22013C14.7847 7.05035 15.0484 7.05035 15.2111 7.22013C15.8927 7.93103 15.727 9.13256 15.5354 10.5238C15.4361 11.2461 15.3332 11.9931 15.3332 12.7426C15.3332 14.5328 16.632 14.9139 16.6873 14.9292C16.9087 14.989 17.0429 15.2237 16.9872 15.4555C16.94 15.6532 16.7703 15.7848 16.5836 15.7848C16.5502 15.7848 16.516 15.7806 16.4823 15.7716C15.9834 15.6416 15.1658 15.1422 14.7548 14.1179C14.7491 14.11 14.7399 14.107 14.7346 14.0986C14.0397 12.9773 12.8617 12.308 11.5833 12.308C10.588 12.308 9.65054 12.7103 8.94376 13.4412C8.78017 13.6101 8.51611 13.6092 8.3546 13.4386C8.19265 13.268 8.19347 12.993 8.35706 12.8241C8.54982 12.6247 8.76115 12.4528 8.97966 12.2944C8.19651 10.7121 6.64366 9.70037 4.91678 9.70037L4.7935 9.70208C3.71279 9.73178 2.83351 10.7075 2.83351 11.8772V16.9477H2.83348Z" fill="#2E2F31"/>
<path d="M5.08018 17.855C5.01333 17.9087 4.94696 17.9621 4.8813 18.0154C4.71834 18.1478 4.69662 18.3918 4.83307 18.5604C4.96937 18.7291 5.20999 18.7597 5.37508 18.6261C5.4398 18.5735 5.50523 18.5209 5.57082 18.4681C5.73468 18.3365 5.75753 18.0927 5.62186 17.9236C5.48837 17.7566 5.25052 17.7244 5.08698 17.8495C5.08462 17.8513 5.08254 17.8532 5.08018 17.855Z" fill="#EF1733"/>
<path d="M7.21984 17.1165C7.13191 17.1186 7.04421 17.121 6.95671 17.1235L6.95262 17.1237C6.73786 17.1323 6.56946 17.3124 6.57583 17.5278C6.58245 17.7445 6.76324 17.9149 6.98014 17.9087C7.0664 17.9061 7.15308 17.9036 7.23977 17.9014C7.45816 17.8963 7.62776 17.7158 7.62236 17.4989C7.61676 17.2821 7.43656 17.1109 7.21984 17.1165Z" fill="#EF1733"/>
<path d="M9.10061 18.1247C9.31497 18.1682 9.52025 18.0296 9.5628 17.8172C9.60562 17.6044 9.4677 17.3975 9.2551 17.3548C9.16897 17.3375 9.0826 17.3204 8.99601 17.3035C8.99 17.3022 8.98372 17.3012 8.97765 17.3003C8.7715 17.2699 8.5758 17.4065 8.53533 17.6133C8.49356 17.826 8.63238 18.0324 8.84513 18.0742C8.93031 18.0909 9.01549 18.1076 9.10061 18.1247Z" fill="#EF1733"/>
<path d="M12.6546 19.9096C12.7998 20.064 13.0447 20.0679 13.2015 19.9183C13.3583 19.7686 13.3676 19.522 13.2222 19.3677C13.1635 19.3051 13.1037 19.2423 13.0428 19.179C13.0287 19.1645 13.0139 19.1513 12.9981 19.1393C12.8498 19.0274 12.6359 19.0397 12.4955 19.1766C12.3405 19.3279 12.3341 19.5746 12.4812 19.7274C12.54 19.7885 12.5978 19.8492 12.6546 19.9096Z" fill="#EF1733"/>
<path d="M11.1739 18.7444C11.3738 18.8299 11.6041 18.7368 11.6892 18.5374C11.7743 18.3379 11.6816 18.1072 11.482 18.0221C11.4013 17.9877 11.3202 17.9534 11.2385 17.9192C11.2276 17.9145 11.2162 17.9104 11.2051 17.9069C11.0135 17.8462 10.804 17.9407 10.7246 18.1296C10.6408 18.3296 10.735 18.5596 10.9352 18.6436C11.0153 18.6772 11.0949 18.7108 11.1739 18.7444Z" fill="#EF1733"/>
</svg>
