<svg width="24" height="24" viewBox="0 0 24 24" fill="none" xmlns="http://www.w3.org/2000/svg">
<path d="M19.8595 3H4.68597C3.75611 3 3 3.75611 3 4.68597V19.8595C3 20.7894 3.75611 21.5455 4.68597 21.5455H19.8595C20.7894 21.5455 21.5455 20.7894 21.5455 19.8595V4.68597C21.5455 3.75611 20.7894 3 19.8595 3ZM20.5 19.5C20.5 20.5 19.9647 20.5 19.5 20.5H5C4 20.5 4 19.9647 4 19.5V5C4 4.5 4.5 4 5 4H12.5H19.5C20.5 4 20.5 4.53531 20.5 5V19.5Z" fill="#2E2F31"/>
<path d="M12 6C10.1538 6 8.41791 6.74079 7.11251 8.08634C6.9625 8.24093 6.9625 8.49133 7.11251 8.64588L9.28456 10.8841C9.43457 11.0386 9.67758 11.0386 9.82756 10.8841C11.0253 9.6498 12.9747 9.6498 14.1724 10.8841C14.2474 10.9613 14.3457 11 14.4439 11C14.5422 11 14.6404 10.9613 14.7154 10.8841L16.8875 8.64588C17.0375 8.4913 17.0375 8.24089 16.8875 8.08634C15.5821 6.74079 13.8462 6 12 6ZM14.4304 10.0587C13.7261 9.46432 12.8629 9.16717 12 9.16717C11.6374 9.16717 11.2772 9.23176 10.9262 9.3367L10.4295 8.21036C10.3424 8.01174 10.1152 7.92286 9.92095 8.01404C9.7278 8.10448 9.64269 8.33901 9.73043 8.53804L10.2114 9.62851C9.98773 9.74985 9.77093 9.88867 9.56958 10.0587L7.93524 8.37459C9.0584 7.35056 10.4876 6.79139 12 6.79139C13.5124 6.79139 14.9415 7.35056 16.0647 8.37459L14.4304 10.0587Z" fill="#2E2F31"/>
<path d="M12.3566 14.2756L11.323 15.3843L12.3772 16.8967H11.6434L10.9044 15.8256L10.5943 16.1647V16.8967H10V13H10.5943V15.3358L11.5607 14.2756H12.3566Z" fill="#EF1733"/>
<path d="M12.5091 17.042L13.062 16.8913C13.0827 17.0563 13.1499 17.1909 13.2636 17.2949C13.3807 17.4026 13.5237 17.4564 13.6925 17.4564C14.168 17.4564 14.4057 17.1945 14.4057 16.6706V16.3961C14.3471 16.5074 14.2541 16.5989 14.1266 16.6706C13.9991 16.7424 13.8493 16.7783 13.677 16.7783C13.3394 16.7783 13.0603 16.6581 12.8398 16.4177C12.6228 16.1773 12.5142 15.8723 12.5142 15.5027C12.5142 15.1475 12.6228 14.8461 12.8398 14.5985C13.0569 14.3509 13.3359 14.2271 13.677 14.2271C14.0457 14.2271 14.2937 14.3545 14.4212 14.6093V14.2756H15V16.6491C15 17.0366 14.8949 17.3577 14.6848 17.6125C14.4746 17.8708 14.149 18 13.708 18C13.3842 18 13.112 17.9085 12.8915 17.7255C12.671 17.5425 12.5435 17.3147 12.5091 17.042ZM13.7752 16.2454C13.9681 16.2454 14.1232 16.179 14.2403 16.0463C14.3609 15.9099 14.4212 15.7287 14.4212 15.5027C14.4212 15.2802 14.3609 15.1026 14.2403 14.9699C14.1197 14.8335 13.9647 14.7653 13.7752 14.7653C13.5823 14.7653 13.4238 14.8335 13.2998 14.9699C13.1792 15.1026 13.1189 15.2802 13.1189 15.5027C13.1189 15.7287 13.1792 15.9099 13.2998 16.0463C13.4203 16.179 13.5788 16.2454 13.7752 16.2454Z" fill="#EF1733"/>
</svg>
